<svg width="95" height="158" viewBox="0 0 95 158" fill="none" xmlns="http://www.w3.org/2000/svg">
<path d="M199.83 71.496C199.881 72.0723 199.464 72.8244 198.227 73.7368C197.023 74.6253 195.181 75.5596 192.741 76.5191C187.868 78.4351 180.722 80.4082 171.816 82.3215C154.011 86.1466 129.25 89.7168 101.755 92.1223C74.2596 94.5279 49.2544 95.3117 31.0562 94.6364C21.9536 94.2986 14.5733 93.5964 9.44148 92.5557C6.87175 92.0346 4.89573 91.4342 3.55539 90.7683C2.17912 90.0846 1.63796 89.4163 1.58754 88.84C1.53713 88.2637 1.95402 87.5116 3.19064 86.5993C4.39499 85.7107 6.23674 84.7764 8.67694 83.8169C13.5501 81.9009 20.6963 79.9278 29.602 78.0145C47.4065 74.1894 72.1678 70.6192 99.663 68.2137C127.158 65.8082 152.163 65.0244 170.362 65.6996C179.464 66.0374 186.845 66.7396 191.976 67.7803C194.546 68.3015 196.522 68.9018 197.862 69.5677C199.239 70.2514 199.78 70.9197 199.83 71.496Z" stroke="url(#paint0_linear_3000_1123)"/>
<g filter="url(#filter0_d_3000_1123)">
<ellipse cx="100" cy="75" rx="80" ry="75" fill="url(#paint1_linear_3000_1123)" shape-rendering="crispEdges"/>
</g>
<defs>
<filter id="filter0_d_3000_1123" x="16" y="0" width="168" height="158" filterUnits="userSpaceOnUse" color-interpolation-filters="sRGB">
<feFlood flood-opacity="0" result="BackgroundImageFix"/>
<feColorMatrix in="SourceAlpha" type="matrix" values="0 0 0 0 0 0 0 0 0 0 0 0 0 0 0 0 0 0 127 0" result="hardAlpha"/>
<feOffset dy="4"/>
<feGaussianBlur stdDeviation="2"/>
<feComposite in2="hardAlpha" operator="out"/>
<feColorMatrix type="matrix" values="0 0 0 0 0.619608 0 0 0 0 0 0 0 0 0 1 0 0 0 0.25 0"/>
<feBlend mode="normal" in2="BackgroundImageFix" result="effect1_dropShadow_3000_1123"/>
<feBlend mode="normal" in="SourceGraphic" in2="effect1_dropShadow_3000_1123" result="shape"/>
</filter>
<linearGradient id="paint0_linear_3000_1123" x1="35" y1="93" x2="36.3614" y2="76.6131" gradientUnits="userSpaceOnUse">
<stop stop-color="#1400FF"/>
<stop offset="1" stop-color="white"/>
<stop offset="1" stop-color="white" stop-opacity="0"/>
</linearGradient>
<linearGradient id="paint1_linear_3000_1123" x1="151.5" y1="38" x2="37" y2="120" gradientUnits="userSpaceOnUse">
<stop stop-color="#0094FF"/>
<stop offset="0.928125" stop-color="#9E00FF" stop-opacity="0.6"/>
</linearGradient>
</defs>
</svg>
