<svg width="158" height="32" viewBox="0 0 158 32" fill="none" xmlns="http://www.w3.org/2000/svg">
<path d="M55.5938 6.09375V26H51.8203L43.3574 12.1914V26H39.5977V6.09375H43.3574L51.8477 19.916V6.09375H55.5938ZM65.793 26.2734C64.6719 26.2734 63.6647 26.0911 62.7715 25.7266C61.8783 25.362 61.1172 24.8561 60.4883 24.209C59.8685 23.5527 59.39 22.7917 59.0527 21.9258C58.7246 21.0508 58.5605 20.112 58.5605 19.1094V18.5625C58.5605 17.4232 58.7246 16.3887 59.0527 15.459C59.3809 14.5202 59.8457 13.7135 60.4473 13.0391C61.0488 12.3646 61.7689 11.8451 62.6074 11.4805C63.446 11.1159 64.3711 10.9336 65.3828 10.9336C66.431 10.9336 67.3561 11.1113 68.1582 11.4668C68.9603 11.8132 69.6302 12.3053 70.168 12.9434C70.7057 13.5814 71.1113 14.347 71.3848 15.2402C71.6582 16.1243 71.7949 17.1042 71.7949 18.1797V19.6973H60.2012V17.209H68.2402V16.9355C68.222 16.3613 68.1126 15.8372 67.9121 15.3633C67.7116 14.8802 67.4017 14.4974 66.9824 14.2148C66.5632 13.9232 66.0208 13.7773 65.3555 13.7773C64.8177 13.7773 64.3483 13.8958 63.9473 14.1328C63.5553 14.3607 63.2272 14.6888 62.9629 15.1172C62.7077 15.5365 62.5163 16.0378 62.3887 16.6211C62.2611 17.2044 62.1973 17.8516 62.1973 18.5625V19.1094C62.1973 19.7292 62.2793 20.3034 62.4434 20.832C62.6165 21.3607 62.8672 21.821 63.1953 22.2129C63.5326 22.5957 63.9336 22.8965 64.3984 23.1152C64.8724 23.3249 65.4102 23.4297 66.0117 23.4297C66.7682 23.4297 67.4518 23.2839 68.0625 22.9922C68.6823 22.6914 69.2201 22.2493 69.6758 21.666L71.4941 23.5527C71.1842 24.0085 70.765 24.446 70.2363 24.8652C69.7168 25.2845 69.0879 25.6263 68.3496 25.8906C67.6113 26.1458 66.7591 26.2734 65.793 26.2734ZM81.2148 11.207V13.8047H72.7383V11.207H81.2148ZM75.0078 7.57031H78.6309V21.7344C78.6309 22.1719 78.6901 22.5091 78.8086 22.7461C78.9271 22.9831 79.1048 23.1426 79.3418 23.2246C79.5788 23.3066 79.8613 23.3477 80.1895 23.3477C80.4264 23.3477 80.6452 23.334 80.8457 23.3066C81.0462 23.2793 81.2148 23.252 81.3516 23.2246L81.3652 25.9316C81.0645 26.0319 80.7227 26.1139 80.3398 26.1777C79.9661 26.2415 79.5423 26.2734 79.0684 26.2734C78.2572 26.2734 77.5462 26.1367 76.9355 25.8633C76.3249 25.5807 75.8509 25.1296 75.5137 24.5098C75.1764 23.8809 75.0078 23.0514 75.0078 22.0215V7.57031ZM88.3516 26H84.7148V9.97656C84.7148 8.83724 84.9427 7.88021 85.3984 7.10547C85.8633 6.32161 86.5332 5.72917 87.4082 5.32812C88.2832 4.91797 89.3405 4.71289 90.5801 4.71289C91.0905 4.71289 91.724 4.74023 92.4805 4.79492C93.2461 4.84961 94.0299 4.91797 94.832 5C95.6432 5.08203 96.3724 5.16862 97.0195 5.25977L95.4883 8.07617C94.6497 7.93034 93.8568 7.81641 93.1094 7.73438C92.3711 7.64323 91.6829 7.59766 91.0449 7.59766C90.4616 7.59766 89.9694 7.6888 89.5684 7.87109C89.1673 8.05339 88.862 8.32227 88.6523 8.67773C88.4518 9.02409 88.3516 9.45703 88.3516 9.97656V26ZM93.3965 26V5.25977H97.0195V26H93.3965ZM91.3457 11.207V13.8047H82.4863V11.207H91.3457ZM104.32 11.207V26H100.697V11.207H104.32ZM100.451 7.33789C100.451 6.80013 100.633 6.35352 100.998 5.99805C101.372 5.64258 101.873 5.46484 102.502 5.46484C103.131 5.46484 103.628 5.64258 103.992 5.99805C104.366 6.35352 104.553 6.80013 104.553 7.33789C104.553 7.86654 104.366 8.30859 103.992 8.66406C103.628 9.01953 103.131 9.19727 102.502 9.19727C101.873 9.19727 101.372 9.01953 100.998 8.66406C100.633 8.30859 100.451 7.86654 100.451 7.33789ZM110.596 11.207L113.234 15.9102L115.914 11.207H119.838L115.49 18.4531L120.016 26H116.092L113.262 21.0645L110.418 26H106.494L111.006 18.4531L106.686 11.207H110.596Z" fill="white"/>
</svg>
