<svg width="88" height="27" viewBox="0 0 88 27" fill="none" xmlns="http://www.w3.org/2000/svg">
<path d="M16.8887 10.7051V18.457C16.597 18.8307 16.1367 19.2363 15.5078 19.6738C14.888 20.1113 14.0768 20.4896 13.0742 20.8086C12.0716 21.1185 10.8411 21.2734 9.38281 21.2734C8.11589 21.2734 6.95833 21.0638 5.91016 20.6445C4.86198 20.2161 3.95964 19.5918 3.20312 18.7715C2.44661 17.9512 1.86328 16.9486 1.45312 15.7637C1.04297 14.5788 0.837891 13.2253 0.837891 11.7031V10.3906C0.837891 8.86849 1.0293 7.51497 1.41211 6.33008C1.80404 5.14518 2.36003 4.14258 3.08008 3.32227C3.80924 2.50195 4.67969 1.8776 5.69141 1.44922C6.71224 1.02083 7.85156 0.806641 9.10938 0.806641C10.7956 0.806641 12.181 1.08464 13.2656 1.64062C14.3594 2.19661 15.1979 2.96224 15.7812 3.9375C16.3646 4.90365 16.7292 6.01562 16.875 7.27344H13.2109C13.1107 6.58073 12.9102 5.97461 12.6094 5.45508C12.3086 4.92643 11.8802 4.51628 11.3242 4.22461C10.7773 3.92383 10.0664 3.77344 9.19141 3.77344C8.45312 3.77344 7.80143 3.91927 7.23633 4.21094C6.67122 4.5026 6.19727 4.92643 5.81445 5.48242C5.43164 6.03841 5.13997 6.72656 4.93945 7.54688C4.74805 8.36719 4.65234 9.30599 4.65234 10.3633V11.7031C4.65234 12.7695 4.76172 13.7174 4.98047 14.5469C5.19922 15.3672 5.51367 16.0599 5.92383 16.625C6.3431 17.181 6.85807 17.6048 7.46875 17.8965C8.08854 18.179 8.79036 18.3203 9.57422 18.3203C10.2852 18.3203 10.873 18.2611 11.3379 18.1426C11.8118 18.015 12.1901 17.8646 12.4727 17.6914C12.7552 17.5182 12.974 17.3496 13.1289 17.1855V13.4531H9.17773V10.7051H16.8887ZM19.5273 13.7539V13.4668C19.5273 12.3822 19.6823 11.3841 19.9922 10.4727C20.3021 9.55208 20.7533 8.75456 21.3457 8.08008C21.9382 7.4056 22.6628 6.88151 23.5195 6.50781C24.3763 6.125 25.3516 5.93359 26.4453 5.93359C27.5573 5.93359 28.5417 6.125 29.3984 6.50781C30.2643 6.88151 30.9935 7.4056 31.5859 8.08008C32.1784 8.75456 32.6296 9.55208 32.9395 10.4727C33.2493 11.3841 33.4043 12.3822 33.4043 13.4668V13.7539C33.4043 14.8294 33.2493 15.8275 32.9395 16.748C32.6296 17.6595 32.1784 18.457 31.5859 19.1406C30.9935 19.8151 30.2689 20.3392 29.4121 20.7129C28.5553 21.0866 27.5755 21.2734 26.4727 21.2734C25.3789 21.2734 24.3991 21.0866 23.5332 20.7129C22.6673 20.3392 21.9382 19.8151 21.3457 19.1406C20.7533 18.457 20.3021 17.6595 19.9922 16.748C19.6823 15.8275 19.5273 14.8294 19.5273 13.7539ZM23.1367 13.4668V13.7539C23.1367 14.401 23.2005 15.0072 23.3281 15.5723C23.4557 16.1374 23.6517 16.6341 23.916 17.0625C24.1803 17.4909 24.5221 17.8281 24.9414 18.0742C25.3698 18.3112 25.8802 18.4297 26.4727 18.4297C27.056 18.4297 27.5573 18.3112 27.9766 18.0742C28.3958 17.8281 28.7376 17.4909 29.002 17.0625C29.2754 16.6341 29.4759 16.1374 29.6035 15.5723C29.7311 15.0072 29.7949 14.401 29.7949 13.7539V13.4668C29.7949 12.8288 29.7311 12.2318 29.6035 11.6758C29.4759 11.1107 29.2754 10.6139 29.002 10.1855C28.7376 9.74805 28.3913 9.40625 27.9629 9.16016C27.5436 8.90495 27.0378 8.77734 26.4453 8.77734C25.862 8.77734 25.3607 8.90495 24.9414 9.16016C24.5221 9.40625 24.1803 9.74805 23.916 10.1855C23.6517 10.6139 23.4557 11.1107 23.3281 11.6758C23.2005 12.2318 23.1367 12.8288 23.1367 13.4668ZM35.3867 13.7539V13.4668C35.3867 12.3822 35.5417 11.3841 35.8516 10.4727C36.1615 9.55208 36.6126 8.75456 37.2051 8.08008C37.7975 7.4056 38.5221 6.88151 39.3789 6.50781C40.2357 6.125 41.2109 5.93359 42.3047 5.93359C43.4167 5.93359 44.401 6.125 45.2578 6.50781C46.1237 6.88151 46.8529 7.4056 47.4453 8.08008C48.0378 8.75456 48.4889 9.55208 48.7988 10.4727C49.1087 11.3841 49.2637 12.3822 49.2637 13.4668V13.7539C49.2637 14.8294 49.1087 15.8275 48.7988 16.748C48.4889 17.6595 48.0378 18.457 47.4453 19.1406C46.8529 19.8151 46.1283 20.3392 45.2715 20.7129C44.4147 21.0866 43.4349 21.2734 42.332 21.2734C41.2383 21.2734 40.2585 21.0866 39.3926 20.7129C38.5267 20.3392 37.7975 19.8151 37.2051 19.1406C36.6126 18.457 36.1615 17.6595 35.8516 16.748C35.5417 15.8275 35.3867 14.8294 35.3867 13.7539ZM38.9961 13.4668V13.7539C38.9961 14.401 39.0599 15.0072 39.1875 15.5723C39.3151 16.1374 39.5111 16.6341 39.7754 17.0625C40.0397 17.4909 40.3815 17.8281 40.8008 18.0742C41.2292 18.3112 41.7396 18.4297 42.332 18.4297C42.9154 18.4297 43.4167 18.3112 43.8359 18.0742C44.2552 17.8281 44.597 17.4909 44.8613 17.0625C45.1348 16.6341 45.3353 16.1374 45.4629 15.5723C45.5905 15.0072 45.6543 14.401 45.6543 13.7539V13.4668C45.6543 12.8288 45.5905 12.2318 45.4629 11.6758C45.3353 11.1107 45.1348 10.6139 44.8613 10.1855C44.597 9.74805 44.2507 9.40625 43.8223 9.16016C43.403 8.90495 42.8971 8.77734 42.3047 8.77734C41.7214 8.77734 41.2201 8.90495 40.8008 9.16016C40.3815 9.40625 40.0397 9.74805 39.7754 10.1855C39.5111 10.6139 39.3151 11.1107 39.1875 11.6758C39.0599 12.2318 38.9961 12.8288 38.9961 13.4668ZM61.2949 6.20703H64.5762V20.5488C64.5762 21.8887 64.2845 23.0234 63.7012 23.9531C63.127 24.8919 62.3203 25.6029 61.2812 26.0859C60.2422 26.5781 59.0345 26.8242 57.6582 26.8242C57.0658 26.8242 56.4232 26.7422 55.7305 26.5781C55.0469 26.4141 54.3861 26.1543 53.748 25.7988C53.1191 25.4525 52.5951 25.0013 52.1758 24.4453L53.8027 22.3125C54.2949 22.8867 54.8509 23.3197 55.4707 23.6113C56.0905 23.9121 56.7604 24.0625 57.4805 24.0625C58.2096 24.0625 58.8294 23.9258 59.3398 23.6523C59.8594 23.388 60.2559 22.9961 60.5293 22.4766C60.8118 21.9661 60.9531 21.3372 60.9531 20.5898V9.58398L61.2949 6.20703ZM51.3008 13.7812V13.4941C51.3008 12.3639 51.4375 11.3385 51.7109 10.418C51.9844 9.48828 52.3763 8.69076 52.8867 8.02539C53.4062 7.36003 54.0306 6.84505 54.7598 6.48047C55.498 6.11589 56.3275 5.93359 57.248 5.93359C58.2233 5.93359 59.0436 6.11133 59.709 6.4668C60.3835 6.82227 60.9395 7.32812 61.377 7.98438C61.8236 8.64062 62.1699 9.41992 62.416 10.3223C62.6712 11.2155 62.8672 12.1999 63.0039 13.2754V14.0547C62.8763 15.1029 62.6712 16.0645 62.3887 16.9395C62.1152 17.8145 61.7507 18.5801 61.2949 19.2363C60.8392 19.8835 60.2741 20.3848 59.5996 20.7402C58.9251 21.0957 58.1322 21.2734 57.2207 21.2734C56.3092 21.2734 55.4889 21.0866 54.7598 20.7129C54.0306 20.3392 53.4062 19.8151 52.8867 19.1406C52.3763 18.4661 51.9844 17.6732 51.7109 16.7617C51.4375 15.8503 51.3008 14.8568 51.3008 13.7812ZM54.9102 13.4941V13.7812C54.9102 14.4193 54.974 15.0163 55.1016 15.5723C55.2292 16.1283 55.4251 16.6204 55.6895 17.0488C55.9538 17.4681 56.2865 17.7962 56.6875 18.0332C57.0885 18.2702 57.5671 18.3887 58.123 18.3887C58.8704 18.3887 59.4811 18.2337 59.9551 17.9238C60.4382 17.6048 60.8027 17.1719 61.0488 16.625C61.304 16.069 61.4681 15.4447 61.541 14.752V12.6055C61.4954 12.0586 61.3952 11.5527 61.2402 11.0879C61.0944 10.623 60.8893 10.222 60.625 9.88477C60.3607 9.54753 60.0234 9.2832 59.6133 9.0918C59.2031 8.90039 58.7155 8.80469 58.1504 8.80469C57.6035 8.80469 57.125 8.92773 56.7148 9.17383C56.3047 9.41081 55.9674 9.74349 55.7031 10.1719C55.4388 10.6003 55.2383 11.097 55.1016 11.6621C54.974 12.2272 54.9102 12.8379 54.9102 13.4941ZM71.6582 0V21H68.0352V0H71.6582ZM81.748 21.2734C80.627 21.2734 79.6198 21.0911 78.7266 20.7266C77.8333 20.362 77.0723 19.8561 76.4434 19.209C75.8236 18.5527 75.3451 17.7917 75.0078 16.9258C74.6797 16.0508 74.5156 15.112 74.5156 14.1094V13.5625C74.5156 12.4232 74.6797 11.3887 75.0078 10.459C75.3359 9.52018 75.8008 8.71354 76.4023 8.03906C77.0039 7.36458 77.724 6.84505 78.5625 6.48047C79.401 6.11589 80.3262 5.93359 81.3379 5.93359C82.3861 5.93359 83.3112 6.11133 84.1133 6.4668C84.9154 6.81315 85.5853 7.30534 86.123 7.94336C86.6608 8.58138 87.0664 9.34701 87.3398 10.2402C87.6133 11.1243 87.75 12.1042 87.75 13.1797V14.6973H76.1562V12.209H84.1953V11.9355C84.1771 11.3613 84.0677 10.8372 83.8672 10.3633C83.6667 9.88021 83.3568 9.4974 82.9375 9.21484C82.5182 8.92318 81.9759 8.77734 81.3105 8.77734C80.7728 8.77734 80.3034 8.89583 79.9023 9.13281C79.5104 9.36068 79.1823 9.6888 78.918 10.1172C78.6628 10.5365 78.4714 11.0378 78.3438 11.6211C78.2161 12.2044 78.1523 12.8516 78.1523 13.5625V14.1094C78.1523 14.7292 78.2344 15.3034 78.3984 15.832C78.5716 16.3607 78.8223 16.821 79.1504 17.2129C79.4876 17.5957 79.8887 17.8965 80.3535 18.1152C80.8275 18.3249 81.3652 18.4297 81.9668 18.4297C82.7233 18.4297 83.4069 18.2839 84.0176 17.9922C84.6374 17.6914 85.1751 17.2493 85.6309 16.666L87.4492 18.5527C87.1393 19.0085 86.7201 19.446 86.1914 19.8652C85.6719 20.2845 85.043 20.6263 84.3047 20.8906C83.5664 21.1458 82.7142 21.2734 81.748 21.2734Z" fill="white"/>
</svg>
