<svg width="191" height="40" viewBox="0 0 191 40" fill="none" xmlns="http://www.w3.org/2000/svg">
<g filter="url(#filter0_d_3702_1134)">
<path d="M48.2971 25H44.5784L52.8772 5.44922H56.7737L65.2502 25H61.3537L59.1252 19.668H52.6311L53.8752 16.5234H57.8127L54.7366 9.18164L48.2971 25ZM67.301 25V10.6445H70.1037L70.5276 12.7227C71.8127 11.3372 73.3577 10.6445 75.1623 10.6445C76.967 10.6445 78.2021 11.3008 78.8674 12.6133C80.3349 11.3008 81.8707 10.6445 83.4748 10.6445C86.7743 10.6445 88.4241 12.4629 88.4241 16.0996V25H84.801V15.9629C84.801 14.3678 84.081 13.5703 82.6409 13.5703C81.5653 13.5703 80.5308 14.0534 79.5373 15.0195V25H75.9143V16.0039C75.9143 14.3815 75.2489 13.5703 73.9182 13.5703C72.8609 13.5703 71.8629 14.0534 70.9241 15.0195V25H67.301ZM91.1721 20.5293C91.1721 17.6764 93.2502 16.25 97.4065 16.25C98.3817 16.25 99.357 16.3411 100.332 16.5234V15.4434C100.332 14.1582 99.4071 13.5156 97.5569 13.5156C95.9892 13.5156 94.2483 13.7435 92.3342 14.1992V11.3281C94.2483 10.8724 95.9892 10.6445 97.5569 10.6445C101.822 10.6445 103.955 12.2214 103.955 15.375V25H101.85L100.565 23.7148C99.316 24.5716 97.9397 25 96.4358 25C92.9267 25 91.1721 23.5098 91.1721 20.5293ZM100.332 18.9844C99.4208 18.8021 98.4455 18.7109 97.4065 18.7109C95.6656 18.7109 94.7952 19.3034 94.7952 20.4883C94.7952 21.7643 95.5243 22.4023 96.9827 22.4023C98.1858 22.4023 99.3023 22.0286 100.332 21.2812V18.9844ZM107.319 10.6445H118.393V13.5156L111.051 22.2656H118.119V25H107.045V22.2656L114.496 13.5156H107.319V10.6445ZM123.862 17.7676C123.862 20.7663 125.024 22.2656 127.348 22.2656C129.672 22.2656 130.834 20.7663 130.834 17.7676C130.834 14.8418 129.672 13.3789 127.348 13.3789C125.024 13.3789 123.862 14.8418 123.862 17.7676ZM120.239 17.8223C120.239 13.0098 122.608 10.6035 127.348 10.6035C132.087 10.6035 134.457 13.0098 134.457 17.8223C134.457 22.6257 132.087 25.0273 127.348 25.0273C122.627 25.0273 120.257 22.6257 120.239 17.8223ZM137.192 25V10.6445H139.994L140.446 12.75C141.822 11.3464 143.39 10.6445 145.149 10.6445C148.548 10.6445 150.248 12.4128 150.248 15.9492V25H146.625V15.9492C146.625 14.3633 145.837 13.5703 144.26 13.5703C143.084 13.5703 141.936 14.0397 140.815 14.9785V25H137.192Z" fill="white"/>
</g>
<defs>
<filter id="filter0_d_3702_1134" x="40.5781" y="5.44922" width="113.67" height="27.5781" filterUnits="userSpaceOnUse" color-interpolation-filters="sRGB">
<feFlood flood-opacity="0" result="BackgroundImageFix"/>
<feColorMatrix in="SourceAlpha" type="matrix" values="0 0 0 0 0 0 0 0 0 0 0 0 0 0 0 0 0 0 127 0" result="hardAlpha"/>
<feOffset dy="4"/>
<feGaussianBlur stdDeviation="2"/>
<feComposite in2="hardAlpha" operator="out"/>
<feColorMatrix type="matrix" values="0 0 0 0 0 0 0 0 0 0 0 0 0 0 0 0 0 0 0.25 0"/>
<feBlend mode="normal" in2="BackgroundImageFix" result="effect1_dropShadow_3702_1134"/>
<feBlend mode="normal" in="SourceGraphic" in2="effect1_dropShadow_3702_1134" result="shape"/>
</filter>
</defs>
</svg>
