<svg width="118" height="22" viewBox="0 0 118 22" fill="none" xmlns="http://www.w3.org/2000/svg">
<path d="M0.790993 21V1.44922H4.55076L11.1816 16.2832L17.6758 1.44922H21.2988V21H17.9492V7.38281L12.6445 21H9.55466L4.1406 7.38281V21H0.790993ZM28.6816 1.44922V4.32031H25.0586V1.44922H28.6816ZM28.6816 6.64453V21H25.0586V6.64453H28.6816ZM42.709 20.5898C41.5241 20.8633 40.2936 21 39.0176 21C33.9134 21 31.3613 18.5163 31.3613 13.5488C31.3613 8.94596 33.9134 6.64453 39.0176 6.64453C40.2936 6.64453 41.5241 6.78125 42.709 7.05469V9.92578C41.5241 9.65234 40.3847 9.51562 39.291 9.51562C36.4199 9.51562 34.9844 10.86 34.9844 13.5488C34.9844 16.6022 36.4199 18.1289 39.291 18.1289C40.3847 18.1289 41.5241 17.9922 42.709 17.7188V20.5898ZM45.1015 21V6.64453H47.9043L48.3554 8.47656C49.6133 7.25521 50.944 6.64453 52.3476 6.64453V9.57031C50.9987 9.57031 49.791 10.1309 48.7246 11.252V21H45.1015ZM57.3379 13.7676C57.3379 16.7663 58.5 18.2656 60.8242 18.2656C63.1484 18.2656 64.3105 16.7663 64.3105 13.7676C64.3105 10.8418 63.1484 9.37891 60.8242 9.37891C58.5 9.37891 57.3379 10.8418 57.3379 13.7676ZM53.7148 13.8223C53.7148 9.00977 56.0846 6.60352 60.8242 6.60352C65.5638 6.60352 67.9336 9.00977 67.9336 13.8223C67.9336 18.6257 65.5638 21.0273 60.8242 21.0273C56.1028 21.0273 53.7331 18.6257 53.7148 13.8223ZM70.6679 20.3164V17.3086C72.263 17.9466 74.1041 18.2656 76.1914 18.2656C77.75 18.2656 78.5293 17.7643 78.5293 16.7617C78.5293 15.8047 78.0052 15.3262 76.957 15.3262H74.3594C71.4427 15.3262 69.9844 13.8906 69.9844 11.0195C69.9844 8.01172 72.1126 6.50781 76.3691 6.50781C78.1738 6.50781 79.8737 6.78125 81.4687 7.32812V10.3359C79.8737 9.69792 78.1419 9.37891 76.2734 9.37891C74.3138 9.37891 73.334 9.88021 73.334 10.8828C73.334 11.8398 73.9036 12.3184 75.0429 12.3184H77.3672C80.5573 12.3184 82.1523 13.7539 82.1523 16.625C82.1523 19.6328 80.1198 21.1367 76.0547 21.1367C74.0586 21.1367 72.263 20.8633 70.6679 20.3164ZM87.6347 13.7676C87.6347 16.7663 88.7969 18.2656 91.1211 18.2656C93.4453 18.2656 94.6074 16.7663 94.6074 13.7676C94.6074 10.8418 93.4453 9.37891 91.1211 9.37891C88.7969 9.37891 87.6347 10.8418 87.6347 13.7676ZM84.0117 13.8223C84.0117 9.00977 86.3815 6.60352 91.1211 6.60352C95.8607 6.60352 98.2304 9.00977 98.2304 13.8223C98.2304 18.6257 95.8607 21.0273 91.1211 21.0273C86.3997 21.0273 84.0299 18.6257 84.0117 13.8223ZM100.965 21V6.64453C100.965 2.70703 103.116 0.738281 107.418 0.738281C108.594 0.738281 109.66 0.920573 110.617 1.28516V4.15625C109.715 3.79167 108.735 3.60938 107.678 3.60938C105.618 3.60938 104.588 4.62109 104.588 6.64453H108.895V9.51562H104.588V21H100.965ZM110.904 4.32031H113.584L114.131 6.64453H117.74V9.51562H114.527V16.1191C114.527 17.459 115.106 18.1289 116.264 18.1289H117.74V21H114.514C112.107 21 110.904 19.7103 110.904 17.1309V4.32031Z" fill="white"/>
</svg>
