<svg width="158" height="32" viewBox="0 0 158 32" fill="none" xmlns="http://www.w3.org/2000/svg">
<path d="M36.8086 6.09375V26H33.0488V6.09375H36.8086ZM44.834 14.6934V17.6602H35.8242V14.6934H44.834ZM45.8867 6.09375V9.06055H35.8242V6.09375H45.8867ZM51.998 5V26H48.375V5H51.998ZM59.2715 11.207V26H55.6484V11.207H59.2715ZM55.4023 7.33789C55.4023 6.80013 55.5846 6.35352 55.9492 5.99805C56.3229 5.64258 56.8242 5.46484 57.4531 5.46484C58.082 5.46484 58.5788 5.64258 58.9434 5.99805C59.3171 6.35352 59.5039 6.80013 59.5039 7.33789C59.5039 7.86654 59.3171 8.30859 58.9434 8.66406C58.5788 9.01953 58.082 9.19727 57.4531 9.19727C56.8242 9.19727 56.3229 9.01953 55.9492 8.66406C55.5846 8.30859 55.4023 7.86654 55.4023 7.33789ZM66.3262 14.0508V31.6875H62.7031V11.207H66.0527L66.3262 14.0508ZM75.8281 18.4531V18.7402C75.8281 19.8158 75.7005 20.8138 75.4453 21.7344C75.1992 22.6458 74.8346 23.4434 74.3516 24.127C73.8685 24.8014 73.2669 25.3301 72.5469 25.7129C71.8359 26.0866 71.0156 26.2734 70.0859 26.2734C69.1745 26.2734 68.3815 26.1003 67.707 25.7539C67.0326 25.3984 66.4629 24.8971 65.998 24.25C65.5332 23.6029 65.1595 22.8509 64.877 21.9941C64.6035 21.1283 64.3984 20.1849 64.2617 19.1641V18.248C64.3984 17.1634 64.6035 16.179 64.877 15.2949C65.1595 14.4017 65.5332 13.6315 65.998 12.9844C66.4629 12.3281 67.028 11.8223 67.6934 11.4668C68.3678 11.1113 69.1562 10.9336 70.0586 10.9336C70.9974 10.9336 71.8223 11.1113 72.5332 11.4668C73.2533 11.8223 73.8594 12.3327 74.3516 12.998C74.8438 13.6634 75.2129 14.4564 75.459 15.377C75.7051 16.2975 75.8281 17.3229 75.8281 18.4531ZM72.2051 18.7402V18.4531C72.2051 17.7969 72.1458 17.1908 72.0273 16.6348C71.9089 16.0697 71.7266 15.5775 71.4805 15.1582C71.2344 14.7298 70.9154 14.3971 70.5234 14.1602C70.1315 13.9232 69.6576 13.8047 69.1016 13.8047C68.5456 13.8047 68.0671 13.8958 67.666 14.0781C67.265 14.2604 66.9368 14.5202 66.6816 14.8574C66.4264 15.1947 66.2259 15.5957 66.0801 16.0605C65.9434 16.5163 65.8522 17.0221 65.8066 17.5781V19.8477C65.8887 20.5221 66.0482 21.1283 66.2852 21.666C66.5221 22.2038 66.8685 22.6322 67.3242 22.9512C67.7891 23.2702 68.3906 23.4297 69.1289 23.4297C69.6849 23.4297 70.1589 23.3066 70.5508 23.0605C70.9427 22.8145 71.2617 22.4772 71.5078 22.0488C71.7539 21.6113 71.9316 21.11 72.041 20.5449C72.1504 19.9798 72.2051 19.3783 72.2051 18.7402ZM82.0762 4.98633V26H78.4668V4.98633H82.0762ZM91.3457 11.207L84.9062 18.4395L81.4199 21.9805L80.2715 19.1777L82.9648 15.7871L86.9844 11.207H91.3457ZM87.6543 26L83.0742 19.1094L85.4805 16.7715L91.8379 26H87.6543ZM101.408 22.8555V16.0332C101.408 15.5319 101.322 15.099 101.148 14.7344C100.975 14.3698 100.711 14.0872 100.355 13.8867C100 13.6862 99.5488 13.5859 99.002 13.5859C98.5189 13.5859 98.0951 13.668 97.7305 13.832C97.375 13.9961 97.1016 14.2285 96.9102 14.5293C96.7188 14.821 96.623 15.1582 96.623 15.541H93C93 14.9303 93.1458 14.3516 93.4375 13.8047C93.7292 13.2487 94.1439 12.7565 94.6816 12.3281C95.2285 11.8906 95.8802 11.5488 96.6367 11.3027C97.4023 11.0566 98.2591 10.9336 99.207 10.9336C100.328 10.9336 101.326 11.125 102.201 11.5078C103.085 11.8815 103.778 12.4466 104.279 13.2031C104.79 13.9596 105.045 14.9121 105.045 16.0605V22.5137C105.045 23.252 105.09 23.8854 105.182 24.4141C105.282 24.9336 105.428 25.3848 105.619 25.7676V26H101.941C101.768 25.6263 101.636 25.1523 101.545 24.5781C101.454 23.9948 101.408 23.4206 101.408 22.8555ZM101.914 16.9902L101.941 19.1367H99.6582C99.0931 19.1367 98.5964 19.196 98.168 19.3145C97.7396 19.4238 97.3887 19.5879 97.1152 19.8066C96.8418 20.0163 96.6367 20.2715 96.5 20.5723C96.3633 20.8639 96.2949 21.1966 96.2949 21.5703C96.2949 21.9349 96.377 22.263 96.541 22.5547C96.7142 22.8464 96.9603 23.0788 97.2793 23.252C97.6074 23.416 97.9902 23.498 98.4277 23.498C99.0658 23.498 99.6217 23.3704 100.096 23.1152C100.57 22.8509 100.939 22.5319 101.203 22.1582C101.467 21.7845 101.609 21.429 101.627 21.0918L102.666 22.6504C102.538 23.0241 102.347 23.4206 102.092 23.8398C101.837 24.2591 101.508 24.651 101.107 25.0156C100.706 25.3802 100.223 25.681 99.6582 25.918C99.0931 26.1549 98.4368 26.2734 97.6895 26.2734C96.7324 26.2734 95.8757 26.082 95.1191 25.6992C94.3626 25.3164 93.7656 24.7923 93.3281 24.127C92.8906 23.4616 92.6719 22.7051 92.6719 21.8574C92.6719 21.0736 92.8177 20.3809 93.1094 19.7793C93.401 19.1777 93.834 18.6719 94.4082 18.2617C94.9824 17.8424 95.6934 17.528 96.541 17.3184C97.3978 17.0996 98.3776 16.9902 99.4805 16.9902H101.914ZM111.908 14.2285V26H108.299V11.207H111.717L111.908 14.2285ZM116.406 11.1113L116.352 14.4746C116.151 14.4382 115.923 14.4108 115.668 14.3926C115.422 14.3743 115.189 14.3652 114.971 14.3652C114.415 14.3652 113.927 14.4427 113.508 14.5977C113.089 14.7435 112.738 14.9577 112.455 15.2402C112.182 15.5228 111.972 15.8691 111.826 16.2793C111.68 16.6803 111.598 17.1361 111.58 17.6465L110.801 17.5508C110.801 16.612 110.896 15.7415 111.088 14.9395C111.279 14.1374 111.557 13.4355 111.922 12.834C112.286 12.2324 112.742 11.7676 113.289 11.4395C113.845 11.1022 114.483 10.9336 115.203 10.9336C115.404 10.9336 115.618 10.9518 115.846 10.9883C116.083 11.0156 116.27 11.0566 116.406 11.1113ZM126.072 11.207V13.8047H117.596V11.207H126.072ZM119.865 7.57031H123.488V21.7344C123.488 22.1719 123.548 22.5091 123.666 22.7461C123.785 22.9831 123.962 23.1426 124.199 23.2246C124.436 23.3066 124.719 23.3477 125.047 23.3477C125.284 23.3477 125.503 23.334 125.703 23.3066C125.904 23.2793 126.072 23.252 126.209 23.2246L126.223 25.9316C125.922 26.0319 125.58 26.1139 125.197 26.1777C124.824 26.2415 124.4 26.2734 123.926 26.2734C123.115 26.2734 122.404 26.1367 121.793 25.8633C121.182 25.5807 120.708 25.1296 120.371 24.5098C120.034 23.8809 119.865 23.0514 119.865 22.0215V7.57031Z" fill="white"/>
</svg>
