<svg width="182" height="17" viewBox="0 0 182 17" fill="none" xmlns="http://www.w3.org/2000/svg">
<path d="M0 0H182L169.95 8.5L182 17H0V0Z" fill="url(#paint0_linear_2716_1193)"/>
<path d="M103.19 5.11L103.2 5.21C103.2 5.48333 103.157 5.71667 103.07 5.91C102.983 5.97667 102.847 6.03 102.66 6.07L104.33 11.01L105.28 11.13C105.28 11.4033 105.203 11.6933 105.05 12H102.62L102.53 11.45C102.81 11.3433 102.993 11.2733 103.08 11.24L102.68 10.11H100.43C100.23 10.7033 100.123 11.0133 100.11 11.04L100.8 11.13C100.8 11.27 100.773 11.4333 100.72 11.62C100.667 11.8 100.617 11.9267 100.57 12H98.14L98.05 11.45C98.35 11.3233 98.62 11.23 98.86 11.17L100.54 6.03C100.093 5.96333 99.7567 5.87667 99.53 5.77C99.53 5.57667 99.56 5.40667 99.62 5.26C99.76 5.21333 100.087 5.16 100.6 5.1C101.12 5.03333 101.613 5 102.08 5C102.553 5 102.923 5.03667 103.19 5.11ZM101.9 7.86L101.61 6.54H101.51L101.19 7.92L100.72 9.17H102.39L101.9 7.86ZM109.063 6.92C109.149 6.91333 109.316 6.91 109.563 6.91C109.816 6.91 110.043 6.91667 110.243 6.93L110.883 8.99L111.193 10.4H111.363L111.653 9.01L112.033 7.73C111.806 7.69 111.526 7.60333 111.193 7.47L111.283 6.92H113.773C113.926 7.22667 114.003 7.51667 114.003 7.79C113.743 7.83 113.483 7.85667 113.223 7.87C113.069 8.39 112.833 9.15667 112.513 10.17C112.199 11.1767 112.009 11.7867 111.943 12H110.583L109.653 8.92H109.613L108.653 12H107.363L106.073 7.88L105.293 7.79C105.293 7.51667 105.369 7.22667 105.523 6.92H108.013L108.103 7.47C107.829 7.59667 107.599 7.68333 107.413 7.73L107.743 9L107.993 10.4H108.153L108.443 8.99L109.063 6.92ZM116.186 12.12C115.619 12.12 115.179 12.0033 114.866 11.77C114.559 11.5367 114.406 11.1433 114.406 10.59C114.406 10.0633 114.589 9.63333 114.956 9.3C115.169 9.10667 115.466 8.99333 115.846 8.96C116.226 8.92667 116.749 8.91 117.416 8.91V8.75C117.416 8.34333 117.349 8.04667 117.216 7.86C117.089 7.66667 116.863 7.57 116.536 7.57C116.369 7.57 116.219 7.60333 116.086 7.67L115.846 8.54L115.106 8.52C114.939 8.26667 114.849 7.86333 114.836 7.31C114.969 7.24333 115.283 7.14333 115.776 7.01C116.269 6.87 116.586 6.8 116.726 6.8C117.446 6.8 117.969 6.95 118.296 7.25C118.623 7.54333 118.786 8.01333 118.786 8.66C118.786 9.3 118.756 10.1467 118.696 11.2C119.076 11.2333 119.369 11.29 119.576 11.37C119.583 11.45 119.586 11.5467 119.586 11.66L119.576 11.88C119.096 12.04 118.613 12.12 118.126 12.12C117.999 12.12 117.906 12.1167 117.846 12.11C117.746 11.91 117.686 11.67 117.666 11.39H117.616C117.489 11.51 117.266 11.6633 116.946 11.85C116.633 12.03 116.379 12.12 116.186 12.12ZM115.686 10.65C115.686 10.87 115.753 11.0333 115.886 11.14C116.026 11.24 116.183 11.29 116.356 11.29C116.529 11.29 116.736 11.2133 116.976 11.06C117.216 10.9 117.409 10.7567 117.556 10.63L117.506 9.71C116.979 9.73667 116.583 9.78667 116.316 9.86C115.896 9.94667 115.686 10.21 115.686 10.65ZM122.647 7.88C122.633 7.84667 122.567 7.83 122.447 7.83C122.327 7.83 122.12 7.92 121.827 8.1C121.8 9.40667 121.783 10.3867 121.777 11.04L122.557 11.14C122.557 11.4267 122.48 11.7133 122.327 12H119.837L119.747 11.45C120.16 11.2967 120.46 11.1967 120.647 11.15L120.537 7.91C120.19 7.88333 119.9 7.83333 119.667 7.76L119.737 7.04C119.917 6.96 120.567 6.90667 121.687 6.88C121.747 6.94 121.777 7.05667 121.777 7.23C122.363 6.94333 122.733 6.8 122.887 6.8C123.047 6.8 123.24 6.84 123.467 6.92C123.7 6.99333 123.877 7.07333 123.997 7.16V7.33C123.997 7.87667 123.93 8.38333 123.797 8.85C123.683 8.89667 123.533 8.92 123.347 8.92C123.16 8.92 122.987 8.91 122.827 8.89C122.807 8.80333 122.747 8.46667 122.647 7.88ZM126.849 11.14C127.076 11.14 127.536 10.9833 128.229 10.67C128.376 10.8833 128.486 11.13 128.559 11.41C128.192 11.6367 127.832 11.8133 127.479 11.94C127.132 12.06 126.886 12.12 126.739 12.12C125.932 12.12 125.319 11.8967 124.899 11.45C124.486 11.0033 124.279 10.37 124.279 9.55C124.279 8.72333 124.486 8.06 124.899 7.56C125.312 7.05333 125.926 6.8 126.739 6.8C127.386 6.8 127.879 7.01 128.219 7.43C128.559 7.85 128.729 8.39667 128.729 9.07C128.729 9.21 128.649 9.37 128.489 9.55L125.609 9.5C125.622 10.0333 125.722 10.44 125.909 10.72C126.096 11 126.409 11.14 126.849 11.14ZM126.649 7.63C126.396 7.63 126.159 7.68 125.939 7.78C125.786 8.1 125.689 8.39667 125.649 8.67C126.169 8.65 126.759 8.63667 127.419 8.63C127.386 7.96333 127.129 7.63 126.649 7.63ZM132.636 6.8C133.303 6.8 133.786 6.96333 134.086 7.29C134.386 7.61667 134.536 8.07333 134.536 8.66C134.536 9.24667 134.503 10.04 134.436 11.04L135.226 11.13C135.226 11.4033 135.149 11.6933 134.996 12H132.506L132.416 11.45C132.729 11.3233 133.019 11.2233 133.286 11.15C133.266 10.3833 133.246 9.74 133.226 9.22C133.206 8.69333 133.156 8.33667 133.076 8.15C132.996 7.96333 132.819 7.87 132.546 7.87C132.133 7.87 131.763 7.94333 131.436 8.09C131.429 8.37667 131.409 8.84667 131.376 9.5C131.349 10.1467 131.333 10.66 131.326 11.04L132.106 11.13C132.106 11.4033 132.029 11.6933 131.876 12H129.386L129.296 11.45C129.629 11.3233 129.929 11.2233 130.196 11.15C130.189 10.75 130.166 10.1967 130.126 9.49C130.093 8.78333 130.073 8.26 130.066 7.92C129.819 7.89333 129.556 7.84333 129.276 7.77L129.326 7.05C129.793 6.92333 130.319 6.86 130.906 6.86C130.979 6.90667 131.079 7.05 131.206 7.29C131.433 7.17667 131.709 7.06667 132.036 6.96C132.363 6.85333 132.563 6.8 132.636 6.8ZM138.128 11.14C138.355 11.14 138.815 10.9833 139.508 10.67C139.655 10.8833 139.765 11.13 139.838 11.41C139.472 11.6367 139.112 11.8133 138.758 11.94C138.412 12.06 138.165 12.12 138.018 12.12C137.212 12.12 136.598 11.8967 136.178 11.45C135.765 11.0033 135.558 10.37 135.558 9.55C135.558 8.72333 135.765 8.06 136.178 7.56C136.592 7.05333 137.205 6.8 138.018 6.8C138.665 6.8 139.158 7.01 139.498 7.43C139.838 7.85 140.008 8.39667 140.008 9.07C140.008 9.21 139.928 9.37 139.768 9.55L136.888 9.5C136.902 10.0333 137.002 10.44 137.188 10.72C137.375 11 137.688 11.14 138.128 11.14ZM137.928 7.63C137.675 7.63 137.438 7.68 137.218 7.78C137.065 8.1 136.968 8.39667 136.928 8.67C137.448 8.65 138.038 8.63667 138.698 8.63C138.665 7.96333 138.408 7.63 137.928 7.63ZM144.265 7.23L144.275 7.54C144.275 8.06 144.235 8.4 144.155 8.56C143.935 8.64 143.629 8.68 143.235 8.68L142.915 7.67C142.829 7.63667 142.709 7.62 142.555 7.62C142.402 7.62 142.275 7.66667 142.175 7.76C142.082 7.85333 142.035 7.96333 142.035 8.09C142.035 8.21667 142.085 8.33333 142.185 8.44C142.285 8.54 142.389 8.62 142.495 8.68C142.602 8.74 142.755 8.82 142.955 8.92C143.162 9.01333 143.315 9.08667 143.415 9.14C143.522 9.19333 143.655 9.27333 143.815 9.38C143.982 9.48667 144.109 9.58667 144.195 9.68C144.409 9.93333 144.515 10.21 144.515 10.51C144.515 11.0233 144.319 11.42 143.925 11.7C143.539 11.98 143.062 12.12 142.495 12.12C142.195 12.12 141.865 12.0667 141.505 11.96C141.152 11.8533 140.852 11.71 140.605 11.53C140.605 11.05 140.652 10.6033 140.745 10.19C141.012 10.1567 141.229 10.14 141.395 10.14C141.562 10.14 141.675 10.1433 141.735 10.15L141.855 11.12C142.022 11.18 142.222 11.21 142.455 11.21C142.689 11.21 142.872 11.1633 143.005 11.07C143.145 10.9767 143.215 10.8467 143.215 10.68C143.215 10.5067 143.139 10.3633 142.985 10.25C142.832 10.1367 142.622 10.02 142.355 9.9C142.089 9.77333 141.882 9.67 141.735 9.59C141.589 9.50333 141.432 9.39333 141.265 9.26C140.925 9 140.755 8.68 140.755 8.3C140.755 7.82667 140.919 7.46 141.245 7.2C141.579 6.93333 142.025 6.8 142.585 6.8C143.145 6.8 143.705 6.94333 144.265 7.23ZM148.787 7.23L148.797 7.54C148.797 8.06 148.757 8.4 148.677 8.56C148.457 8.64 148.15 8.68 147.757 8.68L147.437 7.67C147.35 7.63667 147.23 7.62 147.077 7.62C146.924 7.62 146.797 7.66667 146.697 7.76C146.604 7.85333 146.557 7.96333 146.557 8.09C146.557 8.21667 146.607 8.33333 146.707 8.44C146.807 8.54 146.91 8.62 147.017 8.68C147.124 8.74 147.277 8.82 147.477 8.92C147.684 9.01333 147.837 9.08667 147.937 9.14C148.044 9.19333 148.177 9.27333 148.337 9.38C148.504 9.48667 148.63 9.58667 148.717 9.68C148.93 9.93333 149.037 10.21 149.037 10.51C149.037 11.0233 148.84 11.42 148.447 11.7C148.06 11.98 147.584 12.12 147.017 12.12C146.717 12.12 146.387 12.0667 146.027 11.96C145.674 11.8533 145.374 11.71 145.127 11.53C145.127 11.05 145.174 10.6033 145.267 10.19C145.534 10.1567 145.75 10.14 145.917 10.14C146.084 10.14 146.197 10.1433 146.257 10.15L146.377 11.12C146.544 11.18 146.744 11.21 146.977 11.21C147.21 11.21 147.394 11.1633 147.527 11.07C147.667 10.9767 147.737 10.8467 147.737 10.68C147.737 10.5067 147.66 10.3633 147.507 10.25C147.354 10.1367 147.144 10.02 146.877 9.9C146.61 9.77333 146.404 9.67 146.257 9.59C146.11 9.50333 145.954 9.39333 145.787 9.26C145.447 9 145.277 8.68 145.277 8.3C145.277 7.82667 145.44 7.46 145.767 7.2C146.1 6.93333 146.547 6.8 147.107 6.8C147.667 6.8 148.227 6.94333 148.787 7.23Z" fill="white"/>
<defs>
<linearGradient id="paint0_linear_2716_1193" x1="149.174" y1="9.00004" x2="60.2511" y2="9.00003" gradientUnits="userSpaceOnUse">
<stop stop-color="#ED0000"/>
<stop offset="0.161458" stop-color="#ED0000" stop-opacity="0.838542"/>
<stop offset="1" stop-color="#ED0000" stop-opacity="0"/>
</linearGradient>
</defs>
</svg>
