<svg width="141" height="17" viewBox="0 0 141 17" fill="none" xmlns="http://www.w3.org/2000/svg">
<path d="M0 0H141L131.664 8.5L141 17H0V0Z" fill="url(#paint0_linear_2716_1193)"/>
<path d="M82.19 5.11L82.2 5.21C82.2 5.48333 82.1567 5.71667 82.07 5.91C81.9833 5.97667 81.8467 6.03 81.66 6.07L83.33 11.01L84.28 11.13C84.28 11.4033 84.2033 11.6933 84.05 12H81.62L81.53 11.45C81.81 11.3433 81.9933 11.2733 82.08 11.24L81.68 10.11H79.43C79.23 10.7033 79.1233 11.0133 79.11 11.04L79.8 11.13C79.8 11.27 79.7733 11.4333 79.72 11.62C79.6667 11.8 79.6167 11.9267 79.57 12H77.14L77.05 11.45C77.35 11.3233 77.62 11.23 77.86 11.17L79.54 6.03C79.0933 5.96333 78.7567 5.87667 78.53 5.77C78.53 5.57667 78.56 5.40667 78.62 5.26C78.76 5.21333 79.0867 5.16 79.6 5.1C80.12 5.03333 80.6133 5 81.08 5C81.5533 5 81.9233 5.03667 82.19 5.11ZM80.9 7.86L80.61 6.54H80.51L80.19 7.92L79.72 9.17H81.39L80.9 7.86ZM88.0626 6.92C88.1492 6.91333 88.3159 6.91 88.5626 6.91C88.8159 6.91 89.0426 6.91667 89.2426 6.93L89.8826 8.99L90.1926 10.4H90.3626L90.6526 9.01L91.0326 7.73C90.8059 7.69 90.5259 7.60333 90.1926 7.47L90.2826 6.92H92.7726C92.9259 7.22667 93.0026 7.51667 93.0026 7.79C92.7426 7.83 92.4826 7.85667 92.2226 7.87C92.0692 8.39 91.8326 9.15667 91.5126 10.17C91.1992 11.1767 91.0092 11.7867 90.9426 12H89.5826L88.6526 8.92H88.6126L87.6526 12H86.3626L85.0726 7.88L84.2926 7.79C84.2926 7.51667 84.3692 7.22667 84.5226 6.92H87.0126L87.1026 7.47C86.8292 7.59667 86.5992 7.68333 86.4126 7.73L86.7426 9L86.9926 10.4H87.1526L87.4426 8.99L88.0626 6.92ZM95.1861 12.12C94.6194 12.12 94.1794 12.0033 93.8661 11.77C93.5594 11.5367 93.4061 11.1433 93.4061 10.59C93.4061 10.0633 93.5894 9.63333 93.9561 9.3C94.1694 9.10667 94.4661 8.99333 94.8461 8.96C95.2261 8.92667 95.7494 8.91 96.4161 8.91V8.75C96.4161 8.34333 96.3494 8.04667 96.2161 7.86C96.0894 7.66667 95.8628 7.57 95.5361 7.57C95.3694 7.57 95.2194 7.60333 95.0861 7.67L94.8461 8.54L94.1061 8.52C93.9394 8.26667 93.8494 7.86333 93.8361 7.31C93.9694 7.24333 94.2828 7.14333 94.7761 7.01C95.2694 6.87 95.5861 6.8 95.7261 6.8C96.4461 6.8 96.9694 6.95 97.2961 7.25C97.6228 7.54333 97.7861 8.01333 97.7861 8.66C97.7861 9.3 97.7561 10.1467 97.6961 11.2C98.0761 11.2333 98.3694 11.29 98.5761 11.37C98.5828 11.45 98.5861 11.5467 98.5861 11.66L98.5761 11.88C98.0961 12.04 97.6128 12.12 97.1261 12.12C96.9994 12.12 96.9061 12.1167 96.8461 12.11C96.7461 11.91 96.6861 11.67 96.6661 11.39H96.6161C96.4894 11.51 96.2661 11.6633 95.9461 11.85C95.6328 12.03 95.3794 12.12 95.1861 12.12ZM94.6861 10.65C94.6861 10.87 94.7528 11.0333 94.8861 11.14C95.0261 11.24 95.1828 11.29 95.3561 11.29C95.5294 11.29 95.7361 11.2133 95.9761 11.06C96.2161 10.9 96.4094 10.7567 96.5561 10.63L96.5061 9.71C95.9794 9.73667 95.5828 9.78667 95.3161 9.86C94.8961 9.94667 94.6861 10.21 94.6861 10.65ZM101.647 7.88C101.633 7.84667 101.567 7.83 101.447 7.83C101.327 7.83 101.12 7.92 100.827 8.1C100.8 9.40667 100.783 10.3867 100.777 11.04L101.557 11.14C101.557 11.4267 101.48 11.7133 101.327 12H98.8367L98.7467 11.45C99.1601 11.2967 99.4601 11.1967 99.6467 11.15L99.5367 7.91C99.1901 7.88333 98.9001 7.83333 98.6667 7.76L98.7367 7.04C98.9167 6.96 99.5667 6.90667 100.687 6.88C100.747 6.94 100.777 7.05667 100.777 7.23C101.363 6.94333 101.733 6.8 101.887 6.8C102.047 6.8 102.24 6.84 102.467 6.92C102.7 6.99333 102.877 7.07333 102.997 7.16V7.33C102.997 7.87667 102.93 8.38333 102.797 8.85C102.683 8.89667 102.533 8.92 102.347 8.92C102.16 8.92 101.987 8.91 101.827 8.89C101.807 8.80333 101.747 8.46667 101.647 7.88ZM105.849 11.14C106.076 11.14 106.536 10.9833 107.229 10.67C107.376 10.8833 107.486 11.13 107.559 11.41C107.192 11.6367 106.832 11.8133 106.479 11.94C106.132 12.06 105.886 12.12 105.739 12.12C104.932 12.12 104.319 11.8967 103.899 11.45C103.486 11.0033 103.279 10.37 103.279 9.55C103.279 8.72333 103.486 8.06 103.899 7.56C104.312 7.05333 104.926 6.8 105.739 6.8C106.386 6.8 106.879 7.01 107.219 7.43C107.559 7.85 107.729 8.39667 107.729 9.07C107.729 9.21 107.649 9.37 107.489 9.55L104.609 9.5C104.622 10.0333 104.722 10.44 104.909 10.72C105.096 11 105.409 11.14 105.849 11.14ZM105.649 7.63C105.396 7.63 105.159 7.68 104.939 7.78C104.786 8.1 104.689 8.39667 104.649 8.67C105.169 8.65 105.759 8.63667 106.419 8.63C106.386 7.96333 106.129 7.63 105.649 7.63ZM111.636 6.8C112.303 6.8 112.786 6.96333 113.086 7.29C113.386 7.61667 113.536 8.07333 113.536 8.66C113.536 9.24667 113.503 10.04 113.436 11.04L114.226 11.13C114.226 11.4033 114.149 11.6933 113.996 12H111.506L111.416 11.45C111.729 11.3233 112.019 11.2233 112.286 11.15C112.266 10.3833 112.246 9.74 112.226 9.22C112.206 8.69333 112.156 8.33667 112.076 8.15C111.996 7.96333 111.819 7.87 111.546 7.87C111.133 7.87 110.763 7.94333 110.436 8.09C110.429 8.37667 110.409 8.84667 110.376 9.5C110.349 10.1467 110.333 10.66 110.326 11.04L111.106 11.13C111.106 11.4033 111.029 11.6933 110.876 12H108.386L108.296 11.45C108.629 11.3233 108.929 11.2233 109.196 11.15C109.189 10.75 109.166 10.1967 109.126 9.49C109.093 8.78333 109.073 8.26 109.066 7.92C108.819 7.89333 108.556 7.84333 108.276 7.77L108.326 7.05C108.793 6.92333 109.319 6.86 109.906 6.86C109.979 6.90667 110.079 7.05 110.206 7.29C110.433 7.17667 110.709 7.06667 111.036 6.96C111.363 6.85333 111.563 6.8 111.636 6.8ZM117.128 11.14C117.355 11.14 117.815 10.9833 118.508 10.67C118.655 10.8833 118.765 11.13 118.838 11.41C118.472 11.6367 118.112 11.8133 117.758 11.94C117.412 12.06 117.165 12.12 117.018 12.12C116.212 12.12 115.598 11.8967 115.178 11.45C114.765 11.0033 114.558 10.37 114.558 9.55C114.558 8.72333 114.765 8.06 115.178 7.56C115.592 7.05333 116.205 6.8 117.018 6.8C117.665 6.8 118.158 7.01 118.498 7.43C118.838 7.85 119.008 8.39667 119.008 9.07C119.008 9.21 118.928 9.37 118.768 9.55L115.888 9.5C115.902 10.0333 116.002 10.44 116.188 10.72C116.375 11 116.688 11.14 117.128 11.14ZM116.928 7.63C116.675 7.63 116.438 7.68 116.218 7.78C116.065 8.1 115.968 8.39667 115.928 8.67C116.448 8.65 117.038 8.63667 117.698 8.63C117.665 7.96333 117.408 7.63 116.928 7.63ZM123.265 7.23L123.275 7.54C123.275 8.06 123.235 8.4 123.155 8.56C122.935 8.64 122.629 8.68 122.235 8.68L121.915 7.67C121.829 7.63667 121.709 7.62 121.555 7.62C121.402 7.62 121.275 7.66667 121.175 7.76C121.082 7.85333 121.035 7.96333 121.035 8.09C121.035 8.21667 121.085 8.33333 121.185 8.44C121.285 8.54 121.389 8.62 121.495 8.68C121.602 8.74 121.755 8.82 121.955 8.92C122.162 9.01333 122.315 9.08667 122.415 9.14C122.522 9.19333 122.655 9.27333 122.815 9.38C122.982 9.48667 123.109 9.58667 123.195 9.68C123.409 9.93333 123.515 10.21 123.515 10.51C123.515 11.0233 123.319 11.42 122.925 11.7C122.539 11.98 122.062 12.12 121.495 12.12C121.195 12.12 120.865 12.0667 120.505 11.96C120.152 11.8533 119.852 11.71 119.605 11.53C119.605 11.05 119.652 10.6033 119.745 10.19C120.012 10.1567 120.229 10.14 120.395 10.14C120.562 10.14 120.675 10.1433 120.735 10.15L120.855 11.12C121.022 11.18 121.222 11.21 121.455 11.21C121.689 11.21 121.872 11.1633 122.005 11.07C122.145 10.9767 122.215 10.8467 122.215 10.68C122.215 10.5067 122.139 10.3633 121.985 10.25C121.832 10.1367 121.622 10.02 121.355 9.9C121.089 9.77333 120.882 9.67 120.735 9.59C120.589 9.50333 120.432 9.39333 120.265 9.26C119.925 9 119.755 8.68 119.755 8.3C119.755 7.82667 119.919 7.46 120.245 7.2C120.579 6.93333 121.025 6.8 121.585 6.8C122.145 6.8 122.705 6.94333 123.265 7.23ZM127.787 7.23L127.797 7.54C127.797 8.06 127.757 8.4 127.677 8.56C127.457 8.64 127.15 8.68 126.757 8.68L126.437 7.67C126.35 7.63667 126.23 7.62 126.077 7.62C125.924 7.62 125.797 7.66667 125.697 7.76C125.604 7.85333 125.557 7.96333 125.557 8.09C125.557 8.21667 125.607 8.33333 125.707 8.44C125.807 8.54 125.91 8.62 126.017 8.68C126.124 8.74 126.277 8.82 126.477 8.92C126.684 9.01333 126.837 9.08667 126.937 9.14C127.044 9.19333 127.177 9.27333 127.337 9.38C127.504 9.48667 127.63 9.58667 127.717 9.68C127.93 9.93333 128.037 10.21 128.037 10.51C128.037 11.0233 127.84 11.42 127.447 11.7C127.06 11.98 126.584 12.12 126.017 12.12C125.717 12.12 125.387 12.0667 125.027 11.96C124.674 11.8533 124.374 11.71 124.127 11.53C124.127 11.05 124.174 10.6033 124.267 10.19C124.534 10.1567 124.75 10.14 124.917 10.14C125.084 10.14 125.197 10.1433 125.257 10.15L125.377 11.12C125.544 11.18 125.744 11.21 125.977 11.21C126.21 11.21 126.394 11.1633 126.527 11.07C126.667 10.9767 126.737 10.8467 126.737 10.68C126.737 10.5067 126.66 10.3633 126.507 10.25C126.354 10.1367 126.144 10.02 125.877 9.9C125.61 9.77333 125.404 9.67 125.257 9.59C125.11 9.50333 124.954 9.39333 124.787 9.26C124.447 9 124.277 8.68 124.277 8.3C124.277 7.82667 124.44 7.46 124.767 7.2C125.1 6.93333 125.547 6.8 126.107 6.8C126.667 6.8 127.227 6.94333 127.787 7.23Z" fill="white"/>
<defs>
<linearGradient id="paint0_linear_2716_1193" x1="115.568" y1="9.00004" x2="46.6781" y2="9.00003" gradientUnits="userSpaceOnUse">
<stop stop-color="#ED0000"/>
<stop offset="0.161458" stop-color="#ED0000" stop-opacity="0.838542"/>
<stop offset="1" stop-color="#ED0000" stop-opacity="0"/>
</linearGradient>
</defs>
</svg>
