<svg width="182" height="17" viewBox="0 0 182 17" fill="none" xmlns="http://www.w3.org/2000/svg">
<path d="M0 0H182L169.95 8.5L182 17H0V0Z" fill="url(#paint0_linear_2716_1188)"/>
<path d="M105.35 6.35C105.35 7.81667 105 8.83667 104.3 9.41C104.013 9.63667 103.703 9.79333 103.37 9.88C103.037 9.96 102.6 10 102.06 10H99.47L99.38 9.45C99.8867 9.26333 100.167 9.16667 100.22 9.16C100.22 9.14 100.19 7.37667 100.13 3.87C99.8367 3.79667 99.56 3.71 99.3 3.61C99.34 3.26333 99.3667 3.06 99.38 3H102.03C102.683 3 103.203 3.06667 103.59 3.2C103.983 3.33333 104.33 3.57 104.63 3.91C105.11 4.47 105.35 5.28333 105.35 6.35ZM102.15 9.03C102.91 9.03 103.413 8.84667 103.66 8.48C103.913 8.11333 104.04 7.48 104.04 6.58C104.04 5.68 103.9 5.02667 103.62 4.62C103.34 4.20667 102.873 4 102.22 4H101.49C101.463 6.24667 101.447 7.92333 101.44 9.03H102.15ZM108.06 4.88C108.187 4.88 108.267 4.88333 108.3 4.89C108.3 5.21667 108.243 5.52 108.13 5.8C108.103 7.24 108.087 8.32 108.08 9.04L108.86 9.13C108.86 9.40333 108.783 9.69333 108.63 10H106.14L106.05 9.45C106.463 9.29667 106.763 9.19667 106.95 9.15L106.84 5.91C106.447 5.87 106.157 5.82 105.97 5.76C105.97 5.59333 105.993 5.35333 106.04 5.04C106.433 4.93333 107.107 4.88 108.06 4.88ZM108.06 2.99C108.12 3.29 108.15 3.52 108.15 3.68C108.15 3.83333 108.137 4.00667 108.11 4.2C107.843 4.26 107.617 4.29 107.43 4.29C107.25 4.29 107.03 4.28 106.77 4.26C106.71 3.96 106.68 3.73333 106.68 3.58C106.68 3.42 106.693 3.24333 106.72 3.05C106.987 2.99 107.21 2.96 107.39 2.96C107.577 2.96 107.8 2.97 108.06 2.99ZM112.736 5.23L112.746 5.54C112.746 6.06 112.706 6.4 112.626 6.56C112.406 6.64 112.099 6.68 111.706 6.68L111.386 5.67C111.299 5.63667 111.179 5.62 111.026 5.62C110.873 5.62 110.746 5.66667 110.646 5.76C110.553 5.85333 110.506 5.96333 110.506 6.09C110.506 6.21667 110.556 6.33333 110.656 6.44C110.756 6.54 110.859 6.62 110.966 6.68C111.073 6.74 111.226 6.82 111.426 6.92C111.633 7.01333 111.786 7.08667 111.886 7.14C111.993 7.19333 112.126 7.27333 112.286 7.38C112.453 7.48667 112.579 7.58667 112.666 7.68C112.879 7.93333 112.986 8.21 112.986 8.51C112.986 9.02333 112.789 9.42 112.396 9.7C112.009 9.98 111.533 10.12 110.966 10.12C110.666 10.12 110.336 10.0667 109.976 9.96C109.623 9.85333 109.323 9.71 109.076 9.53C109.076 9.05 109.123 8.60333 109.216 8.19C109.483 8.15667 109.699 8.14 109.866 8.14C110.033 8.14 110.146 8.14333 110.206 8.15L110.326 9.12C110.493 9.18 110.693 9.21 110.926 9.21C111.159 9.21 111.343 9.16333 111.476 9.07C111.616 8.97667 111.686 8.84667 111.686 8.68C111.686 8.50667 111.609 8.36333 111.456 8.25C111.303 8.13667 111.093 8.02 110.826 7.9C110.559 7.77333 110.353 7.67 110.206 7.59C110.059 7.50333 109.903 7.39333 109.736 7.26C109.396 7 109.226 6.68 109.226 6.3C109.226 5.82667 109.389 5.46 109.716 5.2C110.049 4.93333 110.496 4.8 111.056 4.8C111.616 4.8 112.176 4.94333 112.736 5.23ZM116.338 5.63L116.178 5.62C115.804 5.62 115.504 5.75 115.278 6.01C115.058 6.26333 114.948 6.69333 114.948 7.3C114.948 7.9 115.031 8.35667 115.198 8.67C115.371 8.98333 115.701 9.14 116.188 9.14C116.414 9.14 116.894 8.98667 117.628 8.68C117.794 8.91333 117.884 9.15667 117.898 9.41C117.531 9.63667 117.171 9.81333 116.818 9.94C116.471 10.0667 116.224 10.13 116.078 10.13C115.258 10.13 114.644 9.90667 114.238 9.46C113.831 9.00667 113.628 8.37333 113.628 7.56C113.628 5.72 114.458 4.8 116.118 4.8C116.404 4.8 116.698 4.83667 116.998 4.91C117.304 4.97667 117.544 5.06333 117.718 5.17C117.698 5.83667 117.624 6.32 117.498 6.62C117.278 6.67333 116.968 6.7 116.568 6.7L116.338 5.63ZM120.934 5.6C120.694 5.6 120.421 5.66 120.114 5.78C120.028 5.91333 119.944 6.15 119.864 6.49C119.791 6.82333 119.754 7.16 119.754 7.5C119.754 8.12667 119.848 8.57333 120.034 8.84C120.221 9.1 120.521 9.23 120.934 9.23C121.354 9.23 121.658 9.1 121.844 8.84C122.031 8.57333 122.124 8.12 122.124 7.48C122.124 6.83333 122.028 6.36 121.834 6.06C121.648 5.75333 121.348 5.6 120.934 5.6ZM120.934 4.8C121.714 4.8 122.341 5.04 122.814 5.52C123.294 5.99333 123.534 6.65667 123.534 7.51C123.534 8.35667 123.298 9.00333 122.824 9.45C122.351 9.89667 121.721 10.12 120.934 10.12C120.148 10.12 119.518 9.89667 119.044 9.45C118.578 9.00333 118.344 8.35667 118.344 7.51C118.344 6.65667 118.581 5.99333 119.054 5.52C119.528 5.04 120.154 4.8 120.934 4.8ZM126.405 8.5L126.775 7.01L127.305 5.73C127.079 5.69 126.799 5.60333 126.465 5.47L126.555 4.92H129.045C129.199 5.22667 129.275 5.51667 129.275 5.79C129.015 5.83 128.755 5.85667 128.495 5.87C128.362 6.31667 128.099 7.00667 127.705 7.94C127.319 8.87333 127.059 9.56 126.925 10H125.635L124.045 5.88L123.265 5.79C123.265 5.51667 123.342 5.22667 123.495 4.92H125.985L126.075 5.47C125.802 5.59667 125.572 5.68333 125.385 5.73L125.865 7L126.215 8.5H126.405ZM132.234 9.14C132.46 9.14 132.92 8.98333 133.614 8.67C133.76 8.88333 133.87 9.13 133.944 9.41C133.577 9.63667 133.217 9.81333 132.864 9.94C132.517 10.06 132.27 10.12 132.124 10.12C131.317 10.12 130.704 9.89667 130.284 9.45C129.87 9.00333 129.664 8.37 129.664 7.55C129.664 6.72333 129.87 6.06 130.284 5.56C130.697 5.05333 131.31 4.8 132.124 4.8C132.77 4.8 133.264 5.01 133.604 5.43C133.944 5.85 134.114 6.39667 134.114 7.07C134.114 7.21 134.034 7.37 133.874 7.55L130.994 7.5C131.007 8.03333 131.107 8.44 131.294 8.72C131.48 9 131.794 9.14 132.234 9.14ZM132.034 5.63C131.78 5.63 131.544 5.68 131.324 5.78C131.17 6.1 131.074 6.39667 131.034 6.67C131.554 6.65 132.144 6.63667 132.804 6.63C132.77 5.96333 132.514 5.63 132.034 5.63ZM137.641 5.88C137.628 5.84667 137.561 5.83 137.441 5.83C137.321 5.83 137.114 5.92 136.821 6.1C136.794 7.40667 136.778 8.38667 136.771 9.04L137.551 9.14C137.551 9.42667 137.474 9.71333 137.321 10H134.831L134.741 9.45C135.154 9.29667 135.454 9.19667 135.641 9.15L135.531 5.91C135.184 5.88333 134.894 5.83333 134.661 5.76L134.731 5.04C134.911 4.96 135.561 4.90667 136.681 4.88C136.741 4.94 136.771 5.05667 136.771 5.23C137.358 4.94333 137.728 4.8 137.881 4.8C138.041 4.8 138.234 4.84 138.461 4.92C138.694 4.99333 138.871 5.07333 138.991 5.16V5.33C138.991 5.87667 138.924 6.38333 138.791 6.85C138.678 6.89667 138.528 6.92 138.341 6.92C138.154 6.92 137.981 6.91 137.821 6.89C137.801 6.80333 137.741 6.46667 137.641 5.88ZM140.563 12.42C140.37 12.42 140.156 12.3867 139.923 12.32C139.69 12.2533 139.44 12.1533 139.173 12.02C139.213 11.2533 139.25 10.7967 139.283 10.65C139.536 10.5833 139.743 10.55 139.903 10.55C140.07 10.55 140.176 10.5533 140.223 10.56L140.543 11.56L140.633 11.55C140.786 11.53 140.943 11.3467 141.103 11C141.263 10.6533 141.38 10.32 141.453 10H141.033L139.553 5.88L138.773 5.79C138.773 5.51667 138.85 5.22667 139.003 4.92H141.493L141.583 5.47C141.31 5.59667 141.08 5.68333 140.893 5.73L141.653 8.1L141.743 8.53H141.963L142.813 5.73C142.586 5.69 142.306 5.60333 141.973 5.47L142.063 4.92H144.553C144.706 5.22667 144.783 5.51667 144.783 5.79C144.523 5.83 144.263 5.85667 144.003 5.87C143.403 7.63 142.933 8.99 142.593 9.95C142.26 10.91 141.956 11.56 141.683 11.9C141.41 12.2467 141.036 12.42 140.563 12.42Z" fill="white"/>
<defs>
<linearGradient id="paint0_linear_2716_1188" x1="150.418" y1="8.99998" x2="13.9176" y2="8.99997" gradientUnits="userSpaceOnUse">
<stop stop-color="#ED8E00"/>
<stop offset="1" stop-opacity="0"/>
</linearGradient>
</defs>
</svg>
