<svg width="141" height="17" viewBox="0 0 141 17" fill="none" xmlns="http://www.w3.org/2000/svg">
<path d="M0 0H141L131.664 8.5L141 17H0V0Z" fill="url(#paint0_linear_2716_1188)"/>
<path d="M82.35 7.35C82.35 8.81667 82 9.83667 81.3 10.41C81.0133 10.6367 80.7033 10.7933 80.37 10.88C80.0367 10.96 79.6 11 79.06 11H76.47L76.38 10.45C76.8867 10.2633 77.1667 10.1667 77.22 10.16C77.22 10.14 77.19 8.37667 77.13 4.87C76.8367 4.79667 76.56 4.71 76.3 4.61C76.34 4.26333 76.3667 4.06 76.38 4H79.03C79.6833 4 80.2033 4.06667 80.59 4.2C80.9833 4.33333 81.33 4.57 81.63 4.91C82.11 5.47 82.35 6.28333 82.35 7.35ZM79.15 10.03C79.91 10.03 80.4133 9.84667 80.66 9.48C80.9133 9.11333 81.04 8.48 81.04 7.58C81.04 6.68 80.9 6.02667 80.62 5.62C80.34 5.20667 79.8733 5 79.22 5H78.49C78.4633 7.24667 78.4467 8.92333 78.44 10.03H79.15ZM85.0599 5.88C85.1866 5.88 85.2666 5.88333 85.2999 5.89C85.2999 6.21667 85.2433 6.52 85.1299 6.8C85.1033 8.24 85.0866 9.32 85.0799 10.04L85.8599 10.13C85.8599 10.4033 85.7833 10.6933 85.6299 11H83.1399L83.0499 10.45C83.4633 10.2967 83.7633 10.1967 83.9499 10.15L83.8399 6.91C83.4466 6.87 83.1566 6.82 82.9699 6.76C82.9699 6.59333 82.9933 6.35333 83.0399 6.04C83.4333 5.93333 84.1066 5.88 85.0599 5.88ZM85.0599 3.99C85.1199 4.29 85.1499 4.52 85.1499 4.68C85.1499 4.83333 85.1366 5.00667 85.1099 5.2C84.8433 5.26 84.6166 5.29 84.4299 5.29C84.2499 5.29 84.0299 5.28 83.7699 5.26C83.7099 4.96 83.6799 4.73333 83.6799 4.58C83.6799 4.42 83.6933 4.24333 83.7199 4.05C83.9866 3.99 84.2099 3.96 84.3899 3.96C84.5766 3.96 84.7999 3.97 85.0599 3.99ZM89.7361 6.23L89.7461 6.54C89.7461 7.06 89.7061 7.4 89.6261 7.56C89.4061 7.64 89.0994 7.68 88.7061 7.68L88.3861 6.67C88.2994 6.63667 88.1794 6.62 88.0261 6.62C87.8728 6.62 87.7461 6.66667 87.6461 6.76C87.5528 6.85333 87.5061 6.96333 87.5061 7.09C87.5061 7.21667 87.5561 7.33333 87.6561 7.44C87.7561 7.54 87.8594 7.62 87.9661 7.68C88.0728 7.74 88.2261 7.82 88.4261 7.92C88.6328 8.01333 88.7861 8.08667 88.8861 8.14C88.9928 8.19333 89.1261 8.27333 89.2861 8.38C89.4528 8.48667 89.5794 8.58667 89.6661 8.68C89.8794 8.93333 89.9861 9.21 89.9861 9.51C89.9861 10.0233 89.7894 10.42 89.3961 10.7C89.0094 10.98 88.5328 11.12 87.9661 11.12C87.6661 11.12 87.3361 11.0667 86.9761 10.96C86.6228 10.8533 86.3228 10.71 86.0761 10.53C86.0761 10.05 86.1228 9.60333 86.2161 9.19C86.4828 9.15667 86.6994 9.14 86.8661 9.14C87.0328 9.14 87.1461 9.14333 87.2061 9.15L87.3261 10.12C87.4928 10.18 87.6928 10.21 87.9261 10.21C88.1594 10.21 88.3428 10.1633 88.4761 10.07C88.6161 9.97667 88.6861 9.84667 88.6861 9.68C88.6861 9.50667 88.6094 9.36333 88.4561 9.25C88.3028 9.13667 88.0928 9.02 87.8261 8.9C87.5594 8.77333 87.3528 8.67 87.2061 8.59C87.0594 8.50333 86.9028 8.39333 86.7361 8.26C86.3961 8 86.2261 7.68 86.2261 7.3C86.2261 6.82667 86.3894 6.46 86.7161 6.2C87.0494 5.93333 87.4961 5.8 88.0561 5.8C88.6161 5.8 89.1761 5.94333 89.7361 6.23ZM93.3376 6.63L93.1776 6.62C92.8042 6.62 92.5042 6.75 92.2776 7.01C92.0576 7.26333 91.9476 7.69333 91.9476 8.3C91.9476 8.9 92.0309 9.35667 92.1976 9.67C92.3709 9.98333 92.7009 10.14 93.1876 10.14C93.4142 10.14 93.8942 9.98667 94.6276 9.68C94.7942 9.91333 94.8842 10.1567 94.8976 10.41C94.5309 10.6367 94.1709 10.8133 93.8176 10.94C93.4709 11.0667 93.2242 11.13 93.0776 11.13C92.2576 11.13 91.6442 10.9067 91.2376 10.46C90.8309 10.0067 90.6276 9.37333 90.6276 8.56C90.6276 6.72 91.4576 5.8 93.1176 5.8C93.4042 5.8 93.6976 5.83667 93.9976 5.91C94.3042 5.97667 94.5442 6.06333 94.7176 6.17C94.6976 6.83667 94.6242 7.32 94.4976 7.62C94.2776 7.67333 93.9676 7.7 93.5676 7.7L93.3376 6.63ZM97.9344 6.6C97.6944 6.6 97.421 6.66 97.1144 6.78C97.0277 6.91333 96.9444 7.15 96.8644 7.49C96.791 7.82333 96.7544 8.16 96.7544 8.5C96.7544 9.12667 96.8477 9.57333 97.0344 9.84C97.221 10.1 97.521 10.23 97.9344 10.23C98.3544 10.23 98.6577 10.1 98.8444 9.84C99.031 9.57333 99.1244 9.12 99.1244 8.48C99.1244 7.83333 99.0277 7.36 98.8344 7.06C98.6477 6.75333 98.3477 6.6 97.9344 6.6ZM97.9344 5.8C98.7144 5.8 99.341 6.04 99.8144 6.52C100.294 6.99333 100.534 7.65667 100.534 8.51C100.534 9.35667 100.298 10.0033 99.8244 10.45C99.351 10.8967 98.721 11.12 97.9344 11.12C97.1477 11.12 96.5177 10.8967 96.0444 10.45C95.5777 10.0033 95.3444 9.35667 95.3444 8.51C95.3444 7.65667 95.581 6.99333 96.0544 6.52C96.5277 6.04 97.1544 5.8 97.9344 5.8ZM103.405 9.5L103.775 8.01L104.305 6.73C104.079 6.69 103.799 6.60333 103.465 6.47L103.555 5.92H106.045C106.199 6.22667 106.275 6.51667 106.275 6.79C106.015 6.83 105.755 6.85667 105.495 6.87C105.362 7.31667 105.099 8.00667 104.705 8.94C104.319 9.87333 104.059 10.56 103.925 11H102.635L101.045 6.88L100.265 6.79C100.265 6.51667 100.342 6.22667 100.495 5.92H102.985L103.075 6.47C102.802 6.59667 102.572 6.68333 102.385 6.73L102.865 8L103.215 9.5H103.405ZM109.234 10.14C109.46 10.14 109.92 9.98333 110.614 9.67C110.76 9.88333 110.87 10.13 110.944 10.41C110.577 10.6367 110.217 10.8133 109.864 10.94C109.517 11.06 109.27 11.12 109.124 11.12C108.317 11.12 107.704 10.8967 107.284 10.45C106.87 10.0033 106.664 9.37 106.664 8.55C106.664 7.72333 106.87 7.06 107.284 6.56C107.697 6.05333 108.31 5.8 109.124 5.8C109.77 5.8 110.264 6.01 110.604 6.43C110.944 6.85 111.114 7.39667 111.114 8.07C111.114 8.21 111.034 8.37 110.874 8.55L107.994 8.5C108.007 9.03333 108.107 9.44 108.294 9.72C108.48 10 108.794 10.14 109.234 10.14ZM109.034 6.63C108.78 6.63 108.544 6.68 108.324 6.78C108.17 7.1 108.074 7.39667 108.034 7.67C108.554 7.65 109.144 7.63667 109.804 7.63C109.77 6.96333 109.514 6.63 109.034 6.63ZM114.641 6.88C114.628 6.84667 114.561 6.83 114.441 6.83C114.321 6.83 114.114 6.92 113.821 7.1C113.794 8.40667 113.778 9.38667 113.771 10.04L114.551 10.14C114.551 10.4267 114.474 10.7133 114.321 11H111.831L111.741 10.45C112.154 10.2967 112.454 10.1967 112.641 10.15L112.531 6.91C112.184 6.88333 111.894 6.83333 111.661 6.76L111.731 6.04C111.911 5.96 112.561 5.90667 113.681 5.88C113.741 5.94 113.771 6.05667 113.771 6.23C114.358 5.94333 114.728 5.8 114.881 5.8C115.041 5.8 115.234 5.84 115.461 5.92C115.694 5.99333 115.871 6.07333 115.991 6.16V6.33C115.991 6.87667 115.924 7.38333 115.791 7.85C115.678 7.89667 115.528 7.92 115.341 7.92C115.154 7.92 114.981 7.91 114.821 7.89C114.801 7.80333 114.741 7.46667 114.641 6.88ZM117.563 13.42C117.37 13.42 117.156 13.3867 116.923 13.32C116.69 13.2533 116.44 13.1533 116.173 13.02C116.213 12.2533 116.25 11.7967 116.283 11.65C116.536 11.5833 116.743 11.55 116.903 11.55C117.07 11.55 117.176 11.5533 117.223 11.56L117.543 12.56L117.633 12.55C117.786 12.53 117.943 12.3467 118.103 12C118.263 11.6533 118.38 11.32 118.453 11H118.033L116.553 6.88L115.773 6.79C115.773 6.51667 115.85 6.22667 116.003 5.92H118.493L118.583 6.47C118.31 6.59667 118.08 6.68333 117.893 6.73L118.653 9.1L118.743 9.53H118.963L119.813 6.73C119.586 6.69 119.306 6.60333 118.973 6.47L119.063 5.92H121.553C121.706 6.22667 121.783 6.51667 121.783 6.79C121.523 6.83 121.263 6.85667 121.003 6.87C120.403 8.63 119.933 9.99 119.593 10.95C119.26 11.91 118.956 12.56 118.683 12.9C118.41 13.2467 118.036 13.42 117.563 13.42Z" fill="white"/>
<defs>
<linearGradient id="paint0_linear_2716_1188" x1="116.532" y1="8.99998" x2="10.7824" y2="8.99997" gradientUnits="userSpaceOnUse">
<stop stop-color="#ED8E00"/>
<stop offset="1" stop-opacity="0"/>
</linearGradient>
</defs>
</svg>
