<svg width="182" height="17" viewBox="0 0 182 17" fill="none" xmlns="http://www.w3.org/2000/svg">
<path d="M0 0H182L169.95 8.5L182 17H0V0Z" fill="url(#paint0_linear_2716_1189)"/>
<path d="M101.49 6C101.49 6.76 101.483 7.41333 101.47 7.96H102.49L102.59 7.27C102.93 7.27 103.26 7.35333 103.58 7.52V9.52L102.92 9.55C102.76 9.31 102.667 9.1 102.64 8.92H101.46C101.447 9.85333 101.44 10.5567 101.44 11.03H103.15L103.37 10.16C103.783 10.16 104.097 10.18 104.31 10.22C104.41 10.6 104.46 10.9467 104.46 11.26C104.46 11.5667 104.45 11.8133 104.43 12H99.47L99.38 11.45C99.8133 11.2833 100.093 11.1867 100.22 11.16C100.213 10.7667 100.207 10.2133 100.2 9.5C100.173 7.9 100.15 6.69 100.13 5.87L99.3 5.61L99.38 5H104.29C104.31 5.18 104.32 5.40667 104.32 5.68C104.32 5.94667 104.27 6.32 104.17 6.8C103.963 6.86667 103.65 6.9 103.23 6.9L103 6H101.49ZM107.987 10.5L108.357 9.01L108.887 7.73C108.661 7.69 108.381 7.60333 108.047 7.47L108.137 6.92H110.627C110.781 7.22667 110.857 7.51667 110.857 7.79C110.597 7.83 110.337 7.85667 110.077 7.87C109.944 8.31667 109.681 9.00667 109.287 9.94C108.901 10.8733 108.641 11.56 108.507 12H107.217L105.627 7.88L104.847 7.79C104.847 7.51667 104.924 7.22667 105.077 6.92H107.567L107.657 7.47C107.384 7.59667 107.154 7.68333 106.967 7.73L107.447 9L107.797 10.5H107.987ZM113.036 12.12C112.469 12.12 112.029 12.0033 111.716 11.77C111.409 11.5367 111.256 11.1433 111.256 10.59C111.256 10.0633 111.439 9.63333 111.806 9.3C112.019 9.10667 112.316 8.99333 112.696 8.96C113.076 8.92667 113.599 8.91 114.266 8.91V8.75C114.266 8.34333 114.199 8.04667 114.066 7.86C113.939 7.66667 113.712 7.57 113.386 7.57C113.219 7.57 113.069 7.60333 112.936 7.67L112.696 8.54L111.956 8.52C111.789 8.26667 111.699 7.86333 111.686 7.31C111.819 7.24333 112.132 7.14333 112.626 7.01C113.119 6.87 113.436 6.8 113.576 6.8C114.296 6.8 114.819 6.95 115.146 7.25C115.472 7.54333 115.636 8.01333 115.636 8.66C115.636 9.3 115.606 10.1467 115.546 11.2C115.926 11.2333 116.219 11.29 116.426 11.37C116.432 11.45 116.436 11.5467 116.436 11.66L116.426 11.88C115.946 12.04 115.462 12.12 114.976 12.12C114.849 12.12 114.756 12.1167 114.696 12.11C114.596 11.91 114.536 11.67 114.516 11.39H114.466C114.339 11.51 114.116 11.6633 113.796 11.85C113.482 12.03 113.229 12.12 113.036 12.12ZM112.536 10.65C112.536 10.87 112.602 11.0333 112.736 11.14C112.876 11.24 113.032 11.29 113.206 11.29C113.379 11.29 113.586 11.2133 113.826 11.06C114.066 10.9 114.259 10.7567 114.406 10.63L114.356 9.71C113.829 9.73667 113.432 9.78667 113.166 9.86C112.746 9.94667 112.536 10.21 112.536 10.65ZM118.516 4.57C118.643 4.57 118.723 4.57333 118.756 4.58C118.756 4.92667 118.713 5.23 118.626 5.49C118.62 5.90333 118.61 6.48667 118.596 7.24C118.57 8.89333 118.55 10.16 118.536 11.04L119.316 11.13C119.316 11.4033 119.24 11.6933 119.086 12H116.596L116.506 11.45C116.92 11.2967 117.22 11.1967 117.406 11.15L117.216 5.6C116.903 5.56667 116.64 5.51667 116.426 5.45C116.426 5.20333 116.45 4.96333 116.496 4.73C116.89 4.62333 117.563 4.57 118.516 4.57ZM124.276 6.88C124.402 6.88 124.482 6.88333 124.516 6.89C124.516 7.23 124.459 7.52333 124.346 7.77C124.306 9.23667 124.272 10.32 124.246 11.02C124.546 11.0467 124.809 11.0967 125.036 11.17L125.016 11.87C124.609 11.9967 124.259 12.06 123.966 12.06C123.672 12.06 123.472 12.0533 123.366 12.04C123.286 11.88 123.219 11.72 123.166 11.56C122.612 11.9333 122.212 12.12 121.966 12.12C120.772 12.12 120.176 11.5167 120.176 10.31C120.176 9.98333 120.202 9.18 120.256 7.9C119.902 7.9 119.579 7.85333 119.286 7.76C119.286 7.59333 119.309 7.35333 119.356 7.04C119.749 6.93333 120.422 6.88 121.376 6.88C121.502 6.88 121.582 6.88333 121.616 6.89C121.616 7.21667 121.559 7.52 121.446 7.8V9.82C121.446 10.2467 121.489 10.56 121.576 10.76C121.669 10.9533 121.862 11.05 122.156 11.05C122.456 11.05 122.762 10.9467 123.076 10.74L123.016 7.9C122.722 7.88667 122.446 7.84 122.186 7.76C122.186 7.59333 122.209 7.35333 122.256 7.04C122.649 6.93333 123.322 6.88 124.276 6.88ZM127.323 12.12C126.756 12.12 126.316 12.0033 126.003 11.77C125.696 11.5367 125.543 11.1433 125.543 10.59C125.543 10.0633 125.726 9.63333 126.093 9.3C126.306 9.10667 126.603 8.99333 126.983 8.96C127.363 8.92667 127.886 8.91 128.553 8.91V8.75C128.553 8.34333 128.486 8.04667 128.353 7.86C128.226 7.66667 127.999 7.57 127.673 7.57C127.506 7.57 127.356 7.60333 127.223 7.67L126.983 8.54L126.243 8.52C126.076 8.26667 125.986 7.86333 125.973 7.31C126.106 7.24333 126.419 7.14333 126.913 7.01C127.406 6.87 127.723 6.8 127.863 6.8C128.583 6.8 129.106 6.95 129.433 7.25C129.759 7.54333 129.923 8.01333 129.923 8.66C129.923 9.3 129.893 10.1467 129.833 11.2C130.213 11.2333 130.506 11.29 130.713 11.37C130.719 11.45 130.723 11.5467 130.723 11.66L130.713 11.88C130.233 12.04 129.749 12.12 129.263 12.12C129.136 12.12 129.043 12.1167 128.983 12.11C128.883 11.91 128.823 11.67 128.803 11.39H128.753C128.626 11.51 128.403 11.6633 128.083 11.85C127.769 12.03 127.516 12.12 127.323 12.12ZM126.823 10.65C126.823 10.87 126.889 11.0333 127.023 11.14C127.163 11.24 127.319 11.29 127.493 11.29C127.666 11.29 127.873 11.2133 128.113 11.06C128.353 10.9 128.546 10.7567 128.693 10.63L128.643 9.71C128.116 9.73667 127.719 9.78667 127.453 9.86C127.033 9.94667 126.823 10.21 126.823 10.65ZM132.043 12.12L131.823 12.11C131.783 12.0367 131.73 11.9 131.663 11.7C131.597 11.5 131.56 11.35 131.553 11.25C131.52 10.59 131.483 9.44667 131.443 7.82H130.743L130.773 7.25C130.927 7.14333 131.11 7.04667 131.323 6.96L132.133 5.68C132.393 5.70667 132.597 5.77667 132.743 5.89L132.733 6.84C133.153 6.85333 133.543 6.89333 133.903 6.96C133.903 7.22667 133.82 7.51333 133.653 7.82H132.723C132.697 9.22 132.68 10.27 132.673 10.97C132.94 10.9967 133.303 11.0733 133.763 11.2L133.753 11.72C133.64 11.7933 133.387 11.88 132.993 11.98C132.607 12.0733 132.29 12.12 132.043 12.12ZM136.39 6.88C136.517 6.88 136.597 6.88333 136.63 6.89C136.63 7.21667 136.573 7.52 136.46 7.8C136.433 9.24 136.417 10.32 136.41 11.04L137.19 11.13C137.19 11.4033 137.113 11.6933 136.96 12H134.47L134.38 11.45C134.793 11.2967 135.093 11.1967 135.28 11.15L135.17 7.91C134.777 7.87 134.487 7.82 134.3 7.76C134.3 7.59333 134.323 7.35333 134.37 7.04C134.763 6.93333 135.437 6.88 136.39 6.88ZM136.39 4.99C136.45 5.29 136.48 5.52 136.48 5.68C136.48 5.83333 136.467 6.00667 136.44 6.2C136.173 6.26 135.947 6.29 135.76 6.29C135.58 6.29 135.36 6.28 135.1 6.26C135.04 5.96 135.01 5.73333 135.01 5.58C135.01 5.42 135.023 5.24333 135.05 5.05C135.317 4.99 135.54 4.96 135.72 4.96C135.907 4.96 136.13 4.97 136.39 4.99ZM140.026 7.6C139.786 7.6 139.513 7.66 139.206 7.78C139.12 7.91333 139.036 8.15 138.956 8.49C138.883 8.82333 138.846 9.16 138.846 9.5C138.846 10.1267 138.94 10.5733 139.126 10.84C139.313 11.1 139.613 11.23 140.026 11.23C140.446 11.23 140.75 11.1 140.936 10.84C141.123 10.5733 141.216 10.12 141.216 9.48C141.216 8.83333 141.12 8.36 140.926 8.06C140.74 7.75333 140.44 7.6 140.026 7.6ZM140.026 6.8C140.806 6.8 141.433 7.04 141.906 7.52C142.386 7.99333 142.626 8.65667 142.626 9.51C142.626 10.3567 142.39 11.0033 141.916 11.45C141.443 11.8967 140.813 12.12 140.026 12.12C139.24 12.12 138.61 11.8967 138.136 11.45C137.67 11.0033 137.436 10.3567 137.436 9.51C137.436 8.65667 137.673 7.99333 138.146 7.52C138.62 7.04 139.246 6.8 140.026 6.8ZM146.097 6.8C146.764 6.8 147.247 6.96333 147.547 7.29C147.847 7.61667 147.997 8.07333 147.997 8.66C147.997 9.24667 147.964 10.04 147.897 11.04L148.687 11.13C148.687 11.4033 148.61 11.6933 148.457 12H145.967L145.877 11.45C146.19 11.3233 146.48 11.2233 146.747 11.15C146.727 10.3833 146.707 9.74 146.687 9.22C146.667 8.69333 146.617 8.33667 146.537 8.15C146.457 7.96333 146.28 7.87 146.007 7.87C145.594 7.87 145.224 7.94333 144.897 8.09C144.89 8.37667 144.87 8.84667 144.837 9.5C144.81 10.1467 144.794 10.66 144.787 11.04L145.567 11.13C145.567 11.4033 145.49 11.6933 145.337 12H142.847L142.757 11.45C143.09 11.3233 143.39 11.2233 143.657 11.15C143.65 10.75 143.627 10.1967 143.587 9.49C143.554 8.78333 143.534 8.26 143.527 7.92C143.28 7.89333 143.017 7.84333 142.737 7.77L142.787 7.05C143.254 6.92333 143.78 6.86 144.367 6.86C144.44 6.90667 144.54 7.05 144.667 7.29C144.894 7.17667 145.17 7.06667 145.497 6.96C145.824 6.85333 146.024 6.8 146.097 6.8Z" fill="white"/>
<defs>
<linearGradient id="paint0_linear_2716_1189" x1="154.454" y1="9.00001" x2="25.5784" y2="9.00003" gradientUnits="userSpaceOnUse">
<stop stop-color="#2FED00"/>
<stop offset="0.971754" stop-color="#2FED00" stop-opacity="0"/>
</linearGradient>
</defs>
</svg>
