<svg width="141" height="17" viewBox="0 0 141 17" fill="none" xmlns="http://www.w3.org/2000/svg">
<path d="M0 0H141L131.664 8.5L141 17H0V0Z" fill="url(#paint0_linear_2716_1189)"/>
<path d="M79.49 6C79.49 6.76 79.4833 7.41333 79.47 7.96H80.49L80.59 7.27C80.93 7.27 81.26 7.35333 81.58 7.52V9.52L80.92 9.55C80.76 9.31 80.6667 9.1 80.64 8.92H79.46C79.4467 9.85333 79.44 10.5567 79.44 11.03H81.15L81.37 10.16C81.7833 10.16 82.0967 10.18 82.31 10.22C82.41 10.6 82.46 10.9467 82.46 11.26C82.46 11.5667 82.45 11.8133 82.43 12H77.47L77.38 11.45C77.8133 11.2833 78.0933 11.1867 78.22 11.16C78.2133 10.7667 78.2067 10.2133 78.2 9.5C78.1733 7.9 78.15 6.69 78.13 5.87L77.3 5.61L77.38 5H82.29C82.31 5.18 82.32 5.40667 82.32 5.68C82.32 5.94667 82.27 6.32 82.17 6.8C81.9633 6.86667 81.65 6.9 81.23 6.9L81 6H79.49ZM85.9873 10.5L86.3573 9.01L86.8873 7.73C86.6606 7.69 86.3806 7.60333 86.0473 7.47L86.1373 6.92H88.6273C88.7806 7.22667 88.8573 7.51667 88.8573 7.79C88.5973 7.83 88.3373 7.85667 88.0773 7.87C87.9439 8.31667 87.6806 9.00667 87.2873 9.94C86.9006 10.8733 86.6406 11.56 86.5073 12H85.2173L83.6273 7.88L82.8473 7.79C82.8473 7.51667 82.9239 7.22667 83.0773 6.92H85.5673L85.6573 7.47C85.3839 7.59667 85.1539 7.68333 84.9673 7.73L85.4473 9L85.7973 10.5H85.9873ZM91.0357 12.12C90.469 12.12 90.029 12.0033 89.7157 11.77C89.409 11.5367 89.2557 11.1433 89.2557 10.59C89.2557 10.0633 89.439 9.63333 89.8057 9.3C90.019 9.10667 90.3157 8.99333 90.6957 8.96C91.0757 8.92667 91.599 8.91 92.2657 8.91V8.75C92.2657 8.34333 92.199 8.04667 92.0657 7.86C91.939 7.66667 91.7124 7.57 91.3857 7.57C91.219 7.57 91.069 7.60333 90.9357 7.67L90.6957 8.54L89.9557 8.52C89.789 8.26667 89.699 7.86333 89.6857 7.31C89.819 7.24333 90.1324 7.14333 90.6257 7.01C91.119 6.87 91.4357 6.8 91.5757 6.8C92.2957 6.8 92.819 6.95 93.1457 7.25C93.4724 7.54333 93.6357 8.01333 93.6357 8.66C93.6357 9.3 93.6057 10.1467 93.5457 11.2C93.9257 11.2333 94.219 11.29 94.4257 11.37C94.4324 11.45 94.4357 11.5467 94.4357 11.66L94.4257 11.88C93.9457 12.04 93.4624 12.12 92.9757 12.12C92.849 12.12 92.7557 12.1167 92.6957 12.11C92.5957 11.91 92.5357 11.67 92.5157 11.39H92.4657C92.339 11.51 92.1157 11.6633 91.7957 11.85C91.4824 12.03 91.229 12.12 91.0357 12.12ZM90.5357 10.65C90.5357 10.87 90.6024 11.0333 90.7357 11.14C90.8757 11.24 91.0324 11.29 91.2057 11.29C91.379 11.29 91.5857 11.2133 91.8257 11.06C92.0657 10.9 92.259 10.7567 92.4057 10.63L92.3557 9.71C91.829 9.73667 91.4324 9.78667 91.1657 9.86C90.7457 9.94667 90.5357 10.21 90.5357 10.65ZM96.5163 4.57C96.643 4.57 96.723 4.57333 96.7563 4.58C96.7563 4.92667 96.713 5.23 96.6263 5.49C96.6197 5.90333 96.6097 6.48667 96.5963 7.24C96.5697 8.89333 96.5497 10.16 96.5363 11.04L97.3163 11.13C97.3163 11.4033 97.2397 11.6933 97.0863 12H94.5963L94.5063 11.45C94.9197 11.2967 95.2197 11.1967 95.4063 11.15L95.2163 5.6C94.903 5.56667 94.6397 5.51667 94.4263 5.45C94.4263 5.20333 94.4497 4.96333 94.4963 4.73C94.8897 4.62333 95.563 4.57 96.5163 4.57ZM102.276 6.88C102.402 6.88 102.482 6.88333 102.516 6.89C102.516 7.23 102.459 7.52333 102.346 7.77C102.306 9.23667 102.272 10.32 102.246 11.02C102.546 11.0467 102.809 11.0967 103.036 11.17L103.016 11.87C102.609 11.9967 102.259 12.06 101.966 12.06C101.672 12.06 101.472 12.0533 101.366 12.04C101.286 11.88 101.219 11.72 101.166 11.56C100.612 11.9333 100.212 12.12 99.9655 12.12C98.7722 12.12 98.1755 11.5167 98.1755 10.31C98.1755 9.98333 98.2022 9.18 98.2555 7.9C97.9022 7.9 97.5789 7.85333 97.2855 7.76C97.2855 7.59333 97.3089 7.35333 97.3555 7.04C97.7489 6.93333 98.4222 6.88 99.3755 6.88C99.5022 6.88 99.5822 6.88333 99.6155 6.89C99.6155 7.21667 99.5589 7.52 99.4455 7.8V9.82C99.4455 10.2467 99.4889 10.56 99.5755 10.76C99.6689 10.9533 99.8622 11.05 100.156 11.05C100.456 11.05 100.762 10.9467 101.076 10.74L101.016 7.9C100.722 7.88667 100.446 7.84 100.186 7.76C100.186 7.59333 100.209 7.35333 100.256 7.04C100.649 6.93333 101.322 6.88 102.276 6.88ZM105.323 12.12C104.756 12.12 104.316 12.0033 104.003 11.77C103.696 11.5367 103.543 11.1433 103.543 10.59C103.543 10.0633 103.726 9.63333 104.093 9.3C104.306 9.10667 104.603 8.99333 104.983 8.96C105.363 8.92667 105.886 8.91 106.553 8.91V8.75C106.553 8.34333 106.486 8.04667 106.353 7.86C106.226 7.66667 105.999 7.57 105.673 7.57C105.506 7.57 105.356 7.60333 105.223 7.67L104.983 8.54L104.243 8.52C104.076 8.26667 103.986 7.86333 103.973 7.31C104.106 7.24333 104.419 7.14333 104.913 7.01C105.406 6.87 105.723 6.8 105.863 6.8C106.583 6.8 107.106 6.95 107.433 7.25C107.759 7.54333 107.923 8.01333 107.923 8.66C107.923 9.3 107.893 10.1467 107.833 11.2C108.213 11.2333 108.506 11.29 108.713 11.37C108.719 11.45 108.723 11.5467 108.723 11.66L108.713 11.88C108.233 12.04 107.749 12.12 107.263 12.12C107.136 12.12 107.043 12.1167 106.983 12.11C106.883 11.91 106.823 11.67 106.803 11.39H106.753C106.626 11.51 106.403 11.6633 106.083 11.85C105.769 12.03 105.516 12.12 105.323 12.12ZM104.823 10.65C104.823 10.87 104.889 11.0333 105.023 11.14C105.163 11.24 105.319 11.29 105.493 11.29C105.666 11.29 105.873 11.2133 106.113 11.06C106.353 10.9 106.546 10.7567 106.693 10.63L106.643 9.71C106.116 9.73667 105.719 9.78667 105.453 9.86C105.033 9.94667 104.823 10.21 104.823 10.65ZM110.043 12.12L109.823 12.11C109.783 12.0367 109.73 11.9 109.663 11.7C109.597 11.5 109.56 11.35 109.553 11.25C109.52 10.59 109.483 9.44667 109.443 7.82H108.743L108.773 7.25C108.927 7.14333 109.11 7.04667 109.323 6.96L110.133 5.68C110.393 5.70667 110.597 5.77667 110.743 5.89L110.733 6.84C111.153 6.85333 111.543 6.89333 111.903 6.96C111.903 7.22667 111.82 7.51333 111.653 7.82H110.723C110.697 9.22 110.68 10.27 110.673 10.97C110.94 10.9967 111.303 11.0733 111.763 11.2L111.753 11.72C111.64 11.7933 111.387 11.88 110.993 11.98C110.607 12.0733 110.29 12.12 110.043 12.12ZM114.39 6.88C114.517 6.88 114.597 6.88333 114.63 6.89C114.63 7.21667 114.573 7.52 114.46 7.8C114.433 9.24 114.417 10.32 114.41 11.04L115.19 11.13C115.19 11.4033 115.113 11.6933 114.96 12H112.47L112.38 11.45C112.793 11.2967 113.093 11.1967 113.28 11.15L113.17 7.91C112.777 7.87 112.487 7.82 112.3 7.76C112.3 7.59333 112.323 7.35333 112.37 7.04C112.763 6.93333 113.437 6.88 114.39 6.88ZM114.39 4.99C114.45 5.29 114.48 5.52 114.48 5.68C114.48 5.83333 114.467 6.00667 114.44 6.2C114.173 6.26 113.947 6.29 113.76 6.29C113.58 6.29 113.36 6.28 113.1 6.26C113.04 5.96 113.01 5.73333 113.01 5.58C113.01 5.42 113.023 5.24333 113.05 5.05C113.317 4.99 113.54 4.96 113.72 4.96C113.907 4.96 114.13 4.97 114.39 4.99ZM118.026 7.6C117.786 7.6 117.513 7.66 117.206 7.78C117.12 7.91333 117.036 8.15 116.956 8.49C116.883 8.82333 116.846 9.16 116.846 9.5C116.846 10.1267 116.94 10.5733 117.126 10.84C117.313 11.1 117.613 11.23 118.026 11.23C118.446 11.23 118.75 11.1 118.936 10.84C119.123 10.5733 119.216 10.12 119.216 9.48C119.216 8.83333 119.12 8.36 118.926 8.06C118.74 7.75333 118.44 7.6 118.026 7.6ZM118.026 6.8C118.806 6.8 119.433 7.04 119.906 7.52C120.386 7.99333 120.626 8.65667 120.626 9.51C120.626 10.3567 120.39 11.0033 119.916 11.45C119.443 11.8967 118.813 12.12 118.026 12.12C117.24 12.12 116.61 11.8967 116.136 11.45C115.67 11.0033 115.436 10.3567 115.436 9.51C115.436 8.65667 115.673 7.99333 116.146 7.52C116.62 7.04 117.246 6.8 118.026 6.8ZM124.097 6.8C124.764 6.8 125.247 6.96333 125.547 7.29C125.847 7.61667 125.997 8.07333 125.997 8.66C125.997 9.24667 125.964 10.04 125.897 11.04L126.687 11.13C126.687 11.4033 126.61 11.6933 126.457 12H123.967L123.877 11.45C124.19 11.3233 124.48 11.2233 124.747 11.15C124.727 10.3833 124.707 9.74 124.687 9.22C124.667 8.69333 124.617 8.33667 124.537 8.15C124.457 7.96333 124.28 7.87 124.007 7.87C123.594 7.87 123.224 7.94333 122.897 8.09C122.89 8.37667 122.87 8.84667 122.837 9.5C122.81 10.1467 122.794 10.66 122.787 11.04L123.567 11.13C123.567 11.4033 123.49 11.6933 123.337 12H120.847L120.757 11.45C121.09 11.3233 121.39 11.2233 121.657 11.15C121.65 10.75 121.627 10.1967 121.587 9.49C121.554 8.78333 121.534 8.26 121.527 7.92C121.28 7.89333 121.017 7.84333 120.737 7.77L120.787 7.05C121.254 6.92333 121.78 6.86 122.367 6.86C122.44 6.90667 122.54 7.05 122.667 7.29C122.894 7.17667 123.17 7.06667 123.497 6.96C123.824 6.85333 124.024 6.8 124.097 6.8Z" fill="white"/>
<defs>
<linearGradient id="paint0_linear_2716_1189" x1="119.659" y1="9.00001" x2="19.8162" y2="9.00002" gradientUnits="userSpaceOnUse">
<stop stop-color="#2FED00"/>
<stop offset="0.971754" stop-color="#2FED00" stop-opacity="0"/>
</linearGradient>
</defs>
</svg>
