<svg width="182" height="17" viewBox="0 0 182 17" fill="none" xmlns="http://www.w3.org/2000/svg">
<path d="M0 0H182L169.95 8.5L182 17H0V0Z" fill="url(#paint0_linear_2716_1190)"/>
<path d="M103.23 5C103.223 5 103.223 5.00667 103.23 5.02C103.243 5.03333 103.257 5.06333 103.27 5.11C103.29 5.15 103.31 5.2 103.33 5.26C103.37 5.36667 103.397 5.54333 103.41 5.79C103.07 5.84333 102.847 5.87667 102.74 5.89L102.69 11.04L103.38 11.13C103.38 11.4033 103.303 11.6933 103.15 12H100.72L100.63 11.45C101.003 11.2967 101.283 11.2 101.47 11.16C101.463 10.7667 101.453 10.2133 101.44 9.5C101.42 7.9 101.4 6.69 101.38 5.87L100.55 5.61L100.63 5H103.23ZM107.439 6.8C108.105 6.8 108.589 6.96333 108.889 7.29C109.189 7.61667 109.339 8.07333 109.339 8.66C109.339 9.24667 109.305 10.04 109.239 11.04L110.029 11.13C110.029 11.4033 109.952 11.6933 109.799 12H107.309L107.219 11.45C107.532 11.3233 107.822 11.2233 108.089 11.15C108.069 10.3833 108.049 9.74 108.029 9.22C108.009 8.69333 107.959 8.33667 107.879 8.15C107.799 7.96333 107.622 7.87 107.349 7.87C106.935 7.87 106.565 7.94333 106.239 8.09C106.232 8.37667 106.212 8.84667 106.179 9.5C106.152 10.1467 106.135 10.66 106.129 11.04L106.909 11.13C106.909 11.4033 106.832 11.6933 106.679 12H104.189L104.099 11.45C104.432 11.3233 104.732 11.2233 104.999 11.15C104.992 10.75 104.969 10.1967 104.929 9.49C104.895 8.78333 104.875 8.26 104.869 7.92C104.622 7.89333 104.359 7.84333 104.079 7.77L104.129 7.05C104.595 6.92333 105.122 6.86 105.709 6.86C105.782 6.90667 105.882 7.05 106.009 7.29C106.235 7.17667 106.512 7.06667 106.839 6.96C107.165 6.85333 107.365 6.8 107.439 6.8ZM111.481 12.12L111.261 12.11C111.221 12.0367 111.168 11.9 111.101 11.7C111.034 11.5 110.998 11.35 110.991 11.25C110.958 10.59 110.921 9.44667 110.881 7.82H110.181L110.211 7.25C110.364 7.14333 110.548 7.04667 110.761 6.96L111.571 5.68C111.831 5.70667 112.034 5.77667 112.181 5.89L112.171 6.84C112.591 6.85333 112.981 6.89333 113.341 6.96C113.341 7.22667 113.258 7.51333 113.091 7.82H112.161C112.134 9.22 112.118 10.27 112.111 10.97C112.378 10.9967 112.741 11.0733 113.201 11.2L113.191 11.72C113.078 11.7933 112.824 11.88 112.431 11.98C112.044 12.0733 111.728 12.12 111.481 12.12ZM116.408 11.14C116.634 11.14 117.094 10.9833 117.788 10.67C117.934 10.8833 118.044 11.13 118.118 11.41C117.751 11.6367 117.391 11.8133 117.038 11.94C116.691 12.06 116.444 12.12 116.298 12.12C115.491 12.12 114.878 11.8967 114.458 11.45C114.044 11.0033 113.838 10.37 113.838 9.55C113.838 8.72333 114.044 8.06 114.458 7.56C114.871 7.05333 115.484 6.8 116.298 6.8C116.944 6.8 117.438 7.01 117.778 7.43C118.118 7.85 118.288 8.39667 118.288 9.07C118.288 9.21 118.208 9.37 118.048 9.55L115.168 9.5C115.181 10.0333 115.281 10.44 115.468 10.72C115.654 11 115.968 11.14 116.408 11.14ZM116.208 7.63C115.954 7.63 115.718 7.68 115.498 7.78C115.344 8.1 115.248 8.39667 115.208 8.67C115.728 8.65 116.318 8.63667 116.978 8.63C116.944 7.96333 116.688 7.63 116.208 7.63ZM122.195 6.8C122.861 6.8 123.345 6.96333 123.645 7.29C123.945 7.61667 124.095 8.07333 124.095 8.66C124.095 9.24667 124.061 10.04 123.995 11.04L124.785 11.13C124.785 11.4033 124.708 11.6933 124.555 12H122.065L121.975 11.45C122.288 11.3233 122.578 11.2233 122.845 11.15C122.825 10.3833 122.805 9.74 122.785 9.22C122.765 8.69333 122.715 8.33667 122.635 8.15C122.555 7.96333 122.378 7.87 122.105 7.87C121.691 7.87 121.321 7.94333 120.995 8.09C120.988 8.37667 120.968 8.84667 120.935 9.5C120.908 10.1467 120.891 10.66 120.885 11.04L121.665 11.13C121.665 11.4033 121.588 11.6933 121.435 12H118.945L118.855 11.45C119.188 11.3233 119.488 11.2233 119.755 11.15C119.748 10.75 119.725 10.1967 119.685 9.49C119.651 8.78333 119.631 8.26 119.625 7.92C119.378 7.89333 119.115 7.84333 118.835 7.77L118.885 7.05C119.351 6.92333 119.878 6.86 120.465 6.86C120.538 6.90667 120.638 7.05 120.765 7.29C120.991 7.17667 121.268 7.06667 121.595 6.96C121.921 6.85333 122.121 6.8 122.195 6.8ZM126.237 12.12L126.017 12.11C125.977 12.0367 125.923 11.9 125.857 11.7C125.79 11.5 125.753 11.35 125.747 11.25C125.713 10.59 125.677 9.44667 125.637 7.82H124.937L124.967 7.25C125.12 7.14333 125.303 7.04667 125.517 6.96L126.327 5.68C126.587 5.70667 126.79 5.77667 126.937 5.89L126.927 6.84C127.347 6.85333 127.737 6.89333 128.097 6.96C128.097 7.22667 128.013 7.51333 127.847 7.82H126.917C126.89 9.22 126.873 10.27 126.867 10.97C127.133 10.9967 127.497 11.0733 127.957 11.2L127.947 11.72C127.833 11.7933 127.58 11.88 127.187 11.98C126.8 12.0733 126.483 12.12 126.237 12.12Z" fill="white"/>
<defs>
<linearGradient id="paint0_linear_2716_1190" x1="141.812" y1="8.99996" x2="28.1777" y2="8.99998" gradientUnits="userSpaceOnUse">
<stop stop-color="#01F0FF"/>
<stop offset="1" stop-color="#00EDC2" stop-opacity="0"/>
</linearGradient>
</defs>
</svg>
