<svg width="141" height="17" viewBox="0 0 141 17" fill="none" xmlns="http://www.w3.org/2000/svg">
<path d="M0 0H141L131.664 8.5L141 17H0V0Z" fill="url(#paint0_linear_2716_1190)"/>
<path d="M80.23 5C80.2233 5 80.2233 5.00667 80.23 5.02C80.2433 5.03333 80.2567 5.06333 80.27 5.11C80.29 5.15 80.31 5.2 80.33 5.26C80.37 5.36667 80.3967 5.54333 80.41 5.79C80.07 5.84333 79.8467 5.87667 79.74 5.89L79.69 11.04L80.38 11.13C80.38 11.4033 80.3033 11.6933 80.15 12H77.72L77.63 11.45C78.0033 11.2967 78.2833 11.2 78.47 11.16C78.4633 10.7667 78.4533 10.2133 78.44 9.5C78.42 7.9 78.4 6.69 78.38 5.87L77.55 5.61L77.63 5H80.23ZM84.4388 6.8C85.1055 6.8 85.5888 6.96333 85.8888 7.29C86.1888 7.61667 86.3388 8.07333 86.3388 8.66C86.3388 9.24667 86.3055 10.04 86.2388 11.04L87.0288 11.13C87.0288 11.4033 86.9522 11.6933 86.7988 12H84.3088L84.2188 11.45C84.5322 11.3233 84.8222 11.2233 85.0888 11.15C85.0688 10.3833 85.0488 9.74 85.0288 9.22C85.0088 8.69333 84.9588 8.33667 84.8788 8.15C84.7988 7.96333 84.6222 7.87 84.3488 7.87C83.9355 7.87 83.5655 7.94333 83.2388 8.09C83.2322 8.37667 83.2122 8.84667 83.1788 9.5C83.1522 10.1467 83.1355 10.66 83.1288 11.04L83.9088 11.13C83.9088 11.4033 83.8322 11.6933 83.6788 12H81.1888L81.0988 11.45C81.4322 11.3233 81.7322 11.2233 81.9988 11.15C81.9922 10.75 81.9688 10.1967 81.9288 9.49C81.8955 8.78333 81.8755 8.26 81.8688 7.92C81.6222 7.89333 81.3588 7.84333 81.0788 7.77L81.1288 7.05C81.5955 6.92333 82.1222 6.86 82.7088 6.86C82.7822 6.90667 82.8822 7.05 83.0088 7.29C83.2355 7.17667 83.5122 7.06667 83.8388 6.96C84.1655 6.85333 84.3655 6.8 84.4388 6.8ZM88.4809 12.12L88.2609 12.11C88.2209 12.0367 88.1676 11.9 88.1009 11.7C88.0343 11.5 87.9976 11.35 87.9909 11.25C87.9576 10.59 87.9209 9.44667 87.8809 7.82H87.1809L87.2109 7.25C87.3643 7.14333 87.5476 7.04667 87.7609 6.96L88.5709 5.68C88.8309 5.70667 89.0343 5.77667 89.1809 5.89L89.1709 6.84C89.5909 6.85333 89.9809 6.89333 90.3409 6.96C90.3409 7.22667 90.2576 7.51333 90.0909 7.82H89.1609C89.1343 9.22 89.1176 10.27 89.1109 10.97C89.3776 10.9967 89.7409 11.0733 90.2009 11.2L90.1909 11.72C90.0776 11.7933 89.8243 11.88 89.4309 11.98C89.0443 12.0733 88.7276 12.12 88.4809 12.12ZM93.4075 11.14C93.6342 11.14 94.0942 10.9833 94.7875 10.67C94.9342 10.8833 95.0442 11.13 95.1175 11.41C94.7508 11.6367 94.3908 11.8133 94.0375 11.94C93.6908 12.06 93.4442 12.12 93.2975 12.12C92.4908 12.12 91.8775 11.8967 91.4575 11.45C91.0442 11.0033 90.8375 10.37 90.8375 9.55C90.8375 8.72333 91.0442 8.06 91.4575 7.56C91.8708 7.05333 92.4842 6.8 93.2975 6.8C93.9442 6.8 94.4375 7.01 94.7775 7.43C95.1175 7.85 95.2875 8.39667 95.2875 9.07C95.2875 9.21 95.2075 9.37 95.0475 9.55L92.1675 9.5C92.1808 10.0333 92.2808 10.44 92.4675 10.72C92.6542 11 92.9675 11.14 93.4075 11.14ZM93.2075 7.63C92.9542 7.63 92.7175 7.68 92.4975 7.78C92.3442 8.1 92.2475 8.39667 92.2075 8.67C92.7275 8.65 93.3175 8.63667 93.9775 8.63C93.9442 7.96333 93.6875 7.63 93.2075 7.63ZM99.1947 6.8C99.8614 6.8 100.345 6.96333 100.645 7.29C100.945 7.61667 101.095 8.07333 101.095 8.66C101.095 9.24667 101.061 10.04 100.995 11.04L101.785 11.13C101.785 11.4033 101.708 11.6933 101.555 12H99.0647L98.9747 11.45C99.288 11.3233 99.578 11.2233 99.8447 11.15C99.8247 10.3833 99.8047 9.74 99.7847 9.22C99.7647 8.69333 99.7147 8.33667 99.6347 8.15C99.5547 7.96333 99.378 7.87 99.1047 7.87C98.6914 7.87 98.3214 7.94333 97.9947 8.09C97.988 8.37667 97.968 8.84667 97.9347 9.5C97.908 10.1467 97.8914 10.66 97.8847 11.04L98.6647 11.13C98.6647 11.4033 98.588 11.6933 98.4347 12H95.9447L95.8547 11.45C96.188 11.3233 96.488 11.2233 96.7547 11.15C96.748 10.75 96.7247 10.1967 96.6847 9.49C96.6514 8.78333 96.6314 8.26 96.6247 7.92C96.378 7.89333 96.1147 7.84333 95.8347 7.77L95.8847 7.05C96.3514 6.92333 96.878 6.86 97.4647 6.86C97.538 6.90667 97.638 7.05 97.7647 7.29C97.9914 7.17667 98.268 7.06667 98.5947 6.96C98.9214 6.85333 99.1214 6.8 99.1947 6.8ZM103.237 12.12L103.017 12.11C102.977 12.0367 102.923 11.9 102.857 11.7C102.79 11.5 102.753 11.35 102.747 11.25C102.713 10.59 102.677 9.44667 102.637 7.82H101.937L101.967 7.25C102.12 7.14333 102.303 7.04667 102.517 6.96L103.327 5.68C103.587 5.70667 103.79 5.77667 103.937 5.89L103.927 6.84C104.347 6.85333 104.737 6.89333 105.097 6.96C105.097 7.22667 105.013 7.51333 104.847 7.82H103.917C103.89 9.22 103.873 10.27 103.867 10.97C104.133 10.9967 104.497 11.0733 104.957 11.2L104.947 11.72C104.833 11.7933 104.58 11.88 104.187 11.98C103.8 12.0733 103.483 12.12 103.237 12.12Z" fill="white"/>
<defs>
<linearGradient id="paint0_linear_2716_1190" x1="109.865" y1="8.99996" x2="21.8299" y2="8.99997" gradientUnits="userSpaceOnUse">
<stop stop-color="#01F0FF"/>
<stop offset="1" stop-color="#00EDC2" stop-opacity="0"/>
</linearGradient>
</defs>
</svg>
