<svg width="182" height="17" viewBox="0 0 182 17" fill="none" xmlns="http://www.w3.org/2000/svg">
<path d="M0 0H182L169.95 8.5L182 17H0V0Z" fill="url(#paint0_linear_2716_1191)"/>
<path d="M104.16 6C105.007 6 105.637 6.14667 106.05 6.44C106.463 6.73333 106.67 7.26667 106.67 8.04C106.67 8.68667 106.47 9.22667 106.07 9.66C105.67 10.0867 105.03 10.3 104.15 10.3C103.863 10.3 103.637 10.2967 103.47 10.29L103.45 12.05L104.18 12.13C104.18 12.4233 104.103 12.7133 103.95 13H101.48L101.39 12.45C101.737 12.31 102.017 12.2133 102.23 12.16C102.23 12.14 102.2 10.3767 102.14 6.87C102.033 6.84333 101.757 6.75667 101.31 6.61L101.39 6H104.16ZM103.94 9.35C104.387 9.34333 104.733 9.22 104.98 8.98C105.227 8.74 105.35 8.43 105.35 8.05C105.35 7.67 105.24 7.4 105.02 7.24C104.807 7.07333 104.47 6.99 104.01 6.99C103.83 6.99 103.66 6.99333 103.5 7C103.487 8.05333 103.48 8.84 103.48 9.36L103.94 9.35ZM111.842 7.88C111.969 7.88 112.049 7.88333 112.082 7.89C112.082 8.23 112.025 8.52333 111.912 8.77C111.872 10.2367 111.839 11.32 111.812 12.02C112.112 12.0467 112.375 12.0967 112.602 12.17L112.582 12.87C112.175 12.9967 111.825 13.06 111.532 13.06C111.239 13.06 111.039 13.0533 110.932 13.04C110.852 12.88 110.785 12.72 110.732 12.56C110.179 12.9333 109.779 13.12 109.532 13.12C108.339 13.12 107.742 12.5167 107.742 11.31C107.742 10.9833 107.769 10.18 107.822 8.9C107.469 8.9 107.145 8.85333 106.852 8.76C106.852 8.59333 106.875 8.35333 106.922 8.04C107.315 7.93333 107.989 7.88 108.942 7.88C109.069 7.88 109.149 7.88333 109.182 7.89C109.182 8.21667 109.125 8.52 109.012 8.8V10.82C109.012 11.2467 109.055 11.56 109.142 11.76C109.235 11.9533 109.429 12.05 109.722 12.05C110.022 12.05 110.329 11.9467 110.642 11.74L110.582 8.9C110.289 8.88667 110.012 8.84 109.752 8.76C109.752 8.59333 109.775 8.35333 109.822 8.04C110.215 7.93333 110.889 7.88 111.842 7.88ZM115.959 8.88C115.946 8.84667 115.879 8.83 115.759 8.83C115.639 8.83 115.433 8.92 115.139 9.1C115.113 10.4067 115.096 11.3867 115.089 12.04L115.869 12.14C115.869 12.4267 115.793 12.7133 115.639 13H113.149L113.059 12.45C113.473 12.2967 113.773 12.1967 113.959 12.15L113.849 8.91C113.503 8.88333 113.213 8.83333 112.979 8.76L113.049 8.04C113.229 7.96 113.879 7.90667 114.999 7.88C115.059 7.94 115.089 8.05667 115.089 8.23C115.676 7.94333 116.046 7.8 116.199 7.8C116.359 7.8 116.553 7.84 116.779 7.92C117.013 7.99333 117.189 8.07333 117.309 8.16V8.33C117.309 8.87667 117.243 9.38333 117.109 9.85C116.996 9.89667 116.846 9.92 116.659 9.92C116.473 9.92 116.299 9.91 116.139 9.89C116.119 9.80333 116.059 9.46667 115.959 8.88ZM120.261 8.63L120.101 8.62C119.728 8.62 119.428 8.75 119.201 9.01C118.981 9.26333 118.871 9.69333 118.871 10.3C118.871 10.9 118.955 11.3567 119.121 11.67C119.295 11.9833 119.625 12.14 120.111 12.14C120.338 12.14 120.818 11.9867 121.551 11.68C121.718 11.9133 121.808 12.1567 121.821 12.41C121.455 12.6367 121.095 12.8133 120.741 12.94C120.395 13.0667 120.148 13.13 120.001 13.13C119.181 13.13 118.568 12.9067 118.161 12.46C117.755 12.0067 117.551 11.3733 117.551 10.56C117.551 8.72 118.381 7.8 120.041 7.8C120.328 7.8 120.621 7.83667 120.921 7.91C121.228 7.97667 121.468 8.06333 121.641 8.17C121.621 8.83667 121.548 9.32 121.421 9.62C121.201 9.67333 120.891 9.7 120.491 9.7L120.261 8.63ZM124.198 5.57L124.438 5.58C124.438 5.92667 124.395 6.23 124.308 6.49C124.295 7.25 124.288 7.82 124.288 8.2C124.502 8.10667 124.745 8.01667 125.018 7.93C125.292 7.84333 125.462 7.8 125.528 7.8C126.208 7.8 126.695 7.95333 126.988 8.26C127.288 8.56667 127.438 9.05 127.438 9.71C127.438 9.77667 127.405 10.5533 127.338 12.04L128.118 12.14C128.118 12.4267 128.042 12.7133 127.888 13H125.398L125.308 12.45C125.755 12.27 126.042 12.1733 126.168 12.16C126.155 11.44 126.138 10.8033 126.118 10.25C126.098 9.69 126.045 9.32 125.958 9.14C125.872 8.96 125.732 8.87 125.538 8.87C125.352 8.87 125.135 8.89333 124.888 8.94C124.648 8.98 124.462 9.03 124.328 9.09L124.218 12.04L124.998 12.13C124.998 12.4033 124.922 12.6933 124.768 13H122.278L122.188 12.45C122.602 12.2967 122.902 12.1967 123.088 12.15L122.898 6.6C122.585 6.56667 122.322 6.51667 122.108 6.45C122.108 6.28333 122.132 6.04333 122.178 5.73C122.572 5.62333 123.245 5.57 124.198 5.57ZM130.27 13.12C129.703 13.12 129.263 13.0033 128.95 12.77C128.643 12.5367 128.49 12.1433 128.49 11.59C128.49 11.0633 128.673 10.6333 129.04 10.3C129.253 10.1067 129.55 9.99333 129.93 9.96C130.31 9.92667 130.833 9.91 131.5 9.91V9.75C131.5 9.34333 131.433 9.04667 131.3 8.86C131.173 8.66667 130.947 8.57 130.62 8.57C130.453 8.57 130.303 8.60333 130.17 8.67L129.93 9.54L129.19 9.52C129.023 9.26667 128.933 8.86333 128.92 8.31C129.053 8.24333 129.367 8.14333 129.86 8.01C130.353 7.87 130.67 7.8 130.81 7.8C131.53 7.8 132.053 7.95 132.38 8.25C132.707 8.54333 132.87 9.01333 132.87 9.66C132.87 10.3 132.84 11.1467 132.78 12.2C133.16 12.2333 133.453 12.29 133.66 12.37C133.667 12.45 133.67 12.5467 133.67 12.66L133.66 12.88C133.18 13.04 132.697 13.12 132.21 13.12C132.083 13.12 131.99 13.1167 131.93 13.11C131.83 12.91 131.77 12.67 131.75 12.39H131.7C131.573 12.51 131.35 12.6633 131.03 12.85C130.717 13.03 130.463 13.12 130.27 13.12ZM129.77 11.65C129.77 11.87 129.837 12.0333 129.97 12.14C130.11 12.24 130.267 12.29 130.44 12.29C130.613 12.29 130.82 12.2133 131.06 12.06C131.3 11.9 131.493 11.7567 131.64 11.63L131.59 10.71C131.063 10.7367 130.667 10.7867 130.4 10.86C129.98 10.9467 129.77 11.21 129.77 11.65ZM137.461 8.23L137.471 8.54C137.471 9.06 137.431 9.4 137.351 9.56C137.131 9.64 136.824 9.68 136.431 9.68L136.111 8.67C136.024 8.63667 135.904 8.62 135.751 8.62C135.597 8.62 135.471 8.66667 135.371 8.76C135.277 8.85333 135.231 8.96333 135.231 9.09C135.231 9.21667 135.281 9.33333 135.381 9.44C135.481 9.54 135.584 9.62 135.691 9.68C135.797 9.74 135.951 9.82 136.151 9.92C136.357 10.0133 136.511 10.0867 136.611 10.14C136.717 10.1933 136.851 10.2733 137.011 10.38C137.177 10.4867 137.304 10.5867 137.391 10.68C137.604 10.9333 137.711 11.21 137.711 11.51C137.711 12.0233 137.514 12.42 137.121 12.7C136.734 12.98 136.257 13.12 135.691 13.12C135.391 13.12 135.061 13.0667 134.701 12.96C134.347 12.8533 134.047 12.71 133.801 12.53C133.801 12.05 133.847 11.6033 133.941 11.19C134.207 11.1567 134.424 11.14 134.591 11.14C134.757 11.14 134.871 11.1433 134.931 11.15L135.051 12.12C135.217 12.18 135.417 12.21 135.651 12.21C135.884 12.21 136.067 12.1633 136.201 12.07C136.341 11.9767 136.411 11.8467 136.411 11.68C136.411 11.5067 136.334 11.3633 136.181 11.25C136.027 11.1367 135.817 11.02 135.551 10.9C135.284 10.7733 135.077 10.67 134.931 10.59C134.784 10.5033 134.627 10.3933 134.461 10.26C134.121 10 133.951 9.68 133.951 9.3C133.951 8.82667 134.114 8.46 134.441 8.2C134.774 7.93333 135.221 7.8 135.781 7.8C136.341 7.8 136.901 7.94333 137.461 8.23ZM140.962 12.14C141.189 12.14 141.649 11.9833 142.342 11.67C142.489 11.8833 142.599 12.13 142.672 12.41C142.306 12.6367 141.946 12.8133 141.592 12.94C141.246 13.06 140.999 13.12 140.852 13.12C140.046 13.12 139.432 12.8967 139.012 12.45C138.599 12.0033 138.392 11.37 138.392 10.55C138.392 9.72333 138.599 9.06 139.012 8.56C139.426 8.05333 140.039 7.8 140.852 7.8C141.499 7.8 141.992 8.01 142.332 8.43C142.672 8.85 142.842 9.39667 142.842 10.07C142.842 10.21 142.762 10.37 142.602 10.55L139.722 10.5C139.736 11.0333 139.836 11.44 140.022 11.72C140.209 12 140.522 12.14 140.962 12.14ZM140.762 8.63C140.509 8.63 140.272 8.68 140.052 8.78C139.899 9.1 139.802 9.39667 139.762 9.67C140.282 9.65 140.872 9.63667 141.532 9.63C141.499 8.96333 141.242 8.63 140.762 8.63Z" fill="white"/>
<defs>
<linearGradient id="paint0_linear_2716_1191" x1="143" y1="9.00001" x2="11" y2="6.00002" gradientUnits="userSpaceOnUse">
<stop stop-color="#1400FF"/>
<stop offset="0.99919" stop-color="#00FFFF" stop-opacity="0"/>
</linearGradient>
</defs>
</svg>
