<svg width="141" height="17" viewBox="0 0 141 17" fill="none" xmlns="http://www.w3.org/2000/svg">
<path d="M0 0H141L131.664 8.5L141 17H0V0Z" fill="url(#paint0_linear_2716_1191)"/>
<path d="M81.16 6C82.0067 6 82.6367 6.14667 83.05 6.44C83.4633 6.73333 83.67 7.26667 83.67 8.04C83.67 8.68667 83.47 9.22667 83.07 9.66C82.67 10.0867 82.03 10.3 81.15 10.3C80.8633 10.3 80.6367 10.2967 80.47 10.29L80.45 12.05L81.18 12.13C81.18 12.4233 81.1033 12.7133 80.95 13H78.48L78.39 12.45C78.7367 12.31 79.0167 12.2133 79.23 12.16C79.23 12.14 79.2 10.3767 79.14 6.87C79.0333 6.84333 78.7567 6.75667 78.31 6.61L78.39 6H81.16ZM80.94 9.35C81.3867 9.34333 81.7333 9.22 81.98 8.98C82.2267 8.74 82.35 8.43 82.35 8.05C82.35 7.67 82.24 7.4 82.02 7.24C81.8067 7.07333 81.47 6.99 81.01 6.99C80.83 6.99 80.66 6.99333 80.5 7C80.4867 8.05333 80.48 8.84 80.48 9.36L80.94 9.35ZM88.842 7.88C88.9686 7.88 89.0486 7.88333 89.082 7.89C89.082 8.23 89.0253 8.52333 88.912 8.77C88.872 10.2367 88.8386 11.32 88.812 12.02C89.112 12.0467 89.3753 12.0967 89.602 12.17L89.582 12.87C89.1753 12.9967 88.8253 13.06 88.532 13.06C88.2386 13.06 88.0386 13.0533 87.932 13.04C87.852 12.88 87.7853 12.72 87.732 12.56C87.1786 12.9333 86.7786 13.12 86.532 13.12C85.3386 13.12 84.742 12.5167 84.742 11.31C84.742 10.9833 84.7686 10.18 84.822 8.9C84.4686 8.9 84.1453 8.85333 83.852 8.76C83.852 8.59333 83.8753 8.35333 83.922 8.04C84.3153 7.93333 84.9886 7.88 85.942 7.88C86.0686 7.88 86.1486 7.88333 86.182 7.89C86.182 8.21667 86.1253 8.52 86.012 8.8V10.82C86.012 11.2467 86.0553 11.56 86.142 11.76C86.2353 11.9533 86.4286 12.05 86.722 12.05C87.022 12.05 87.3286 11.9467 87.642 11.74L87.582 8.9C87.2886 8.88667 87.012 8.84 86.752 8.76C86.752 8.59333 86.7753 8.35333 86.822 8.04C87.2153 7.93333 87.8886 7.88 88.842 7.88ZM92.9592 8.88C92.9459 8.84667 92.8792 8.83 92.7592 8.83C92.6392 8.83 92.4326 8.92 92.1392 9.1C92.1126 10.4067 92.0959 11.3867 92.0892 12.04L92.8692 12.14C92.8692 12.4267 92.7926 12.7133 92.6392 13H90.1492L90.0592 12.45C90.4726 12.2967 90.7726 12.1967 90.9592 12.15L90.8492 8.91C90.5026 8.88333 90.2126 8.83333 89.9792 8.76L90.0492 8.04C90.2292 7.96 90.8792 7.90667 91.9992 7.88C92.0592 7.94 92.0892 8.05667 92.0892 8.23C92.6759 7.94333 93.0459 7.8 93.1992 7.8C93.3592 7.8 93.5526 7.84 93.7792 7.92C94.0126 7.99333 94.1892 8.07333 94.3092 8.16V8.33C94.3092 8.87667 94.2426 9.38333 94.1092 9.85C93.9959 9.89667 93.8459 9.92 93.6592 9.92C93.4726 9.92 93.2992 9.91 93.1392 9.89C93.1192 9.80333 93.0592 9.46667 92.9592 8.88ZM97.2614 8.63L97.1014 8.62C96.7281 8.62 96.4281 8.75 96.2014 9.01C95.9814 9.26333 95.8714 9.69333 95.8714 10.3C95.8714 10.9 95.9547 11.3567 96.1214 11.67C96.2947 11.9833 96.6247 12.14 97.1114 12.14C97.3381 12.14 97.8181 11.9867 98.5514 11.68C98.7181 11.9133 98.8081 12.1567 98.8214 12.41C98.4547 12.6367 98.0947 12.8133 97.7414 12.94C97.3947 13.0667 97.1481 13.13 97.0014 13.13C96.1814 13.13 95.5681 12.9067 95.1614 12.46C94.7547 12.0067 94.5514 11.3733 94.5514 10.56C94.5514 8.72 95.3814 7.8 97.0414 7.8C97.3281 7.8 97.6214 7.83667 97.9214 7.91C98.2281 7.97667 98.4681 8.06333 98.6414 8.17C98.6214 8.83667 98.5481 9.32 98.4214 9.62C98.2014 9.67333 97.8914 9.7 97.4914 9.7L97.2614 8.63ZM101.198 5.57L101.438 5.58C101.438 5.92667 101.395 6.23 101.308 6.49C101.295 7.25 101.288 7.82 101.288 8.2C101.502 8.10667 101.745 8.01667 102.018 7.93C102.292 7.84333 102.462 7.8 102.528 7.8C103.208 7.8 103.695 7.95333 103.988 8.26C104.288 8.56667 104.438 9.05 104.438 9.71C104.438 9.77667 104.405 10.5533 104.338 12.04L105.118 12.14C105.118 12.4267 105.042 12.7133 104.888 13H102.398L102.308 12.45C102.755 12.27 103.042 12.1733 103.168 12.16C103.155 11.44 103.138 10.8033 103.118 10.25C103.098 9.69 103.045 9.32 102.958 9.14C102.872 8.96 102.732 8.87 102.538 8.87C102.352 8.87 102.135 8.89333 101.888 8.94C101.648 8.98 101.462 9.03 101.328 9.09L101.218 12.04L101.998 12.13C101.998 12.4033 101.922 12.6933 101.768 13H99.2782L99.1882 12.45C99.6015 12.2967 99.9015 12.1967 100.088 12.15L99.8982 6.6C99.5849 6.56667 99.3215 6.51667 99.1082 6.45C99.1082 6.28333 99.1315 6.04333 99.1782 5.73C99.5715 5.62333 100.245 5.57 101.198 5.57ZM107.27 13.12C106.703 13.12 106.263 13.0033 105.95 12.77C105.643 12.5367 105.49 12.1433 105.49 11.59C105.49 11.0633 105.673 10.6333 106.04 10.3C106.253 10.1067 106.55 9.99333 106.93 9.96C107.31 9.92667 107.833 9.91 108.5 9.91V9.75C108.5 9.34333 108.433 9.04667 108.3 8.86C108.173 8.66667 107.947 8.57 107.62 8.57C107.453 8.57 107.303 8.60333 107.17 8.67L106.93 9.54L106.19 9.52C106.023 9.26667 105.933 8.86333 105.92 8.31C106.053 8.24333 106.367 8.14333 106.86 8.01C107.353 7.87 107.67 7.8 107.81 7.8C108.53 7.8 109.053 7.95 109.38 8.25C109.707 8.54333 109.87 9.01333 109.87 9.66C109.87 10.3 109.84 11.1467 109.78 12.2C110.16 12.2333 110.453 12.29 110.66 12.37C110.667 12.45 110.67 12.5467 110.67 12.66L110.66 12.88C110.18 13.04 109.697 13.12 109.21 13.12C109.083 13.12 108.99 13.1167 108.93 13.11C108.83 12.91 108.77 12.67 108.75 12.39H108.7C108.573 12.51 108.35 12.6633 108.03 12.85C107.717 13.03 107.463 13.12 107.27 13.12ZM106.77 11.65C106.77 11.87 106.837 12.0333 106.97 12.14C107.11 12.24 107.267 12.29 107.44 12.29C107.613 12.29 107.82 12.2133 108.06 12.06C108.3 11.9 108.493 11.7567 108.64 11.63L108.59 10.71C108.063 10.7367 107.667 10.7867 107.4 10.86C106.98 10.9467 106.77 11.21 106.77 11.65ZM114.461 8.23L114.471 8.54C114.471 9.06 114.431 9.4 114.351 9.56C114.131 9.64 113.824 9.68 113.431 9.68L113.111 8.67C113.024 8.63667 112.904 8.62 112.751 8.62C112.597 8.62 112.471 8.66667 112.371 8.76C112.277 8.85333 112.231 8.96333 112.231 9.09C112.231 9.21667 112.281 9.33333 112.381 9.44C112.481 9.54 112.584 9.62 112.691 9.68C112.797 9.74 112.951 9.82 113.151 9.92C113.357 10.0133 113.511 10.0867 113.611 10.14C113.717 10.1933 113.851 10.2733 114.011 10.38C114.177 10.4867 114.304 10.5867 114.391 10.68C114.604 10.9333 114.711 11.21 114.711 11.51C114.711 12.0233 114.514 12.42 114.121 12.7C113.734 12.98 113.257 13.12 112.691 13.12C112.391 13.12 112.061 13.0667 111.701 12.96C111.347 12.8533 111.047 12.71 110.801 12.53C110.801 12.05 110.847 11.6033 110.941 11.19C111.207 11.1567 111.424 11.14 111.591 11.14C111.757 11.14 111.871 11.1433 111.931 11.15L112.051 12.12C112.217 12.18 112.417 12.21 112.651 12.21C112.884 12.21 113.067 12.1633 113.201 12.07C113.341 11.9767 113.411 11.8467 113.411 11.68C113.411 11.5067 113.334 11.3633 113.181 11.25C113.027 11.1367 112.817 11.02 112.551 10.9C112.284 10.7733 112.077 10.67 111.931 10.59C111.784 10.5033 111.627 10.3933 111.461 10.26C111.121 10 110.951 9.68 110.951 9.3C110.951 8.82667 111.114 8.46 111.441 8.2C111.774 7.93333 112.221 7.8 112.781 7.8C113.341 7.8 113.901 7.94333 114.461 8.23ZM117.962 12.14C118.189 12.14 118.649 11.9833 119.342 11.67C119.489 11.8833 119.599 12.13 119.672 12.41C119.306 12.6367 118.946 12.8133 118.592 12.94C118.246 13.06 117.999 13.12 117.852 13.12C117.046 13.12 116.432 12.8967 116.012 12.45C115.599 12.0033 115.392 11.37 115.392 10.55C115.392 9.72333 115.599 9.06 116.012 8.56C116.426 8.05333 117.039 7.8 117.852 7.8C118.499 7.8 118.992 8.01 119.332 8.43C119.672 8.85 119.842 9.39667 119.842 10.07C119.842 10.21 119.762 10.37 119.602 10.55L116.722 10.5C116.736 11.0333 116.836 11.44 117.022 11.72C117.209 12 117.522 12.14 117.962 12.14ZM117.762 8.63C117.509 8.63 117.272 8.68 117.052 8.78C116.899 9.1 116.802 9.39667 116.762 9.67C117.282 9.65 117.872 9.63667 118.532 9.63C118.499 8.96333 118.242 8.63 117.762 8.63Z" fill="white"/>
<defs>
<linearGradient id="paint0_linear_2716_1191" x1="110.786" y1="9.00001" x2="8.50086" y2="7.19905" gradientUnits="userSpaceOnUse">
<stop stop-color="#1400FF"/>
<stop offset="0.99919" stop-color="#00FFFF" stop-opacity="0"/>
</linearGradient>
</defs>
</svg>
