<svg width="182" height="17" viewBox="0 0 182 17" fill="none" xmlns="http://www.w3.org/2000/svg">
<path d="M0 0H182L169.95 8.5L182 17H0V0Z" fill="url(#paint0_linear_2716_1192)"/>
<path d="M106.67 10.18C106.83 10.1533 106.95 10.14 107.03 10.14C107.117 10.14 107.3 10.1633 107.58 10.21C107.607 10.2633 107.643 10.4333 107.69 10.72C107.743 11.0067 107.77 11.24 107.77 11.42C107.77 11.5933 107.75 11.7867 107.71 12H102.86L102.77 11.45C103.097 11.3167 103.377 11.22 103.61 11.16C103.61 11.14 103.58 9.37667 103.52 5.87L102.69 5.61L102.77 5H105.37C105.363 5 105.363 5.00667 105.37 5.02C105.383 5.03333 105.397 5.06333 105.41 5.11C105.43 5.15 105.45 5.2 105.47 5.26C105.51 5.36667 105.537 5.54333 105.55 5.79C105.21 5.84333 104.987 5.87667 104.88 5.89C104.853 8.19 104.837 9.90667 104.83 11.04H106.45L106.67 10.18ZM110.868 7.6C110.628 7.6 110.355 7.66 110.048 7.78C109.961 7.91333 109.878 8.15 109.798 8.49C109.725 8.82333 109.688 9.16 109.688 9.5C109.688 10.1267 109.781 10.5733 109.968 10.84C110.155 11.1 110.455 11.23 110.868 11.23C111.288 11.23 111.591 11.1 111.778 10.84C111.965 10.5733 112.058 10.12 112.058 9.48C112.058 8.83333 111.961 8.36 111.768 8.06C111.581 7.75333 111.281 7.6 110.868 7.6ZM110.868 6.8C111.648 6.8 112.275 7.04 112.748 7.52C113.228 7.99333 113.468 8.65667 113.468 9.51C113.468 10.3567 113.231 11.0033 112.758 11.45C112.285 11.8967 111.655 12.12 110.868 12.12C110.081 12.12 109.451 11.8967 108.978 11.45C108.511 11.0033 108.278 10.3567 108.278 9.51C108.278 8.65667 108.515 7.99333 108.988 7.52C109.461 7.04 110.088 6.8 110.868 6.8ZM114.989 14.42C114.795 14.42 114.582 14.3867 114.349 14.32C114.115 14.2533 113.865 14.1533 113.599 14.02C113.639 13.2533 113.675 12.7967 113.709 12.65C113.962 12.5833 114.169 12.55 114.329 12.55C114.495 12.55 114.602 12.5533 114.649 12.56L114.969 13.56L115.059 13.55C115.212 13.53 115.369 13.3467 115.529 13C115.689 12.6533 115.805 12.32 115.879 12H115.459L113.979 7.88L113.199 7.79C113.199 7.51667 113.275 7.22667 113.429 6.92H115.919L116.009 7.47C115.735 7.59667 115.505 7.68333 115.319 7.73L116.079 10.1L116.169 10.53H116.389L117.239 7.73C117.012 7.69 116.732 7.60333 116.399 7.47L116.489 6.92H118.979C119.132 7.22667 119.209 7.51667 119.209 7.79C118.949 7.83 118.689 7.85667 118.429 7.87C117.829 9.63 117.359 10.99 117.019 11.95C116.685 12.91 116.382 13.56 116.109 13.9C115.835 14.2467 115.462 14.42 114.989 14.42ZM121.387 12.12C120.821 12.12 120.381 12.0033 120.067 11.77C119.761 11.5367 119.607 11.1433 119.607 10.59C119.607 10.0633 119.791 9.63333 120.157 9.3C120.371 9.10667 120.667 8.99333 121.047 8.96C121.427 8.92667 121.951 8.91 122.617 8.91V8.75C122.617 8.34333 122.551 8.04667 122.417 7.86C122.291 7.66667 122.064 7.57 121.737 7.57C121.571 7.57 121.421 7.60333 121.287 7.67L121.047 8.54L120.307 8.52C120.141 8.26667 120.051 7.86333 120.037 7.31C120.171 7.24333 120.484 7.14333 120.977 7.01C121.471 6.87 121.787 6.8 121.927 6.8C122.647 6.8 123.171 6.95 123.497 7.25C123.824 7.54333 123.987 8.01333 123.987 8.66C123.987 9.3 123.957 10.1467 123.897 11.2C124.277 11.2333 124.571 11.29 124.777 11.37C124.784 11.45 124.787 11.5467 124.787 11.66L124.777 11.88C124.297 12.04 123.814 12.12 123.327 12.12C123.201 12.12 123.107 12.1167 123.047 12.11C122.947 11.91 122.887 11.67 122.867 11.39H122.817C122.691 11.51 122.467 11.6633 122.147 11.85C121.834 12.03 121.581 12.12 121.387 12.12ZM120.887 10.65C120.887 10.87 120.954 11.0333 121.087 11.14C121.227 11.24 121.384 11.29 121.557 11.29C121.731 11.29 121.937 11.2133 122.177 11.06C122.417 10.9 122.611 10.7567 122.757 10.63L122.707 9.71C122.181 9.73667 121.784 9.78667 121.517 9.86C121.097 9.94667 120.887 10.21 120.887 10.65ZM126.868 4.57C126.995 4.57 127.075 4.57333 127.108 4.58C127.108 4.92667 127.065 5.23 126.978 5.49C126.971 5.90333 126.961 6.48667 126.948 7.24C126.921 8.89333 126.901 10.16 126.888 11.04L127.668 11.13C127.668 11.4033 127.591 11.6933 127.438 12H124.948L124.858 11.45C125.271 11.2967 125.571 11.1967 125.758 11.15L125.568 5.6C125.255 5.56667 124.991 5.51667 124.778 5.45C124.778 5.20333 124.801 4.96333 124.848 4.73C125.241 4.62333 125.915 4.57 126.868 4.57ZM129.057 12.12L128.837 12.11C128.797 12.0367 128.744 11.9 128.677 11.7C128.61 11.5 128.574 11.35 128.567 11.25C128.534 10.59 128.497 9.44667 128.457 7.82H127.757L127.787 7.25C127.94 7.14333 128.124 7.04667 128.337 6.96L129.147 5.68C129.407 5.70667 129.61 5.77667 129.757 5.89L129.747 6.84C130.167 6.85333 130.557 6.89333 130.917 6.96C130.917 7.22667 130.834 7.51333 130.667 7.82H129.737C129.71 9.22 129.694 10.27 129.687 10.97C129.954 10.9967 130.317 11.0733 130.777 11.2L130.767 11.72C130.654 11.7933 130.4 11.88 130.007 11.98C129.62 12.0733 129.304 12.12 129.057 12.12ZM132.704 14.42C132.51 14.42 132.297 14.3867 132.064 14.32C131.83 14.2533 131.58 14.1533 131.314 14.02C131.354 13.2533 131.39 12.7967 131.424 12.65C131.677 12.5833 131.884 12.55 132.044 12.55C132.21 12.55 132.317 12.5533 132.364 12.56L132.684 13.56L132.774 13.55C132.927 13.53 133.084 13.3467 133.244 13C133.404 12.6533 133.52 12.32 133.594 12H133.174L131.694 7.88L130.914 7.79C130.914 7.51667 130.99 7.22667 131.144 6.92H133.634L133.724 7.47C133.45 7.59667 133.22 7.68333 133.034 7.73L133.794 10.1L133.884 10.53H134.104L134.954 7.73C134.727 7.69 134.447 7.60333 134.114 7.47L134.204 6.92H136.694C136.847 7.22667 136.924 7.51667 136.924 7.79C136.664 7.83 136.404 7.85667 136.144 7.87C135.544 9.63 135.074 10.99 134.734 11.95C134.4 12.91 134.097 13.56 133.824 13.9C133.55 14.2467 133.177 14.42 132.704 14.42Z" fill="white"/>
<defs>
<linearGradient id="paint0_linear_2716_1192" x1="153" y1="9" x2="3" y2="8.99999" gradientUnits="userSpaceOnUse">
<stop stop-color="#9300ED"/>
<stop offset="1" stop-color="#9300ED" stop-opacity="0"/>
</linearGradient>
</defs>
</svg>
