<svg width="141" height="17" viewBox="0 0 141 17" fill="none" xmlns="http://www.w3.org/2000/svg">
<path d="M0 0H141L131.664 8.5L141 17H0V0Z" fill="url(#paint0_linear_2716_1192)"/>
<path d="M83.67 10.18C83.83 10.1533 83.95 10.14 84.03 10.14C84.1167 10.14 84.3 10.1633 84.58 10.21C84.6067 10.2633 84.6433 10.4333 84.69 10.72C84.7433 11.0067 84.77 11.24 84.77 11.42C84.77 11.5933 84.75 11.7867 84.71 12H79.86L79.77 11.45C80.0967 11.3167 80.3767 11.22 80.61 11.16C80.61 11.14 80.58 9.37667 80.52 5.87L79.69 5.61L79.77 5H82.37C82.3633 5 82.3633 5.00667 82.37 5.02C82.3833 5.03333 82.3967 5.06333 82.41 5.11C82.43 5.15 82.45 5.2 82.47 5.26C82.51 5.36667 82.5367 5.54333 82.55 5.79C82.21 5.84333 81.9867 5.87667 81.88 5.89C81.8533 8.19 81.8367 9.90667 81.83 11.04H83.45L83.67 10.18ZM87.868 7.6C87.628 7.6 87.3546 7.66 87.048 7.78C86.9613 7.91333 86.878 8.15 86.798 8.49C86.7246 8.82333 86.688 9.16 86.688 9.5C86.688 10.1267 86.7813 10.5733 86.968 10.84C87.1546 11.1 87.4546 11.23 87.868 11.23C88.288 11.23 88.5913 11.1 88.778 10.84C88.9646 10.5733 89.058 10.12 89.058 9.48C89.058 8.83333 88.9613 8.36 88.768 8.06C88.5813 7.75333 88.2813 7.6 87.868 7.6ZM87.868 6.8C88.648 6.8 89.2746 7.04 89.748 7.52C90.228 7.99333 90.468 8.65667 90.468 9.51C90.468 10.3567 90.2313 11.0033 89.758 11.45C89.2846 11.8967 88.6546 12.12 87.868 12.12C87.0813 12.12 86.4513 11.8967 85.978 11.45C85.5113 11.0033 85.278 10.3567 85.278 9.51C85.278 8.65667 85.5146 7.99333 85.988 7.52C86.4613 7.04 87.088 6.8 87.868 6.8ZM91.9888 14.42C91.7955 14.42 91.5822 14.3867 91.3488 14.32C91.1155 14.2533 90.8655 14.1533 90.5988 14.02C90.6388 13.2533 90.6755 12.7967 90.7088 12.65C90.9622 12.5833 91.1688 12.55 91.3288 12.55C91.4955 12.55 91.6022 12.5533 91.6488 12.56L91.9688 13.56L92.0588 13.55C92.2122 13.53 92.3688 13.3467 92.5288 13C92.6888 12.6533 92.8055 12.32 92.8788 12H92.4588L90.9788 7.88L90.1988 7.79C90.1988 7.51667 90.2755 7.22667 90.4288 6.92H92.9188L93.0088 7.47C92.7355 7.59667 92.5055 7.68333 92.3188 7.73L93.0788 10.1L93.1688 10.53H93.3888L94.2388 7.73C94.0122 7.69 93.7322 7.60333 93.3988 7.47L93.4888 6.92H95.9788C96.1322 7.22667 96.2088 7.51667 96.2088 7.79C95.9488 7.83 95.6888 7.85667 95.4288 7.87C94.8288 9.63 94.3588 10.99 94.0188 11.95C93.6855 12.91 93.3822 13.56 93.1088 13.9C92.8355 14.2467 92.4622 14.42 91.9888 14.42ZM98.3873 12.12C97.8206 12.12 97.3806 12.0033 97.0673 11.77C96.7606 11.5367 96.6073 11.1433 96.6073 10.59C96.6073 10.0633 96.7906 9.63333 97.1573 9.3C97.3706 9.10667 97.6673 8.99333 98.0473 8.96C98.4273 8.92667 98.9506 8.91 99.6173 8.91V8.75C99.6173 8.34333 99.5506 8.04667 99.4173 7.86C99.2906 7.66667 99.0639 7.57 98.7373 7.57C98.5706 7.57 98.4206 7.60333 98.2873 7.67L98.0473 8.54L97.3073 8.52C97.1406 8.26667 97.0506 7.86333 97.0373 7.31C97.1706 7.24333 97.4839 7.14333 97.9773 7.01C98.4706 6.87 98.7873 6.8 98.9273 6.8C99.6473 6.8 100.171 6.95 100.497 7.25C100.824 7.54333 100.987 8.01333 100.987 8.66C100.987 9.3 100.957 10.1467 100.897 11.2C101.277 11.2333 101.571 11.29 101.777 11.37C101.784 11.45 101.787 11.5467 101.787 11.66L101.777 11.88C101.297 12.04 100.814 12.12 100.327 12.12C100.201 12.12 100.107 12.1167 100.047 12.11C99.9473 11.91 99.8873 11.67 99.8673 11.39H99.8173C99.6906 11.51 99.4673 11.6633 99.1473 11.85C98.8339 12.03 98.5806 12.12 98.3873 12.12ZM97.8873 10.65C97.8873 10.87 97.9539 11.0333 98.0873 11.14C98.2273 11.24 98.3839 11.29 98.5573 11.29C98.7306 11.29 98.9373 11.2133 99.1773 11.06C99.4173 10.9 99.6106 10.7567 99.7573 10.63L99.7073 9.71C99.1806 9.73667 98.7839 9.78667 98.5173 9.86C98.0973 9.94667 97.8873 10.21 97.8873 10.65ZM103.868 4.57C103.995 4.57 104.075 4.57333 104.108 4.58C104.108 4.92667 104.065 5.23 103.978 5.49C103.971 5.90333 103.961 6.48667 103.948 7.24C103.921 8.89333 103.901 10.16 103.888 11.04L104.668 11.13C104.668 11.4033 104.591 11.6933 104.438 12H101.948L101.858 11.45C102.271 11.2967 102.571 11.1967 102.758 11.15L102.568 5.6C102.255 5.56667 101.991 5.51667 101.778 5.45C101.778 5.20333 101.801 4.96333 101.848 4.73C102.241 4.62333 102.915 4.57 103.868 4.57ZM106.057 12.12L105.837 12.11C105.797 12.0367 105.744 11.9 105.677 11.7C105.61 11.5 105.574 11.35 105.567 11.25C105.534 10.59 105.497 9.44667 105.457 7.82H104.757L104.787 7.25C104.94 7.14333 105.124 7.04667 105.337 6.96L106.147 5.68C106.407 5.70667 106.61 5.77667 106.757 5.89L106.747 6.84C107.167 6.85333 107.557 6.89333 107.917 6.96C107.917 7.22667 107.834 7.51333 107.667 7.82H106.737C106.71 9.22 106.694 10.27 106.687 10.97C106.954 10.9967 107.317 11.0733 107.777 11.2L107.767 11.72C107.654 11.7933 107.4 11.88 107.007 11.98C106.62 12.0733 106.304 12.12 106.057 12.12ZM109.704 14.42C109.51 14.42 109.297 14.3867 109.064 14.32C108.83 14.2533 108.58 14.1533 108.314 14.02C108.354 13.2533 108.39 12.7967 108.424 12.65C108.677 12.5833 108.884 12.55 109.044 12.55C109.21 12.55 109.317 12.5533 109.364 12.56L109.684 13.56L109.774 13.55C109.927 13.53 110.084 13.3467 110.244 13C110.404 12.6533 110.52 12.32 110.594 12H110.174L108.694 7.88L107.914 7.79C107.914 7.51667 107.99 7.22667 108.144 6.92H110.634L110.724 7.47C110.45 7.59667 110.22 7.68333 110.034 7.73L110.794 10.1L110.884 10.53H111.104L111.954 7.73C111.727 7.69 111.447 7.60333 111.114 7.47L111.204 6.92H113.694C113.847 7.22667 113.924 7.51667 113.924 7.79C113.664 7.83 113.404 7.85667 113.144 7.87C112.544 9.63 112.074 10.99 111.734 11.95C111.4 12.91 111.097 13.56 110.824 13.9C110.55 14.2467 110.177 14.42 109.704 14.42Z" fill="white"/>
<defs>
<linearGradient id="paint0_linear_2716_1192" x1="118.533" y1="9" x2="2.32417" y2="8.99999" gradientUnits="userSpaceOnUse">
<stop stop-color="#9300ED"/>
<stop offset="1" stop-color="#9300ED" stop-opacity="0"/>
</linearGradient>
</defs>
</svg>
