<svg width="416" height="302" viewBox="0 0 416 302" fill="none" xmlns="http://www.w3.org/2000/svg">
<g filter="url(#filter0_d_2498_1341)">
<rect x="13" y="11" width="390" height="276.423" rx="3.1117" fill="white"/>
<path d="M39.3354 32.9216C38.7492 32.9216 37.8794 32.7892 36.7261 32.5245C36.6693 32.2976 36.6126 32.0282 36.5559 31.7162C36.5086 31.3948 36.4661 31.0923 36.4283 30.8086C36.3999 30.525 36.3857 30.3312 36.3857 30.2272C36.4046 30.1516 36.4803 30.1138 36.6126 30.1138C36.8584 30.1138 36.9955 30.1516 37.0239 30.2272C37.0617 30.3974 37.1279 30.5865 37.2224 30.7945C37.3169 30.993 37.4493 31.2057 37.6195 31.4326C37.7802 31.6689 37.9976 31.8628 38.2718 32.014C38.5554 32.1558 38.8721 32.2267 39.2219 32.2267C39.6662 32.2267 40.0349 32.0944 40.328 31.8297C40.6211 31.565 40.7676 31.1679 40.7676 30.6385C40.7676 30.2603 40.6542 29.9672 40.4273 29.7592C40.2098 29.5418 39.9735 29.3433 39.7182 29.1636C39.6521 29.1258 39.5481 29.0644 39.4063 28.9793C39.2645 28.8942 39.1226 28.8091 38.9808 28.724C38.8485 28.6295 38.7445 28.5633 38.6689 28.5255C38.4892 28.4121 38.338 28.3175 38.2151 28.2419C38.1016 28.1663 37.9929 28.0906 37.8889 28.015C37.7849 27.9299 37.6573 27.8259 37.506 27.703C37.2035 27.4572 36.9671 27.1783 36.797 26.8663C36.6363 26.5544 36.5559 26.2093 36.5559 25.8311C36.5559 25.3584 36.693 24.933 36.9671 24.5548C37.2508 24.1672 37.6147 23.8647 38.0591 23.6473C38.5034 23.4204 38.9714 23.3069 39.463 23.3069C39.7277 23.3069 39.9593 23.3211 40.1578 23.3495C40.3564 23.3778 40.5076 23.4062 40.6116 23.4346C40.7156 23.4629 40.8433 23.496 40.9945 23.5338C41.1458 23.5716 41.3869 23.6284 41.7178 23.704C41.8312 24.3374 41.8879 25.0654 41.8879 25.8879C41.8785 25.9729 41.8217 26.0155 41.7178 26.0155C41.4625 26.0155 41.3254 25.9729 41.3065 25.8879C41.2687 25.5948 41.1647 25.3064 40.9945 25.0228C40.8244 24.7297 40.6022 24.4839 40.328 24.2854C40.0633 24.0869 39.7608 23.9876 39.4204 23.9876C38.9856 23.9876 38.6499 24.1105 38.4136 24.3563C38.1867 24.6021 38.0733 24.933 38.0733 25.349C38.0733 25.6137 38.1205 25.8217 38.2151 25.9729C38.3096 26.1147 38.4325 26.2707 38.5838 26.4409C38.6878 26.5544 38.8579 26.6962 39.0943 26.8663C39.3306 27.0365 39.5953 27.2161 39.8884 27.4052C40.1815 27.5848 40.4651 27.755 40.7393 27.9157C41.2592 28.2183 41.661 28.5491 41.9446 28.9084C42.2283 29.2582 42.3701 29.7262 42.3701 30.3123C42.3701 30.8134 42.2283 31.2624 41.9446 31.6595C41.661 32.0566 41.2876 32.3685 40.8244 32.5954C40.3706 32.8129 39.8742 32.9216 39.3354 32.9216ZM43.306 32.8365C43.2682 32.7987 43.2493 32.7089 43.2493 32.5671C43.2493 32.4253 43.2682 32.3544 43.306 32.3544C43.3816 32.3544 43.4856 32.3402 43.618 32.3118C43.7598 32.274 43.8874 32.2315 44.0009 32.1842C44.1238 32.1275 44.19 32.0802 44.1994 32.0424C44.2656 31.7777 44.2987 31.4373 44.2987 31.0214V25.1221C44.2987 24.933 44.2892 24.7581 44.2703 24.5974C44.2609 24.4367 44.2467 24.2901 44.2278 24.1578C44.19 24.0065 43.9442 23.9309 43.4904 23.9309H43.3627C43.306 23.9309 43.2777 23.8553 43.2777 23.704C43.2777 23.5527 43.306 23.4771 43.3627 23.4771C43.6558 23.4487 43.9347 23.4109 44.1994 23.3636C44.4641 23.3164 44.6863 23.2691 44.8659 23.2218C45.1117 23.1462 45.315 23.08 45.4757 23.0233C45.6364 22.9666 45.7168 22.9382 45.7168 22.9382H45.7451C45.7829 22.9382 45.8208 22.9666 45.8586 23.0233C45.8964 23.0706 45.92 23.1178 45.9295 23.1651C45.816 23.5338 45.7593 23.9782 45.7593 24.4981V27.3627C45.7593 27.4194 45.7782 27.4478 45.816 27.4478C45.8255 27.4478 45.8444 27.4336 45.8728 27.4052C46.0713 27.1783 46.3596 26.9751 46.7378 26.7954C47.1254 26.6064 47.5083 26.5118 47.8865 26.5118C49.0966 26.5118 49.7016 27.443 49.7016 29.3055V30.7661C49.7016 31.3333 49.7394 31.7588 49.8151 32.0424C49.8245 32.0802 49.886 32.1275 49.9994 32.1842C50.1223 32.2315 50.2499 32.274 50.3823 32.3118C50.5241 32.3402 50.6234 32.3544 50.6801 32.3544C50.7085 32.3544 50.7226 32.4253 50.7226 32.5671C50.7321 32.6994 50.7321 32.7892 50.7226 32.8365C50.6848 32.8271 50.5477 32.8129 50.3114 32.794C50.0845 32.7845 49.8434 32.7751 49.5882 32.7656C49.3329 32.7467 49.1344 32.7372 48.9926 32.7372C48.8413 32.7372 48.6428 32.7467 48.397 32.7656C48.1512 32.7751 47.9195 32.7845 47.7021 32.794C47.4941 32.8129 47.357 32.8271 47.2909 32.8365C47.2625 32.7892 47.2483 32.6994 47.2483 32.5671C47.2483 32.4253 47.2625 32.3544 47.2909 32.3544C47.3665 32.3544 47.4658 32.3402 47.5887 32.3118C47.721 32.274 47.8392 32.2315 47.9432 32.1842C48.0566 32.1275 48.1228 32.0802 48.1417 32.0424C48.1984 31.7588 48.2268 31.4137 48.2268 31.0072V29.6174C48.2268 28.8328 48.1181 28.2939 47.9006 28.0008C47.6926 27.6983 47.357 27.547 46.8938 27.547C46.6102 27.547 46.3502 27.6274 46.1138 27.7881C45.8775 27.9488 45.7593 28.1284 45.7593 28.327V30.7661C45.7593 31.3333 45.7971 31.7588 45.8728 32.0424C45.8917 32.0802 45.9578 32.1275 46.0713 32.1842C46.1847 32.2315 46.3076 32.274 46.44 32.3118C46.5724 32.3402 46.6669 32.3544 46.7236 32.3544C46.752 32.3544 46.7662 32.4253 46.7662 32.5671C46.7756 32.6994 46.7709 32.7892 46.752 32.8365C46.7047 32.8271 46.5676 32.8129 46.3407 32.794C46.1233 32.7845 45.8917 32.7751 45.6459 32.7656C45.4001 32.7467 45.2015 32.7372 45.0503 32.7372C44.899 32.7372 44.6957 32.7467 44.4405 32.7656C44.1852 32.7751 43.9442 32.7845 43.7173 32.794C43.4998 32.8129 43.3627 32.8271 43.306 32.8365ZM54.6649 32.8791C54.0693 32.8791 53.5257 32.7372 53.0341 32.4536C52.552 32.1606 52.1644 31.7729 51.8713 31.2908C51.5877 30.8086 51.4459 30.2745 51.4459 29.6883C51.4459 29.0927 51.5877 28.5586 51.8713 28.0859C52.1549 27.6037 52.5378 27.2209 53.02 26.9372C53.5116 26.6536 54.0552 26.5118 54.6508 26.5118C55.2464 26.5118 55.7852 26.6536 56.2674 26.9372C56.759 27.2209 57.1466 27.6037 57.4302 28.0859C57.7233 28.568 57.8698 29.1022 57.8698 29.6883C57.8698 30.2745 57.728 30.8086 57.4444 31.2908C57.1608 31.7729 56.7779 32.1606 56.2957 32.4536C55.8136 32.7372 55.27 32.8791 54.6649 32.8791ZM54.8067 32.2125C55.1093 32.2125 55.3645 32.1133 55.5725 31.9147C55.7805 31.7162 55.9412 31.4515 56.0547 31.1206C56.1681 30.7803 56.2248 30.4163 56.2248 30.0287C56.2248 29.5182 56.1539 29.0502 56.0121 28.6248C55.8798 28.1899 55.6812 27.8401 55.4165 27.5754C55.1613 27.3107 54.8446 27.1783 54.4664 27.1783C54.1733 27.1783 53.9181 27.2776 53.7006 27.4761C53.4926 27.6747 53.3319 27.9394 53.2185 28.2702C53.1145 28.6011 53.0625 28.9651 53.0625 29.3622C53.0625 29.8727 53.1287 30.3454 53.261 30.7803C53.4028 31.2057 53.6061 31.5508 53.8708 31.8155C54.1355 32.0802 54.4475 32.2125 54.8067 32.2125ZM61.5427 32.9358C61.4481 32.9358 61.382 32.9027 61.3442 32.8365L60.5784 31.0355C60.3799 30.5628 60.1908 30.1327 60.0111 29.7451C59.841 29.3575 59.6661 28.9793 59.4865 28.6106C59.3163 28.2324 59.1225 27.8354 58.905 27.4194C58.8389 27.2965 58.716 27.202 58.5363 27.1358C58.3567 27.0696 58.2054 27.0365 58.0825 27.0365C58.0447 27.0365 58.0258 26.9609 58.0258 26.8096C58.0258 26.6773 58.0447 26.5969 58.0825 26.5685C58.1865 26.5685 58.4276 26.5827 58.8058 26.6111C59.1934 26.6394 59.4912 26.6536 59.6992 26.6536C59.9166 26.6536 60.238 26.6394 60.6635 26.6111L61.4009 26.5685C61.4198 26.6064 61.4292 26.6725 61.4292 26.7671C61.4292 26.8616 61.4151 26.9467 61.3867 27.0223C61.3111 27.0223 61.2071 27.0365 61.0747 27.0649C60.9518 27.0932 60.8384 27.1358 60.7344 27.1925C60.6398 27.2492 60.5926 27.3249 60.5926 27.4194C60.5926 27.4478 61.0653 28.535 62.0107 30.681L62.3794 29.7734C62.4077 29.6883 62.4597 29.556 62.5354 29.3764C62.611 29.1873 62.6913 28.9888 62.7764 28.7808C62.8615 28.5633 62.9324 28.3742 62.9891 28.2135C63.0553 28.0434 63.0884 27.9394 63.0884 27.9015C63.0884 27.7786 63.06 27.651 63.0033 27.5187C62.9561 27.3863 62.8615 27.2729 62.7197 27.1783C62.5779 27.0743 62.3652 27.0223 62.0816 27.0223C62.0437 27.0223 62.0248 26.9514 62.0248 26.8096C62.0248 26.6773 62.0437 26.5969 62.0816 26.5685C62.1856 26.5685 62.4219 26.5827 62.7906 26.6111C63.1499 26.6394 63.4429 26.6536 63.6698 26.6536C63.8778 26.6536 64.1851 26.6394 64.5916 26.6111L65.3148 26.5685C65.3337 26.6064 65.3385 26.6962 65.329 26.838C65.329 26.9703 65.3148 27.0365 65.2865 27.0365C64.8043 27.0365 64.5632 27.202 64.5632 27.5328C64.5632 27.7314 65.0076 28.7808 65.8962 30.681C66.0948 30.161 66.2838 29.6883 66.4635 29.2629C66.6526 28.828 66.8038 28.4641 66.9173 28.171C67.0402 27.8779 67.1016 27.6841 67.1016 27.5896C67.1016 27.4383 67.0449 27.3249 66.9314 27.2492C66.818 27.1641 66.6809 27.1074 66.5202 27.0791C66.3595 27.0507 66.2129 27.0365 66.0806 27.0365H66.0239C65.986 27.0365 65.9624 26.9656 65.953 26.8238C65.953 26.682 65.9671 26.5969 65.9955 26.5685C66.1184 26.5685 66.3689 26.5827 66.7471 26.6111C67.1347 26.6394 67.4372 26.6536 67.6547 26.6536C67.8532 26.6536 68.1085 26.6394 68.4204 26.6111C68.723 26.5827 68.9451 26.5685 69.0869 26.5685C69.0964 26.6064 69.1011 26.6442 69.1011 26.682C69.1106 26.7198 69.1153 26.7623 69.1153 26.8096C69.1153 26.9514 69.0964 27.0223 69.0586 27.0223C68.9829 27.0223 68.8695 27.0507 68.7182 27.1074C68.5764 27.1547 68.4346 27.2256 68.2928 27.3201C68.151 27.4147 68.0565 27.5187 68.0092 27.6321L65.9104 32.638C65.8726 32.7136 65.8064 32.7798 65.7119 32.8365C65.6268 32.9027 65.537 32.9358 65.4424 32.9358C65.3479 32.9358 65.2865 32.9027 65.2581 32.8365L63.528 28.9226L62.0107 32.6238C61.9918 32.6805 61.9398 32.7467 61.8547 32.8223C61.7696 32.898 61.6656 32.9358 61.5427 32.9358ZM72.3911 32.8649C71.8144 32.8649 71.2944 32.7231 70.8312 32.4394C70.368 32.1558 69.9992 31.7729 69.7251 31.2908C69.4509 30.8086 69.3138 30.2745 69.3138 29.6883C69.3138 29.1117 69.4415 28.587 69.6967 28.1143C69.9614 27.6321 70.3254 27.2445 70.7887 26.9514C71.2519 26.6584 71.786 26.5118 72.3911 26.5118C72.8922 26.5118 73.3365 26.5969 73.7241 26.7671C74.1212 26.9278 74.4048 27.1074 74.575 27.3059C74.575 27.6274 74.5182 27.8968 74.4048 28.1143C74.3008 28.3222 74.1401 28.4262 73.9226 28.4262C73.743 28.4262 73.5965 28.379 73.483 28.2844C73.379 28.1899 73.2703 28.0339 73.1569 27.8165C72.9489 27.3816 72.6322 27.1641 72.2067 27.1641C71.8002 27.1641 71.4741 27.3721 71.2283 27.7881C70.9919 28.1946 70.8737 28.7099 70.8737 29.3338C70.8737 30.1847 71.0486 30.8181 71.3984 31.2341C71.7482 31.6406 72.1926 31.8438 72.7314 31.8438C72.9772 31.8438 73.1805 31.8249 73.3412 31.7871C73.5019 31.7493 73.6579 31.7068 73.8092 31.6595C73.8848 31.6311 73.9794 31.5839 74.0928 31.5177C74.2063 31.4421 74.3102 31.3759 74.4048 31.3191C74.4993 31.253 74.5466 31.2199 74.5466 31.2199C74.5655 31.2293 74.5891 31.2577 74.6175 31.305C74.6459 31.3522 74.66 31.3995 74.66 31.4468C74.66 31.6264 74.5466 31.8297 74.3197 32.0566C74.1023 32.274 73.8186 32.4631 73.4688 32.6238C73.1285 32.7845 72.7693 32.8649 72.3911 32.8649ZM77.1275 32.8791C76.6548 32.8791 76.2672 32.7514 75.9647 32.4962C75.6716 32.2315 75.5251 31.8722 75.5251 31.4184C75.5251 31.1064 75.6243 30.8228 75.8229 30.5676C76.0309 30.3123 76.3192 30.0949 76.6879 29.9152C76.8203 29.8491 76.9384 29.7971 77.0424 29.7592C77.1559 29.712 77.2599 29.6694 77.3544 29.6316C77.6853 29.5276 77.9595 29.4425 78.1769 29.3764C78.4038 29.3102 78.5645 29.2629 78.6591 29.2346C78.7442 29.1873 78.7867 29.1117 78.7867 29.0077V28.2277C78.7867 27.8968 78.7111 27.6368 78.5598 27.4478C78.4085 27.2587 78.2053 27.1641 77.95 27.1641C77.6664 27.1641 77.4442 27.254 77.2835 27.4336C77.1228 27.6037 77.0424 27.8495 77.0424 28.171C77.0424 28.3601 76.9715 28.5019 76.8297 28.5964C76.6879 28.6815 76.5272 28.724 76.3476 28.724C75.9978 28.724 75.752 28.6106 75.6102 28.3837C75.6102 28.1568 75.6953 27.9346 75.8654 27.7172C76.0356 27.4903 76.2578 27.287 76.5319 27.1074C76.8155 26.9278 77.1275 26.786 77.4679 26.682C77.8082 26.5685 78.1486 26.5118 78.4889 26.5118C79.075 26.5118 79.5147 26.6678 79.8077 26.9798C80.1008 27.2823 80.2473 27.807 80.2473 28.5539V31.3475C80.2473 31.7351 80.4033 31.9289 80.7153 31.9289C80.8571 31.9289 81.0178 31.8675 81.1975 31.7446C81.2542 31.754 81.2825 31.806 81.2825 31.9006C81.2825 32.0802 81.2542 32.222 81.1975 32.326C81.0556 32.4394 80.8666 32.5576 80.6302 32.6805C80.3939 32.8034 80.167 32.8649 79.9495 32.8649C79.7321 32.8649 79.5194 32.7845 79.3114 32.6238C79.1034 32.4631 78.9663 32.2882 78.9001 32.0991C78.8245 32.1653 78.7678 32.2125 78.73 32.2409C78.6922 32.2693 78.6307 32.3165 78.5456 32.3827C78.3471 32.5151 78.1296 32.6332 77.8933 32.7372C77.6569 32.8318 77.4017 32.8791 77.1275 32.8791ZM77.8508 31.9573C78.106 31.9573 78.3235 31.8911 78.5031 31.7588C78.6922 31.6264 78.7867 31.4751 78.7867 31.305V29.8585L77.8791 30.1705C77.6617 30.265 77.4679 30.3785 77.2977 30.5108C77.1275 30.6432 77.0424 30.8323 77.0424 31.0781C77.0424 31.3806 77.1181 31.6028 77.2693 31.7446C77.4206 31.8864 77.6144 31.9573 77.8508 31.9573ZM83.9769 32.9216C83.3813 32.9216 82.7715 32.7892 82.1476 32.5245C82.1192 32.4111 82.0861 32.2504 82.0483 32.0424C82.0199 31.8344 81.9916 31.6264 81.9632 31.4184C81.9443 31.201 81.9349 31.0355 81.9349 30.9221C82.001 30.8748 82.0672 30.8512 82.1334 30.8512C82.3414 30.8512 82.4548 30.889 82.4737 30.9646C82.5494 31.3617 82.7337 31.6831 83.0268 31.9289C83.3293 32.1653 83.6555 32.2835 84.0053 32.2835C84.27 32.2835 84.4874 32.2173 84.6576 32.0849C84.8278 31.9431 84.9129 31.7351 84.9129 31.461C84.9129 31.2624 84.8372 31.0828 84.686 30.9221C84.5347 30.7519 84.3929 30.6337 84.2605 30.5676L83.3246 30.0712C82.8897 29.8443 82.5541 29.5938 82.3177 29.3196C82.0814 29.036 81.9632 28.6957 81.9632 28.2986C81.9632 27.911 82.0672 27.5848 82.2752 27.3201C82.4926 27.0554 82.7715 26.8522 83.1119 26.7103C83.4617 26.5685 83.8351 26.4976 84.2322 26.4976C84.7427 26.4976 85.291 26.578 85.8772 26.7387C85.9244 26.9467 85.9575 27.183 85.9764 27.4478C86.0048 27.7125 86.0237 28.0055 86.0332 28.327C86.0332 28.4026 85.9717 28.4404 85.8488 28.4404C85.6408 28.4404 85.5274 28.4026 85.5085 28.327C85.4423 27.9961 85.3005 27.7172 85.083 27.4903C84.875 27.254 84.5914 27.1358 84.2322 27.1358C83.958 27.1358 83.7406 27.1972 83.5798 27.3201C83.4286 27.443 83.353 27.6179 83.353 27.8448C83.353 28.0906 83.4475 28.2986 83.6366 28.4688C83.8257 28.639 84.0809 28.8044 84.4023 28.9651C84.6481 29.088 84.8845 29.2204 85.1114 29.3622C85.3477 29.504 85.5699 29.66 85.7779 29.8302C86.1466 30.1232 86.3309 30.5108 86.3309 30.993C86.3309 31.3901 86.2222 31.7351 86.0048 32.0282C85.7968 32.3118 85.5132 32.534 85.1539 32.6947C84.8041 32.846 84.4118 32.9216 83.9769 32.9216ZM90.2733 32.8649C89.7249 32.8649 89.2191 32.7278 88.7559 32.4536C88.3021 32.17 87.9381 31.7918 87.664 31.3191C87.3898 30.837 87.2527 30.3076 87.2527 29.7309C87.2527 29.088 87.3803 28.5255 87.6356 28.0434C87.8909 27.5612 88.2359 27.1878 88.6708 26.9231C89.1151 26.6489 89.6209 26.5118 90.1882 26.5118C90.6514 26.5118 91.0485 26.5969 91.3794 26.7671C91.7103 26.9372 91.9797 27.1594 92.1877 27.4336C92.4051 27.6983 92.5611 27.9819 92.6556 28.2844C92.7596 28.5775 92.8116 28.8517 92.8116 29.1069C92.8116 29.3149 92.7738 29.4473 92.6982 29.504C92.632 29.5513 92.4902 29.5749 92.2728 29.5749H88.8835C88.8173 29.5749 88.7843 29.6033 88.7843 29.66C88.7843 30.0098 88.8457 30.3407 88.9686 30.6526C89.0915 30.9741 89.2995 31.253 89.5926 31.4893C89.8951 31.7257 90.2543 31.8438 90.6703 31.8438C90.9161 31.8438 91.1194 31.8249 91.2801 31.7871C91.4408 31.7493 91.5968 31.7068 91.7481 31.6595C91.8237 31.6311 91.9182 31.5839 92.0317 31.5177C92.1451 31.4421 92.2491 31.3759 92.3437 31.3191C92.4382 31.253 92.4855 31.2199 92.4855 31.2199C92.5044 31.2293 92.528 31.2577 92.5564 31.305C92.5847 31.3522 92.5989 31.3995 92.5989 31.4468C92.5989 31.5508 92.5706 31.6406 92.5138 31.7162C92.4193 31.8864 92.2586 32.0613 92.0317 32.2409C91.8142 32.4111 91.5543 32.5576 91.2517 32.6805C90.9492 32.8034 90.623 32.8649 90.2733 32.8649ZM88.8835 28.8942H91.1808C91.2659 28.8942 91.3085 28.8233 91.3085 28.6815C91.3085 28.4546 91.2565 28.2277 91.1525 28.0008C91.0579 27.7645 90.9161 27.5659 90.727 27.4052C90.5474 27.2445 90.3347 27.1641 90.0889 27.1641C89.7958 27.1641 89.55 27.2634 89.3515 27.4619C89.1624 27.6605 89.0206 27.8874 88.9261 28.1426C88.841 28.3979 88.7984 28.6153 88.7984 28.7949C88.7984 28.8611 88.8268 28.8942 88.8835 28.8942ZM97.4772 35.928C97.2314 35.928 97.0423 35.8618 96.9099 35.7294C96.7776 35.5971 96.7114 35.4458 96.7114 35.2756C96.7114 35.0298 96.8012 34.8455 96.9808 34.7226C97.964 34.7226 98.6116 34.335 98.9236 33.5597L99.3065 32.5954L97.1935 27.6747C97.099 27.4572 96.9619 27.2965 96.7823 27.1925C96.6027 27.0791 96.4041 27.0223 96.1867 27.0223C96.1489 27.0223 96.13 26.9562 96.13 26.8238C96.13 26.6631 96.1442 26.578 96.1725 26.5685L96.9383 26.6111C97.3826 26.6394 97.7182 26.6536 97.9451 26.6536C98.1626 26.6536 98.4604 26.6394 98.8385 26.6111C99.2261 26.5827 99.4672 26.5685 99.5618 26.5685C99.5712 26.6064 99.5759 26.6489 99.5759 26.6962C99.5854 26.734 99.5901 26.7765 99.5901 26.8238C99.5901 26.9562 99.5712 27.0223 99.5334 27.0223C99.4767 27.0223 99.3869 27.0412 99.264 27.0791C99.1411 27.1074 99.0276 27.15 98.9236 27.2067C98.8196 27.254 98.7676 27.3059 98.7676 27.3627V27.4478C98.7676 27.5234 98.8763 27.8306 99.0938 28.3695C99.3207 28.9084 99.6516 29.6789 100.086 30.681L100.64 29.2771L101.15 27.9725C101.207 27.8117 101.235 27.6652 101.235 27.5328C101.235 27.4099 101.159 27.2965 101.008 27.1925C100.857 27.0791 100.63 27.0223 100.328 27.0223C100.29 27.0223 100.271 26.9514 100.271 26.8096C100.271 26.6867 100.29 26.6064 100.328 26.5685C100.441 26.5685 100.673 26.5827 101.022 26.6111C101.382 26.6394 101.67 26.6536 101.887 26.6536C102.086 26.6536 102.332 26.6394 102.625 26.6111C102.908 26.5827 103.116 26.5685 103.249 26.5685C103.287 26.6158 103.306 26.6914 103.306 26.7954C103.306 26.9467 103.287 27.0223 103.249 27.0223C103.164 27.0223 103.046 27.046 102.894 27.0932C102.743 27.131 102.601 27.1925 102.469 27.2776C102.336 27.3532 102.242 27.4572 102.185 27.5896L99.5901 33.8575C99.0229 35.2378 98.3186 35.928 97.4772 35.928ZM106.907 32.8791C106.312 32.8791 105.768 32.7372 105.277 32.4536C104.795 32.1606 104.407 31.7729 104.114 31.2908C103.83 30.8086 103.688 30.2745 103.688 29.6883C103.688 29.0927 103.83 28.5586 104.114 28.0859C104.397 27.6037 104.78 27.2209 105.262 26.9372C105.754 26.6536 106.298 26.5118 106.893 26.5118C107.489 26.5118 108.028 26.6536 108.51 26.9372C109.002 27.2209 109.389 27.6037 109.673 28.0859C109.966 28.568 110.112 29.1022 110.112 29.6883C110.112 30.2745 109.971 30.8086 109.687 31.2908C109.403 31.7729 109.02 32.1606 108.538 32.4536C108.056 32.7372 107.513 32.8791 106.907 32.8791ZM107.049 32.2125C107.352 32.2125 107.607 32.1133 107.815 31.9147C108.023 31.7162 108.184 31.4515 108.297 31.1206C108.411 30.7803 108.467 30.4163 108.467 30.0287C108.467 29.5182 108.396 29.0502 108.255 28.6248C108.122 28.1899 107.924 27.8401 107.659 27.5754C107.404 27.3107 107.087 27.1783 106.709 27.1783C106.416 27.1783 106.161 27.2776 105.943 27.4761C105.735 27.6747 105.574 27.9394 105.461 28.2702C105.357 28.6011 105.305 28.9651 105.305 29.3622C105.305 29.8727 105.371 30.3454 105.504 30.7803C105.645 31.2057 105.849 31.5508 106.113 31.8155C106.378 32.0802 106.69 32.2125 107.049 32.2125ZM113.573 32.8649C113.147 32.8649 112.802 32.7372 112.537 32.482C112.273 32.2267 112.079 31.9006 111.956 31.5035C111.833 31.1064 111.772 30.6999 111.772 30.2839V28.6957C111.772 28.2419 111.696 27.9394 111.545 27.7881C111.46 27.6841 111.351 27.6132 111.218 27.5754C111.096 27.5281 110.982 27.4998 110.878 27.4903C110.784 27.4808 110.736 27.4667 110.736 27.4478C110.736 27.183 110.76 27.0412 110.807 27.0223C111.034 27.0034 111.289 26.9703 111.573 26.9231C111.857 26.8758 112.121 26.8285 112.367 26.7813C112.613 26.7245 112.783 26.682 112.878 26.6536C112.953 26.6347 113.024 26.6158 113.09 26.5969C113.157 26.578 113.194 26.5685 113.204 26.5685C113.251 26.5685 113.284 26.6016 113.303 26.6678C113.331 26.734 113.346 26.786 113.346 26.8238C113.261 27.4572 113.218 27.8732 113.218 28.0717V29.7734C113.218 30.5108 113.322 31.0403 113.53 31.3617C113.738 31.6831 114.074 31.8438 114.537 31.8438C114.839 31.8438 115.095 31.754 115.303 31.5744C115.511 31.3853 115.615 31.2057 115.615 31.0355V28.6957C115.615 28.2419 115.539 27.9394 115.388 27.7881C115.303 27.6841 115.194 27.6132 115.062 27.5754C114.939 27.5376 114.825 27.5139 114.721 27.5045C114.627 27.4856 114.579 27.4667 114.579 27.4478C114.579 27.1736 114.608 27.0318 114.664 27.0223C114.844 27.0034 115.071 26.9703 115.345 26.9231C115.619 26.8758 115.898 26.8238 116.182 26.7671C116.475 26.7009 116.725 26.6442 116.933 26.5969L117.047 26.5685C117.094 26.5685 117.132 26.6016 117.16 26.6678C117.189 26.734 117.198 26.786 117.189 26.8238C117.151 27.1452 117.122 27.4099 117.104 27.6179C117.085 27.8165 117.075 27.9583 117.075 28.0434V30.8512C117.075 31.0875 117.085 31.2908 117.104 31.461C117.122 31.6311 117.151 31.7588 117.189 31.8438C117.226 31.9195 117.302 31.9715 117.416 31.9998C117.529 32.0187 117.638 32.0282 117.742 32.0282C117.855 32.0282 117.926 32.0329 117.954 32.0424C117.992 32.0518 118.011 32.0944 118.011 32.17C118.011 32.2078 118.002 32.274 117.983 32.3685C117.964 32.4536 117.936 32.4962 117.898 32.4962C117.69 32.4962 117.378 32.534 116.962 32.6096C116.555 32.6852 116.135 32.7703 115.7 32.8649C115.633 32.8649 115.6 32.7892 115.6 32.638V32.014C115.6 31.9667 115.586 31.9431 115.558 31.9431C115.34 32.1795 115.052 32.3922 114.693 32.5813C114.334 32.7703 113.96 32.8649 113.573 32.8649ZM118.819 32.8365C118.782 32.7987 118.763 32.7089 118.763 32.5671C118.763 32.4253 118.782 32.3544 118.819 32.3544C118.895 32.3544 118.999 32.3402 119.131 32.3118C119.273 32.274 119.401 32.2315 119.514 32.1842C119.637 32.1275 119.703 32.0802 119.713 32.0424C119.779 31.7777 119.812 31.4326 119.812 31.0072V28.6957C119.812 28.2419 119.736 27.9394 119.585 27.7881C119.5 27.6841 119.396 27.6132 119.273 27.5754C119.15 27.5281 119.037 27.4998 118.933 27.4903C118.838 27.4808 118.791 27.4667 118.791 27.4478C118.791 27.183 118.815 27.0412 118.862 27.0223C119.136 27.0034 119.434 26.9609 119.755 26.8947C120.086 26.8191 120.469 26.7387 120.904 26.6536C121.046 26.6253 121.136 26.6064 121.173 26.5969C121.221 26.578 121.249 26.5685 121.259 26.5685C121.296 26.5685 121.329 26.6016 121.358 26.6678C121.386 26.7245 121.4 26.7765 121.4 26.8238C121.344 27.2209 121.315 27.4478 121.315 27.5045C121.485 27.2492 121.717 27.0223 122.01 26.8238C122.303 26.6158 122.601 26.5118 122.904 26.5118C123.424 26.5118 123.811 26.6678 124.066 26.9798C124.066 27.7834 123.84 28.1852 123.386 28.1852C123.225 28.1852 123.041 28.0906 122.833 27.9015C122.625 27.7125 122.421 27.6179 122.223 27.6179C122.024 27.6179 121.854 27.6888 121.712 27.8306C121.571 27.9725 121.462 28.1473 121.386 28.3553C121.32 28.5633 121.287 28.776 121.287 28.9935V30.7661C121.287 31.3617 121.32 31.7871 121.386 32.0424C121.405 32.0802 121.471 32.1275 121.585 32.1842C121.698 32.2315 121.821 32.274 121.953 32.3118C122.086 32.3402 122.18 32.3544 122.237 32.3544C122.265 32.3544 122.28 32.4253 122.28 32.5671C122.289 32.6994 122.289 32.7892 122.28 32.8365C122.232 32.8271 122.095 32.8129 121.868 32.794C121.651 32.7845 121.415 32.7751 121.159 32.7656C120.914 32.7467 120.715 32.7372 120.564 32.7372C120.412 32.7372 120.209 32.7467 119.954 32.7656C119.699 32.7751 119.458 32.7845 119.231 32.794C119.013 32.8129 118.876 32.8271 118.819 32.8365ZM127.824 35.928C127.796 35.8807 127.782 35.7956 127.782 35.6727C127.782 35.5309 127.796 35.46 127.824 35.46C127.9 35.46 128.004 35.4411 128.136 35.4033C128.278 35.3749 128.406 35.3324 128.519 35.2756C128.642 35.2284 128.713 35.1811 128.732 35.1338C128.789 34.8597 128.817 34.5193 128.817 34.1128V28.6957C128.817 28.2324 128.741 27.9252 128.59 27.7739C128.505 27.6699 128.401 27.599 128.278 27.5612C128.155 27.5234 128.042 27.4998 127.938 27.4903C127.843 27.4808 127.796 27.4667 127.796 27.4478C127.796 27.1736 127.824 27.0318 127.881 27.0223C128.269 26.9845 128.637 26.9325 128.987 26.8663C129.346 26.8002 129.682 26.7198 129.994 26.6253L130.263 26.5544C130.301 26.5544 130.32 26.6347 130.32 26.7954C130.32 26.8427 130.315 26.8852 130.306 26.9231C130.306 26.9514 130.301 26.9845 130.292 27.0223C130.443 26.9089 130.651 26.8002 130.916 26.6962C131.19 26.5827 131.445 26.526 131.682 26.526C132.258 26.526 132.773 26.6631 133.227 26.9372C133.681 27.2114 134.036 27.5754 134.291 28.0292C134.556 28.483 134.688 28.9793 134.688 29.5182C134.688 30.161 134.537 30.7377 134.234 31.2482C133.932 31.7588 133.525 32.1606 133.015 32.4536C132.514 32.7467 131.96 32.8932 131.355 32.8932C131.1 32.8932 130.765 32.8271 130.349 32.6947C130.311 32.6947 130.292 32.7609 130.292 32.8932V33.8575C130.292 34.4248 130.33 34.8502 130.405 35.1338C130.415 35.1811 130.476 35.2284 130.59 35.2756C130.713 35.3324 130.84 35.3749 130.973 35.4033C131.114 35.4411 131.214 35.46 131.27 35.46C131.299 35.46 131.313 35.5262 131.313 35.6585C131.322 35.8003 131.322 35.8901 131.313 35.928L130.561 35.8854C130.126 35.857 129.8 35.8429 129.583 35.8429C129.346 35.8429 129.016 35.857 128.59 35.8854L127.824 35.928ZM131.497 32.2125C131.932 32.2125 132.296 32.014 132.589 31.6169C132.892 31.2199 133.043 30.6621 133.043 29.9436C133.043 29.1778 132.892 28.5444 132.589 28.0434C132.287 27.5328 131.871 27.2776 131.341 27.2776C131.029 27.2776 130.774 27.3674 130.575 27.547C130.386 27.7266 130.292 27.9677 130.292 28.2702V31.1915C130.292 31.5035 130.419 31.754 130.675 31.9431C130.93 32.1227 131.204 32.2125 131.497 32.2125ZM135.539 32.8365C135.501 32.7987 135.482 32.7089 135.482 32.5671C135.482 32.4253 135.501 32.3544 135.539 32.3544C135.614 32.3544 135.718 32.3402 135.851 32.3118C135.993 32.274 136.12 32.2315 136.234 32.1842C136.357 32.1275 136.423 32.0802 136.432 32.0424C136.498 31.7777 136.531 31.4326 136.531 31.0072V28.6957C136.531 28.2419 136.456 27.9394 136.305 27.7881C136.219 27.6841 136.115 27.6132 135.993 27.5754C135.87 27.5281 135.756 27.4998 135.652 27.4903C135.558 27.4808 135.51 27.4667 135.51 27.4478C135.51 27.183 135.534 27.0412 135.581 27.0223C135.855 27.0034 136.153 26.9609 136.475 26.8947C136.806 26.8191 137.188 26.7387 137.623 26.6536C137.765 26.6253 137.855 26.6064 137.893 26.5969C137.94 26.578 137.968 26.5685 137.978 26.5685C138.016 26.5685 138.049 26.6016 138.077 26.6678C138.106 26.7245 138.12 26.7765 138.12 26.8238C138.063 27.2209 138.035 27.4478 138.035 27.5045C138.205 27.2492 138.436 27.0223 138.729 26.8238C139.023 26.6158 139.32 26.5118 139.623 26.5118C140.143 26.5118 140.53 26.6678 140.786 26.9798C140.786 27.7834 140.559 28.1852 140.105 28.1852C139.944 28.1852 139.76 28.0906 139.552 27.9015C139.344 27.7125 139.141 27.6179 138.942 27.6179C138.744 27.6179 138.573 27.6888 138.432 27.8306C138.29 27.9725 138.181 28.1473 138.106 28.3553C138.039 28.5633 138.006 28.776 138.006 28.9935V30.7661C138.006 31.3617 138.039 31.7871 138.106 32.0424C138.124 32.0802 138.191 32.1275 138.304 32.1842C138.418 32.2315 138.54 32.274 138.673 32.3118C138.805 32.3402 138.9 32.3544 138.956 32.3544C138.985 32.3544 138.999 32.4253 138.999 32.5671C139.008 32.6994 139.008 32.7892 138.999 32.8365C138.952 32.8271 138.815 32.8129 138.588 32.794C138.37 32.7845 138.134 32.7751 137.879 32.7656C137.633 32.7467 137.434 32.7372 137.283 32.7372C137.132 32.7372 136.929 32.7467 136.673 32.7656C136.418 32.7751 136.177 32.7845 135.95 32.794C135.733 32.8129 135.595 32.8271 135.539 32.8365ZM144.785 32.8791C144.189 32.8791 143.646 32.7372 143.154 32.4536C142.672 32.1606 142.284 31.7729 141.991 31.2908C141.707 30.8086 141.566 30.2745 141.566 29.6883C141.566 29.0927 141.707 28.5586 141.991 28.0859C142.275 27.6037 142.658 27.2209 143.14 26.9372C143.631 26.6536 144.175 26.5118 144.771 26.5118C145.366 26.5118 145.905 26.6536 146.387 26.9372C146.879 27.2209 147.266 27.6037 147.55 28.0859C147.843 28.568 147.99 29.1022 147.99 29.6883C147.99 30.2745 147.848 30.8086 147.564 31.2908C147.281 31.7729 146.898 32.1606 146.416 32.4536C145.933 32.7372 145.39 32.8791 144.785 32.8791ZM144.927 32.2125C145.229 32.2125 145.484 32.1133 145.692 31.9147C145.9 31.7162 146.061 31.4515 146.174 31.1206C146.288 30.7803 146.345 30.4163 146.345 30.0287C146.345 29.5182 146.274 29.0502 146.132 28.6248C146 28.1899 145.801 27.8401 145.536 27.5754C145.281 27.3107 144.964 27.1783 144.586 27.1783C144.293 27.1783 144.038 27.2776 143.82 27.4761C143.612 27.6747 143.452 27.9394 143.338 28.2702C143.234 28.6011 143.182 28.9651 143.182 29.3622C143.182 29.8727 143.248 30.3454 143.381 30.7803C143.523 31.2057 143.726 31.5508 143.991 31.8155C144.255 32.0802 144.567 32.2125 144.927 32.2125ZM148.514 35.9563C148.325 35.8712 148.231 35.7672 148.231 35.6443C148.231 35.5971 148.24 35.564 148.259 35.5451L148.344 35.4883C148.439 35.4316 148.543 35.356 148.656 35.2614C148.77 35.1764 148.897 35.0393 149.039 34.8502C149.256 34.5477 149.427 34.1317 149.55 33.6023C149.672 33.0823 149.734 32.5103 149.734 31.8864V28.6815C149.734 28.2372 149.658 27.9346 149.507 27.7739C149.422 27.6699 149.313 27.6037 149.181 27.5754C149.058 27.5376 148.944 27.5139 148.84 27.5045C148.746 27.495 148.699 27.4761 148.699 27.4478C148.699 27.1641 148.722 27.0223 148.77 27.0223C149.072 26.9845 149.417 26.9372 149.805 26.8805C150.192 26.8143 150.613 26.7151 151.067 26.5827L151.209 26.5402C151.275 26.5402 151.308 26.6347 151.308 26.8238C151.308 26.8805 151.294 27.0507 151.265 27.3343C151.247 27.4856 151.232 27.6179 151.223 27.7314C151.213 27.8448 151.209 27.9488 151.209 28.0434V31.3617C151.209 32.638 151.001 33.6354 150.585 34.3539C150.159 35.0913 149.469 35.6254 148.514 35.9563ZM150.415 25.0654C150.178 25.0654 149.975 24.9803 149.805 24.8101C149.635 24.6399 149.55 24.4367 149.55 24.2003C149.55 23.964 149.635 23.7654 149.805 23.6047C149.975 23.4346 150.178 23.3495 150.415 23.3495C150.651 23.3495 150.849 23.4346 151.01 23.6047C151.18 23.7654 151.265 23.964 151.265 24.2003C151.265 24.4367 151.18 24.6399 151.01 24.8101C150.849 24.9803 150.651 25.0654 150.415 25.0654ZM155.633 32.8649C155.085 32.8649 154.579 32.7278 154.116 32.4536C153.662 32.17 153.298 31.7918 153.024 31.3191C152.75 30.837 152.613 30.3076 152.613 29.7309C152.613 29.088 152.74 28.5255 152.995 28.0434C153.251 27.5612 153.596 27.1878 154.031 26.9231C154.475 26.6489 154.981 26.5118 155.548 26.5118C156.011 26.5118 156.408 26.5969 156.739 26.7671C157.07 26.9372 157.34 27.1594 157.548 27.4336C157.765 27.6983 157.921 27.9819 158.016 28.2844C158.12 28.5775 158.172 28.8517 158.172 29.1069C158.172 29.3149 158.134 29.4473 158.058 29.504C157.992 29.5513 157.85 29.5749 157.633 29.5749H154.243C154.177 29.5749 154.144 29.6033 154.144 29.66C154.144 30.0098 154.206 30.3407 154.329 30.6526C154.451 30.9741 154.659 31.253 154.952 31.4893C155.255 31.7257 155.614 31.8438 156.03 31.8438C156.276 31.8438 156.479 31.8249 156.64 31.7871C156.801 31.7493 156.957 31.7068 157.108 31.6595C157.184 31.6311 157.278 31.5839 157.392 31.5177C157.505 31.4421 157.609 31.3759 157.704 31.3191C157.798 31.253 157.845 31.2199 157.845 31.2199C157.864 31.2293 157.888 31.2577 157.916 31.305C157.945 31.3522 157.959 31.3995 157.959 31.4468C157.959 31.5508 157.93 31.6406 157.874 31.7162C157.779 31.8864 157.618 32.0613 157.392 32.2409C157.174 32.4111 156.914 32.5576 156.612 32.6805C156.309 32.8034 155.983 32.8649 155.633 32.8649ZM154.243 28.8942H156.541C156.626 28.8942 156.668 28.8233 156.668 28.6815C156.668 28.4546 156.616 28.2277 156.512 28.0008C156.418 27.7645 156.276 27.5659 156.087 27.4052C155.907 27.2445 155.695 27.1641 155.449 27.1641C155.156 27.1641 154.91 27.2634 154.711 27.4619C154.522 27.6605 154.38 27.8874 154.286 28.1426C154.201 28.3979 154.158 28.6153 154.158 28.7949C154.158 28.8611 154.187 28.8942 154.243 28.8942ZM161.873 32.8649C161.296 32.8649 160.776 32.7231 160.313 32.4394C159.85 32.1558 159.481 31.7729 159.207 31.2908C158.933 30.8086 158.795 30.2745 158.795 29.6883C158.795 29.1117 158.923 28.587 159.178 28.1143C159.443 27.6321 159.807 27.2445 160.27 26.9514C160.734 26.6584 161.268 26.5118 161.873 26.5118C162.374 26.5118 162.818 26.5969 163.206 26.7671C163.603 26.9278 163.886 27.1074 164.057 27.3059C164.057 27.6274 164 27.8968 163.886 28.1143C163.782 28.3222 163.622 28.4262 163.404 28.4262C163.225 28.4262 163.078 28.379 162.965 28.2844C162.861 28.1899 162.752 28.0339 162.639 27.8165C162.431 27.3816 162.114 27.1641 161.688 27.1641C161.282 27.1641 160.956 27.3721 160.71 27.7881C160.474 28.1946 160.355 28.7099 160.355 29.3338C160.355 30.1847 160.53 30.8181 160.88 31.2341C161.23 31.6406 161.674 31.8438 162.213 31.8438C162.459 31.8438 162.662 31.8249 162.823 31.7871C162.984 31.7493 163.14 31.7068 163.291 31.6595C163.366 31.6311 163.461 31.5839 163.574 31.5177C163.688 31.4421 163.792 31.3759 163.886 31.3191C163.981 31.253 164.028 31.2199 164.028 31.2199C164.047 31.2293 164.071 31.2577 164.099 31.305C164.128 31.3522 164.142 31.3995 164.142 31.4468C164.142 31.6264 164.028 31.8297 163.801 32.0566C163.584 32.274 163.3 32.4631 162.951 32.6238C162.61 32.7845 162.251 32.8649 161.873 32.8649ZM167.588 32.8791C167.096 32.8791 166.675 32.7231 166.326 32.4111C165.985 32.0896 165.815 31.598 165.815 30.9363V27.5045H164.95C164.884 27.5045 164.851 27.3816 164.851 27.1358C164.851 27.0601 164.855 27.0176 164.865 27.0081C165.054 26.9231 165.238 26.8191 165.418 26.6962C165.598 26.5638 165.777 26.4173 165.957 26.2566C166.231 25.9824 166.453 25.746 166.623 25.5475C166.794 25.3395 166.879 25.2355 166.879 25.2355C166.926 25.2355 166.973 25.2403 167.02 25.2497C167.068 25.2497 167.11 25.2544 167.148 25.2639C167.233 25.2923 167.276 25.3206 167.276 25.349V26.7387H168.311C168.528 26.7387 168.694 26.7434 168.807 26.7529C168.93 26.7529 168.996 26.7529 169.006 26.7529C169.081 26.7529 169.119 26.7954 169.119 26.8805C169.119 27.1169 169.072 27.3249 168.977 27.5045H167.276V30.9221C167.276 31.3002 167.356 31.5886 167.517 31.7871C167.677 31.9857 167.9 32.0849 168.183 32.0849C168.382 32.0849 168.566 32.0471 168.736 31.9715C168.907 31.8864 169.001 31.8438 169.02 31.8438C169.058 31.8344 169.1 31.8769 169.148 31.9715C169.195 32.066 169.214 32.1275 169.204 32.1558C169.166 32.2409 169.058 32.3402 168.878 32.4536C168.708 32.5671 168.505 32.6663 168.268 32.7514C168.041 32.8365 167.815 32.8791 167.588 32.8791ZM172.012 32.9216C171.417 32.9216 170.807 32.7892 170.183 32.5245C170.154 32.4111 170.121 32.2504 170.084 32.0424C170.055 31.8344 170.027 31.6264 169.998 31.4184C169.98 31.201 169.97 31.0355 169.97 30.9221C170.036 30.8748 170.102 30.8512 170.169 30.8512C170.377 30.8512 170.49 30.889 170.509 30.9646C170.585 31.3617 170.769 31.6831 171.062 31.9289C171.365 32.1653 171.691 32.2835 172.04 32.2835C172.305 32.2835 172.523 32.2173 172.693 32.0849C172.863 31.9431 172.948 31.7351 172.948 31.461C172.948 31.2624 172.872 31.0828 172.721 30.9221C172.57 30.7519 172.428 30.6337 172.296 30.5676L171.36 30.0712C170.925 29.8443 170.589 29.5938 170.353 29.3196C170.117 29.036 169.998 28.6957 169.998 28.2986C169.998 27.911 170.102 27.5848 170.31 27.3201C170.528 27.0554 170.807 26.8522 171.147 26.7103C171.497 26.5685 171.87 26.4976 172.267 26.4976C172.778 26.4976 173.326 26.578 173.912 26.7387C173.96 26.9467 173.993 27.183 174.012 27.4478C174.04 27.7125 174.059 28.0055 174.068 28.327C174.068 28.4026 174.007 28.4404 173.884 28.4404C173.676 28.4404 173.563 28.4026 173.544 28.327C173.477 27.9961 173.336 27.7172 173.118 27.4903C172.91 27.254 172.627 27.1358 172.267 27.1358C171.993 27.1358 171.776 27.1972 171.615 27.3201C171.464 27.443 171.388 27.6179 171.388 27.8448C171.388 28.0906 171.483 28.2986 171.672 28.4688C171.861 28.639 172.116 28.8044 172.438 28.9651C172.683 29.088 172.92 29.2204 173.147 29.3622C173.383 29.504 173.605 29.66 173.813 29.8302C174.182 30.1232 174.366 30.5108 174.366 30.993C174.366 31.3901 174.257 31.7351 174.04 32.0282C173.832 32.3118 173.548 32.534 173.189 32.6947C172.839 32.846 172.447 32.9216 172.012 32.9216ZM181.613 32.9358C181.518 32.9358 181.452 32.9027 181.414 32.8365L180.648 31.0355C180.45 30.5628 180.261 30.1327 180.081 29.7451C179.911 29.3575 179.736 28.9793 179.556 28.6106C179.386 28.2324 179.192 27.8354 178.975 27.4194C178.909 27.2965 178.786 27.202 178.606 27.1358C178.427 27.0696 178.275 27.0365 178.152 27.0365C178.115 27.0365 178.096 26.9609 178.096 26.8096C178.096 26.6773 178.115 26.5969 178.152 26.5685C178.256 26.5685 178.498 26.5827 178.876 26.6111C179.263 26.6394 179.561 26.6536 179.769 26.6536C179.987 26.6536 180.308 26.6394 180.733 26.6111L181.471 26.5685C181.49 26.6064 181.499 26.6725 181.499 26.7671C181.499 26.8616 181.485 26.9467 181.457 27.0223C181.381 27.0223 181.277 27.0365 181.145 27.0649C181.022 27.0932 180.908 27.1358 180.804 27.1925C180.71 27.2492 180.662 27.3249 180.662 27.4194C180.662 27.4478 181.135 28.535 182.081 30.681L182.449 29.7734C182.478 29.6883 182.53 29.556 182.605 29.3764C182.681 29.1873 182.761 28.9888 182.846 28.7808C182.931 28.5633 183.002 28.3742 183.059 28.2135C183.125 28.0434 183.158 27.9394 183.158 27.9015C183.158 27.7786 183.13 27.651 183.073 27.5187C183.026 27.3863 182.931 27.2729 182.79 27.1783C182.648 27.0743 182.435 27.0223 182.151 27.0223C182.114 27.0223 182.095 26.9514 182.095 26.8096C182.095 26.6773 182.114 26.5969 182.151 26.5685C182.255 26.5685 182.492 26.5827 182.861 26.6111C183.22 26.6394 183.513 26.6536 183.74 26.6536C183.948 26.6536 184.255 26.6394 184.662 26.6111L185.385 26.5685C185.404 26.6064 185.408 26.6962 185.399 26.838C185.399 26.9703 185.385 27.0365 185.356 27.0365C184.874 27.0365 184.633 27.202 184.633 27.5328C184.633 27.7314 185.077 28.7808 185.966 30.681C186.165 30.161 186.354 29.6883 186.533 29.2629C186.722 28.828 186.874 28.4641 186.987 28.171C187.11 27.8779 187.172 27.6841 187.172 27.5896C187.172 27.4383 187.115 27.3249 187.001 27.2492C186.888 27.1641 186.751 27.1074 186.59 27.0791C186.429 27.0507 186.283 27.0365 186.151 27.0365H186.094C186.056 27.0365 186.032 26.9656 186.023 26.8238C186.023 26.682 186.037 26.5969 186.065 26.5685C186.188 26.5685 186.439 26.5827 186.817 26.6111C187.205 26.6394 187.507 26.6536 187.725 26.6536C187.923 26.6536 188.178 26.6394 188.49 26.6111C188.793 26.5827 189.015 26.5685 189.157 26.5685C189.166 26.6064 189.171 26.6442 189.171 26.682C189.18 26.7198 189.185 26.7623 189.185 26.8096C189.185 26.9514 189.166 27.0223 189.128 27.0223C189.053 27.0223 188.939 27.0507 188.788 27.1074C188.646 27.1547 188.505 27.2256 188.363 27.3201C188.221 27.4147 188.126 27.5187 188.079 27.6321L185.98 32.638C185.943 32.7136 185.876 32.7798 185.782 32.8365C185.697 32.9027 185.607 32.9358 185.512 32.9358C185.418 32.9358 185.356 32.9027 185.328 32.8365L183.598 28.9226L182.081 32.6238C182.062 32.6805 182.01 32.7467 181.925 32.8223C181.839 32.898 181.736 32.9358 181.613 32.9358ZM189.838 32.8223C189.8 32.7845 189.781 32.6947 189.781 32.5529C189.781 32.4205 189.8 32.3544 189.838 32.3544C189.913 32.3544 190.012 32.3354 190.135 32.2976C190.258 32.2598 190.372 32.2125 190.476 32.1558C190.589 32.0991 190.651 32.0518 190.66 32.014C190.698 31.8533 190.726 31.6831 190.745 31.5035C190.764 31.3239 190.773 31.1443 190.773 30.9646V28.6815C190.773 28.2372 190.698 27.9346 190.547 27.7739C190.462 27.6699 190.353 27.599 190.22 27.5612C190.098 27.5234 189.984 27.4998 189.88 27.4903C189.786 27.4808 189.738 27.4667 189.738 27.4478C189.738 27.1641 189.762 27.0223 189.809 27.0223C190.112 26.9845 190.443 26.9325 190.802 26.8663C191.171 26.7907 191.501 26.7198 191.795 26.6536L192.248 26.5402C192.314 26.5402 192.348 26.6347 192.348 26.8238C192.348 26.9467 192.329 27.1263 192.291 27.3627C192.262 27.5896 192.248 27.8165 192.248 28.0434V30.7377C192.248 31.3333 192.281 31.7588 192.348 32.014C192.366 32.0518 192.428 32.0991 192.532 32.1558C192.636 32.2125 192.749 32.2598 192.872 32.2976C192.995 32.3354 193.08 32.3544 193.128 32.3544C193.156 32.3544 193.17 32.4205 193.17 32.5529C193.18 32.6852 193.175 32.7751 193.156 32.8223C192.863 32.8034 192.565 32.7845 192.262 32.7656C191.96 32.7467 191.709 32.7372 191.511 32.7372C191.218 32.7372 190.915 32.7467 190.603 32.7656C190.301 32.7845 190.046 32.8034 189.838 32.8223ZM191.397 25.0654C191.161 25.0654 190.958 24.9803 190.788 24.8101C190.618 24.6399 190.532 24.4367 190.532 24.2003C190.532 23.964 190.618 23.7654 190.788 23.6047C190.958 23.4346 191.161 23.3495 191.397 23.3495C191.634 23.3495 191.832 23.4346 191.993 23.6047C192.163 23.7654 192.248 23.964 192.248 24.2003C192.248 24.4367 192.163 24.6399 191.993 24.8101C191.832 24.9803 191.634 25.0654 191.397 25.0654ZM196.446 32.8791C195.954 32.8791 195.534 32.7231 195.184 32.4111C194.843 32.0896 194.673 31.598 194.673 30.9363V27.5045H193.808C193.742 27.5045 193.709 27.3816 193.709 27.1358C193.709 27.0601 193.714 27.0176 193.723 27.0081C193.912 26.9231 194.097 26.8191 194.276 26.6962C194.456 26.5638 194.635 26.4173 194.815 26.2566C195.089 25.9824 195.311 25.746 195.482 25.5475C195.652 25.3395 195.737 25.2355 195.737 25.2355C195.784 25.2355 195.831 25.2403 195.879 25.2497C195.926 25.2497 195.968 25.2544 196.006 25.2639C196.091 25.2923 196.134 25.3206 196.134 25.349V26.7387H197.169C197.387 26.7387 197.552 26.7434 197.665 26.7529C197.788 26.7529 197.854 26.7529 197.864 26.7529C197.94 26.7529 197.977 26.7954 197.977 26.8805C197.977 27.1169 197.93 27.3249 197.836 27.5045H196.134V30.9221C196.134 31.3002 196.214 31.5886 196.375 31.7871C196.536 31.9857 196.758 32.0849 197.041 32.0849C197.24 32.0849 197.424 32.0471 197.595 31.9715C197.765 31.8864 197.859 31.8438 197.878 31.8438C197.916 31.8344 197.958 31.8769 198.006 31.9715C198.053 32.066 198.072 32.1275 198.062 32.1558C198.025 32.2409 197.916 32.3402 197.736 32.4536C197.566 32.5671 197.363 32.6663 197.127 32.7514C196.9 32.8365 196.673 32.8791 196.446 32.8791ZM198.871 32.8365C198.833 32.7987 198.814 32.7089 198.814 32.5671C198.814 32.4253 198.833 32.3544 198.871 32.3544C198.946 32.3544 199.05 32.3402 199.183 32.3118C199.325 32.274 199.452 32.2315 199.566 32.1842C199.689 32.1275 199.755 32.0802 199.764 32.0424C199.83 31.7777 199.863 31.4373 199.863 31.0214V25.1221C199.863 24.933 199.854 24.7581 199.835 24.5974C199.826 24.4367 199.811 24.2901 199.793 24.1578C199.755 24.0065 199.509 23.9309 199.055 23.9309H198.928C198.871 23.9309 198.842 23.8553 198.842 23.704C198.842 23.5527 198.871 23.4771 198.928 23.4771C199.221 23.4487 199.499 23.4109 199.764 23.3636C200.029 23.3164 200.251 23.2691 200.431 23.2218C200.677 23.1462 200.88 23.08 201.04 23.0233C201.201 22.9666 201.282 22.9382 201.282 22.9382H201.31C201.348 22.9382 201.386 22.9666 201.423 23.0233C201.461 23.0706 201.485 23.1178 201.494 23.1651C201.381 23.5338 201.324 23.9782 201.324 24.4981V27.3627C201.324 27.4194 201.343 27.4478 201.381 27.4478C201.39 27.4478 201.409 27.4336 201.438 27.4052C201.636 27.1783 201.924 26.9751 202.303 26.7954C202.69 26.6064 203.073 26.5118 203.451 26.5118C204.661 26.5118 205.266 27.443 205.266 29.3055V30.7661C205.266 31.3333 205.304 31.7588 205.38 32.0424C205.389 32.0802 205.451 32.1275 205.564 32.1842C205.687 32.2315 205.815 32.274 205.947 32.3118C206.089 32.3402 206.188 32.3544 206.245 32.3544C206.273 32.3544 206.287 32.4253 206.287 32.5671C206.297 32.6994 206.297 32.7892 206.287 32.8365C206.25 32.8271 206.113 32.8129 205.876 32.794C205.649 32.7845 205.408 32.7751 205.153 32.7656C204.898 32.7467 204.699 32.7372 204.557 32.7372C204.406 32.7372 204.208 32.7467 203.962 32.7656C203.716 32.7751 203.484 32.7845 203.267 32.794C203.059 32.8129 202.922 32.8271 202.856 32.8365C202.827 32.7892 202.813 32.6994 202.813 32.5671C202.813 32.4253 202.827 32.3544 202.856 32.3544C202.931 32.3544 203.031 32.3402 203.153 32.3118C203.286 32.274 203.404 32.2315 203.508 32.1842C203.621 32.1275 203.688 32.0802 203.707 32.0424C203.763 31.7588 203.792 31.4137 203.792 31.0072V29.6174C203.792 28.8328 203.683 28.2939 203.465 28.0008C203.257 27.6983 202.922 27.547 202.459 27.547C202.175 27.547 201.915 27.6274 201.679 27.7881C201.442 27.9488 201.324 28.1284 201.324 28.327V30.7661C201.324 31.3333 201.362 31.7588 201.438 32.0424C201.456 32.0802 201.523 32.1275 201.636 32.1842C201.75 32.2315 201.872 32.274 202.005 32.3118C202.137 32.3402 202.232 32.3544 202.288 32.3544C202.317 32.3544 202.331 32.4253 202.331 32.5671C202.34 32.6994 202.336 32.7892 202.317 32.8365C202.27 32.8271 202.132 32.8129 201.906 32.794C201.688 32.7845 201.456 32.7751 201.211 32.7656C200.965 32.7467 200.766 32.7372 200.615 32.7372C200.464 32.7372 200.261 32.7467 200.005 32.7656C199.75 32.7751 199.509 32.7845 199.282 32.794C199.065 32.8129 198.928 32.8271 198.871 32.8365ZM213.194 32.8791C212.598 32.8791 212.054 32.7372 211.563 32.4536C211.081 32.1606 210.693 31.7729 210.4 31.2908C210.116 30.8086 209.974 30.2745 209.974 29.6883C209.974 29.0927 210.116 28.5586 210.4 28.0859C210.684 27.6037 211.066 27.2209 211.549 26.9372C212.04 26.6536 212.584 26.5118 213.179 26.5118C213.775 26.5118 214.314 26.6536 214.796 26.9372C215.288 27.2209 215.675 27.6037 215.959 28.0859C216.252 28.568 216.398 29.1022 216.398 29.6883C216.398 30.2745 216.257 30.8086 215.973 31.2908C215.689 31.7729 215.306 32.1606 214.824 32.4536C214.342 32.7372 213.799 32.8791 213.194 32.8791ZM213.335 32.2125C213.638 32.2125 213.893 32.1133 214.101 31.9147C214.309 31.7162 214.47 31.4515 214.583 31.1206C214.697 30.7803 214.753 30.4163 214.753 30.0287C214.753 29.5182 214.683 29.0502 214.541 28.6248C214.408 28.1899 214.21 27.8401 213.945 27.5754C213.69 27.3107 213.373 27.1783 212.995 27.1783C212.702 27.1783 212.447 27.2776 212.229 27.4761C212.021 27.6747 211.861 27.9394 211.747 28.2702C211.643 28.6011 211.591 28.9651 211.591 29.3622C211.591 29.8727 211.657 30.3454 211.79 30.7803C211.931 31.2057 212.135 31.5508 212.399 31.8155C212.664 32.0802 212.976 32.2125 213.335 32.2125ZM219.859 32.8649C219.433 32.8649 219.088 32.7372 218.823 32.482C218.559 32.2267 218.365 31.9006 218.242 31.5035C218.119 31.1064 218.058 30.6999 218.058 30.2839V28.6957C218.058 28.2419 217.982 27.9394 217.831 27.7881C217.746 27.6841 217.637 27.6132 217.505 27.5754C217.382 27.5281 217.268 27.4998 217.164 27.4903C217.07 27.4808 217.022 27.4667 217.022 27.4478C217.022 27.183 217.046 27.0412 217.093 27.0223C217.32 27.0034 217.575 26.9703 217.859 26.9231C218.143 26.8758 218.407 26.8285 218.653 26.7813C218.899 26.7245 219.069 26.682 219.164 26.6536C219.239 26.6347 219.31 26.6158 219.376 26.5969C219.443 26.578 219.48 26.5685 219.49 26.5685C219.537 26.5685 219.57 26.6016 219.589 26.6678C219.617 26.734 219.632 26.786 219.632 26.8238C219.547 27.4572 219.504 27.8732 219.504 28.0717V29.7734C219.504 30.5108 219.608 31.0403 219.816 31.3617C220.024 31.6831 220.36 31.8438 220.823 31.8438C221.125 31.8438 221.381 31.754 221.589 31.5744C221.797 31.3853 221.901 31.2057 221.901 31.0355V28.6957C221.901 28.2419 221.825 27.9394 221.674 27.7881C221.589 27.6841 221.48 27.6132 221.348 27.5754C221.225 27.5376 221.111 27.5139 221.007 27.5045C220.913 27.4856 220.865 27.4667 220.865 27.4478C220.865 27.1736 220.894 27.0318 220.951 27.0223C221.13 27.0034 221.357 26.9703 221.631 26.9231C221.905 26.8758 222.184 26.8238 222.468 26.7671C222.761 26.7009 223.011 26.6442 223.219 26.5969L223.333 26.5685C223.38 26.5685 223.418 26.6016 223.446 26.6678C223.475 26.734 223.484 26.786 223.475 26.8238C223.437 27.1452 223.409 27.4099 223.39 27.6179C223.371 27.8165 223.361 27.9583 223.361 28.0434V30.8512C223.361 31.0875 223.371 31.2908 223.39 31.461C223.409 31.6311 223.437 31.7588 223.475 31.8438C223.513 31.9195 223.588 31.9715 223.702 31.9998C223.815 32.0187 223.924 32.0282 224.028 32.0282C224.141 32.0282 224.212 32.0329 224.24 32.0424C224.278 32.0518 224.297 32.0944 224.297 32.17C224.297 32.2078 224.288 32.274 224.269 32.3685C224.25 32.4536 224.222 32.4962 224.184 32.4962C223.976 32.4962 223.664 32.534 223.248 32.6096C222.841 32.6852 222.421 32.7703 221.986 32.8649C221.92 32.8649 221.886 32.7892 221.886 32.638V32.014C221.886 31.9667 221.872 31.9431 221.844 31.9431C221.626 32.1795 221.338 32.3922 220.979 32.5813C220.62 32.7703 220.246 32.8649 219.859 32.8649ZM225.106 32.8365C225.068 32.7987 225.049 32.7089 225.049 32.5671C225.049 32.4253 225.068 32.3544 225.106 32.3544C225.181 32.3544 225.285 32.3402 225.418 32.3118C225.559 32.274 225.687 32.2315 225.8 32.1842C225.923 32.1275 225.989 32.0802 225.999 32.0424C226.065 31.7777 226.098 31.4326 226.098 31.0072V28.6957C226.098 28.2419 226.023 27.9394 225.871 27.7881C225.786 27.6841 225.682 27.6132 225.559 27.5754C225.436 27.5281 225.323 27.4998 225.219 27.4903C225.124 27.4808 225.077 27.4667 225.077 27.4478C225.077 27.183 225.101 27.0412 225.148 27.0223C225.422 27.0034 225.72 26.9609 226.041 26.8947C226.372 26.8191 226.755 26.7387 227.19 26.6536C227.332 26.6253 227.422 26.6064 227.46 26.5969C227.507 26.578 227.535 26.5685 227.545 26.5685C227.582 26.5685 227.616 26.6016 227.644 26.6678C227.672 26.7245 227.686 26.7765 227.686 26.8238C227.63 27.2209 227.601 27.4478 227.601 27.5045C227.772 27.2492 228.003 27.0223 228.296 26.8238C228.589 26.6158 228.887 26.5118 229.19 26.5118C229.71 26.5118 230.097 26.6678 230.352 26.9798C230.352 27.7834 230.126 28.1852 229.672 28.1852C229.511 28.1852 229.327 28.0906 229.119 27.9015C228.911 27.7125 228.707 27.6179 228.509 27.6179C228.31 27.6179 228.14 27.6888 227.998 27.8306C227.857 27.9725 227.748 28.1473 227.672 28.3553C227.606 28.5633 227.573 28.776 227.573 28.9935V30.7661C227.573 31.3617 227.606 31.7871 227.672 32.0424C227.691 32.0802 227.757 32.1275 227.871 32.1842C227.984 32.2315 228.107 32.274 228.24 32.3118C228.372 32.3402 228.466 32.3544 228.523 32.3544C228.551 32.3544 228.566 32.4253 228.566 32.5671C228.575 32.6994 228.575 32.7892 228.566 32.8365C228.518 32.8271 228.381 32.8129 228.154 32.794C227.937 32.7845 227.701 32.7751 227.445 32.7656C227.2 32.7467 227.001 32.7372 226.85 32.7372C226.699 32.7372 226.495 32.7467 226.24 32.7656C225.985 32.7751 225.744 32.7845 225.517 32.794C225.299 32.8129 225.162 32.8271 225.106 32.8365ZM79.042 51.8223C79.0041 51.7845 78.9852 51.7183 78.9852 51.6238C78.9852 51.4442 79.0041 51.3544 79.042 51.3544C79.1176 51.3544 79.2263 51.3402 79.3681 51.3118C79.5099 51.2835 79.6423 51.2456 79.7652 51.1984C79.8881 51.1416 79.959 51.0896 79.9779 51.0424C80.0157 50.8911 80.0441 50.7162 80.063 50.5177C80.0819 50.3191 80.0913 50.097 80.0913 49.8512V44.3773C80.0913 43.829 80.0535 43.4319 79.9779 43.1861C79.959 43.1294 79.8881 43.0774 79.7652 43.0302C79.6517 42.9829 79.5241 42.9451 79.3823 42.9167C79.2499 42.8789 79.1459 42.86 79.0703 42.86C79.0325 42.86 79.0136 42.7891 79.0136 42.6473C79.0136 42.496 79.023 42.4109 79.042 42.392L79.8361 42.4346C80.0724 42.444 80.2804 42.4582 80.46 42.4771C80.6491 42.4866 80.8051 42.4866 80.928 42.4771L82.7432 42.392C82.7715 42.4771 82.7857 42.5527 82.7857 42.6189C82.7857 42.7796 82.7668 42.86 82.729 42.86C82.6723 42.86 82.573 42.8789 82.4312 42.9167C82.2894 42.9545 82.1523 42.9971 82.02 43.0443C81.897 43.0916 81.8261 43.1389 81.8072 43.1861C81.7694 43.3374 81.7411 43.517 81.7222 43.725C81.7032 43.9236 81.6938 44.1599 81.6938 44.4341V49.7661C81.6938 50.2861 81.7363 50.7115 81.8214 51.0424C81.8403 51.0802 81.9065 51.1275 82.02 51.1842C82.1429 51.2315 82.2705 51.274 82.4028 51.3118C82.5446 51.3402 82.6439 51.3544 82.7006 51.3544C82.7385 51.3544 82.7574 51.4442 82.7574 51.6238C82.7574 51.6805 82.7479 51.7467 82.729 51.8223L80.928 51.7372C80.5971 51.7183 80.2568 51.7231 79.907 51.7514C79.5572 51.7798 79.2689 51.8034 79.042 51.8223ZM83.6508 51.8365C83.6129 51.7987 83.594 51.7089 83.594 51.5671C83.594 51.4253 83.6129 51.3544 83.6508 51.3544C83.7264 51.3544 83.8304 51.3402 83.9627 51.3118C84.1045 51.274 84.2322 51.2315 84.3456 51.1842C84.4685 51.1275 84.5347 51.0802 84.5442 51.0424C84.6103 50.7777 84.6434 50.4326 84.6434 50.0072V47.6957C84.6434 47.2702 84.5678 46.9677 84.4165 46.7881C84.3314 46.6841 84.2227 46.6179 84.0904 46.5896C83.9675 46.5517 83.8587 46.5281 83.7642 46.5187C83.6697 46.4998 83.6224 46.4761 83.6224 46.4478C83.6224 46.183 83.646 46.0412 83.6933 46.0223C83.9107 46.0034 84.2274 45.9562 84.6434 45.8805C85.0689 45.8049 85.4659 45.7198 85.8346 45.6253C85.8535 45.6158 85.8961 45.6064 85.9622 45.5969C86.0379 45.578 86.0804 45.5685 86.0899 45.5685C86.1277 45.5685 86.1608 45.6016 86.1891 45.6678C86.2175 45.734 86.2317 45.786 86.2317 45.8238C86.2128 45.9562 86.1986 46.0649 86.1891 46.15C86.1797 46.235 86.175 46.2965 86.175 46.3343C86.175 46.3816 86.1844 46.4052 86.2033 46.4052C86.2128 46.4052 86.2317 46.391 86.26 46.3627C86.4869 46.1358 86.7753 45.9372 87.1251 45.7671C87.4843 45.5969 87.8483 45.5118 88.217 45.5118C89.4366 45.5118 90.0464 46.4808 90.0464 48.4189V49.7661C90.0464 50.3617 90.0794 50.7871 90.1456 51.0424C90.1645 51.0802 90.2307 51.1275 90.3442 51.1842C90.4671 51.2315 90.5947 51.274 90.727 51.3118C90.8689 51.3402 90.9681 51.3544 91.0248 51.3544C91.0532 51.3544 91.0674 51.4253 91.0674 51.5671C91.0768 51.6994 91.0721 51.7892 91.0532 51.8365C91.0154 51.8271 90.883 51.8129 90.6561 51.794C90.4387 51.7845 90.1976 51.7751 89.9329 51.7656C89.6777 51.7467 89.4744 51.7372 89.3231 51.7372C89.1719 51.7372 88.9733 51.7467 88.7275 51.7656C88.4912 51.7751 88.2643 51.7845 88.0468 51.794C87.8389 51.8129 87.7065 51.8271 87.6498 51.8365C87.612 51.7987 87.5931 51.7089 87.5931 51.5671C87.5931 51.4253 87.612 51.3544 87.6498 51.3544C87.7254 51.3544 87.8247 51.3402 87.9476 51.3118C88.0705 51.274 88.1839 51.2315 88.2879 51.1842C88.4014 51.1275 88.4628 51.0802 88.4723 51.0424C88.5101 50.9006 88.5385 50.7446 88.5574 50.5744C88.5763 50.4042 88.5857 50.2152 88.5857 50.0072V48.66C88.5857 47.8753 88.477 47.327 88.2596 47.015C88.0516 46.703 87.716 46.547 87.2527 46.547C86.9502 46.547 86.6855 46.6321 86.4586 46.8023C86.2317 46.963 86.1182 47.1379 86.1182 47.327V49.7661C86.1182 50.3617 86.1513 50.7871 86.2175 51.0424C86.2364 51.0802 86.3026 51.1275 86.416 51.1842C86.5295 51.2315 86.6524 51.274 86.7847 51.3118C86.9171 51.3402 87.0069 51.3544 87.0542 51.3544C87.092 51.3544 87.1109 51.4253 87.1109 51.5671C87.1204 51.6994 87.1156 51.7892 87.0967 51.8365C87.0495 51.8271 86.9124 51.8129 86.6855 51.794C86.468 51.7845 86.2364 51.7751 85.9906 51.7656C85.7448 51.7467 85.5463 51.7372 85.395 51.7372C85.2437 51.7372 85.0405 51.7467 84.7852 51.7656C84.53 51.7751 84.2889 51.7845 84.062 51.794C83.8446 51.8129 83.7075 51.8271 83.6508 51.8365ZM94.4566 51.8791C93.965 51.8791 93.5443 51.7231 93.1945 51.4111C92.8542 51.0896 92.684 50.598 92.684 49.9363V46.5045H91.819C91.7528 46.5045 91.7197 46.3816 91.7197 46.1358C91.7197 46.0601 91.7244 46.0176 91.7339 46.0081C91.923 45.9231 92.1073 45.8191 92.2869 45.6962C92.4666 45.5638 92.6462 45.4173 92.8258 45.2566C93.1 44.9824 93.3222 44.746 93.4923 44.5475C93.6625 44.3395 93.7476 44.2355 93.7476 44.2355C93.7948 44.2355 93.8421 44.2403 93.8894 44.2497C93.9367 44.2497 93.9792 44.2544 94.017 44.2639C94.1021 44.2923 94.1446 44.3206 94.1446 44.349V45.7387H95.1799C95.3973 45.7387 95.5627 45.7434 95.6762 45.7529C95.7991 45.7529 95.8653 45.7529 95.8747 45.7529C95.9503 45.7529 95.9882 45.7954 95.9882 45.8805C95.9882 46.1169 95.9409 46.3249 95.8464 46.5045H94.1446V49.9221C94.1446 50.3002 94.225 50.5886 94.3857 50.7871C94.5464 50.9857 94.7686 51.0849 95.0522 51.0849C95.2508 51.0849 95.4351 51.0471 95.6053 50.9715C95.7755 50.8864 95.87 50.8438 95.8889 50.8438C95.9267 50.8344 95.9693 50.8769 96.0165 50.9715C96.0638 51.066 96.0827 51.1275 96.0733 51.1558C96.0354 51.2409 95.9267 51.3402 95.7471 51.4536C95.5769 51.5671 95.3737 51.6663 95.1373 51.7514C94.9104 51.8365 94.6835 51.8791 94.4566 51.8791ZM99.817 51.8649C99.2687 51.8649 98.7629 51.7278 98.2997 51.4536C97.8459 51.17 97.4819 50.7918 97.2077 50.3191C96.9336 49.837 96.7965 49.3076 96.7965 48.7309C96.7965 48.088 96.9241 47.5255 97.1794 47.0434C97.4346 46.5612 97.7797 46.1878 98.2146 45.9231C98.6589 45.6489 99.1647 45.5118 99.7319 45.5118C100.195 45.5118 100.592 45.5969 100.923 45.7671C101.254 45.9372 101.523 46.1594 101.731 46.4336C101.949 46.6983 102.105 46.9819 102.199 47.2844C102.303 47.5775 102.355 47.8517 102.355 48.1069C102.355 48.3149 102.318 48.4473 102.242 48.504C102.176 48.5513 102.034 48.5749 101.817 48.5749H98.4273C98.3611 48.5749 98.328 48.6033 98.328 48.66C98.328 49.0098 98.3895 49.3407 98.5124 49.6526C98.6353 49.9741 98.8433 50.253 99.1363 50.4893C99.4389 50.7257 99.7981 50.8438 100.214 50.8438C100.46 50.8438 100.663 50.8249 100.824 50.7871C100.985 50.7493 101.141 50.7068 101.292 50.6595C101.367 50.6311 101.462 50.5839 101.575 50.5177C101.689 50.4421 101.793 50.3759 101.887 50.3191C101.982 50.253 102.029 50.2199 102.029 50.2199C102.048 50.2293 102.072 50.2577 102.1 50.305C102.129 50.3522 102.143 50.3995 102.143 50.4468C102.143 50.5508 102.114 50.6406 102.058 50.7162C101.963 50.8864 101.802 51.0613 101.575 51.2409C101.358 51.4111 101.098 51.5576 100.796 51.6805C100.493 51.8034 100.167 51.8649 99.817 51.8649ZM98.4273 47.8942H100.725C100.81 47.8942 100.852 47.8233 100.852 47.6815C100.852 47.4546 100.8 47.2277 100.696 47.0008C100.602 46.7645 100.46 46.5659 100.271 46.4052C100.091 46.2445 99.8785 46.1641 99.6327 46.1641C99.3396 46.1641 99.0938 46.2634 98.8953 46.4619C98.7062 46.6605 98.5644 46.8874 98.4698 47.1426C98.3847 47.3979 98.3422 47.6153 98.3422 47.7949C98.3422 47.8611 98.3706 47.8942 98.4273 47.8942ZM103.079 51.8365C103.041 51.7987 103.022 51.7089 103.022 51.5671C103.022 51.4253 103.041 51.3544 103.079 51.3544C103.154 51.3544 103.258 51.3402 103.391 51.3118C103.532 51.274 103.66 51.2315 103.773 51.1842C103.896 51.1275 103.963 51.0802 103.972 51.0424C104.038 50.7777 104.071 50.4326 104.071 50.0072V47.6957C104.071 47.2419 103.996 46.9394 103.844 46.7881C103.759 46.6841 103.655 46.6132 103.532 46.5754C103.41 46.5281 103.296 46.4998 103.192 46.4903C103.098 46.4808 103.05 46.4667 103.05 46.4478C103.05 46.183 103.074 46.0412 103.121 46.0223C103.395 46.0034 103.693 45.9609 104.015 45.8947C104.345 45.8191 104.728 45.7387 105.163 45.6536C105.305 45.6253 105.395 45.6064 105.433 45.5969C105.48 45.578 105.508 45.5685 105.518 45.5685C105.556 45.5685 105.589 45.6016 105.617 45.6678C105.645 45.7245 105.66 45.7765 105.66 45.8238C105.603 46.2209 105.574 46.4478 105.574 46.5045C105.745 46.2492 105.976 46.0223 106.269 45.8238C106.562 45.6158 106.86 45.5118 107.163 45.5118C107.683 45.5118 108.07 45.6678 108.326 45.9798C108.326 46.7834 108.099 47.1852 107.645 47.1852C107.484 47.1852 107.3 47.0906 107.092 46.9015C106.884 46.7125 106.681 46.6179 106.482 46.6179C106.284 46.6179 106.113 46.6888 105.972 46.8306C105.83 46.9725 105.721 47.1473 105.645 47.3553C105.579 47.5633 105.546 47.776 105.546 47.9935V49.7661C105.546 50.3617 105.579 50.7871 105.645 51.0424C105.664 51.0802 105.73 51.1275 105.844 51.1842C105.957 51.2315 106.08 51.274 106.213 51.3118C106.345 51.3402 106.44 51.3544 106.496 51.3544C106.525 51.3544 106.539 51.4253 106.539 51.5671C106.548 51.6994 106.548 51.7892 106.539 51.8365C106.492 51.8271 106.354 51.8129 106.128 51.794C105.91 51.7845 105.674 51.7751 105.418 51.7656C105.173 51.7467 104.974 51.7372 104.823 51.7372C104.672 51.7372 104.468 51.7467 104.213 51.7656C103.958 51.7751 103.717 51.7845 103.49 51.794C103.272 51.8129 103.135 51.8271 103.079 51.8365ZM110.722 51.8791C110.249 51.8791 109.862 51.7514 109.559 51.4962C109.266 51.2315 109.12 50.8722 109.12 50.4184C109.12 50.1064 109.219 49.8228 109.418 49.5676C109.625 49.3123 109.914 49.0949 110.283 48.9152C110.415 48.8491 110.533 48.7971 110.637 48.7592C110.751 48.712 110.855 48.6694 110.949 48.6316C111.28 48.5276 111.554 48.4425 111.772 48.3764C111.998 48.3102 112.159 48.2629 112.254 48.2346C112.339 48.1873 112.381 48.1117 112.381 48.0077V47.2277C112.381 46.8968 112.306 46.6368 112.154 46.4478C112.003 46.2587 111.8 46.1641 111.545 46.1641C111.261 46.1641 111.039 46.254 110.878 46.4336C110.717 46.6037 110.637 46.8495 110.637 47.171C110.637 47.3601 110.566 47.5019 110.424 47.5964C110.283 47.6815 110.122 47.724 109.942 47.724C109.592 47.724 109.347 47.6106 109.205 47.3837C109.205 47.1568 109.29 46.9346 109.46 46.7172C109.63 46.4903 109.852 46.287 110.127 46.1074C110.41 45.9278 110.722 45.786 111.062 45.682C111.403 45.5685 111.743 45.5118 112.084 45.5118C112.67 45.5118 113.109 45.6678 113.402 45.9798C113.695 46.2823 113.842 46.807 113.842 47.5539V50.3475C113.842 50.7351 113.998 50.9289 114.31 50.9289C114.452 50.9289 114.612 50.8675 114.792 50.7446C114.849 50.754 114.877 50.806 114.877 50.9006C114.877 51.0802 114.849 51.222 114.792 51.326C114.65 51.4394 114.461 51.5576 114.225 51.6805C113.988 51.8034 113.762 51.8649 113.544 51.8649C113.327 51.8649 113.114 51.7845 112.906 51.6238C112.698 51.4631 112.561 51.2882 112.495 51.0991C112.419 51.1653 112.362 51.2125 112.325 51.2409C112.287 51.2693 112.225 51.3165 112.14 51.3827C111.942 51.5151 111.724 51.6332 111.488 51.7372C111.252 51.8318 110.996 51.8791 110.722 51.8791ZM111.445 50.9573C111.701 50.9573 111.918 50.8911 112.098 50.7588C112.287 50.6264 112.381 50.4751 112.381 50.305V48.8585L111.474 49.1705C111.256 49.265 111.062 49.3785 110.892 49.5108C110.722 49.6432 110.637 49.8323 110.637 50.0781C110.637 50.3806 110.713 50.6028 110.864 50.7446C111.015 50.8864 111.209 50.9573 111.445 50.9573ZM118.564 51.8649C117.988 51.8649 117.468 51.7231 117.004 51.4394C116.541 51.1558 116.172 50.7729 115.898 50.2908C115.624 49.8086 115.487 49.2745 115.487 48.6883C115.487 48.1117 115.615 47.587 115.87 47.1143C116.135 46.6321 116.499 46.2445 116.962 45.9514C117.425 45.6584 117.959 45.5118 118.564 45.5118C119.065 45.5118 119.51 45.5969 119.897 45.7671C120.294 45.9278 120.578 46.1074 120.748 46.3059C120.748 46.6274 120.691 46.8968 120.578 47.1143C120.474 47.3222 120.313 47.4262 120.096 47.4262C119.916 47.4262 119.77 47.379 119.656 47.2844C119.552 47.1899 119.443 47.0339 119.33 46.8165C119.122 46.3816 118.805 46.1641 118.38 46.1641C117.973 46.1641 117.647 46.3721 117.401 46.7881C117.165 47.1946 117.047 47.7099 117.047 48.3338C117.047 49.1847 117.222 49.8181 117.572 50.2341C117.921 50.6406 118.366 50.8438 118.905 50.8438C119.15 50.8438 119.354 50.8249 119.514 50.7871C119.675 50.7493 119.831 50.7068 119.982 50.6595C120.058 50.6311 120.152 50.5839 120.266 50.5177C120.379 50.4421 120.483 50.3759 120.578 50.3191C120.672 50.253 120.72 50.2199 120.72 50.2199C120.739 50.2293 120.762 50.2577 120.791 50.305C120.819 50.3522 120.833 50.3995 120.833 50.4468C120.833 50.6264 120.72 50.8297 120.493 51.0566C120.275 51.274 119.992 51.4631 119.642 51.6238C119.302 51.7845 118.942 51.8649 118.564 51.8649ZM124.279 51.8791C123.788 51.8791 123.367 51.7231 123.017 51.4111C122.677 51.0896 122.506 50.598 122.506 49.9363V46.5045H121.641C121.575 46.5045 121.542 46.3816 121.542 46.1358C121.542 46.0601 121.547 46.0176 121.556 46.0081C121.745 45.9231 121.93 45.8191 122.109 45.6962C122.289 45.5638 122.469 45.4173 122.648 45.2566C122.922 44.9824 123.145 44.746 123.315 44.5475C123.485 44.3395 123.57 44.2355 123.57 44.2355C123.617 44.2355 123.665 44.2403 123.712 44.2497C123.759 44.2497 123.802 44.2544 123.84 44.2639C123.925 44.2923 123.967 44.3206 123.967 44.349V45.7387H125.002C125.22 45.7387 125.385 45.7434 125.499 45.7529C125.622 45.7529 125.688 45.7529 125.697 45.7529C125.773 45.7529 125.811 45.7954 125.811 45.8805C125.811 46.1169 125.763 46.3249 125.669 46.5045H123.967V49.9221C123.967 50.3002 124.047 50.5886 124.208 50.7871C124.369 50.9857 124.591 51.0849 124.875 51.0849C125.073 51.0849 125.258 51.0471 125.428 50.9715C125.598 50.8864 125.692 50.8438 125.711 50.8438C125.749 50.8344 125.792 50.8769 125.839 50.9715C125.886 51.066 125.905 51.1275 125.896 51.1558C125.858 51.2409 125.749 51.3402 125.57 51.4536C125.399 51.5671 125.196 51.6663 124.96 51.7514C124.733 51.8365 124.506 51.8791 124.279 51.8791ZM126.647 51.8223C126.61 51.7845 126.591 51.6947 126.591 51.5529C126.591 51.4205 126.61 51.3544 126.647 51.3544C126.723 51.3544 126.822 51.3354 126.945 51.2976C127.068 51.2598 127.181 51.2125 127.285 51.1558C127.399 51.0991 127.46 51.0518 127.47 51.014C127.508 50.8533 127.536 50.6831 127.555 50.5035C127.574 50.3239 127.583 50.1443 127.583 49.9646V47.6815C127.583 47.2372 127.508 46.9346 127.356 46.7739C127.271 46.6699 127.163 46.599 127.03 46.5612C126.907 46.5234 126.794 46.4998 126.69 46.4903C126.595 46.4808 126.548 46.4667 126.548 46.4478C126.548 46.1641 126.572 46.0223 126.619 46.0223C126.921 45.9845 127.252 45.9325 127.612 45.8663C127.98 45.7907 128.311 45.7198 128.604 45.6536L129.058 45.5402C129.124 45.5402 129.157 45.6347 129.157 45.8238C129.157 45.9467 129.138 46.1263 129.101 46.3627C129.072 46.5896 129.058 46.8165 129.058 47.0434V49.7377C129.058 50.3333 129.091 50.7588 129.157 51.014C129.176 51.0518 129.238 51.0991 129.342 51.1558C129.446 51.2125 129.559 51.2598 129.682 51.2976C129.805 51.3354 129.89 51.3544 129.937 51.3544C129.966 51.3544 129.98 51.4205 129.98 51.5529C129.989 51.6852 129.985 51.7751 129.966 51.8223C129.673 51.8034 129.375 51.7845 129.072 51.7656C128.77 51.7467 128.519 51.7372 128.321 51.7372C128.028 51.7372 127.725 51.7467 127.413 51.7656C127.111 51.7845 126.855 51.8034 126.647 51.8223ZM128.207 44.0654C127.971 44.0654 127.768 43.9803 127.597 43.8101C127.427 43.6399 127.342 43.4367 127.342 43.2003C127.342 42.964 127.427 42.7654 127.597 42.6047C127.768 42.4346 127.971 42.3495 128.207 42.3495C128.444 42.3495 128.642 42.4346 128.803 42.6047C128.973 42.7654 129.058 42.964 129.058 43.2003C129.058 43.4367 128.973 43.6399 128.803 43.8101C128.642 43.9803 128.444 44.0654 128.207 44.0654ZM134.05 51.9358C133.965 51.9358 133.908 51.9074 133.88 51.8507C133.624 51.274 133.407 50.7918 133.227 50.4042C133.057 50.0072 132.906 49.6621 132.773 49.369C132.651 49.076 132.528 48.7971 132.405 48.5324C132.291 48.2582 132.159 47.9604 132.008 47.639C131.856 47.3081 131.672 46.9015 131.455 46.4194C131.341 46.1547 131.034 46.0223 130.533 46.0223C130.495 46.0223 130.476 45.9467 130.476 45.7954C130.476 45.682 130.495 45.6064 130.533 45.5685C130.798 45.5685 131.077 45.5827 131.37 45.6111C131.672 45.6394 131.97 45.6536 132.263 45.6536C132.547 45.6536 132.835 45.6394 133.128 45.6111C133.421 45.5827 133.7 45.5685 133.965 45.5685C133.993 45.6064 134.003 45.6914 133.993 45.8238C133.993 45.9562 133.974 46.0223 133.936 46.0223C133.861 46.0223 133.757 46.0365 133.624 46.0649C133.492 46.0932 133.374 46.131 133.27 46.1783C133.166 46.2161 133.114 46.2681 133.114 46.3343C133.114 46.391 133.123 46.4383 133.142 46.4761L134.546 49.7377L135.822 46.9299C135.926 46.703 135.95 46.5281 135.893 46.4052C135.751 46.15 135.421 46.0223 134.901 46.0223C134.872 46.0223 134.858 45.9562 134.858 45.8238C134.858 45.6914 134.872 45.6064 134.901 45.5685C135.175 45.578 135.449 45.5969 135.723 45.6253C135.997 45.6442 136.224 45.6536 136.404 45.6536C136.574 45.6536 136.796 45.6442 137.07 45.6253C137.354 45.5969 137.638 45.578 137.921 45.5685C137.95 45.6064 137.964 45.682 137.964 45.7954C137.964 45.9467 137.935 46.0223 137.879 46.0223C137.746 46.0223 137.562 46.0696 137.326 46.1641C137.089 46.2492 136.929 46.3816 136.843 46.5612L134.475 51.5671C134.437 51.6427 134.376 51.7231 134.291 51.8081C134.206 51.8932 134.125 51.9358 134.05 51.9358ZM141.169 51.8649C140.62 51.8649 140.114 51.7278 139.651 51.4536C139.197 51.17 138.833 50.7918 138.559 50.3191C138.285 49.837 138.148 49.3076 138.148 48.7309C138.148 48.088 138.276 47.5255 138.531 47.0434C138.786 46.5612 139.131 46.1878 139.566 45.9231C140.01 45.6489 140.516 45.5118 141.084 45.5118C141.547 45.5118 141.944 45.5969 142.275 45.7671C142.606 45.9372 142.875 46.1594 143.083 46.4336C143.3 46.6983 143.456 46.9819 143.551 47.2844C143.655 47.5775 143.707 47.8517 143.707 48.1069C143.707 48.3149 143.669 48.4473 143.594 48.504C143.527 48.5513 143.386 48.5749 143.168 48.5749H139.779C139.713 48.5749 139.68 48.6033 139.68 48.66C139.68 49.0098 139.741 49.3407 139.864 49.6526C139.987 49.9741 140.195 50.253 140.488 50.4893C140.79 50.7257 141.15 50.8438 141.566 50.8438C141.811 50.8438 142.015 50.8249 142.175 50.7871C142.336 50.7493 142.492 50.7068 142.643 50.6595C142.719 50.6311 142.814 50.5839 142.927 50.5177C143.04 50.4421 143.144 50.3759 143.239 50.3191C143.334 50.253 143.381 50.2199 143.381 50.2199C143.4 50.2293 143.423 50.2577 143.452 50.305C143.48 50.3522 143.494 50.3995 143.494 50.4468C143.494 50.5508 143.466 50.6406 143.409 50.7162C143.315 50.8864 143.154 51.0613 142.927 51.2409C142.71 51.4111 142.45 51.5576 142.147 51.6805C141.845 51.8034 141.518 51.8649 141.169 51.8649ZM139.779 47.8942H142.076C142.161 47.8942 142.204 47.8233 142.204 47.6815C142.204 47.4546 142.152 47.2277 142.048 47.0008C141.953 46.7645 141.811 46.5659 141.622 46.4052C141.443 46.2445 141.23 46.1641 140.984 46.1641C140.691 46.1641 140.445 46.2634 140.247 46.4619C140.058 46.6605 139.916 46.8874 139.821 47.1426C139.736 47.3979 139.694 47.6153 139.694 47.7949C139.694 47.8611 139.722 47.8942 139.779 47.8942ZM149.862 54.928C149.408 54.928 148.982 54.8665 148.585 54.7436C148.198 54.6302 147.881 54.4553 147.635 54.2189C147.399 53.9826 147.281 53.6989 147.281 53.368C147.281 53.0939 147.413 52.8292 147.678 52.5739C147.952 52.3187 148.245 52.139 148.557 52.035C148.311 51.9594 148.084 51.8176 147.876 51.6096C147.668 51.3922 147.564 51.1416 147.564 50.858C147.564 50.461 147.914 50.0403 148.614 49.5959C148.434 49.5108 148.254 49.3738 148.075 49.1847C147.905 48.9861 147.763 48.7592 147.649 48.504C147.545 48.2393 147.493 47.9746 147.493 47.7099C147.493 47.2561 147.607 46.8685 147.834 46.547C148.061 46.2256 148.363 45.9798 148.741 45.8096C149.129 45.63 149.559 45.5402 150.032 45.5402C150.391 45.5402 150.783 45.6016 151.209 45.7245C151.634 45.8474 152.012 45.9089 152.343 45.9089H153.151C153.17 45.9089 153.203 45.9703 153.251 46.0932C153.298 46.2161 153.322 46.3107 153.322 46.3769C153.322 46.5092 153.293 46.5754 153.237 46.5754H152.315C152.277 46.5754 152.258 46.5896 152.258 46.6179L152.386 46.9866C152.471 47.223 152.513 47.4499 152.513 47.6673C152.513 48.036 152.405 48.3905 152.187 48.7309C151.979 49.0618 151.691 49.3312 151.322 49.5392C150.953 49.7472 150.533 49.8512 150.06 49.8512C149.89 49.8512 149.729 49.8465 149.578 49.837C149.436 49.8275 149.304 49.8134 149.181 49.7945C149.067 49.8417 148.963 49.9315 148.869 50.0639C148.774 50.1868 148.727 50.3002 148.727 50.4042C148.727 50.5366 148.812 50.6359 148.982 50.702C149.152 50.7682 149.365 50.8155 149.62 50.8438C149.885 50.8628 150.14 50.8722 150.386 50.8722H150.542C151.488 50.8722 152.178 50.9951 152.613 51.2409C153.057 51.4867 153.279 51.8412 153.279 52.3045C153.289 52.7772 153.133 53.2121 152.811 53.6091C152.49 54.0062 152.069 54.3229 151.549 54.5592C151.029 54.805 150.467 54.928 149.862 54.928ZM150.032 49.2414C150.381 49.2414 150.637 49.109 150.797 48.8443C150.968 48.5702 151.053 48.2346 151.053 47.8375C151.053 47.3364 150.958 46.9299 150.769 46.6179C150.58 46.3059 150.306 46.15 149.947 46.15C149.606 46.15 149.356 46.2965 149.195 46.5896C149.034 46.8826 148.954 47.2183 148.954 47.5964C148.954 48.0597 149.048 48.452 149.238 48.7734C149.427 49.0854 149.691 49.2414 150.032 49.2414ZM150.188 54.2473C150.717 54.2473 151.147 54.1244 151.478 53.8786C151.818 53.6328 151.989 53.3255 151.989 52.9568C151.989 52.6259 151.752 52.4085 151.28 52.3045C151.043 52.2478 150.779 52.2052 150.485 52.1769C150.192 52.1579 149.923 52.1485 149.677 52.1485C149.526 52.1485 149.351 52.1721 149.152 52.2194C148.963 52.2667 148.798 52.3565 148.656 52.4888C148.514 52.6212 148.443 52.8103 148.443 53.0561C148.443 53.283 148.524 53.4862 148.685 53.6658C148.855 53.8455 149.072 53.9873 149.337 54.0913C149.611 54.1953 149.895 54.2473 150.188 54.2473ZM155.704 51.8791C155.231 51.8791 154.844 51.7514 154.541 51.4962C154.248 51.2315 154.102 50.8722 154.102 50.4184C154.102 50.1064 154.201 49.8228 154.399 49.5676C154.607 49.3123 154.896 49.0949 155.264 48.9152C155.397 48.8491 155.515 48.7971 155.619 48.7592C155.732 48.712 155.836 48.6694 155.931 48.6316C156.262 48.5276 156.536 48.4425 156.753 48.3764C156.98 48.3102 157.141 48.2629 157.236 48.2346C157.321 48.1873 157.363 48.1117 157.363 48.0077V47.2277C157.363 46.8968 157.288 46.6368 157.136 46.4478C156.985 46.2587 156.782 46.1641 156.527 46.1641C156.243 46.1641 156.021 46.254 155.86 46.4336C155.699 46.6037 155.619 46.8495 155.619 47.171C155.619 47.3601 155.548 47.5019 155.406 47.5964C155.264 47.6815 155.104 47.724 154.924 47.724C154.574 47.724 154.329 47.6106 154.187 47.3837C154.187 47.1568 154.272 46.9346 154.442 46.7172C154.612 46.4903 154.834 46.287 155.108 46.1074C155.392 45.9278 155.704 45.786 156.044 45.682C156.385 45.5685 156.725 45.5118 157.065 45.5118C157.652 45.5118 158.091 45.6678 158.384 45.9798C158.677 46.2823 158.824 46.807 158.824 47.5539V50.3475C158.824 50.7351 158.98 50.9289 159.292 50.9289C159.434 50.9289 159.594 50.8675 159.774 50.7446C159.831 50.754 159.859 50.806 159.859 50.9006C159.859 51.0802 159.831 51.222 159.774 51.326C159.632 51.4394 159.443 51.5576 159.207 51.6805C158.97 51.8034 158.744 51.8649 158.526 51.8649C158.309 51.8649 158.096 51.7845 157.888 51.6238C157.68 51.4631 157.543 51.2882 157.477 51.0991C157.401 51.1653 157.344 51.2125 157.306 51.2409C157.269 51.2693 157.207 51.3165 157.122 51.3827C156.924 51.5151 156.706 51.6332 156.47 51.7372C156.233 51.8318 155.978 51.8791 155.704 51.8791ZM156.427 50.9573C156.683 50.9573 156.9 50.8911 157.08 50.7588C157.269 50.6264 157.363 50.4751 157.363 50.305V48.8585L156.456 49.1705C156.238 49.265 156.044 49.3785 155.874 49.5108C155.704 49.6432 155.619 49.8323 155.619 50.0781C155.619 50.3806 155.695 50.6028 155.846 50.7446C155.997 50.8864 156.191 50.9573 156.427 50.9573ZM160.554 51.8223C160.516 51.7845 160.497 51.6947 160.497 51.5529C160.497 51.4205 160.516 51.3544 160.554 51.3544C160.63 51.3544 160.729 51.3354 160.852 51.2976C160.975 51.2598 161.088 51.2125 161.192 51.1558C161.306 51.0991 161.367 51.0518 161.376 51.014C161.414 50.8533 161.443 50.6831 161.462 50.5035C161.48 50.3239 161.49 50.1443 161.49 49.9646V44.0654C161.49 43.7061 161.462 43.3847 161.405 43.1011C161.367 42.9498 161.131 42.8742 160.696 42.8742H160.554C160.497 42.8742 160.469 42.8174 160.469 42.704C160.469 42.5527 160.497 42.4771 160.554 42.4771C161.074 42.4298 161.542 42.3495 161.958 42.236C162.383 42.1226 162.667 42.0375 162.809 41.9808L162.908 41.9382H162.936C162.974 41.9382 163.012 41.9666 163.05 42.0233C163.097 42.08 163.125 42.1273 163.135 42.1651C163.021 42.5149 162.965 42.9592 162.965 43.4981V49.7377C162.965 50.3333 162.998 50.7588 163.064 51.014C163.083 51.0518 163.144 51.0991 163.248 51.1558C163.352 51.2125 163.466 51.2598 163.589 51.2976C163.712 51.3354 163.797 51.3544 163.844 51.3544C163.872 51.3544 163.886 51.4205 163.886 51.5529C163.896 51.6852 163.891 51.7751 163.872 51.8223C163.579 51.8034 163.281 51.7845 162.979 51.7656C162.676 51.7467 162.426 51.7372 162.227 51.7372C161.934 51.7372 161.632 51.7467 161.32 51.7656C161.017 51.7845 160.762 51.8034 160.554 51.8223ZM164.737 51.8223C164.699 51.7845 164.681 51.6947 164.681 51.5529C164.681 51.4205 164.699 51.3544 164.737 51.3544C164.813 51.3544 164.912 51.3354 165.035 51.2976C165.158 51.2598 165.271 51.2125 165.375 51.1558C165.489 51.0991 165.55 51.0518 165.56 51.014C165.598 50.8533 165.626 50.6831 165.645 50.5035C165.664 50.3239 165.673 50.1443 165.673 49.9646V44.0654C165.673 43.7061 165.645 43.3847 165.588 43.1011C165.55 42.9498 165.314 42.8742 164.879 42.8742H164.737C164.681 42.8742 164.652 42.8174 164.652 42.704C164.652 42.5527 164.681 42.4771 164.737 42.4771C165.257 42.4298 165.725 42.3495 166.141 42.236C166.567 42.1226 166.85 42.0375 166.992 41.9808L167.091 41.9382H167.12C167.158 41.9382 167.195 41.9666 167.233 42.0233C167.28 42.08 167.309 42.1273 167.318 42.1651C167.205 42.5149 167.148 42.9592 167.148 43.4981V49.7377C167.148 50.3333 167.181 50.7588 167.247 51.014C167.266 51.0518 167.328 51.0991 167.432 51.1558C167.536 51.2125 167.649 51.2598 167.772 51.2976C167.895 51.3354 167.98 51.3544 168.027 51.3544C168.056 51.3544 168.07 51.4205 168.07 51.5529C168.079 51.6852 168.075 51.7751 168.056 51.8223C167.763 51.8034 167.465 51.7845 167.162 51.7656C166.86 51.7467 166.609 51.7372 166.411 51.7372C166.118 51.7372 165.815 51.7467 165.503 51.7656C165.201 51.7845 164.945 51.8034 164.737 51.8223ZM171.856 51.8649C171.308 51.8649 170.802 51.7278 170.339 51.4536C169.885 51.17 169.521 50.7918 169.247 50.3191C168.973 49.837 168.836 49.3076 168.836 48.7309C168.836 48.088 168.963 47.5255 169.218 47.0434C169.474 46.5612 169.819 46.1878 170.254 45.9231C170.698 45.6489 171.204 45.5118 171.771 45.5118C172.234 45.5118 172.631 45.5969 172.962 45.7671C173.293 45.9372 173.563 46.1594 173.771 46.4336C173.988 46.6983 174.144 46.9819 174.239 47.2844C174.343 47.5775 174.395 47.8517 174.395 48.1069C174.395 48.3149 174.357 48.4473 174.281 48.504C174.215 48.5513 174.073 48.5749 173.856 48.5749H170.466C170.4 48.5749 170.367 48.6033 170.367 48.66C170.367 49.0098 170.429 49.3407 170.551 49.6526C170.674 49.9741 170.882 50.253 171.175 50.4893C171.478 50.7257 171.837 50.8438 172.253 50.8438C172.499 50.8438 172.702 50.8249 172.863 50.7871C173.024 50.7493 173.18 50.7068 173.331 50.6595C173.407 50.6311 173.501 50.5839 173.615 50.5177C173.728 50.4421 173.832 50.3759 173.927 50.3191C174.021 50.253 174.068 50.2199 174.068 50.2199C174.087 50.2293 174.111 50.2577 174.139 50.305C174.168 50.3522 174.182 50.3995 174.182 50.4468C174.182 50.5508 174.153 50.6406 174.097 50.7162C174.002 50.8864 173.841 51.0613 173.615 51.2409C173.397 51.4111 173.137 51.5576 172.835 51.6805C172.532 51.8034 172.206 51.8649 171.856 51.8649ZM170.466 47.8942H172.764C172.849 47.8942 172.891 47.8233 172.891 47.6815C172.891 47.4546 172.839 47.2277 172.735 47.0008C172.641 46.7645 172.499 46.5659 172.31 46.4052C172.13 46.2445 171.918 46.1641 171.672 46.1641C171.379 46.1641 171.133 46.2634 170.934 46.4619C170.745 46.6605 170.603 46.8874 170.509 47.1426C170.424 47.3979 170.381 47.6153 170.381 47.7949C170.381 47.8611 170.41 47.8942 170.466 47.8942ZM175.118 51.8365C175.08 51.7987 175.061 51.7089 175.061 51.5671C175.061 51.4253 175.08 51.3544 175.118 51.3544C175.193 51.3544 175.297 51.3402 175.43 51.3118C175.572 51.274 175.699 51.2315 175.813 51.1842C175.936 51.1275 176.002 51.0802 176.011 51.0424C176.077 50.7777 176.11 50.4326 176.11 50.0072V47.6957C176.11 47.2419 176.035 46.9394 175.884 46.7881C175.798 46.6841 175.694 46.6132 175.572 46.5754C175.449 46.5281 175.335 46.4998 175.231 46.4903C175.137 46.4808 175.089 46.4667 175.089 46.4478C175.089 46.183 175.113 46.0412 175.16 46.0223C175.434 46.0034 175.732 45.9609 176.054 45.8947C176.385 45.8191 176.767 45.7387 177.202 45.6536C177.344 45.6253 177.434 45.6064 177.472 45.5969C177.519 45.578 177.547 45.5685 177.557 45.5685C177.595 45.5685 177.628 45.6016 177.656 45.6678C177.684 45.7245 177.699 45.7765 177.699 45.8238C177.642 46.2209 177.614 46.4478 177.614 46.5045C177.784 46.2492 178.015 46.0223 178.308 45.8238C178.602 45.6158 178.899 45.5118 179.202 45.5118C179.722 45.5118 180.109 45.6678 180.365 45.9798C180.365 46.7834 180.138 47.1852 179.684 47.1852C179.523 47.1852 179.339 47.0906 179.131 46.9015C178.923 46.7125 178.72 46.6179 178.521 46.6179C178.323 46.6179 178.152 46.6888 178.011 46.8306C177.869 46.9725 177.76 47.1473 177.684 47.3553C177.618 47.5633 177.585 47.776 177.585 47.9935V49.7661C177.585 50.3617 177.618 50.7871 177.684 51.0424C177.703 51.0802 177.77 51.1275 177.883 51.1842C177.996 51.2315 178.119 51.274 178.252 51.3118C178.384 51.3402 178.479 51.3544 178.535 51.3544C178.564 51.3544 178.578 51.4253 178.578 51.5671C178.587 51.6994 178.587 51.7892 178.578 51.8365C178.531 51.8271 178.394 51.8129 178.167 51.794C177.949 51.7845 177.713 51.7751 177.458 51.7656C177.212 51.7467 177.013 51.7372 176.862 51.7372C176.711 51.7372 176.507 51.7467 176.252 51.7656C175.997 51.7751 175.756 51.7845 175.529 51.794C175.312 51.8129 175.174 51.8271 175.118 51.8365ZM182.194 54.928C181.948 54.928 181.759 54.8618 181.627 54.7294C181.494 54.5971 181.428 54.4458 181.428 54.2756C181.428 54.0298 181.518 53.8455 181.698 53.7226C182.681 53.7226 183.328 53.335 183.64 52.5597L184.023 51.5954L181.91 46.6747C181.816 46.4572 181.679 46.2965 181.499 46.1925C181.32 46.0791 181.121 46.0223 180.904 46.0223C180.866 46.0223 180.847 45.9562 180.847 45.8238C180.847 45.6631 180.861 45.578 180.889 45.5685L181.655 45.6111C182.099 45.6394 182.435 45.6536 182.662 45.6536C182.879 45.6536 183.177 45.6394 183.555 45.6111C183.943 45.5827 184.184 45.5685 184.279 45.5685C184.288 45.6064 184.293 45.6489 184.293 45.6962C184.302 45.734 184.307 45.7765 184.307 45.8238C184.307 45.9562 184.288 46.0223 184.25 46.0223C184.194 46.0223 184.104 46.0412 183.981 46.0791C183.858 46.1074 183.744 46.15 183.64 46.2067C183.536 46.254 183.484 46.3059 183.484 46.3627V46.4478C183.484 46.5234 183.593 46.8306 183.811 47.3695C184.038 47.9084 184.368 48.6789 184.803 49.681L185.356 48.2771L185.867 46.9725C185.924 46.8117 185.952 46.6652 185.952 46.5328C185.952 46.4099 185.876 46.2965 185.725 46.1925C185.574 46.0791 185.347 46.0223 185.044 46.0223C185.007 46.0223 184.988 45.9514 184.988 45.8096C184.988 45.6867 185.007 45.6064 185.044 45.5685C185.158 45.5685 185.389 45.5827 185.739 45.6111C186.099 45.6394 186.387 45.6536 186.604 45.6536C186.803 45.6536 187.049 45.6394 187.342 45.6111C187.625 45.5827 187.833 45.5685 187.966 45.5685C188.003 45.6158 188.022 45.6914 188.022 45.7954C188.022 45.9467 188.003 46.0223 187.966 46.0223C187.881 46.0223 187.762 46.046 187.611 46.0932C187.46 46.131 187.318 46.1925 187.186 46.2776C187.053 46.3532 186.959 46.4572 186.902 46.5896L184.307 52.8575C183.74 54.2378 183.035 54.928 182.194 54.928Z" fill="white"/>
</g>
<defs>
<filter id="filter0_d_2498_1341" x="0.553197" y="0.627664" width="414.894" height="301.316" filterUnits="userSpaceOnUse" color-interpolation-filters="sRGB">
<feFlood flood-opacity="0" result="BackgroundImageFix"/>
<feColorMatrix in="SourceAlpha" type="matrix" values="0 0 0 0 0 0 0 0 0 0 0 0 0 0 0 0 0 0 127 0" result="hardAlpha"/>
<feOffset dy="2.07447"/>
<feGaussianBlur stdDeviation="6.2234"/>
<feComposite in2="hardAlpha" operator="out"/>
<feColorMatrix type="matrix" values="0 0 0 0 0.443137 0 0 0 0 0.435294 0 0 0 0 0.87451 0 0 0 0.38 0"/>
<feBlend mode="normal" in2="BackgroundImageFix" result="effect1_dropShadow_2498_1341"/>
<feBlend mode="normal" in="SourceGraphic" in2="effect1_dropShadow_2498_1341" result="shape"/>
</filter>
</defs>
</svg>
