<svg width="158" height="32" viewBox="0 0 158 32" fill="none" xmlns="http://www.w3.org/2000/svg">
<path d="M52.7227 9.11523L47.0488 26H43.0703L50.5078 6.09375H53.0508L52.7227 9.11523ZM57.4668 26L51.7656 9.11523L51.4238 6.09375H53.9805L61.459 26H57.4668ZM57.207 18.6035V21.5703H46.5293V18.6035H57.207ZM66.4902 14.0508V31.6875H62.8672V11.207H66.2168L66.4902 14.0508ZM75.9922 18.4531V18.7402C75.9922 19.8158 75.8646 20.8138 75.6094 21.7344C75.3633 22.6458 74.9987 23.4434 74.5156 24.127C74.0326 24.8014 73.431 25.3301 72.7109 25.7129C72 26.0866 71.1797 26.2734 70.25 26.2734C69.3385 26.2734 68.5456 26.1003 67.8711 25.7539C67.1966 25.3984 66.627 24.8971 66.1621 24.25C65.6973 23.6029 65.3236 22.8509 65.041 21.9941C64.7676 21.1283 64.5625 20.1849 64.4258 19.1641V18.248C64.5625 17.1634 64.7676 16.179 65.041 15.2949C65.3236 14.4017 65.6973 13.6315 66.1621 12.9844C66.627 12.3281 67.1921 11.8223 67.8574 11.4668C68.5319 11.1113 69.3203 10.9336 70.2227 10.9336C71.1615 10.9336 71.9863 11.1113 72.6973 11.4668C73.4173 11.8223 74.0234 12.3327 74.5156 12.998C75.0078 13.6634 75.377 14.4564 75.623 15.377C75.8691 16.2975 75.9922 17.3229 75.9922 18.4531ZM72.3691 18.7402V18.4531C72.3691 17.7969 72.3099 17.1908 72.1914 16.6348C72.0729 16.0697 71.8906 15.5775 71.6445 15.1582C71.3984 14.7298 71.0794 14.3971 70.6875 14.1602C70.2956 13.9232 69.8216 13.8047 69.2656 13.8047C68.7096 13.8047 68.2311 13.8958 67.8301 14.0781C67.429 14.2604 67.1009 14.5202 66.8457 14.8574C66.5905 15.1947 66.39 15.5957 66.2441 16.0605C66.1074 16.5163 66.0163 17.0221 65.9707 17.5781V19.8477C66.0527 20.5221 66.2122 21.1283 66.4492 21.666C66.6862 22.2038 67.0326 22.6322 67.4883 22.9512C67.9531 23.2702 68.5547 23.4297 69.293 23.4297C69.849 23.4297 70.3229 23.3066 70.7148 23.0605C71.1068 22.8145 71.4258 22.4772 71.6719 22.0488C71.918 21.6113 72.0957 21.11 72.2051 20.5449C72.3145 19.9798 72.3691 19.3783 72.3691 18.7402ZM82.2402 14.0508V31.6875H78.6172V11.207H81.9668L82.2402 14.0508ZM91.7422 18.4531V18.7402C91.7422 19.8158 91.6146 20.8138 91.3594 21.7344C91.1133 22.6458 90.7487 23.4434 90.2656 24.127C89.7826 24.8014 89.181 25.3301 88.4609 25.7129C87.75 26.0866 86.9297 26.2734 86 26.2734C85.0885 26.2734 84.2956 26.1003 83.6211 25.7539C82.9466 25.3984 82.377 24.8971 81.9121 24.25C81.4473 23.6029 81.0736 22.8509 80.791 21.9941C80.5176 21.1283 80.3125 20.1849 80.1758 19.1641V18.248C80.3125 17.1634 80.5176 16.179 80.791 15.2949C81.0736 14.4017 81.4473 13.6315 81.9121 12.9844C82.377 12.3281 82.9421 11.8223 83.6074 11.4668C84.2819 11.1113 85.0703 10.9336 85.9727 10.9336C86.9115 10.9336 87.7363 11.1113 88.4473 11.4668C89.1673 11.8223 89.7734 12.3327 90.2656 12.998C90.7578 13.6634 91.127 14.4564 91.373 15.377C91.6191 16.2975 91.7422 17.3229 91.7422 18.4531ZM88.1191 18.7402V18.4531C88.1191 17.7969 88.0599 17.1908 87.9414 16.6348C87.8229 16.0697 87.6406 15.5775 87.3945 15.1582C87.1484 14.7298 86.8294 14.3971 86.4375 14.1602C86.0456 13.9232 85.5716 13.8047 85.0156 13.8047C84.4596 13.8047 83.9811 13.8958 83.5801 14.0781C83.179 14.2604 82.8509 14.5202 82.5957 14.8574C82.3405 15.1947 82.14 15.5957 81.9941 16.0605C81.8574 16.5163 81.7663 17.0221 81.7207 17.5781V19.8477C81.8027 20.5221 81.9622 21.1283 82.1992 21.666C82.4362 22.2038 82.7826 22.6322 83.2383 22.9512C83.7031 23.2702 84.3047 23.4297 85.043 23.4297C85.599 23.4297 86.0729 23.3066 86.4648 23.0605C86.8568 22.8145 87.1758 22.4772 87.4219 22.0488C87.668 21.6113 87.8457 21.11 87.9551 20.5449C88.0645 19.9798 88.1191 19.3783 88.1191 18.7402ZM98.209 5V26H94.5859V5H98.209ZM108.299 26.2734C107.178 26.2734 106.171 26.0911 105.277 25.7266C104.384 25.362 103.623 24.8561 102.994 24.209C102.374 23.5527 101.896 22.7917 101.559 21.9258C101.23 21.0508 101.066 20.112 101.066 19.1094V18.5625C101.066 17.4232 101.23 16.3887 101.559 15.459C101.887 14.5202 102.352 13.7135 102.953 13.0391C103.555 12.3646 104.275 11.8451 105.113 11.4805C105.952 11.1159 106.877 10.9336 107.889 10.9336C108.937 10.9336 109.862 11.1113 110.664 11.4668C111.466 11.8132 112.136 12.3053 112.674 12.9434C113.212 13.5814 113.617 14.347 113.891 15.2402C114.164 16.1243 114.301 17.1042 114.301 18.1797V19.6973H102.707V17.209H110.746V16.9355C110.728 16.3613 110.618 15.8372 110.418 15.3633C110.217 14.8802 109.908 14.4974 109.488 14.2148C109.069 13.9232 108.527 13.7773 107.861 13.7773C107.324 13.7773 106.854 13.8958 106.453 14.1328C106.061 14.3607 105.733 14.6888 105.469 15.1172C105.214 15.5365 105.022 16.0378 104.895 16.6211C104.767 17.2044 104.703 17.8516 104.703 18.5625V19.1094C104.703 19.7292 104.785 20.3034 104.949 20.832C105.122 21.3607 105.373 21.821 105.701 22.2129C106.038 22.5957 106.439 22.8965 106.904 23.1152C107.378 23.3249 107.916 23.4297 108.518 23.4297C109.274 23.4297 109.958 23.2839 110.568 22.9922C111.188 22.6914 111.726 22.2493 112.182 21.666L114 23.5527C113.69 24.0085 113.271 24.446 112.742 24.8652C112.223 25.2845 111.594 25.6263 110.855 25.8906C110.117 26.1458 109.265 26.2734 108.299 26.2734Z" fill="white"/>
</svg>
