<svg width="130" height="42" viewBox="0 0 130 42" fill="none" xmlns="http://www.w3.org/2000/svg">
<g filter="url(#filter0_d_2498_1372)">
<g clip-path="url(#clip0_2498_1372)">
<rect x="12.8232" y="10.7788" width="104.242" height="16.5957" rx="3.1117" fill="white"/>
<rect x="7.11816" y="8.70459" width="116.689" height="20.7447" rx="2.59308" fill="black"/>
<path d="M29.3967 22.9138C28.6944 22.9138 28.1406 22.7517 27.7355 22.4276C27.4991 22.2453 27.2796 22.0326 27.0771 21.7895C26.8812 21.5464 26.709 21.31 26.5605 21.0804C26.4119 20.8441 26.2904 20.6516 26.1958 20.503C26.0743 20.3275 25.9561 20.1688 25.8413 20.027C25.7333 19.8852 25.5712 19.8143 25.3551 19.8143C25.247 19.8143 25.193 19.8717 25.193 19.9865V21.4147C25.193 21.8063 25.22 22.0933 25.2741 22.2757C25.2876 22.3297 25.345 22.377 25.4463 22.4175C25.5543 22.458 25.6691 22.4918 25.7906 22.5188C25.9122 22.539 26.0034 22.5492 26.0641 22.5492C26.0912 22.5492 26.1047 22.6065 26.1047 22.7213C26.1047 22.7821 26.0979 22.8395 26.0844 22.8935C25.3483 22.853 24.8689 22.8328 24.646 22.8328C24.4637 22.8328 24.2578 22.8361 24.0282 22.8429C23.8053 22.8497 23.6264 22.8598 23.4913 22.8733L23.2887 22.8935C23.2685 22.8598 23.2583 22.799 23.2583 22.7112C23.2583 22.6032 23.2685 22.5492 23.2887 22.5492C23.3495 22.5492 23.4305 22.539 23.5318 22.5188C23.6331 22.4985 23.7277 22.4715 23.8154 22.4377C23.91 22.404 23.964 22.3668 23.9775 22.3263C24.018 22.2048 24.0383 21.8975 24.0383 21.4045V17.5757C24.0383 17.1908 24.018 16.9139 23.9775 16.7451C23.964 16.7046 23.91 16.6674 23.8154 16.6337C23.7277 16.5932 23.6297 16.5594 23.5217 16.5324C23.4204 16.5054 23.3428 16.4919 23.2887 16.4919C23.2617 16.4919 23.2482 16.4412 23.2482 16.3399C23.2482 16.2386 23.2617 16.1779 23.2887 16.1576C24.0113 16.1779 24.4603 16.188 24.6359 16.188C24.9668 16.1812 25.2234 16.1779 25.4057 16.1779C25.5881 16.1779 25.7265 16.1779 25.821 16.1779C25.9156 16.1711 25.9966 16.1677 26.0641 16.1677C26.422 16.1677 26.7732 16.2319 27.1176 16.3602C27.462 16.4885 27.7456 16.6843 27.9684 16.9477C28.198 17.211 28.3128 17.5453 28.3128 17.9505C28.3128 18.1936 28.2588 18.4299 28.1508 18.6595C28.0427 18.8891 27.8975 19.0917 27.7152 19.2673C27.5329 19.4429 27.3269 19.5779 27.0973 19.6724C27.0433 19.6927 27.0298 19.7265 27.0568 19.7737C27.2459 20.1114 27.435 20.4254 27.624 20.7158C27.8131 20.9994 28.0022 21.2594 28.1913 21.4957C28.4276 21.7861 28.6809 22.0359 28.951 22.2453C29.2278 22.4479 29.4811 22.5492 29.7107 22.5492C29.7377 22.5829 29.7512 22.6369 29.7512 22.7112C29.7512 22.7855 29.7377 22.8463 29.7107 22.8935C29.6701 22.9003 29.6229 22.9037 29.5689 22.9037C29.5216 22.9104 29.4642 22.9138 29.3967 22.9138ZM25.8413 19.3281H26.1047C26.3545 19.3281 26.5774 19.2099 26.7732 18.9735C26.9758 18.7372 27.0771 18.4299 27.0771 18.0518C27.0771 17.1334 26.6854 16.6742 25.9021 16.6742C25.6117 16.6742 25.4159 16.6978 25.3146 16.7451C25.2335 16.7789 25.193 17.13 25.193 17.7985V18.9634C25.193 19.112 25.2504 19.2099 25.3652 19.2571C25.48 19.3044 25.6387 19.3281 25.8413 19.3281ZM31.9897 22.9239C31.5643 22.9239 31.176 22.8226 30.8249 22.6201C30.4805 22.4107 30.2036 22.1339 29.9943 21.7895C29.7917 21.4451 29.6904 21.0635 29.6904 20.6449C29.6904 20.2194 29.7917 19.8379 29.9943 19.5003C30.1969 19.1559 30.4704 18.8824 30.8148 18.6798C31.1659 18.4772 31.5542 18.3759 31.9796 18.3759C32.405 18.3759 32.79 18.4772 33.1343 18.6798C33.4855 18.8824 33.7624 19.1559 33.9649 19.5003C34.1743 19.8446 34.2789 20.2262 34.2789 20.6449C34.2789 21.0635 34.1777 21.4451 33.9751 21.7895C33.7725 22.1339 33.499 22.4107 33.1546 22.6201C32.8102 22.8226 32.4219 22.9239 31.9897 22.9239ZM32.091 22.4479C32.3071 22.4479 32.4895 22.377 32.638 22.2351C32.7866 22.0933 32.9014 21.9043 32.9824 21.6679C33.0634 21.4248 33.104 21.1648 33.104 20.888C33.104 20.5233 33.0533 20.189 32.952 19.8852C32.8575 19.5745 32.7157 19.3247 32.5266 19.1356C32.3443 18.9465 32.118 18.852 31.8479 18.852C31.6386 18.852 31.4563 18.9229 31.301 19.0647C31.1524 19.2065 31.0376 19.3956 30.9566 19.6319C30.8823 19.8683 30.8451 20.1283 30.8451 20.4119C30.8451 20.7765 30.8924 21.1142 30.9869 21.4248C31.0882 21.7287 31.2334 21.9752 31.4225 22.1642C31.6116 22.3533 31.8344 22.4479 32.091 22.4479ZM37.0037 22.9138C36.5918 22.9138 36.2204 22.8125 35.8895 22.6099C35.5586 22.4073 35.2952 22.1339 35.0994 21.7895C34.9036 21.4451 34.8057 21.0635 34.8057 20.6449C34.8057 20.2329 34.8968 19.8582 35.0792 19.5205C35.2682 19.1761 35.5282 18.8992 35.8591 18.6899C36.19 18.4806 36.5715 18.3759 37.0037 18.3759C37.3616 18.3759 37.679 18.4367 37.9559 18.5582C38.2395 18.673 38.4421 18.8013 38.5636 18.9431C38.5636 19.1727 38.5231 19.3652 38.4421 19.5205C38.3678 19.6691 38.253 19.7434 38.0977 19.7434C37.9694 19.7434 37.8647 19.7096 37.7837 19.6421C37.7094 19.5745 37.6317 19.4631 37.5507 19.3078C37.4021 18.9972 37.1759 18.8419 36.872 18.8419C36.5817 18.8419 36.3487 18.9904 36.1731 19.2875C36.0043 19.5779 35.9199 19.9459 35.9199 20.3916C35.9199 20.9994 36.0448 21.4518 36.2947 21.7489C36.5445 22.0393 36.8619 22.1845 37.2468 22.1845C37.4224 22.1845 37.5676 22.171 37.6824 22.144C37.7972 22.117 37.9086 22.0866 38.0166 22.0528C38.0707 22.0326 38.1382 21.9988 38.2192 21.9515C38.3003 21.8975 38.3745 21.8502 38.4421 21.8097C38.5096 21.7624 38.5434 21.7388 38.5434 21.7388C38.5569 21.7456 38.5737 21.7658 38.594 21.7996C38.6143 21.8334 38.6244 21.8671 38.6244 21.9009C38.6244 22.0292 38.5434 22.1744 38.3813 22.3364C38.226 22.4918 38.0234 22.6268 37.7735 22.7416C37.5304 22.8564 37.2738 22.9138 37.0037 22.9138ZM39.2727 22.8935C39.2456 22.8665 39.2321 22.8024 39.2321 22.7011C39.2321 22.5998 39.2456 22.5492 39.2727 22.5492C39.3267 22.5492 39.401 22.539 39.4955 22.5188C39.5968 22.4918 39.688 22.4614 39.769 22.4276C39.8568 22.3871 39.904 22.3533 39.9108 22.3263C39.9581 22.1372 39.9817 21.8908 39.9817 21.5869V17.3832C39.9817 17.2482 39.975 17.1233 39.9614 17.0085C39.9547 16.8937 39.9446 16.789 39.9311 16.6945C39.904 16.5864 39.7285 16.5324 39.4043 16.5324H39.3132C39.2727 16.5324 39.2524 16.4784 39.2524 16.3703C39.2524 16.2623 39.2727 16.2082 39.3132 16.2082C39.5225 16.188 39.7217 16.161 39.9108 16.1272C40.0999 16.0935 40.2586 16.0597 40.3869 16.0259C40.5624 15.9719 40.7076 15.9246 40.8224 15.8841C40.9372 15.8436 40.9946 15.8233 40.9946 15.8233H41.0149C41.0419 15.8233 41.0689 15.8436 41.0959 15.8841C41.1229 15.9179 41.1398 15.9516 41.1466 15.9854C41.0655 16.2488 41.025 16.5661 41.025 16.9376V20.3207C41.1803 20.2802 41.2816 20.2431 41.3289 20.2093C41.4707 20.081 41.6226 19.9493 41.7847 19.8143C41.9535 19.6724 42.0751 19.5712 42.1494 19.5104C42.2709 19.4091 42.3688 19.3213 42.4431 19.247C42.5174 19.166 42.5545 19.0917 42.5545 19.0242C42.5545 18.9499 42.4802 18.9026 42.3317 18.8824C42.1764 18.8689 42.0987 18.8587 42.0987 18.852C42.0785 18.798 42.0683 18.7372 42.0683 18.6697C42.0683 18.6021 42.0818 18.565 42.1088 18.5582H43.0914C43.1859 18.5582 43.321 18.5549 43.4965 18.5481C43.6721 18.5414 43.895 18.5312 44.1651 18.5177C44.2123 18.5515 44.2326 18.6156 44.2259 18.7102C44.2259 18.8047 44.2056 18.852 44.1651 18.852C43.9287 18.852 43.6958 18.9195 43.4662 19.0546C43.3784 19.1086 43.2501 19.1964 43.0813 19.3179C42.9124 19.4395 42.7335 19.5779 42.5444 19.7332C42.3553 19.8885 42.1797 20.0506 42.0177 20.2194C42.5579 20.7934 42.9698 21.2526 43.2534 21.597C43.5371 21.9346 43.7532 22.1642 43.9017 22.2858C44.003 22.3668 44.1313 22.4344 44.2866 22.4884C44.4487 22.5424 44.5635 22.5694 44.631 22.5694C44.658 22.5694 44.6715 22.6268 44.6715 22.7416C44.6715 22.8226 44.6682 22.8699 44.6614 22.8834L43.4763 22.8328C43.2602 22.8193 43.0407 22.8226 42.8179 22.8429C42.595 22.8632 42.4127 22.88 42.2709 22.8935C42.2439 22.8665 42.2304 22.8058 42.2304 22.7112C42.2304 22.6167 42.2439 22.5694 42.2709 22.5694C42.3384 22.5694 42.4161 22.5559 42.5039 22.5289C42.5917 22.4951 42.6356 22.4614 42.6356 22.4276C42.6356 22.4141 42.6322 22.4073 42.6254 22.4073L41.1466 20.7563L41.025 20.7867V21.4147C41.025 21.8401 41.052 22.144 41.1061 22.3263C41.1196 22.3533 41.1668 22.3871 41.2479 22.4276C41.3356 22.4614 41.4268 22.4918 41.5213 22.5188C41.6226 22.539 41.6935 22.5492 41.7341 22.5492C41.7543 22.5492 41.7645 22.5998 41.7645 22.7011C41.7712 22.7956 41.7678 22.8598 41.7543 22.8935C41.7273 22.8868 41.6328 22.8767 41.4707 22.8632C41.3086 22.8564 41.1364 22.8497 40.9541 22.8429C40.7718 22.8294 40.6266 22.8226 40.5186 22.8226C40.4105 22.8226 40.2653 22.8294 40.083 22.8429C39.9007 22.8497 39.7285 22.8564 39.5664 22.8632C39.4111 22.8767 39.3132 22.8868 39.2727 22.8935ZM47.6495 22.9644C47.582 22.9644 47.5347 22.9408 47.5077 22.8935L46.9607 21.6071C46.8189 21.2695 46.6839 20.9622 46.5556 20.6854C46.434 20.4085 46.3091 20.1384 46.1808 19.875C46.0592 19.6049 45.9208 19.3213 45.7655 19.0242C45.7182 18.9364 45.6304 18.8689 45.5021 18.8216C45.3738 18.7743 45.2658 18.7507 45.178 18.7507C45.151 18.7507 45.1375 18.6967 45.1375 18.5886C45.1375 18.4941 45.151 18.4367 45.178 18.4164C45.2523 18.4164 45.4245 18.4266 45.6946 18.4468C45.9715 18.4671 46.1842 18.4772 46.3327 18.4772C46.4881 18.4772 46.7176 18.4671 47.0215 18.4468L47.5482 18.4164C47.5618 18.4434 47.5685 18.4907 47.5685 18.5582C47.5685 18.6258 47.5584 18.6865 47.5381 18.7406C47.4841 18.7406 47.4098 18.7507 47.3153 18.7709C47.2275 18.7912 47.1465 18.8216 47.0722 18.8621C47.0046 18.9026 46.9709 18.9566 46.9709 19.0242C46.9709 19.0444 47.3085 19.821 47.9838 21.3539L48.2472 20.7056C48.2674 20.6449 48.3046 20.5503 48.3586 20.422C48.4126 20.287 48.47 20.1451 48.5308 19.9966C48.5916 19.8413 48.6422 19.7062 48.6827 19.5914C48.73 19.4699 48.7536 19.3956 48.7536 19.3686C48.7536 19.2808 48.7334 19.1896 48.6928 19.0951C48.6591 19.0005 48.5916 18.9195 48.4903 18.852C48.389 18.7777 48.237 18.7406 48.0344 18.7406C48.0074 18.7406 47.9939 18.6899 47.9939 18.5886C47.9939 18.4941 48.0074 18.4367 48.0344 18.4164C48.1087 18.4164 48.2775 18.4266 48.5409 18.4468C48.7975 18.4671 49.0069 18.4772 49.1689 18.4772C49.3175 18.4772 49.537 18.4671 49.8273 18.4468L50.3439 18.4164C50.3574 18.4434 50.3608 18.5076 50.354 18.6089C50.354 18.7034 50.3439 18.7507 50.3237 18.7507C49.9793 18.7507 49.8071 18.8689 49.8071 19.1052C49.8071 19.247 50.1244 19.9966 50.7592 21.3539C50.901 20.9825 51.0361 20.6449 51.1644 20.341C51.2994 20.0303 51.4075 19.7704 51.4885 19.561C51.5763 19.3517 51.6202 19.2133 51.6202 19.1457C51.6202 19.0377 51.5797 18.9566 51.4986 18.9026C51.4176 18.8419 51.3197 18.8013 51.2049 18.7811C51.0901 18.7608 50.9854 18.7507 50.8909 18.7507H50.8504C50.8234 18.7507 50.8065 18.7 50.7997 18.5987C50.7997 18.4975 50.8099 18.4367 50.8301 18.4164C50.9179 18.4164 51.0969 18.4266 51.367 18.4468C51.6438 18.4671 51.8599 18.4772 52.0152 18.4772C52.157 18.4772 52.3394 18.4671 52.5622 18.4468C52.7783 18.4266 52.937 18.4164 53.0383 18.4164C53.045 18.4434 53.0484 18.4704 53.0484 18.4975C53.0552 18.5245 53.0585 18.5549 53.0585 18.5886C53.0585 18.6899 53.045 18.7406 53.018 18.7406C52.964 18.7406 52.883 18.7608 52.7749 18.8013C52.6736 18.8351 52.5723 18.8857 52.4711 18.9533C52.3698 19.0208 52.3022 19.0951 52.2685 19.1761L50.7693 22.7517C50.7423 22.8058 50.6951 22.853 50.6275 22.8935C50.5668 22.9408 50.5026 22.9644 50.4351 22.9644C50.3675 22.9644 50.3237 22.9408 50.3034 22.8935L49.0676 20.0979L47.9838 22.7416C47.9703 22.7821 47.9332 22.8294 47.8724 22.8834C47.8116 22.9374 47.7373 22.9644 47.6495 22.9644ZM55.3579 22.9138C54.9662 22.9138 54.6049 22.8159 54.2741 22.6201C53.9499 22.4175 53.6899 22.1474 53.4941 21.8097C53.2983 21.4653 53.2004 21.0872 53.2004 20.6752C53.2004 20.2161 53.2915 19.8143 53.4738 19.4699C53.6562 19.1255 53.9026 18.8587 54.2133 18.6697C54.5307 18.4738 54.8919 18.3759 55.2971 18.3759C55.628 18.3759 55.9116 18.4367 56.148 18.5582C56.3843 18.6798 56.5768 18.8385 56.7253 19.0343C56.8806 19.2234 56.9921 19.426 57.0596 19.6421C57.1339 19.8514 57.171 20.0472 57.171 20.2296C57.171 20.3781 57.144 20.4727 57.09 20.5132C57.0427 20.5469 56.9414 20.5638 56.7861 20.5638H54.3652C54.3179 20.5638 54.2943 20.5841 54.2943 20.6246C54.2943 20.8745 54.3382 21.1108 54.426 21.3336C54.5138 21.5632 54.6623 21.7624 54.8717 21.9313C55.0878 22.1001 55.3444 22.1845 55.6415 22.1845C55.8171 22.1845 55.9623 22.171 56.0771 22.144C56.1919 22.117 56.3033 22.0866 56.4113 22.0528C56.4653 22.0326 56.5329 21.9988 56.6139 21.9515C56.6949 21.8975 56.7692 21.8502 56.8368 21.8097C56.9043 21.7624 56.938 21.7388 56.938 21.7388C56.9515 21.7456 56.9684 21.7658 56.9887 21.7996C57.0089 21.8334 57.0191 21.8671 57.0191 21.9009C57.0191 21.9752 56.9988 22.0393 56.9583 22.0933C56.8908 22.2149 56.776 22.3398 56.6139 22.4681C56.4586 22.5897 56.2729 22.6943 56.0568 22.7821C55.8407 22.8699 55.6077 22.9138 55.3579 22.9138ZM54.3652 20.0776H56.0062C56.0669 20.0776 56.0973 20.027 56.0973 19.9257C56.0973 19.7636 56.0602 19.6015 55.9859 19.4395C55.9184 19.2707 55.8171 19.1288 55.682 19.014C55.5537 18.8992 55.4018 18.8419 55.2262 18.8419C55.0169 18.8419 54.8413 18.9128 54.6995 19.0546C54.5644 19.1964 54.4631 19.3584 54.3956 19.5408C54.3348 19.7231 54.3044 19.8784 54.3044 20.0067C54.3044 20.054 54.3247 20.0776 54.3652 20.0776ZM57.6775 22.8834C57.6505 22.8564 57.637 22.7923 57.637 22.691C57.637 22.5964 57.6505 22.5492 57.6775 22.5492C57.7315 22.5492 57.8024 22.5356 57.8902 22.5086C57.978 22.4816 58.059 22.4479 58.1333 22.4073C58.2143 22.3668 58.2582 22.3331 58.265 22.306C58.292 22.1913 58.3122 22.0697 58.3257 21.9414C58.3393 21.8131 58.346 21.6848 58.346 21.5565V17.3427C58.346 17.0861 58.3257 16.8565 58.2852 16.6539C58.2582 16.5459 58.0894 16.4919 57.7788 16.4919H57.6775C57.637 16.4919 57.6167 16.4514 57.6167 16.3703C57.6167 16.2623 57.637 16.2082 57.6775 16.2082C58.0489 16.1745 58.3831 16.1171 58.6803 16.0361C58.9841 15.955 59.1867 15.8942 59.288 15.8537L59.3589 15.8233H59.3792C59.4062 15.8233 59.4332 15.8436 59.4602 15.8841C59.494 15.9246 59.5142 15.9584 59.521 15.9854C59.44 16.2353 59.3994 16.5526 59.3994 16.9376V21.3944C59.3994 21.8198 59.4231 22.1237 59.4704 22.306C59.4839 22.3331 59.5278 22.3668 59.602 22.4073C59.6763 22.4479 59.7573 22.4816 59.8451 22.5086C59.9329 22.5356 59.9937 22.5492 60.0275 22.5492C60.0477 22.5492 60.0578 22.5964 60.0578 22.691C60.0646 22.7855 60.0612 22.8497 60.0477 22.8834C59.8384 22.8699 59.6257 22.8564 59.4096 22.8429C59.1935 22.8294 59.0145 22.8226 58.8727 22.8226C58.6634 22.8226 58.4473 22.8294 58.2245 22.8429C58.0084 22.8564 57.826 22.8699 57.6775 22.8834ZM60.6656 22.8834C60.6386 22.8564 60.6251 22.7923 60.6251 22.691C60.6251 22.5964 60.6386 22.5492 60.6656 22.5492C60.7196 22.5492 60.7905 22.5356 60.8783 22.5086C60.9661 22.4816 61.0471 22.4479 61.1214 22.4073C61.2025 22.3668 61.2463 22.3331 61.2531 22.306C61.2801 22.1913 61.3004 22.0697 61.3139 21.9414C61.3274 21.8131 61.3341 21.6848 61.3341 21.5565V17.3427C61.3341 17.0861 61.3139 16.8565 61.2734 16.6539C61.2463 16.5459 61.0775 16.4919 60.7669 16.4919H60.6656C60.6251 16.4919 60.6048 16.4514 60.6048 16.3703C60.6048 16.2623 60.6251 16.2082 60.6656 16.2082C61.037 16.1745 61.3713 16.1171 61.6684 16.0361C61.9723 15.955 62.1749 15.8942 62.2762 15.8537L62.3471 15.8233H62.3673C62.3943 15.8233 62.4213 15.8436 62.4483 15.8841C62.4821 15.9246 62.5024 15.9584 62.5091 15.9854C62.4281 16.2353 62.3876 16.5526 62.3876 16.9376V21.3944C62.3876 21.8198 62.4112 22.1237 62.4585 22.306C62.472 22.3331 62.5159 22.3668 62.5902 22.4073C62.6644 22.4479 62.7455 22.4816 62.8333 22.5086C62.921 22.5356 62.9818 22.5492 63.0156 22.5492C63.0358 22.5492 63.046 22.5964 63.046 22.691C63.0527 22.7855 63.0493 22.8497 63.0358 22.8834C62.8265 22.8699 62.6138 22.8564 62.3977 22.8429C62.1816 22.8294 62.0027 22.8226 61.8609 22.8226C61.6515 22.8226 61.4354 22.8294 61.2126 22.8429C60.9965 22.8564 60.8142 22.8699 60.6656 22.8834ZM71.8685 22.9138C71.1662 22.9138 70.6125 22.7517 70.2073 22.4276C69.971 22.2453 69.7515 22.0326 69.5489 21.7895C69.3531 21.5464 69.1809 21.31 69.0323 21.0804C68.8838 20.8441 68.7622 20.6516 68.6677 20.503C68.5461 20.3275 68.428 20.1688 68.3132 20.027C68.2051 19.8852 68.0431 19.8143 67.827 19.8143C67.7189 19.8143 67.6649 19.8717 67.6649 19.9865V21.4147C67.6649 21.8063 67.6919 22.0933 67.7459 22.2757C67.7594 22.3297 67.8168 22.377 67.9181 22.4175C68.0262 22.458 68.141 22.4918 68.2625 22.5188C68.3841 22.539 68.4752 22.5492 68.536 22.5492C68.563 22.5492 68.5765 22.6065 68.5765 22.7213C68.5765 22.7821 68.5698 22.8395 68.5563 22.8935C67.8202 22.853 67.3408 22.8328 67.1179 22.8328C66.9356 22.8328 66.7296 22.8361 66.5 22.8429C66.2772 22.8497 66.0982 22.8598 65.9632 22.8733L65.7606 22.8935C65.7403 22.8598 65.7302 22.799 65.7302 22.7112C65.7302 22.6032 65.7403 22.5492 65.7606 22.5492C65.8214 22.5492 65.9024 22.539 66.0037 22.5188C66.105 22.4985 66.1995 22.4715 66.2873 22.4377C66.3819 22.404 66.4359 22.3668 66.4494 22.3263C66.4899 22.2048 66.5102 21.8975 66.5102 21.4045V17.5757C66.5102 17.1908 66.4899 16.9139 66.4494 16.7451C66.4359 16.7046 66.3819 16.6674 66.2873 16.6337C66.1995 16.5932 66.1016 16.5594 65.9936 16.5324C65.8923 16.5054 65.8146 16.4919 65.7606 16.4919C65.7336 16.4919 65.7201 16.4412 65.7201 16.3399C65.7201 16.2386 65.7336 16.1779 65.7606 16.1576C66.4832 16.1779 66.9322 16.188 67.1078 16.188C67.4387 16.1812 67.6953 16.1779 67.8776 16.1779C68.0599 16.1779 68.1984 16.1779 68.2929 16.1779C68.3875 16.1711 68.4685 16.1677 68.536 16.1677C68.8939 16.1677 69.2451 16.2319 69.5895 16.3602C69.9339 16.4885 70.2175 16.6843 70.4403 16.9477C70.6699 17.211 70.7847 17.5453 70.7847 17.9505C70.7847 18.1936 70.7307 18.4299 70.6226 18.6595C70.5146 18.8891 70.3694 19.0917 70.1871 19.2673C70.0048 19.4429 69.7988 19.5779 69.5692 19.6724C69.5152 19.6927 69.5017 19.7265 69.5287 19.7737C69.7178 20.1114 69.9068 20.4254 70.0959 20.7158C70.285 20.9994 70.4741 21.2594 70.6632 21.4957C70.8995 21.7861 71.1527 22.0359 71.4228 22.2453C71.6997 22.4479 71.9529 22.5492 72.1825 22.5492C72.2096 22.5829 72.2231 22.6369 72.2231 22.7112C72.2231 22.7855 72.2096 22.8463 72.1825 22.8935C72.142 22.9003 72.0948 22.9037 72.0407 22.9037C71.9935 22.9104 71.9361 22.9138 71.8685 22.9138ZM68.3132 19.3281H68.5765C68.8264 19.3281 69.0492 19.2099 69.2451 18.9735C69.4476 18.7372 69.5489 18.4299 69.5489 18.0518C69.5489 17.1334 69.1573 16.6742 68.3739 16.6742C68.0836 16.6742 67.8877 16.6978 67.7865 16.7451C67.7054 16.7789 67.6649 17.13 67.6649 17.7985V18.9634C67.6649 19.112 67.7223 19.2099 67.8371 19.2571C67.9519 19.3044 68.1106 19.3281 68.3132 19.3281ZM74.2996 22.9138C73.9079 22.9138 73.5466 22.8159 73.2157 22.6201C72.8916 22.4175 72.6316 22.1474 72.4358 21.8097C72.2399 21.4653 72.142 21.0872 72.142 20.6752C72.142 20.2161 72.2332 19.8143 72.4155 19.4699C72.5978 19.1255 72.8443 18.8587 73.1549 18.6697C73.4723 18.4738 73.8336 18.3759 74.2388 18.3759C74.5697 18.3759 74.8533 18.4367 75.0896 18.5582C75.326 18.6798 75.5184 18.8385 75.667 19.0343C75.8223 19.2234 75.9337 19.426 76.0013 19.6421C76.0755 19.8514 76.1127 20.0472 76.1127 20.2296C76.1127 20.3781 76.0857 20.4727 76.0317 20.5132C75.9844 20.5469 75.8831 20.5638 75.7278 20.5638H73.3069C73.2596 20.5638 73.236 20.5841 73.236 20.6246C73.236 20.8745 73.2799 21.1108 73.3677 21.3336C73.4554 21.5632 73.604 21.7624 73.8133 21.9313C74.0294 22.1001 74.286 22.1845 74.5832 22.1845C74.7587 22.1845 74.9039 22.171 75.0187 22.144C75.1335 22.117 75.2449 22.0866 75.353 22.0528C75.407 22.0326 75.4745 21.9988 75.5556 21.9515C75.6366 21.8975 75.7109 21.8502 75.7784 21.8097C75.8459 21.7624 75.8797 21.7388 75.8797 21.7388C75.8932 21.7456 75.9101 21.7658 75.9304 21.7996C75.9506 21.8334 75.9607 21.8671 75.9607 21.9009C75.9607 21.9752 75.9405 22.0393 75.9 22.0933C75.8324 22.2149 75.7176 22.3398 75.5556 22.4681C75.4003 22.5897 75.2146 22.6943 74.9985 22.7821C74.7824 22.8699 74.5494 22.9138 74.2996 22.9138ZM73.3069 20.0776H74.9478C75.0086 20.0776 75.039 20.027 75.039 19.9257C75.039 19.7636 75.0018 19.6015 74.9276 19.4395C74.86 19.2707 74.7587 19.1288 74.6237 19.014C74.4954 18.8992 74.3434 18.8419 74.1679 18.8419C73.9585 18.8419 73.783 18.9128 73.6412 19.0546C73.5061 19.1964 73.4048 19.3584 73.3373 19.5408C73.2765 19.7231 73.2461 19.8784 73.2461 20.0067C73.2461 20.054 73.2664 20.0776 73.3069 20.0776ZM78.0474 22.9543C77.6219 22.9543 77.1864 22.8598 76.7407 22.6707C76.7204 22.5897 76.6968 22.4749 76.6698 22.3263C76.6495 22.1777 76.6293 22.0292 76.609 21.8806C76.5955 21.7253 76.5888 21.6071 76.5888 21.5261C76.636 21.4923 76.6833 21.4755 76.7306 21.4755C76.8791 21.4755 76.9602 21.5025 76.9737 21.5565C77.0277 21.8401 77.1594 22.0697 77.3687 22.2453C77.5848 22.4141 77.8178 22.4985 78.0676 22.4985C78.2567 22.4985 78.412 22.4512 78.5336 22.3567C78.6551 22.2554 78.7159 22.1068 78.7159 21.911C78.7159 21.7692 78.6619 21.6409 78.5538 21.5261C78.4458 21.4045 78.3445 21.3201 78.25 21.2729L77.5814 20.9183C77.2708 20.7563 77.0311 20.5773 76.8622 20.3815C76.6934 20.1789 76.609 19.9358 76.609 19.6522C76.609 19.3753 76.6833 19.1424 76.8319 18.9533C76.9872 18.7642 77.1864 18.619 77.4295 18.5177C77.6793 18.4164 77.9461 18.3658 78.2297 18.3658C78.5943 18.3658 78.986 18.4232 79.4047 18.538C79.4384 18.6865 79.4621 18.8554 79.4756 19.0444C79.4958 19.2335 79.5094 19.4429 79.5161 19.6724C79.5161 19.7265 79.4722 19.7535 79.3844 19.7535C79.2359 19.7535 79.1548 19.7265 79.1413 19.6724C79.0941 19.4361 78.9928 19.2369 78.8374 19.0748C78.6889 18.906 78.4863 18.8216 78.2297 18.8216C78.0339 18.8216 77.8785 18.8655 77.7637 18.9533C77.6557 19.0411 77.6017 19.166 77.6017 19.3281C77.6017 19.5036 77.6692 19.6522 77.8043 19.7737C77.9393 19.8953 78.1216 20.0135 78.3512 20.1283C78.5268 20.2161 78.6956 20.3106 78.8577 20.4119C79.0265 20.5132 79.1852 20.6246 79.3338 20.7461C79.5971 20.9555 79.7288 21.2323 79.7288 21.5767C79.7288 21.8604 79.6512 22.1068 79.4958 22.3162C79.3473 22.5188 79.1447 22.6775 78.8881 22.7923C78.6382 22.9003 78.358 22.9543 78.0474 22.9543ZM80.4075 22.8834C80.3805 22.8564 80.367 22.7923 80.367 22.691C80.367 22.5964 80.3805 22.5492 80.4075 22.5492C80.4615 22.5492 80.5324 22.5356 80.6202 22.5086C80.708 22.4816 80.789 22.4479 80.8633 22.4073C80.9443 22.3668 80.9882 22.3331 80.995 22.306C81.022 22.1913 81.0422 22.0697 81.0557 21.9414C81.0693 21.8131 81.076 21.6848 81.076 21.5565V19.9257C81.076 19.6083 81.022 19.3922 80.9139 19.2774C80.8532 19.2031 80.7755 19.1525 80.681 19.1255C80.5932 19.0985 80.5121 19.0816 80.4379 19.0748C80.3703 19.0681 80.3366 19.0579 80.3366 19.0444C80.3366 18.8419 80.3535 18.7406 80.3872 18.7406C80.6033 18.7135 80.8397 18.6764 81.0963 18.6291C81.3596 18.5751 81.596 18.5245 81.8053 18.4772L82.1294 18.3962C82.1767 18.3962 82.2004 18.4637 82.2004 18.5987C82.2004 18.6865 82.1868 18.8148 82.1598 18.9837C82.1396 19.1457 82.1294 19.3078 82.1294 19.4699V21.3944C82.1294 21.8198 82.1531 22.1237 82.2004 22.306C82.2139 22.3331 82.2578 22.3668 82.332 22.4073C82.4063 22.4479 82.4873 22.4816 82.5751 22.5086C82.6629 22.5356 82.7237 22.5492 82.7575 22.5492C82.7777 22.5492 82.7878 22.5964 82.7878 22.691C82.7946 22.7855 82.7912 22.8497 82.7777 22.8834C82.5684 22.8699 82.3557 22.8564 82.1396 22.8429C81.9235 22.8294 81.7445 22.8226 81.6027 22.8226C81.3934 22.8226 81.1773 22.8294 80.9545 22.8429C80.7384 22.8564 80.556 22.8699 80.4075 22.8834ZM81.5217 17.3427C81.3529 17.3427 81.2077 17.2819 81.0861 17.1604C80.9646 17.0388 80.9038 16.8937 80.9038 16.7248C80.9038 16.556 80.9646 16.4142 81.0861 16.2994C81.2077 16.1779 81.3529 16.1171 81.5217 16.1171C81.6905 16.1171 81.8323 16.1779 81.9471 16.2994C82.0687 16.4142 82.1294 16.556 82.1294 16.7248C82.1294 16.8937 82.0687 17.0388 81.9471 17.1604C81.8323 17.2819 81.6905 17.3427 81.5217 17.3427ZM86.404 22.9138C86.3635 22.9138 86.3432 22.8564 86.3432 22.7416V22.5694C86.3432 22.5492 86.3365 22.5356 86.323 22.5289C86.3162 22.5221 86.3094 22.5221 86.3027 22.5289C85.9853 22.7787 85.6342 22.9037 85.2493 22.9037C84.8846 22.9037 84.547 22.8125 84.2363 22.6302C83.9325 22.4411 83.686 22.1879 83.4969 21.8705C83.3078 21.5531 83.2133 21.1918 83.2133 20.7867C83.2133 20.341 83.3179 19.9358 83.5273 19.5712C83.7434 19.1998 84.0304 18.906 84.3883 18.6899C84.7462 18.4671 85.1345 18.3556 85.5531 18.3556C85.8368 18.3556 86.0832 18.4029 86.2926 18.4975C86.3263 18.4975 86.3432 18.4434 86.3432 18.3354V17.3832C86.3432 17.1266 86.323 16.897 86.2824 16.6945C86.2554 16.5864 86.0799 16.5324 85.7557 16.5324H85.6747C85.6342 16.5324 85.6139 16.4784 85.6139 16.3703C85.6139 16.2623 85.6342 16.2082 85.6747 16.2082C85.8773 16.188 86.0731 16.161 86.2622 16.1272C86.458 16.0935 86.6201 16.0597 86.7484 16.0259C86.9307 15.9719 87.0725 15.9246 87.1738 15.8841C87.2819 15.8436 87.3426 15.8233 87.3561 15.8233H87.3764C87.4034 15.8233 87.4304 15.8436 87.4574 15.8841C87.4844 15.9179 87.4979 15.9516 87.4979 15.9854C87.4304 16.2353 87.3967 16.5526 87.3967 16.9376V21.3944C87.3967 21.5497 87.4034 21.7152 87.4169 21.8908C87.4304 22.0596 87.4541 22.1642 87.4878 22.2048C87.5216 22.2385 87.5756 22.2655 87.6499 22.2858C87.7309 22.306 87.8086 22.3196 87.8829 22.3263C87.9639 22.3263 88.0179 22.3263 88.0449 22.3263C88.0584 22.3398 88.0652 22.3803 88.0652 22.4479C88.0652 22.5829 88.0449 22.6504 88.0044 22.6504C87.9099 22.6572 87.7883 22.6707 87.6398 22.691C87.4979 22.7112 87.3595 22.7315 87.2245 22.7517C86.9543 22.799 86.7484 22.8361 86.6066 22.8632C86.4715 22.8969 86.404 22.9138 86.404 22.9138ZM85.5734 22.3466C85.803 22.3466 85.9887 22.2892 86.1305 22.1744C86.2723 22.0528 86.3432 21.9009 86.3432 21.7186V19.5914C86.3432 19.4969 86.3162 19.3922 86.2622 19.2774C86.2149 19.1626 86.1271 19.0613 85.9988 18.9735C85.8773 18.8857 85.6983 18.8419 85.462 18.8419C85.1041 18.8419 84.834 18.9938 84.6516 19.2977C84.4693 19.6015 84.3781 20.0101 84.3781 20.5233C84.3781 21.0973 84.4828 21.5464 84.6921 21.8705C84.9015 22.1879 85.1952 22.3466 85.5734 22.3466ZM90.6785 22.9138C90.2869 22.9138 89.9256 22.8159 89.5947 22.6201C89.2706 22.4175 89.0106 22.1474 88.8147 21.8097C88.6189 21.4653 88.521 21.0872 88.521 20.6752C88.521 20.2161 88.6122 19.8143 88.7945 19.4699C88.9768 19.1255 89.2233 18.8587 89.5339 18.6697C89.8513 18.4738 90.2126 18.3759 90.6177 18.3759C90.9486 18.3759 91.2323 18.4367 91.4686 18.5582C91.7049 18.6798 91.8974 18.8385 92.046 19.0343C92.2013 19.2234 92.3127 19.426 92.3802 19.6421C92.4545 19.8514 92.4917 20.0472 92.4917 20.2296C92.4917 20.3781 92.4646 20.4727 92.4106 20.5132C92.3633 20.5469 92.2621 20.5638 92.1067 20.5638H89.6859C89.6386 20.5638 89.6149 20.5841 89.6149 20.6246C89.6149 20.8745 89.6588 21.1108 89.7466 21.3336C89.8344 21.5632 89.983 21.7624 90.1923 21.9313C90.4084 22.1001 90.665 22.1845 90.9621 22.1845C91.1377 22.1845 91.2829 22.171 91.3977 22.144C91.5125 22.117 91.6239 22.0866 91.732 22.0528C91.786 22.0326 91.8535 21.9988 91.9345 21.9515C92.0156 21.8975 92.0899 21.8502 92.1574 21.8097C92.2249 21.7624 92.2587 21.7388 92.2587 21.7388C92.2722 21.7456 92.2891 21.7658 92.3093 21.7996C92.3296 21.8334 92.3397 21.8671 92.3397 21.9009C92.3397 21.9752 92.3195 22.0393 92.2789 22.0933C92.2114 22.2149 92.0966 22.3398 91.9345 22.4681C91.7792 22.5897 91.5935 22.6943 91.3774 22.7821C91.1613 22.8699 90.9284 22.9138 90.6785 22.9138ZM89.6859 20.0776H91.3268C91.3876 20.0776 91.418 20.027 91.418 19.9257C91.418 19.7636 91.3808 19.6015 91.3065 19.4395C91.239 19.2707 91.1377 19.1288 91.0027 19.014C90.8744 18.8992 90.7224 18.8419 90.5468 18.8419C90.3375 18.8419 90.1619 18.9128 90.0201 19.0546C89.8851 19.1964 89.7838 19.3584 89.7162 19.5408C89.6555 19.7231 89.6251 19.8784 89.6251 20.0067C89.6251 20.054 89.6453 20.0776 89.6859 20.0776ZM93.0082 22.8935C92.9812 22.8665 92.9677 22.8024 92.9677 22.7011C92.9677 22.5998 92.9812 22.5492 93.0082 22.5492C93.0623 22.5492 93.1366 22.539 93.2311 22.5188C93.3324 22.4918 93.4235 22.4614 93.5046 22.4276C93.5924 22.3871 93.6396 22.3533 93.6464 22.3263C93.6937 22.1372 93.7173 21.8908 93.7173 21.5869V19.9358C93.7173 19.6319 93.6633 19.4158 93.5552 19.2875C93.4945 19.2133 93.4168 19.166 93.3223 19.1457C93.2345 19.1187 93.1568 19.1018 93.0893 19.0951C93.0218 19.0816 92.988 19.0647 92.988 19.0444C92.988 18.8554 93.0049 18.7541 93.0386 18.7406C93.194 18.7271 93.4202 18.6933 93.7173 18.6393C94.0212 18.5852 94.3048 18.5245 94.5682 18.4569C94.5817 18.4502 94.612 18.4434 94.6593 18.4367C94.7133 18.4232 94.7437 18.4164 94.7505 18.4164C94.7775 18.4164 94.8011 18.4401 94.8214 18.4873C94.8416 18.5346 94.8518 18.5717 94.8518 18.5987C94.8383 18.6933 94.8281 18.7709 94.8214 18.8317C94.8146 18.8925 94.8113 18.9364 94.8113 18.9634C94.8113 18.9972 94.818 19.014 94.8315 19.014C94.8383 19.014 94.8518 19.0039 94.872 18.9837C95.0341 18.8216 95.2401 18.6798 95.4899 18.5582C95.7465 18.4367 96.0065 18.3759 96.2699 18.3759C97.141 18.3759 97.5765 19.0681 97.5765 20.4524V21.4147C97.5765 21.8401 97.6002 22.144 97.6474 22.3263C97.6609 22.3533 97.7082 22.3871 97.7892 22.4276C97.877 22.4614 97.9682 22.4918 98.0627 22.5188C98.164 22.539 98.2349 22.5492 98.2754 22.5492C98.2957 22.5492 98.3058 22.5998 98.3058 22.7011C98.3126 22.7956 98.3092 22.8598 98.2957 22.8935C98.2687 22.8868 98.1742 22.8767 98.0121 22.8632C97.8568 22.8564 97.6846 22.8497 97.4955 22.8429C97.3132 22.8294 97.168 22.8226 97.0599 22.8226C96.9519 22.8226 96.8101 22.8294 96.6345 22.8429C96.4657 22.8497 96.3036 22.8564 96.1483 22.8632C95.9997 22.8767 95.9052 22.8868 95.8647 22.8935C95.8377 22.8665 95.8242 22.8024 95.8242 22.7011C95.8242 22.5998 95.8377 22.5492 95.8647 22.5492C95.9187 22.5492 95.9896 22.539 96.0774 22.5188C96.1652 22.4918 96.2462 22.4614 96.3205 22.4276C96.4015 22.3871 96.4454 22.3533 96.4522 22.3263C96.4792 22.225 96.4995 22.1136 96.513 21.992C96.5265 21.8705 96.5332 21.7354 96.5332 21.5869V20.6246C96.5332 20.0641 96.4556 19.6724 96.3002 19.4496C96.1517 19.2268 95.912 19.1153 95.5811 19.1153C95.365 19.1153 95.1759 19.1761 95.0138 19.2977C94.8518 19.4125 94.7707 19.5374 94.7707 19.6724V21.4147C94.7707 21.8401 94.7944 22.144 94.8416 22.3263C94.8551 22.3533 94.9024 22.3871 94.9834 22.4276C95.0645 22.4614 95.1523 22.4918 95.2468 22.5188C95.3413 22.539 95.4055 22.5492 95.4393 22.5492C95.4663 22.5492 95.4798 22.5998 95.4798 22.7011C95.4865 22.7956 95.4832 22.8598 95.4697 22.8935C95.4359 22.8868 95.338 22.8767 95.1759 22.8632C95.0206 22.8564 94.8551 22.8497 94.6796 22.8429C94.504 22.8294 94.3622 22.8226 94.2541 22.8226C94.1461 22.8226 94.0009 22.8294 93.8186 22.8429C93.6363 22.8497 93.4641 22.8564 93.302 22.8632C93.1467 22.8767 93.0488 22.8868 93.0082 22.8935ZM101.051 22.9138C100.639 22.9138 100.268 22.8125 99.9366 22.6099C99.6057 22.4073 99.3424 22.1339 99.1466 21.7895C98.9507 21.4451 98.8528 21.0635 98.8528 20.6449C98.8528 20.2329 98.944 19.8582 99.1263 19.5205C99.3154 19.1761 99.5754 18.8992 99.9063 18.6899C100.237 18.4806 100.619 18.3759 101.051 18.3759C101.409 18.3759 101.726 18.4367 102.003 18.5582C102.287 18.673 102.489 18.8013 102.611 18.9431C102.611 19.1727 102.57 19.3652 102.489 19.5205C102.415 19.6691 102.3 19.7434 102.145 19.7434C102.017 19.7434 101.912 19.7096 101.831 19.6421C101.757 19.5745 101.679 19.4631 101.598 19.3078C101.449 18.9972 101.223 18.8419 100.919 18.8419C100.629 18.8419 100.396 18.9904 100.22 19.2875C100.051 19.5779 99.967 19.9459 99.967 20.3916C99.967 20.9994 100.092 21.4518 100.342 21.7489C100.592 22.0393 100.909 22.1845 101.294 22.1845C101.47 22.1845 101.615 22.171 101.73 22.144C101.844 22.117 101.956 22.0866 102.064 22.0528C102.118 22.0326 102.185 21.9988 102.266 21.9515C102.347 21.8975 102.422 21.8502 102.489 21.8097C102.557 21.7624 102.59 21.7388 102.59 21.7388C102.604 21.7456 102.621 21.7658 102.641 21.7996C102.661 21.8334 102.672 21.8671 102.672 21.9009C102.672 22.0292 102.59 22.1744 102.428 22.3364C102.273 22.4918 102.071 22.6268 101.821 22.7416C101.578 22.8564 101.321 22.9138 101.051 22.9138ZM105.417 22.9138C105.025 22.9138 104.664 22.8159 104.333 22.6201C104.009 22.4175 103.749 22.1474 103.553 21.8097C103.357 21.4653 103.259 21.0872 103.259 20.6752C103.259 20.2161 103.35 19.8143 103.533 19.4699C103.715 19.1255 103.961 18.8587 104.272 18.6697C104.589 18.4738 104.951 18.3759 105.356 18.3759C105.687 18.3759 105.97 18.4367 106.207 18.5582C106.443 18.6798 106.635 18.8385 106.784 19.0343C106.939 19.2234 107.051 19.426 107.118 19.6421C107.193 19.8514 107.23 20.0472 107.23 20.2296C107.23 20.3781 107.203 20.4727 107.149 20.5132C107.101 20.5469 107 20.5638 106.845 20.5638H104.424C104.377 20.5638 104.353 20.5841 104.353 20.6246C104.353 20.8745 104.397 21.1108 104.485 21.3336C104.572 21.5632 104.721 21.7624 104.93 21.9313C105.146 22.1001 105.403 22.1845 105.7 22.1845C105.876 22.1845 106.021 22.171 106.136 22.144C106.251 22.117 106.362 22.0866 106.47 22.0528C106.524 22.0326 106.592 21.9988 106.673 21.9515C106.754 21.8975 106.828 21.8502 106.895 21.8097C106.963 21.7624 106.997 21.7388 106.997 21.7388C107.01 21.7456 107.027 21.7658 107.047 21.7996C107.068 21.8334 107.078 21.8671 107.078 21.9009C107.078 21.9752 107.057 22.0393 107.017 22.0933C106.949 22.2149 106.835 22.3398 106.673 22.4681C106.517 22.5897 106.332 22.6943 106.115 22.7821C105.899 22.8699 105.666 22.9138 105.417 22.9138ZM104.424 20.0776H106.065C106.126 20.0776 106.156 20.027 106.156 19.9257C106.156 19.7636 106.119 19.6015 106.045 19.4395C105.977 19.2707 105.876 19.1288 105.741 19.014C105.612 18.8992 105.46 18.8419 105.285 18.8419C105.076 18.8419 104.9 18.9128 104.758 19.0546C104.623 19.1964 104.522 19.3584 104.454 19.5408C104.394 19.7231 104.363 19.8784 104.363 20.0067C104.363 20.054 104.383 20.0776 104.424 20.0776Z" fill="white"/>
</g>
</g>
<defs>
<filter id="filter0_d_2498_1372" x="0.376439" y="0.406473" width="129.136" height="41.4893" filterUnits="userSpaceOnUse" color-interpolation-filters="sRGB">
<feFlood flood-opacity="0" result="BackgroundImageFix"/>
<feColorMatrix in="SourceAlpha" type="matrix" values="0 0 0 0 0 0 0 0 0 0 0 0 0 0 0 0 0 0 127 0" result="hardAlpha"/>
<feOffset dy="2.07447"/>
<feGaussianBlur stdDeviation="6.2234"/>
<feComposite in2="hardAlpha" operator="out"/>
<feColorMatrix type="matrix" values="0 0 0 0 0.443137 0 0 0 0 0.435294 0 0 0 0 0.87451 0 0 0 0.4 0"/>
<feBlend mode="normal" in2="BackgroundImageFix" result="effect1_dropShadow_2498_1372"/>
<feBlend mode="normal" in="SourceGraphic" in2="effect1_dropShadow_2498_1372" result="shape"/>
</filter>
<clipPath id="clip0_2498_1372">
<rect x="12.8232" y="10.7788" width="104.242" height="16.5957" rx="3.1117" fill="white"/>
</clipPath>
</defs>
</svg>
