<svg width="118" height="22" viewBox="0 0 118 22" fill="none" xmlns="http://www.w3.org/2000/svg">
<path d="M0.195541 21V1.44922H3.95531L10.5862 16.2832L17.0803 1.44922H20.7034V21H17.3537V7.38281L12.0491 21H8.95921L3.54515 7.38281V21H0.195541ZM28.0862 1.44922V4.32031H24.4631V1.44922H28.0862ZM28.0862 6.64453V21H24.4631V6.64453H28.0862ZM42.1135 20.5898C40.9286 20.8633 39.6981 21 38.4221 21C33.3179 21 30.7659 18.5163 30.7659 13.5488C30.7659 8.94596 33.3179 6.64453 38.4221 6.64453C39.6981 6.64453 40.9286 6.78125 42.1135 7.05469V9.92578C40.9286 9.65234 39.7893 9.51562 38.6955 9.51562C35.8244 9.51562 34.3889 10.86 34.3889 13.5488C34.3889 16.6022 35.8244 18.1289 38.6955 18.1289C39.7893 18.1289 40.9286 17.9922 42.1135 17.7188V20.5898ZM44.5061 21V6.64453H47.3088L47.76 8.47656C49.0178 7.25521 50.3485 6.64453 51.7522 6.64453V9.57031C50.4032 9.57031 49.1955 10.1309 48.1291 11.252V21H44.5061ZM56.7424 13.7676C56.7424 16.7663 57.9045 18.2656 60.2287 18.2656C62.553 18.2656 63.7151 16.7663 63.7151 13.7676C63.7151 10.8418 62.553 9.37891 60.2287 9.37891C57.9045 9.37891 56.7424 10.8418 56.7424 13.7676ZM53.1194 13.8223C53.1194 9.00977 55.4892 6.60352 60.2287 6.60352C64.9683 6.60352 67.3381 9.00977 67.3381 13.8223C67.3381 18.6257 64.9683 21.0273 60.2287 21.0273C55.5074 21.0273 53.1376 18.6257 53.1194 13.8223ZM70.0725 20.3164V17.3086C71.6675 17.9466 73.5087 18.2656 75.5959 18.2656C77.1545 18.2656 77.9338 17.7643 77.9338 16.7617C77.9338 15.8047 77.4097 15.3262 76.3616 15.3262H73.7639C70.8472 15.3262 69.3889 13.8906 69.3889 11.0195C69.3889 8.01172 71.5172 6.50781 75.7737 6.50781C77.5784 6.50781 79.2782 6.78125 80.8733 7.32812V10.3359C79.2782 9.69792 77.5465 9.37891 75.678 9.37891C73.7183 9.37891 72.7385 9.88021 72.7385 10.8828C72.7385 11.8398 73.3082 12.3184 74.4475 12.3184H76.7717C79.9618 12.3184 81.5569 13.7539 81.5569 16.625C81.5569 19.6328 79.5243 21.1367 75.4592 21.1367C73.4631 21.1367 71.6675 20.8633 70.0725 20.3164ZM87.0393 13.7676C87.0393 16.7663 88.2014 18.2656 90.5256 18.2656C92.8498 18.2656 94.0119 16.7663 94.0119 13.7676C94.0119 10.8418 92.8498 9.37891 90.5256 9.37891C88.2014 9.37891 87.0393 10.8418 87.0393 13.7676ZM83.4162 13.8223C83.4162 9.00977 85.786 6.60352 90.5256 6.60352C95.2652 6.60352 97.635 9.00977 97.635 13.8223C97.635 18.6257 95.2652 21.0273 90.5256 21.0273C85.8043 21.0273 83.4345 18.6257 83.4162 13.8223ZM100.369 21V6.64453C100.369 2.70703 102.52 0.738281 106.822 0.738281C107.998 0.738281 109.065 0.920573 110.022 1.28516V4.15625C109.119 3.79167 108.14 3.60938 107.082 3.60938C105.022 3.60938 103.992 4.62109 103.992 6.64453H108.299V9.51562H103.992V21H100.369ZM110.309 4.32031H112.989L113.535 6.64453H117.145V9.51562H113.932V16.1191C113.932 17.459 114.511 18.1289 115.668 18.1289H117.145V21H113.918C111.512 21 110.309 19.7103 110.309 17.1309V4.32031Z" fill="white"/>
</svg>
