<svg width="279" height="93" viewBox="0 0 279 93" fill="none" xmlns="http://www.w3.org/2000/svg">
<g filter="url(#filter0_d_2985_2239)">
<rect x="141.715" y="51" width="133.246" height="24.5796" rx="2" transform="rotate(4 141.715 51)" fill="url(#paint0_linear_2985_2239)"/>
<rect x="142.306" y="51.6567" width="131.977" height="23.3506" rx="2" transform="rotate(4 142.306 51.6567)" fill="white"/>
<path d="M156.208 65.585C156.179 66.0059 156.082 66.3789 155.918 66.7042C155.759 67.0298 155.546 67.3027 155.28 67.523C155.018 67.7396 154.713 67.9004 154.365 68.0053C154.017 68.1102 153.646 68.1489 153.253 68.1213C152.711 68.0835 152.265 67.9426 151.914 67.6988C151.563 67.4511 151.287 67.1381 151.086 66.7599C150.89 66.382 150.757 65.9518 150.689 65.4693C150.625 64.9871 150.611 64.4907 150.646 63.9802C150.683 63.462 150.784 62.9698 150.949 62.5036C151.119 62.0378 151.351 61.6311 151.646 61.2836C151.94 60.9322 152.296 60.6634 152.712 60.4771C153.132 60.2912 153.613 60.2171 154.155 60.255C154.911 60.3078 155.522 60.6149 155.988 61.1761L155.429 61.6069C155.105 61.2005 154.664 60.9778 154.107 60.9389C153.698 60.9102 153.33 60.9628 153.004 61.0966C152.681 61.2307 152.405 61.4307 152.175 61.6965C151.949 61.9587 151.769 62.283 151.637 62.6692C151.508 63.0518 151.428 63.4769 151.395 63.9445C151.463 63.7496 151.58 63.5697 151.744 63.405C151.908 63.2403 152.094 63.1025 152.301 62.9917C152.509 62.877 152.731 62.7907 152.966 62.7327C153.205 62.6711 153.441 62.6485 153.675 62.6649C154.073 62.6927 154.434 62.7865 154.76 62.9463C155.086 63.1022 155.359 63.3093 155.58 63.5675C155.805 63.8221 155.972 64.1216 156.081 64.466C156.194 64.8106 156.236 65.1836 156.208 65.585ZM155.407 65.529C155.428 65.2407 155.402 64.9686 155.329 64.713C155.261 64.4537 155.152 64.2268 155.001 64.0322C154.85 63.8376 154.658 63.6792 154.423 63.5571C154.193 63.4353 153.928 63.3639 153.628 63.3429C153.332 63.3222 153.055 63.3518 152.799 63.4318C152.547 63.5121 152.327 63.6337 152.139 63.7968C151.952 63.9599 151.801 64.1589 151.686 64.3936C151.576 64.6248 151.511 64.8865 151.491 65.1788C151.47 65.4671 151.49 65.7426 151.55 66.0053C151.611 66.264 151.716 66.4965 151.866 66.7028C152.016 66.9091 152.208 67.0772 152.441 67.2071C152.679 67.3372 152.965 67.414 153.3 67.4375C153.589 67.4576 153.855 67.4293 154.099 67.3524C154.348 67.2718 154.566 67.15 154.753 66.9869C154.941 66.8238 155.09 66.617 155.202 66.3663C155.317 66.116 155.386 65.8369 155.407 65.529ZM157.836 64.483C157.796 65.048 157.827 65.5827 157.929 66.0872L161.764 62.5668C161.602 62.203 161.389 61.9179 161.125 61.7115C160.865 61.5054 160.552 61.3895 160.186 61.3639C159.5 61.316 158.954 61.5714 158.547 62.1303C158.144 62.6856 157.907 63.4698 157.836 64.483ZM158.159 66.7552C158.496 67.468 159.02 67.8492 159.729 67.8988C160.399 67.9456 160.94 67.6917 161.351 67.137C161.762 66.5783 162.003 65.7925 162.074 64.7793C162.093 64.4987 162.094 64.2325 162.077 63.9807C162.059 63.725 162.027 63.48 161.981 63.2457L158.159 66.7552ZM157.035 64.427C157.071 63.9165 157.16 63.4274 157.302 62.9596C157.445 62.4918 157.643 62.0828 157.899 61.7326C158.154 61.3824 158.475 61.1111 158.86 60.9188C159.25 60.7229 159.708 60.6433 160.234 60.6801C160.76 60.7168 161.2 60.8592 161.555 61.1072C161.914 61.3516 162.197 61.6651 162.406 62.0478C162.614 62.4304 162.754 62.8631 162.826 63.3459C162.898 63.8286 162.916 64.3252 162.88 64.8357C162.844 65.3462 162.757 65.8354 162.619 66.3035C162.481 66.7715 162.284 67.1787 162.028 67.525C161.773 67.8714 161.451 68.1425 161.061 68.3384C160.676 68.5308 160.216 68.6083 159.682 68.5709C159.148 68.5336 158.702 68.3928 158.343 68.1484C157.988 67.9004 157.707 67.587 157.498 67.2083C157.294 66.8298 157.158 66.3993 157.089 65.9168C157.018 65.4341 156.999 64.9375 157.035 64.427ZM166.747 62.6274C166.733 62.8261 166.681 63.0124 166.59 63.1862C166.504 63.3603 166.388 63.5088 166.242 63.6317C166.1 63.755 165.937 63.8512 165.752 63.9205C165.567 63.9859 165.373 64.0115 165.171 63.9974C164.972 63.9835 164.786 63.9313 164.612 63.8408C164.438 63.7464 164.29 63.6284 164.167 63.4866C164.044 63.3449 163.951 63.1818 163.89 62.9974C163.828 62.8129 163.804 62.6214 163.818 62.4226C163.832 62.2239 163.883 62.0355 163.969 61.8576C164.057 61.6757 164.171 61.5251 164.312 61.4058C164.454 61.2826 164.617 61.1882 164.802 61.1228C164.987 61.0535 165.179 61.0258 165.378 61.0397C165.58 61.0539 165.768 61.1082 165.942 61.2025C166.116 61.293 166.264 61.4091 166.387 61.5509C166.515 61.689 166.609 61.8542 166.67 62.0464C166.735 62.235 166.761 62.4287 166.747 62.6274ZM169.464 61.6486L164.047 68.8996L163.522 68.5105L168.952 61.2427L169.464 61.6486ZM169.207 67.7569C169.193 67.9634 169.139 68.1515 169.045 68.3211C168.954 68.491 168.838 68.6395 168.696 68.7666C168.554 68.8937 168.389 68.9879 168.201 69.0492C168.012 69.1143 167.819 69.1399 167.62 69.126C167.417 69.1118 167.229 69.0595 167.055 68.969C166.881 68.8825 166.732 68.7683 166.609 68.6266C166.49 68.4851 166.396 68.3218 166.326 68.1369C166.261 67.9522 166.235 67.7566 166.25 67.55C166.264 67.3474 166.316 67.1592 166.407 66.9854C166.501 66.8119 166.617 66.6653 166.755 66.5457C166.896 66.4225 167.06 66.3301 167.244 66.2686C167.429 66.2032 167.622 66.1776 167.825 66.1918C168.024 66.2057 168.21 66.2578 168.384 66.3483C168.558 66.4349 168.708 66.5492 168.836 66.6912C168.963 66.8293 169.059 66.9907 169.125 67.1754C169.194 67.3604 169.222 67.5542 169.207 67.7569ZM166.151 62.5857C166.168 62.3363 166.099 62.12 165.943 61.9369C165.788 61.7537 165.585 61.6534 165.336 61.6359C165.09 61.6188 164.878 61.6901 164.698 61.8498C164.519 62.0095 164.42 62.2141 164.403 62.4635C164.386 62.709 164.455 62.9233 164.61 63.1065C164.766 63.2897 164.967 63.3898 165.212 63.407C165.461 63.4244 165.676 63.3533 165.856 63.1936C166.035 63.0338 166.133 62.8312 166.151 62.5857ZM168.605 67.7148C168.623 67.4654 168.552 67.2509 168.392 67.0713C168.232 66.8918 168.03 66.7934 167.784 66.7763C167.535 66.7588 167.32 66.828 167.141 66.9839C166.962 67.1397 166.863 67.3423 166.846 67.5917C166.829 67.8372 166.898 68.0516 167.054 68.2347C167.209 68.4179 167.412 68.5182 167.661 68.5356C167.907 68.5528 168.121 68.4817 168.304 68.3222C168.488 68.1627 168.588 67.9602 168.605 67.7148ZM187.456 70.378L184.188 70.1495L184.236 69.4656L185.47 69.5519L185.907 63.2918L184.674 63.2055L184.722 62.5216L186.762 62.6643L186.276 69.6083L187.504 69.6941L187.456 70.378ZM195.413 68.2149C195.383 68.6396 195.288 69.0206 195.128 69.3579C194.971 69.6955 194.757 69.9801 194.486 70.2118C194.22 70.4398 193.906 70.6117 193.546 70.7275C193.185 70.8432 192.789 70.886 192.356 70.8557C191.932 70.826 191.549 70.7288 191.208 70.564C190.867 70.3992 190.578 70.1852 190.342 69.922C190.11 69.6551 189.938 69.3435 189.826 68.9872C189.718 68.6311 189.679 68.2407 189.708 67.816C189.737 67.4029 189.83 67.0237 189.988 66.6784C190.149 66.3294 190.363 66.039 190.63 65.807C190.901 65.5714 191.217 65.3958 191.577 65.28C191.938 65.1604 192.331 65.1154 192.756 65.1451C193.188 65.1753 193.575 65.2748 193.915 65.4435C194.256 65.6083 194.543 65.8261 194.774 66.0968C195.01 66.3639 195.182 66.6813 195.289 67.0491C195.401 67.4132 195.442 67.8018 195.413 68.2149ZM194.612 68.1589C194.634 67.8472 194.607 67.5575 194.532 67.2899C194.461 67.0186 194.343 66.7774 194.178 66.5661C194.012 66.3548 193.805 66.1837 193.556 66.0527C193.31 65.922 193.028 65.8455 192.708 65.8231C192.389 65.8008 192.096 65.8371 191.831 65.9321C191.57 66.0274 191.345 66.1683 191.156 66.3548C190.966 66.5412 190.816 66.7637 190.704 67.0221C190.596 67.277 190.531 67.5602 190.509 67.872C190.487 68.1837 190.512 68.4752 190.583 68.7464C190.658 69.0141 190.777 69.2495 190.939 69.4527C191.101 69.6559 191.305 69.8209 191.55 69.9477C191.8 70.0748 192.085 70.1495 192.404 70.1719C192.724 70.1942 193.014 70.1597 193.275 70.0683C193.54 69.9772 193.768 69.8424 193.961 69.664C194.153 69.4856 194.304 69.269 194.412 69.0142C194.524 68.7557 194.591 68.4706 194.612 68.1589ZM196.262 69.5136C196.286 69.1707 196.392 68.8903 196.579 68.6724C196.767 68.4505 197.004 68.2831 197.29 68.1699C197.58 68.0532 197.906 67.9781 198.269 67.9447C198.636 67.9077 199.006 67.9023 199.38 67.9284C199.524 67.9385 199.653 67.9494 199.766 67.9612C199.882 67.9733 199.991 67.9868 200.092 68.0017C200.196 68.0168 200.301 68.0339 200.405 68.053C200.51 68.072 200.624 68.0937 200.747 68.118L200.775 67.7264C200.793 67.4614 200.75 67.2391 200.645 67.0595C200.544 66.8801 200.413 66.7359 200.253 66.6267C200.092 66.5137 199.922 66.4313 199.741 66.3795C199.561 66.3238 199.407 66.2915 199.278 66.2825C198.873 66.2542 198.495 66.2826 198.144 66.3677C197.794 66.4528 197.464 66.5766 197.155 66.7391L196.835 66.1117C197.176 65.9358 197.554 65.7997 197.968 65.7034C198.386 65.6034 198.838 65.5704 199.325 65.6045C199.622 65.6252 199.909 65.6845 200.188 65.7823C200.471 65.8765 200.72 66.0114 200.935 66.187C201.154 66.3589 201.323 66.5782 201.441 66.845C201.56 67.1117 201.606 67.4243 201.581 67.7828L201.332 71.3483L200.525 71.2919L200.589 70.3801C200.437 70.5456 200.266 70.6883 200.078 70.8083C199.893 70.9285 199.7 71.0247 199.499 71.0968C199.299 71.165 199.1 71.2137 198.902 71.243C198.704 71.2761 198.517 71.2865 198.342 71.2743C197.621 71.2239 197.085 71.0474 196.734 70.7448C196.383 70.4423 196.226 70.0319 196.262 69.5136ZM198.389 70.5904C198.725 70.6138 199.028 70.5861 199.3 70.5072C199.576 70.4247 199.812 70.316 200.01 70.181C200.207 70.046 200.362 69.8982 200.476 69.7377C200.592 69.5775 200.656 69.4293 200.665 69.2929L200.701 68.7785C200.443 68.7213 200.193 68.6823 199.952 68.6615C199.714 68.641 199.508 68.6246 199.332 68.6123C199.044 68.5921 198.764 68.5921 198.493 68.6123C198.225 68.6327 197.989 68.6808 197.784 68.7566C197.579 68.8284 197.411 68.9302 197.281 69.0621C197.15 69.1939 197.077 69.3631 197.063 69.5696C197.047 69.7995 197.143 70.0196 197.352 70.23C197.564 70.4368 197.91 70.5569 198.389 70.5904ZM207.867 71.8053L207.06 71.7489L207.095 71.2462C206.851 71.4366 206.587 71.5767 206.302 71.6665C206.022 71.7565 205.738 71.7915 205.449 71.7713C205.017 71.741 204.634 71.6438 204.301 71.4795C203.968 71.3153 203.691 71.1001 203.471 70.8341C203.255 70.5645 203.095 70.2498 202.991 69.8901C202.89 69.5307 202.855 69.1425 202.884 68.7256C202.913 68.3125 203.002 67.935 203.151 67.593C203.305 67.2474 203.507 66.9581 203.758 66.725C204.014 66.4884 204.318 66.3119 204.67 66.1956C205.023 66.0754 205.416 66.0304 205.849 66.0606C206.137 66.0808 206.414 66.153 206.679 66.2773C206.949 66.398 207.191 66.5696 207.407 66.7922L207.546 64.8049L206.459 64.7288L206.506 64.045L208.4 64.1774L207.867 71.8053ZM207.353 67.5696C207.14 67.3002 206.902 67.0995 206.637 66.9674C206.376 66.8356 206.093 66.7591 205.79 66.7378C205.47 66.7155 205.184 66.7522 204.93 66.8481C204.681 66.9442 204.467 67.084 204.29 67.2673C204.113 67.4507 203.972 67.6719 203.868 67.9309C203.768 68.1863 203.707 68.4698 203.685 68.7816C203.663 69.0933 203.684 69.3845 203.747 69.6552C203.815 69.9223 203.923 70.159 204.073 70.3652C204.223 70.5715 204.415 70.7396 204.649 70.8695C204.887 70.9997 205.165 71.0759 205.485 71.0983C206.1 71.1413 206.655 70.9354 207.149 70.4805L207.353 67.5696ZM212.965 65.595L211.878 65.5189L211.954 64.4259L213.041 64.5019L212.965 65.595ZM213.595 72.2058L210.328 71.9773L210.375 71.2935L211.609 71.3797L211.894 67.2998L210.661 67.2136L210.709 66.5297L212.749 66.6723L212.415 71.4361L213.643 71.5219L213.595 72.2058ZM220.937 72.7192L220.13 72.6628L220.365 69.3018C220.399 68.8147 220.32 68.4294 220.129 68.1458C219.937 67.8622 219.605 67.7039 219.134 67.671C218.838 67.6503 218.564 67.6997 218.313 67.8191C218.066 67.9389 217.85 68.1079 217.667 68.3261C217.483 68.5404 217.336 68.7925 217.226 69.0823C217.12 69.3686 217.056 69.6715 217.033 69.991L216.862 72.4343L216.062 72.3783L216.443 66.9307L217.243 66.9867L217.148 68.3544C217.603 67.3838 218.326 66.9331 219.316 67.0023C220.656 67.0961 221.275 67.8814 221.172 69.3582L220.937 72.7192ZM227.475 73.1177C227.449 73.4918 227.362 73.8204 227.213 74.1037C227.064 74.387 226.865 74.6217 226.617 74.808C226.373 74.9946 226.09 75.1294 225.767 75.2126C225.447 75.2999 225.095 75.33 224.709 75.3031C224.167 75.2652 223.713 75.1316 223.345 74.9022C222.981 74.6732 222.674 74.358 222.424 73.9568L223.016 73.5635C223.165 73.8285 223.392 74.0578 223.696 74.2513C223.999 74.4448 224.354 74.5558 224.759 74.5841C225.312 74.6228 225.759 74.513 226.098 74.2548C226.441 74.0008 226.63 73.6107 226.667 73.0847L226.708 72.5001C226.203 72.8878 225.647 73.0603 225.039 73.0178C224.186 72.9581 223.532 72.6677 223.079 72.1466C222.626 71.6254 222.429 70.942 222.489 70.0964C222.517 69.6834 222.606 69.3078 222.755 68.9697C222.908 68.628 223.111 68.3387 223.362 68.1017C223.618 67.8612 223.92 67.6826 224.269 67.566C224.618 67.4456 225.005 67.4002 225.43 67.4299C225.726 67.4506 226.009 67.5232 226.278 67.6478C226.551 67.7687 226.796 67.9405 227.011 68.1631L227.046 67.6721L227.852 67.7285L227.475 73.1177ZM226.957 68.9405C226.745 68.6711 226.504 68.4703 226.236 68.3379C225.971 68.2058 225.686 68.1292 225.382 68.1079C225.063 68.0856 224.776 68.1223 224.523 68.2181C224.273 68.3143 224.062 68.4541 223.889 68.6378C223.715 68.8215 223.576 69.0447 223.472 69.3076C223.371 69.5669 223.311 69.8485 223.289 70.1524C223.246 70.7759 223.373 71.2841 223.67 71.6769C223.968 72.0697 224.44 72.2887 225.087 72.3339C225.391 72.3552 225.683 72.3188 225.964 72.2249C226.249 72.1273 226.515 71.958 226.763 71.7169L226.957 68.9405ZM241.007 72.3782C240.905 72.9466 240.647 73.3867 240.234 73.6985C239.824 74.0067 239.329 74.1404 238.749 74.0998C238.429 74.0775 238.141 74.0044 237.883 73.8807C237.625 73.757 237.41 73.595 237.236 73.3949C237.062 73.1948 236.931 72.9605 236.844 72.6921C236.762 72.42 236.731 72.1281 236.753 71.8164L236.946 69.0516L235.713 68.9654L235.761 68.2815L236.994 68.3678L237.146 66.1875L237.947 66.2435L237.795 68.4237L240.115 68.586L240.067 69.2699L237.747 69.1076L237.554 71.8724C237.54 72.0711 237.558 72.2603 237.608 72.44C237.662 72.62 237.741 72.7802 237.845 72.9206C237.952 73.0613 238.085 73.1763 238.243 73.2657C238.402 73.3511 238.586 73.4012 238.797 73.416C239.194 73.4437 239.534 73.3442 239.816 73.1172C240.102 72.8866 240.279 72.5759 240.345 72.185L241.007 72.3782ZM245.639 67.8798L244.552 67.8037L244.628 66.7107L245.715 66.7867L245.639 67.8798ZM246.269 74.4906L243.002 74.2621L243.05 73.5783L244.283 73.6645L244.568 69.5846L243.335 69.4984L243.383 68.8145L245.423 68.9571L245.09 73.7209L246.317 73.8067L246.269 74.4906ZM253.897 75.024L253.096 74.968L253.37 71.0518C253.392 70.74 253.354 70.4946 253.257 70.3155C253.16 70.1365 253.008 70.0397 252.802 70.0253C252.498 70.004 252.263 70.1481 252.096 70.4576C251.933 70.7673 251.832 71.2105 251.792 71.7872L251.577 74.8617L250.77 74.8053L251.044 70.8891C251.066 70.5774 251.026 70.3318 250.925 70.1525C250.828 69.9734 250.676 69.8766 250.469 69.8622C250.279 69.8488 250.123 69.8947 250.002 69.9998C249.881 70.1049 249.781 70.2428 249.703 70.4135C249.628 70.5845 249.573 70.7765 249.539 70.9895C249.505 71.2024 249.48 71.4141 249.465 71.6245L249.25 74.6991L248.449 74.6431L248.83 69.1954L249.631 69.2514L249.576 70.0405C249.786 69.4404 250.172 69.16 250.733 69.1993C251.267 69.2366 251.611 69.5289 251.764 70.0761C252.067 69.5607 252.459 69.32 252.943 69.3538C253.406 69.3862 253.736 69.5482 253.931 69.8399C254.13 70.1279 254.21 70.5505 254.171 71.1078L253.897 75.024ZM255.956 72.7128C255.974 73.2936 256.152 73.7681 256.491 74.1364C256.829 74.5046 257.289 74.709 257.869 74.7496C258.278 74.7782 258.649 74.7199 258.98 74.5747C259.311 74.4295 259.565 74.2378 259.743 73.9996L260.277 74.4246C259.977 74.7874 259.631 75.0569 259.239 75.2331C258.847 75.4054 258.375 75.4722 257.821 75.4335C257.401 75.4041 257.02 75.307 256.679 75.1422C256.338 74.9774 256.048 74.7613 255.808 74.4939C255.572 74.2229 255.396 73.9091 255.28 73.5525C255.164 73.1958 255.121 72.8052 255.151 72.3804C255.18 71.9674 255.269 71.5918 255.418 71.2537C255.571 70.912 255.775 70.6228 256.03 70.3861C256.29 70.1458 256.596 69.9675 256.949 69.8512C257.302 69.731 257.691 69.6858 258.116 69.7155C258.579 69.7479 258.979 69.8542 259.315 70.0343C259.651 70.2144 259.924 70.4509 260.135 70.7436C260.349 71.0327 260.498 71.372 260.58 71.7616C260.667 72.1513 260.694 72.5781 260.661 73.0418L255.956 72.7128ZM259.861 72.2987C259.814 71.6962 259.628 71.2368 259.306 70.9206C258.983 70.6044 258.571 70.4287 258.068 70.3935C257.811 70.3755 257.57 70.4018 257.346 70.4722C257.122 70.5388 256.921 70.6442 256.742 70.7883C256.564 70.9325 256.41 71.1117 256.282 71.3259C256.154 71.5362 256.065 71.7708 256.015 72.0297L259.861 72.2987Z" fill="url(#paint1_linear_2985_2239)"/>
</g>
<g filter="url(#filter1_d_2985_2239)">
<rect x="4" y="29.6304" width="243.132" height="31.9815" rx="2" transform="rotate(-7 4 29.6304)" fill="white"/>
<rect x="5.24707" y="30.2827" width="240.817" height="30.3824" rx="2" transform="rotate(-7 5.24707 30.2827)" fill="url(#paint2_linear_2985_2239)"/>
<path d="M25.5032 39.019C25.5375 39.2981 25.5424 39.552 25.518 39.7807C25.4988 40.0087 25.4385 40.2443 25.3372 40.4877C25.2411 40.7303 25.1052 40.991 24.9295 41.2697C24.7538 41.5484 24.5283 41.87 24.253 42.2344L21.1637 46.2423L25.4363 45.7177L25.1925 43.7326L26.0998 43.6212L26.4549 46.5135L19.8793 47.3209L19.7641 46.3827L23.212 41.8978C23.3888 41.6714 23.5554 41.4463 23.7115 41.2225C23.8729 40.998 24.0132 40.7735 24.1326 40.549C24.252 40.3244 24.3393 40.0959 24.3948 39.8635C24.4502 39.631 24.463 39.3933 24.4331 39.1504C24.357 38.53 24.0927 38.0876 23.6405 37.823C23.1927 37.5526 22.6664 37.4546 22.0616 37.5289C21.2138 37.633 20.6017 37.9469 20.2252 38.4706C19.8487 38.9944 19.7151 39.7008 19.8242 40.59L18.8394 40.7109C18.6992 39.5684 18.8944 38.6367 19.425 37.9156C19.9557 37.1945 20.7974 36.7632 21.9502 36.6216C22.3844 36.5683 22.8008 36.5828 23.1992 36.665C23.6021 36.7415 23.9655 36.8805 24.2894 37.0822C24.6184 37.2831 24.8895 37.5463 25.1026 37.8717C25.3151 38.192 25.4486 38.5744 25.5032 39.019ZM44.313 44.3208L41.4439 44.6731L41.3325 43.7659L42.0149 43.6821L40.0178 40.5584L38.8202 44.0744L39.5025 43.9906L39.6139 44.8978L36.7371 45.2511L36.6257 44.3438L37.6105 44.2229L39.2908 39.7661L36.6296 35.9133L35.7843 36.0171L35.6729 35.1098L38.5653 34.7547L38.6767 35.662L37.8315 35.7657L39.8036 38.8137L40.9332 35.3849L40.119 35.4849L40.0076 34.5776L42.8999 34.2225L43.0113 35.1297L42.1351 35.2373L40.5315 39.6138L43.2168 43.5345L44.2016 43.4136L44.313 44.3208ZM60.8185 34.9583L58.0224 44.4951C57.883 45.0265 57.6393 45.3923 57.2913 45.5924C56.9439 45.7977 56.5479 45.9277 56.1034 45.9823C55.6071 46.0432 55.0997 46.0137 54.5812 45.8937L54.6782 44.953C54.9339 45.0265 55.1806 45.0697 55.4183 45.0825C55.6566 45.1005 55.8482 45.1006 55.9929 45.0828C56.3445 45.0396 56.5744 44.9248 56.6827 44.7384C56.7961 44.5513 56.8877 44.3354 56.9573 44.0907L57.2651 42.9431L53.1262 35.9028L54.3824 35.7485L57.7638 41.7484L59.5468 35.1144L60.8185 34.9583ZM69.8955 37.5354C69.9647 38.0988 69.9371 38.6217 69.8126 39.104C69.6933 39.5857 69.486 40.0126 69.1906 40.3847C68.8998 40.751 68.5331 41.0558 68.0907 41.299C67.6483 41.5422 67.1402 41.6991 66.5664 41.7695C66.0029 41.8387 65.4771 41.8088 64.989 41.6798C64.5009 41.5509 64.0689 41.3442 63.6928 41.0597C63.3214 40.7695 63.0169 40.4055 62.7795 39.9676C62.5472 39.5291 62.3965 39.0281 62.3273 38.4646C62.2601 37.9166 62.2854 37.3967 62.4034 36.9047C62.526 36.4068 62.7323 35.9722 63.0226 35.6007C63.3173 35.2235 63.6859 34.9132 64.1283 34.67C64.5701 34.4216 65.0727 34.2628 65.6362 34.1936C66.21 34.1231 66.7413 34.155 67.23 34.2891C67.7181 34.4181 68.1482 34.6303 68.5203 34.9257C68.897 35.2153 69.2024 35.5871 69.4365 36.0411C69.6752 36.4893 69.8282 36.9874 69.8955 37.5354ZM68.8332 37.6658C68.7824 37.2522 68.6737 36.8799 68.5071 36.5488C68.345 36.2118 68.1289 35.9262 67.8588 35.6917C67.5886 35.4573 67.2737 35.286 66.9141 35.178C66.5597 35.0693 66.1705 35.041 65.7466 35.0931C65.3227 35.1451 64.9494 35.2671 64.6266 35.4589C64.309 35.65 64.0501 35.8917 63.8498 36.1839C63.6495 36.4762 63.509 36.8056 63.4281 37.1724C63.3517 37.5334 63.3389 37.9206 63.3897 38.3342C63.4405 38.7477 63.5469 39.123 63.7089 39.4599C63.8755 39.791 64.0907 40.069 64.3544 40.2937C64.6182 40.5185 64.9269 40.6826 65.2807 40.7861C65.6397 40.8889 66.0311 40.9143 66.455 40.8623C66.8789 40.8102 67.25 40.6912 67.5682 40.5052C67.8916 40.3185 68.1567 40.084 68.3634 39.8015C68.5701 39.519 68.7116 39.1972 68.788 38.8363C68.8689 38.4695 68.8839 38.0794 68.8332 37.6658ZM71.0851 33.6977L72.1475 33.5673L72.6959 38.0337C72.7752 38.6799 72.9764 39.1642 73.2993 39.4866C73.6268 39.8033 74.1033 39.9232 74.7288 39.8464C75.1217 39.7981 75.4647 39.6642 75.7578 39.4445C76.0509 39.2249 76.2902 38.9515 76.4757 38.6244C76.6605 38.2921 76.786 37.9251 76.8522 37.5234C76.9228 37.1159 76.9321 36.7002 76.8801 36.2763L76.4821 33.0351L77.5522 32.9037L78.4395 40.1306L77.3694 40.262L77.1476 38.4553C76.8035 39.8409 75.9749 40.6143 74.6618 40.7755C72.8835 40.9939 71.8741 40.1234 71.6335 38.1642L71.0851 33.6977ZM86.3307 32.8569C85.9246 32.7126 85.458 32.6728 84.9307 32.7376C84.4964 32.7909 84.1202 32.9316 83.8018 33.1596C83.4835 33.3875 83.2241 33.6686 83.0238 34.0028C82.8228 34.3319 82.6818 34.7008 82.6008 35.1095C82.5244 35.5125 82.5115 35.9207 82.5623 36.3343L82.8489 38.6683L84.485 38.4674L84.5964 39.3747L80.2618 39.9069L80.1504 38.9996L81.7865 38.7988L81.122 33.3863L79.4858 33.5872L79.3744 32.6799L82.0729 32.3486L82.2957 34.1631C82.6191 32.78 83.4607 32.005 84.8202 31.8381C85.1873 31.793 85.5081 31.7772 85.7826 31.7908C86.0623 31.8037 86.3257 31.8553 86.573 31.9456L86.3307 32.8569ZM104.564 34.2311C104.407 35.1319 104.06 35.875 103.523 36.4604C102.986 37.0407 102.262 37.3867 101.352 37.4984C100.644 37.5853 100.026 37.5142 99.4997 37.285C98.9724 37.0507 98.5216 36.7125 98.1472 36.2704C97.778 35.8277 97.4849 35.2996 97.2679 34.6861C97.0561 34.0719 96.9086 33.4262 96.8254 32.749C96.7423 32.0718 96.7292 31.4096 96.7862 30.7624C96.8483 30.1146 97.0046 29.5287 97.2551 29.0047C97.5108 28.48 97.8664 28.0428 98.322 27.693C98.7769 27.338 99.3585 27.1171 100.067 27.0301C100.692 26.9533 101.241 26.9988 101.713 27.1665C102.185 27.3342 102.554 27.6325 102.822 28.0614L102.678 26.8827L103.585 26.7713L103.992 30.0901L103.085 30.2015C103.041 29.8448 102.93 29.5174 102.752 29.2192C102.578 28.9152 102.361 28.6611 102.099 28.4571C101.838 28.253 101.54 28.106 101.203 28.0162C100.871 27.9205 100.53 27.8942 100.178 27.9374C99.6301 28.0046 99.1911 28.1897 98.8609 28.4926C98.536 28.7949 98.2906 29.1688 98.1249 29.6141C97.9592 30.0595 97.8613 30.5438 97.8311 31.067C97.806 31.5896 97.8249 32.1068 97.8878 32.6186C97.95 33.1252 98.0567 33.6316 98.2081 34.1377C98.364 34.6381 98.5759 35.0817 98.8438 35.4686C99.111 35.8503 99.4392 36.1511 99.8283 36.371C100.222 36.585 100.693 36.6584 101.241 36.5911C102.502 36.4362 103.287 35.5658 103.596 33.9799L104.564 34.2311ZM112.047 36.0042L107.712 36.5364L107.6 35.6292L109.237 35.4283L108.217 27.1235L106.581 27.3244L106.469 26.4171L109.176 26.0848L110.307 35.2969L111.935 35.097L112.047 36.0042ZM118.209 26.4476L116.767 26.6247L116.589 25.1746L118.031 24.9975L118.209 26.4476ZM120.716 34.9398L116.381 35.472L116.27 34.5647L117.906 34.3638L117.241 28.9514L115.605 29.1523L115.494 28.245L118.2 27.9127L118.976 34.2325L120.604 34.0325L120.716 34.9398ZM124.272 31.2129C124.444 31.9685 124.798 32.5442 125.335 32.9401C125.871 33.336 126.525 33.4866 127.295 33.3921C127.838 33.3254 128.307 33.1549 128.704 32.8806C129.101 32.6062 129.385 32.2906 129.556 31.9338L130.363 32.3541C130.064 32.9052 129.68 33.3459 129.211 33.6763C128.742 34.0015 128.14 34.2092 127.406 34.2993C126.848 34.3679 126.325 34.3376 125.837 34.2087C125.349 34.0797 124.914 33.8707 124.532 33.5818C124.155 33.287 123.845 32.921 123.602 32.4838C123.359 32.0465 123.204 31.5462 123.134 30.9827C123.067 30.4347 123.088 29.9206 123.197 29.4402C123.31 28.954 123.504 28.5235 123.778 28.1487C124.057 27.7682 124.412 27.457 124.844 27.215C125.276 26.9679 125.773 26.8097 126.337 26.7405C126.952 26.665 127.502 26.7024 127.988 26.8527C128.473 27.0029 128.891 27.2429 129.241 27.5725C129.595 27.8963 129.876 28.3026 130.083 28.7914C130.295 29.2796 130.439 29.8313 130.515 30.4465L124.272 31.2129ZM129.279 29.6773C129.063 28.9009 128.704 28.3468 128.201 28.015C127.699 27.6831 127.114 27.5581 126.447 27.64C126.106 27.6819 125.797 27.7775 125.522 27.9268C125.246 28.0709 125.009 28.26 124.812 28.494C124.615 28.7281 124.46 29.0017 124.346 29.3148C124.232 29.6227 124.175 29.9523 124.177 30.3038L129.279 29.6773ZM139.124 32.6795L138.054 32.8109L137.507 28.3522C137.428 27.706 137.226 27.2217 136.903 26.8992C136.58 26.5768 136.106 26.454 135.481 26.5308C135.088 26.5791 134.742 26.7133 134.444 26.9336C134.151 27.1533 133.912 27.4292 133.727 27.7615C133.542 28.0887 133.413 28.456 133.343 28.8634C133.277 29.2651 133.27 29.6779 133.322 30.1018L133.72 33.3431L132.657 33.4735L131.77 26.2465L132.832 26.1161L133.055 27.9306C133.404 26.5444 134.236 25.7706 135.549 25.6094C137.327 25.3911 138.336 26.2615 138.577 28.2208L139.124 32.6795ZM147.968 29.2558C147.979 30.0259 147.753 30.6675 147.292 31.1808C146.835 31.6882 146.221 31.9892 145.451 32.0838C145.027 32.1358 144.63 32.1136 144.262 32.0172C143.893 31.9208 143.569 31.7638 143.291 31.5461C143.012 31.3284 142.782 31.055 142.6 30.7257C142.422 30.3907 142.308 30.0164 142.257 29.6029L141.807 25.9351L140.171 26.136L140.059 25.2287L141.695 25.0279L141.34 22.1355L142.403 22.0051L142.758 24.8974L145.836 24.5194L145.948 25.4267L142.869 25.8047L143.32 29.4724C143.352 29.7361 143.424 29.9791 143.535 30.2016C143.651 30.4234 143.795 30.613 143.967 30.7704C144.144 30.9271 144.347 31.0438 144.577 31.1206C144.806 31.1921 145.06 31.2108 145.339 31.1765C145.866 31.1118 146.286 30.895 146.597 30.5261C146.913 30.1515 147.065 29.6999 147.053 29.1715L147.968 29.2558ZM173.811 25.4846C173.93 26.4513 173.706 27.2134 173.139 27.771C172.573 28.3285 171.713 28.6781 170.56 28.8196L167.334 29.2157L166.092 19.0964L169.139 18.7222C169.563 18.6702 169.984 18.6553 170.401 18.6775C170.818 18.6945 171.198 18.779 171.542 18.931C171.891 19.0822 172.188 19.3161 172.431 19.6325C172.674 19.9438 172.829 20.3734 172.896 20.9214C173.025 21.9708 172.588 22.7512 171.586 23.2626C172.916 23.4981 173.658 24.2387 173.811 25.4846ZM171.834 21.0518C171.79 20.6951 171.679 20.4122 171.502 20.2032C171.324 19.9941 171.111 19.8445 170.864 19.7541C170.616 19.6586 170.35 19.6073 170.066 19.6002C169.781 19.588 169.509 19.5977 169.251 19.6295L167.266 19.8732L167.687 23.3083L169.673 23.0646C169.962 23.0291 170.244 22.9735 170.518 22.8978C170.791 22.817 171.032 22.701 171.239 22.5496C171.445 22.3931 171.607 22.1948 171.724 21.9547C171.842 21.7146 171.878 21.4137 171.834 21.0518ZM172.748 25.615C172.663 24.9171 172.373 24.4384 171.88 24.179C171.39 23.9137 170.75 23.8296 169.959 23.9267L167.796 24.1923L168.285 28.178L170.449 27.9124C171.24 27.8153 171.84 27.5737 172.249 27.1876C172.663 26.7957 172.829 26.2715 172.748 25.615ZM182.596 23.6975C182.665 24.261 182.638 24.7838 182.513 25.2661C182.394 25.7478 182.187 26.1747 181.891 26.5468C181.6 26.9131 181.234 27.2179 180.791 27.4611C180.349 27.7043 179.841 27.8612 179.267 27.9316C178.703 28.0008 178.178 27.9709 177.69 27.8419C177.201 27.713 176.769 27.5063 176.393 27.2218C176.022 26.9316 175.717 26.5676 175.48 26.1297C175.248 25.6912 175.097 25.1902 175.028 24.6267C174.961 24.0788 174.986 23.5588 175.104 23.0668C175.226 22.569 175.433 22.1343 175.723 21.7628C176.018 21.3856 176.386 21.0753 176.829 20.8321C177.271 20.5837 177.773 20.4249 178.337 20.3557C178.911 20.2853 179.442 20.3171 179.931 20.4512C180.419 20.5802 180.849 20.7924 181.221 21.0878C181.598 21.3774 181.903 21.7492 182.137 22.2032C182.376 22.6514 182.529 23.1495 182.596 23.6975ZM181.534 23.8279C181.483 23.4144 181.374 23.042 181.208 22.7109C181.046 22.374 180.829 22.0883 180.559 21.8538C180.289 21.6194 179.974 21.4481 179.615 21.3401C179.26 21.2315 178.871 21.2032 178.447 21.2552C178.023 21.3073 177.65 21.4292 177.327 21.621C177.01 21.8122 176.751 22.0539 176.55 22.3461C176.35 22.6383 176.209 22.9678 176.129 23.3345C176.052 23.6955 176.039 24.0827 176.09 24.4963C176.141 24.9099 176.247 25.2851 176.409 25.622C176.576 25.9531 176.791 26.2311 177.055 26.4558C177.319 26.6806 177.627 26.8447 177.981 26.9482C178.34 27.051 178.732 27.0764 179.156 27.0244C179.579 26.9723 179.95 26.8533 180.269 26.6673C180.592 26.4807 180.857 26.2461 181.064 25.9636C181.271 25.6811 181.412 25.3594 181.488 24.9984C181.569 24.6316 181.584 24.2415 181.534 23.8279ZM191.265 22.633C191.334 23.1965 191.307 23.7194 191.182 24.2017C191.063 24.6834 190.856 25.1102 190.56 25.4824C190.27 25.8487 189.903 26.1534 189.461 26.3967C189.018 26.6399 188.51 26.7967 187.936 26.8672C187.373 26.9364 186.847 26.9065 186.359 26.7775C185.871 26.6485 185.439 26.4418 185.063 26.1574C184.691 25.8672 184.387 25.5031 184.149 25.0653C183.917 24.6267 183.766 24.1258 183.697 23.5623C183.63 23.0143 183.655 22.4943 183.773 22.0023C183.896 21.5045 184.102 21.0699 184.392 20.6984C184.687 20.3211 185.056 20.0109 185.498 19.7676C185.94 19.5192 186.442 19.3604 187.006 19.2913C187.58 19.2208 188.111 19.2526 188.6 19.3868C189.088 19.5158 189.518 19.728 189.89 20.0234C190.267 20.3129 190.572 20.6847 190.806 21.1388C191.045 21.587 191.198 22.0851 191.265 22.633ZM190.203 22.7635C190.152 22.3499 190.043 21.9776 189.877 21.6464C189.715 21.3095 189.499 21.0238 189.229 20.7894C188.958 20.5549 188.644 20.3837 188.284 20.2757C187.929 20.167 187.54 20.1387 187.116 20.1908C186.693 20.2428 186.319 20.3647 185.996 20.5565C185.679 20.7477 185.42 20.9894 185.22 21.2816C185.019 21.5738 184.879 21.9033 184.798 22.2701C184.721 22.631 184.709 23.0183 184.759 23.4318C184.81 23.8454 184.917 24.2206 185.079 24.5576C185.245 24.8887 185.46 25.1666 185.724 25.3914C185.988 25.6161 186.297 25.7802 186.65 25.8837C187.009 25.9866 187.401 26.012 187.825 25.9599C188.249 25.9079 188.62 25.7889 188.938 25.6028C189.261 25.4162 189.526 25.1816 189.733 24.8991C189.94 24.6166 190.081 24.2949 190.158 23.9339C190.239 23.5672 190.254 23.177 190.203 22.7635ZM200.174 25.1836L198.662 25.3692L195.309 22.4907L194.153 23.8448L194.405 25.8919L193.342 26.0224L192.1 15.903L193.162 15.7726L193.995 22.5576L197.635 18.1594L199.155 17.9728L195.941 21.7362L200.174 25.1836ZM204.902 15.8031L203.459 15.9802L203.281 14.5301L204.724 14.353L204.902 15.8031ZM207.409 24.2952L203.074 24.8275L202.962 23.9202L204.599 23.7193L203.934 18.3068L202.298 18.5077L202.187 17.6005L204.893 17.2682L205.669 23.5879L207.297 23.388L207.409 24.2952ZM217.148 23.0994L216.078 23.2308L215.53 18.7721C215.451 18.1259 215.25 17.6416 214.927 17.3192C214.604 16.9967 214.13 16.8739 213.504 16.9507C213.111 16.999 212.766 17.1332 212.467 17.3535C212.174 17.5732 211.935 17.8492 211.75 18.1815C211.565 18.5086 211.437 18.8759 211.366 19.2834C211.3 19.685 211.293 20.0978 211.345 20.5217L211.743 23.763L210.681 23.8935L209.793 16.6665L210.856 16.536L211.079 18.3505C211.428 16.9643 212.259 16.1906 213.572 16.0294C215.35 15.811 216.36 16.6814 216.6 18.6407L217.148 23.0994ZM225.808 21.9574C225.869 22.4537 225.838 22.9061 225.715 23.3148C225.592 23.7235 225.391 24.0812 225.114 24.3881C224.842 24.6944 224.506 24.943 224.104 25.134C223.708 25.3295 223.254 25.4587 222.743 25.5216C222.024 25.6098 221.395 25.5506 220.855 25.344C220.321 25.1367 219.839 24.8024 219.41 24.3408L220.084 23.6756C220.347 23.9843 220.702 24.2267 221.149 24.4027C221.596 24.5788 222.088 24.6338 222.625 24.5678C223.36 24.4777 223.916 24.2205 224.294 23.7962C224.678 23.3765 224.827 22.8177 224.741 22.1198L224.646 21.3444C224.084 21.9801 223.4 22.3475 222.593 22.4465C221.461 22.5855 220.532 22.3716 219.807 21.8048C219.081 21.2379 218.65 20.3936 218.512 19.2718C218.445 18.7239 218.465 18.2097 218.574 17.7293C218.688 17.2431 218.879 16.8129 219.148 16.4388C219.421 16.0589 219.772 15.7483 220.198 15.507C220.625 15.2605 221.12 15.1026 221.683 15.0334C222.076 14.9852 222.464 15.0083 222.849 15.1029C223.237 15.1916 223.601 15.3542 223.94 15.5907L223.86 14.9394L224.93 14.808L225.808 21.9574ZM224.066 16.622C223.72 16.3235 223.354 16.1218 222.969 16.0169C222.588 15.9114 222.197 15.8834 221.793 15.9329C221.37 15.985 221.004 16.106 220.697 16.2959C220.395 16.4851 220.153 16.722 219.973 17.0065C219.793 17.291 219.668 17.6186 219.598 17.9893C219.533 18.3541 219.525 18.7382 219.574 19.1414C219.676 19.9685 219.971 20.6013 220.461 21.0397C220.95 21.4781 221.624 21.6446 222.482 21.5393C222.885 21.4898 223.258 21.3678 223.602 21.1735C223.95 20.9733 224.255 20.6839 224.519 20.3053L224.066 16.622ZM234.427 18.947C234.479 19.3709 234.416 19.7355 234.238 20.0407C234.061 20.3458 233.814 20.6018 233.498 20.8084C233.188 21.0145 232.83 21.1765 232.425 21.2945C232.025 21.417 231.629 21.5024 231.236 21.5506C230.579 21.6312 229.914 21.6159 229.239 21.5046C228.564 21.3933 227.97 21.2118 227.456 20.96L227.817 19.9869C228.391 20.2576 228.947 20.4516 229.486 20.5691C230.025 20.6865 230.571 20.7113 231.125 20.6434C232.722 20.4472 233.47 19.9356 233.368 19.1085C233.344 18.9069 233.256 18.7523 233.107 18.6447C232.962 18.5314 232.773 18.4496 232.541 18.3993C232.309 18.3439 232.045 18.3107 231.75 18.2997C231.46 18.2881 231.155 18.281 230.834 18.2783C230.424 18.271 230.015 18.253 229.608 18.2243C229.2 18.1956 228.821 18.1241 228.471 18.0096C228.127 17.8945 227.838 17.7201 227.604 17.4864C227.376 17.252 227.236 16.9229 227.184 16.499C227.139 16.1371 227.192 15.8133 227.34 15.5274C227.494 15.2409 227.712 14.991 227.996 14.7778C228.284 14.564 228.63 14.3903 229.034 14.2568C229.437 14.1233 229.861 14.0293 230.306 13.9747C230.942 13.8966 231.519 13.9018 232.039 13.9901C232.559 14.0733 233.037 14.2271 233.473 14.4516L233.149 15.3337C232.7 15.095 232.256 14.9448 231.818 14.8831C231.38 14.8162 230.913 14.8133 230.416 14.8742C230.194 14.9015 229.948 14.9526 229.679 15.0276C229.415 15.0968 229.173 15.1948 228.952 15.3216C228.731 15.4432 228.55 15.5914 228.408 15.7662C228.272 15.9351 228.218 16.1359 228.246 16.3685C228.271 16.5702 228.356 16.7251 228.5 16.8333C228.649 16.9357 228.84 17.0146 229.072 17.07C229.304 17.1202 229.565 17.1512 229.855 17.1628C230.15 17.1738 230.458 17.1806 230.778 17.1832C231.178 17.1918 231.582 17.2105 231.99 17.2391C232.402 17.2672 232.781 17.3362 233.125 17.4461C233.474 17.5554 233.765 17.7269 233.999 17.9606C234.232 18.1943 234.375 18.5231 234.427 18.947Z" fill="white"/>
</g>
<defs>
<filter id="filter0_d_2985_2239" x="136.135" y="51.1348" width="142.367" height="41.5449" filterUnits="userSpaceOnUse" color-interpolation-filters="sRGB">
<feFlood flood-opacity="0" result="BackgroundImageFix"/>
<feColorMatrix in="SourceAlpha" type="matrix" values="0 0 0 0 0 0 0 0 0 0 0 0 0 0 0 0 0 0 127 0" result="hardAlpha"/>
<feOffset dy="4"/>
<feGaussianBlur stdDeviation="2"/>
<feComposite in2="hardAlpha" operator="out"/>
<feColorMatrix type="matrix" values="0 0 0 0 0 0 0 0 0 0 0 0 0 0 0 0 0 0 0.25 0"/>
<feBlend mode="normal" in2="BackgroundImageFix" result="effect1_dropShadow_2985_2239"/>
<feBlend mode="normal" in="SourceGraphic" in2="effect1_dropShadow_2985_2239" result="shape"/>
</filter>
<filter id="filter1_d_2985_2239" x="0.228516" y="0.228516" width="252.761" height="68.9165" filterUnits="userSpaceOnUse" color-interpolation-filters="sRGB">
<feFlood flood-opacity="0" result="BackgroundImageFix"/>
<feColorMatrix in="SourceAlpha" type="matrix" values="0 0 0 0 0 0 0 0 0 0 0 0 0 0 0 0 0 0 127 0" result="hardAlpha"/>
<feOffset dy="4"/>
<feGaussianBlur stdDeviation="2"/>
<feComposite in2="hardAlpha" operator="out"/>
<feColorMatrix type="matrix" values="0 0 0 0 0 0 0 0 0 0 0 0 0 0 0 0 0 0 0.25 0"/>
<feBlend mode="normal" in2="BackgroundImageFix" result="effect1_dropShadow_2985_2239"/>
<feBlend mode="normal" in="SourceGraphic" in2="effect1_dropShadow_2985_2239" result="shape"/>
</filter>
<linearGradient id="paint0_linear_2985_2239" x1="272.415" y1="52.3862" x2="142.606" y2="73.9938" gradientUnits="userSpaceOnUse">
<stop stop-color="#0094FF"/>
<stop offset="1" stop-color="#9E00FF"/>
</linearGradient>
<linearGradient id="paint1_linear_2985_2239" x1="206.671" y1="61.6972" x2="205.813" y2="73.9571" gradientUnits="userSpaceOnUse">
<stop stop-color="#0094FF"/>
<stop offset="1" stop-color="#9E00FF"/>
</linearGradient>
<linearGradient id="paint2_linear_2985_2239" x1="243.813" y1="34.1023" x2="8.32803" y2="60.6014" gradientUnits="userSpaceOnUse">
<stop stop-color="#0094FF"/>
<stop offset="1" stop-color="#9E00FF"/>
</linearGradient>
</defs>
</svg>
