<svg width="397" height="227" viewBox="0 0 397 227" fill="none" xmlns="http://www.w3.org/2000/svg">
<g filter="url(#filter0_d_2956_1798)">
<path d="M382.655 158.469C383.165 157.852 384.166 158.158 384.244 158.954L384.851 165.165C384.884 165.501 385.102 165.79 385.416 165.914L391.219 168.21C391.963 168.504 391.981 169.551 391.248 169.872L385.529 172.368C385.219 172.503 385.011 172.8 384.99 173.137L384.6 179.365C384.55 180.164 383.56 180.505 383.029 179.906L378.887 175.238C378.663 174.986 378.317 174.88 377.99 174.964L371.946 176.518C371.171 176.717 370.541 175.881 370.946 175.19L374.105 169.809C374.276 169.518 374.27 169.156 374.089 168.871L370.744 163.603C370.315 162.927 370.915 162.069 371.697 162.242L377.791 163.583C378.121 163.656 378.463 163.538 378.678 163.278L382.655 158.469Z" fill="url(#paint0_linear_2956_1798)" shape-rendering="crispEdges"/>
</g>
<g filter="url(#filter1_d_2956_1798)">
<path d="M381.022 206.973C381.305 206.63 381.862 206.8 381.905 207.243L382.227 210.541C382.246 210.728 382.367 210.888 382.541 210.957L385.622 212.176C386.036 212.34 386.046 212.922 385.638 213.1L382.602 214.425C382.43 214.5 382.314 214.665 382.303 214.852L382.095 218.16C382.068 218.603 381.518 218.793 381.222 218.46L379.023 215.982C378.899 215.841 378.706 215.782 378.525 215.829L375.315 216.654C374.884 216.765 374.534 216.3 374.759 215.917L376.437 213.059C376.532 212.897 376.529 212.696 376.428 212.538L374.652 209.741C374.413 209.365 374.747 208.889 375.181 208.984L378.417 209.697C378.601 209.737 378.791 209.671 378.91 209.527L381.022 206.973Z" fill="url(#paint1_linear_2956_1798)" shape-rendering="crispEdges"/>
</g>
<g filter="url(#filter2_d_2956_1798)">
<g clip-path="url(#clip0_2956_1798)">
<rect x="20" y="16" width="347" height="185" rx="6" fill="white"/>
<rect x="20" y="16" width="347" height="20" fill="url(#paint2_linear_2956_1798)"/>
<circle cx="70.5" cy="27.5" r="4.5" fill="white"/>
<circle cx="55.5" cy="27.5" r="4.5" fill="white"/>
<circle cx="40.5" cy="27.5" r="4.5" fill="white"/>
<path d="M59.3477 49.2852L60.3047 51.2676C58.5273 52.0879 57.1374 53.0905 56.1348 54.2754C55.1777 55.4147 54.6992 56.7591 54.6992 58.3086C54.6992 58.9922 54.8131 59.5618 55.041 60.0176C55.3145 60.4733 55.6335 60.8835 55.998 61.248C56.3626 61.5671 56.7272 61.9089 57.0918 62.2734C57.4564 62.5924 57.7526 63.0026 57.9805 63.5039C58.2539 63.9596 58.3906 64.5521 58.3906 65.2812C58.3906 66.2839 58.0033 67.1497 57.2285 67.8789C56.4993 68.6081 55.5423 68.9727 54.3574 68.9727C53.5827 68.9727 52.8307 68.7448 52.1016 68.2891C51.3724 67.8333 50.7799 67.1497 50.3242 66.2383C49.9141 65.3268 49.709 64.1647 49.709 62.752C49.709 60.929 50.1191 59.1289 50.9395 57.3516C51.7598 55.5286 52.8991 53.9108 54.3574 52.498C55.8158 51.0853 57.4792 50.0143 59.3477 49.2852ZM46.7695 49.2852L47.7266 51.2676C45.9492 52.0879 44.5592 53.0905 43.5566 54.2754C42.5996 55.4147 42.1211 56.7591 42.1211 58.3086C42.1211 58.9922 42.235 59.5618 42.4629 60.0176C42.7363 60.4733 43.0553 60.8835 43.4199 61.248C43.7845 61.5671 44.1491 61.9089 44.5137 62.2734C44.8783 62.5924 45.1745 63.0026 45.4023 63.5039C45.6758 63.9596 45.8125 64.5521 45.8125 65.2812C45.8125 66.2839 45.4251 67.1497 44.6504 67.8789C43.9212 68.6081 42.9642 68.9727 41.7793 68.9727C41.0046 68.9727 40.2526 68.7448 39.5234 68.2891C38.7943 67.8333 38.2018 67.1497 37.7461 66.2383C37.3359 65.3268 37.1309 64.1647 37.1309 62.752C37.1309 60.929 37.541 59.1289 38.3613 57.3516C39.1816 55.5286 40.321 53.9108 41.7793 52.498C43.2376 51.0853 44.901 50.0143 46.7695 49.2852Z" fill="url(#paint3_linear_2956_1798)"/>
</g>
</g>
<g filter="url(#filter3_d_2956_1798)">
<path d="M363.669 186.998C363.976 186.259 365.024 186.259 365.331 186.998L367.066 191.17C367.196 191.481 367.489 191.694 367.825 191.721L372.329 192.082C373.127 192.146 373.451 193.142 372.843 193.663L369.411 196.602C369.155 196.822 369.043 197.167 369.121 197.495L370.17 201.89C370.355 202.669 369.508 203.284 368.825 202.867L364.969 200.512C364.681 200.336 364.319 200.336 364.031 200.512L360.175 202.867C359.492 203.284 358.645 202.669 358.83 201.89L359.879 197.495C359.957 197.167 359.845 196.822 359.589 196.602L356.157 193.663C355.549 193.142 355.873 192.146 356.671 192.082L361.175 191.721C361.511 191.694 361.804 191.481 361.934 191.17L363.669 186.998Z" fill="url(#paint4_linear_2956_1798)" shape-rendering="crispEdges"/>
</g>
<rect x="339.8" y="22.8" width="7.4" height="7.4" rx="0.9" stroke="white" stroke-width="0.6"/>
<defs>
<filter id="filter0_d_2956_1798" x="366.602" y="158.141" width="29.1855" height="30.0693" filterUnits="userSpaceOnUse" color-interpolation-filters="sRGB">
<feFlood flood-opacity="0" result="BackgroundImageFix"/>
<feColorMatrix in="SourceAlpha" type="matrix" values="0 0 0 0 0 0 0 0 0 0 0 0 0 0 0 0 0 0 127 0" result="hardAlpha"/>
<feOffset dy="4"/>
<feGaussianBlur stdDeviation="2"/>
<feComposite in2="hardAlpha" operator="out"/>
<feColorMatrix type="matrix" values="0 0 0 0 0 0 0 0 0 0.1 0 0 0 0 1 0 0 0 0.45 0"/>
<feBlend mode="normal" in2="BackgroundImageFix" result="effect1_dropShadow_2956_1798"/>
<feBlend mode="normal" in="SourceGraphic" in2="effect1_dropShadow_2956_1798" result="shape"/>
</filter>
<filter id="filter1_d_2956_1798" x="370.572" y="206.791" width="19.3652" height="19.8379" filterUnits="userSpaceOnUse" color-interpolation-filters="sRGB">
<feFlood flood-opacity="0" result="BackgroundImageFix"/>
<feColorMatrix in="SourceAlpha" type="matrix" values="0 0 0 0 0 0 0 0 0 0 0 0 0 0 0 0 0 0 127 0" result="hardAlpha"/>
<feOffset dy="4"/>
<feGaussianBlur stdDeviation="2"/>
<feComposite in2="hardAlpha" operator="out"/>
<feColorMatrix type="matrix" values="0 0 0 0 0.435294 0 0 0 0 0.505569 0 0 0 0 0.87451 0 0 0 0.45 0"/>
<feBlend mode="normal" in2="BackgroundImageFix" result="effect1_dropShadow_2956_1798"/>
<feBlend mode="normal" in="SourceGraphic" in2="effect1_dropShadow_2956_1798" result="shape"/>
</filter>
<filter id="filter2_d_2956_1798" x="0" y="0" width="387" height="225" filterUnits="userSpaceOnUse" color-interpolation-filters="sRGB">
<feFlood flood-opacity="0" result="BackgroundImageFix"/>
<feColorMatrix in="SourceAlpha" type="matrix" values="0 0 0 0 0 0 0 0 0 0 0 0 0 0 0 0 0 0 127 0" result="hardAlpha"/>
<feOffset dy="4"/>
<feGaussianBlur stdDeviation="10"/>
<feComposite in2="hardAlpha" operator="out"/>
<feColorMatrix type="matrix" values="0 0 0 0 0 0 0 0 0 0 0 0 0 0 0 0 0 0 0.38 0"/>
<feBlend mode="normal" in2="BackgroundImageFix" result="effect1_dropShadow_2956_1798"/>
<feBlend mode="normal" in="SourceGraphic" in2="effect1_dropShadow_2956_1798" result="shape"/>
</filter>
<filter id="filter3_d_2956_1798" x="351.842" y="186.443" width="25.3164" height="24.5581" filterUnits="userSpaceOnUse" color-interpolation-filters="sRGB">
<feFlood flood-opacity="0" result="BackgroundImageFix"/>
<feColorMatrix in="SourceAlpha" type="matrix" values="0 0 0 0 0 0 0 0 0 0 0 0 0 0 0 0 0 0 127 0" result="hardAlpha"/>
<feOffset dy="4"/>
<feGaussianBlur stdDeviation="2"/>
<feComposite in2="hardAlpha" operator="out"/>
<feColorMatrix type="matrix" values="0 0 0 0 0.435294 0 0 0 0 0.531922 0 0 0 0 0.87451 0 0 0 0.45 0"/>
<feBlend mode="normal" in2="BackgroundImageFix" result="effect1_dropShadow_2956_1798"/>
<feBlend mode="normal" in="SourceGraphic" in2="effect1_dropShadow_2956_1798" result="shape"/>
</filter>
<linearGradient id="paint0_linear_2956_1798" x1="384.034" y1="156.801" x2="376.432" y2="181.665" gradientUnits="userSpaceOnUse">
<stop stop-color="#0094FF" stop-opacity="0.619608"/>
<stop offset="1" stop-color="#9E00FF"/>
</linearGradient>
<linearGradient id="paint1_linear_2956_1798" x1="381.788" y1="206.047" x2="377.695" y2="219.435" gradientUnits="userSpaceOnUse">
<stop stop-color="#0094FF" stop-opacity="0.619608"/>
<stop offset="1" stop-color="#9E00FF"/>
</linearGradient>
<linearGradient id="paint2_linear_2956_1798" x1="-9" y1="56" x2="356.5" y2="16" gradientUnits="userSpaceOnUse">
<stop stop-color="#0094FF"/>
<stop offset="1" stop-color="#9E00FF"/>
</linearGradient>
<linearGradient id="paint3_linear_2956_1798" x1="48" y1="61" x2="48" y2="86" gradientUnits="userSpaceOnUse">
<stop stop-color="#0094FF" stop-opacity="0.619608"/>
<stop offset="1" stop-color="#9E00FF"/>
</linearGradient>
<linearGradient id="paint4_linear_2956_1798" x1="364.5" y1="185" x2="364.5" y2="206" gradientUnits="userSpaceOnUse">
<stop stop-color="#0094FF" stop-opacity="0.619608"/>
<stop offset="1" stop-color="#9E00FF"/>
</linearGradient>
<clipPath id="clip0_2956_1798">
<rect x="20" y="16" width="347" height="185" rx="6" fill="white"/>
</clipPath>
</defs>
</svg>
