<svg width="573" height="229" viewBox="0 0 573 229" fill="none" xmlns="http://www.w3.org/2000/svg">
<g filter="url(#filter0_d_2974_1141)">
<path d="M558.655 160.469C559.165 159.852 560.166 160.158 560.244 160.954L560.851 167.165C560.884 167.501 561.102 167.79 561.416 167.914L567.219 170.21C567.963 170.504 567.981 171.551 567.248 171.872L561.529 174.368C561.219 174.503 561.011 174.8 560.99 175.137L560.6 181.365C560.55 182.164 559.56 182.505 559.029 181.906L554.887 177.238C554.663 176.986 554.317 176.88 553.99 176.964L547.946 178.518C547.171 178.717 546.541 177.881 546.946 177.19L550.105 171.809C550.276 171.518 550.27 171.156 550.089 170.871L546.744 165.603C546.315 164.927 546.915 164.069 547.697 164.242L553.791 165.583C554.121 165.656 554.463 165.538 554.678 165.278L558.655 160.469Z" fill="url(#paint0_linear_2974_1141)" shape-rendering="crispEdges"/>
</g>
<g filter="url(#filter1_d_2974_1141)">
<path d="M557.021 208.973C557.304 208.63 557.861 208.8 557.904 209.243L558.226 212.541C558.245 212.728 558.366 212.888 558.54 212.957L561.621 214.176C562.035 214.34 562.045 214.922 561.638 215.1L558.601 216.425C558.429 216.5 558.313 216.665 558.302 216.852L558.094 220.16C558.067 220.603 557.517 220.793 557.221 220.46L555.022 217.982C554.898 217.841 554.705 217.782 554.524 217.829L551.314 218.654C550.883 218.765 550.533 218.3 550.758 217.917L552.436 215.059C552.531 214.897 552.528 214.696 552.427 214.538L550.651 211.741C550.412 211.365 550.746 210.889 551.18 210.984L554.417 211.697C554.6 211.737 554.79 211.671 554.909 211.527L557.021 208.973Z" fill="url(#paint1_linear_2974_1141)" shape-rendering="crispEdges"/>
</g>
<g filter="url(#filter2_d_2974_1141)">
<g clip-path="url(#clip0_2974_1141)">
<rect x="20" y="16" width="523" height="185" rx="6" fill="white"/>
<rect x="20" y="16" width="523" height="20" fill="url(#paint2_linear_2974_1141)"/>
<circle cx="70.5" cy="27.5" r="4.5" fill="white"/>
<circle cx="55.5" cy="27.5" r="4.5" fill="white"/>
<circle cx="40.5" cy="27.5" r="4.5" fill="white"/>
<path d="M65.2109 53.8359L66.5781 56.668C64.0391 57.8398 62.0534 59.2721 60.6211 60.9648C59.2539 62.5924 58.5703 64.513 58.5703 66.7266C58.5703 67.7031 58.7331 68.5169 59.0586 69.168C59.4492 69.819 59.9049 70.4049 60.4258 70.9258C60.9466 71.3815 61.4674 71.8698 61.9883 72.3906C62.5091 72.8464 62.9323 73.4323 63.2578 74.1484C63.6484 74.7995 63.8437 75.6458 63.8437 76.6875C63.8437 78.1198 63.2904 79.3568 62.1836 80.3984C61.1419 81.4401 59.7747 81.9609 58.082 81.9609C56.9753 81.9609 55.901 81.6354 54.8594 80.9844C53.8177 80.3333 52.9714 79.3568 52.3203 78.0547C51.7344 76.7526 51.4414 75.0924 51.4414 73.0742C51.4414 70.4701 52.0273 67.8984 53.1992 65.3594C54.3711 62.7552 55.9987 60.444 58.082 58.4258C60.1654 56.4076 62.5417 54.8776 65.2109 53.8359ZM47.2422 53.8359L48.6094 56.668C46.0703 57.8398 44.0846 59.2721 42.6523 60.9648C41.2852 62.5924 40.6016 64.513 40.6016 66.7266C40.6016 67.7031 40.7643 68.5169 41.0898 69.168C41.4805 69.819 41.9362 70.4049 42.457 70.9258C42.9779 71.3815 43.4987 71.8698 44.0195 72.3906C44.5404 72.8464 44.9635 73.4323 45.2891 74.1484C45.6797 74.7995 45.875 75.6458 45.875 76.6875C45.875 78.1198 45.3216 79.3568 44.2148 80.3984C43.1732 81.4401 41.806 81.9609 40.1133 81.9609C39.0065 81.9609 37.9323 81.6354 36.8906 80.9844C35.849 80.3333 35.0026 79.3568 34.3516 78.0547C33.7656 76.7526 33.4727 75.0924 33.4727 73.0742C33.4727 70.4701 34.0586 67.8984 35.2305 65.3594C36.4023 62.7552 38.0299 60.444 40.1133 58.4258C42.1966 56.4076 44.5729 54.8776 47.2422 53.8359Z" fill="url(#paint3_linear_2974_1141)"/>
</g>
</g>
<g filter="url(#filter3_d_2974_1141)">
<path d="M539.669 188.998C539.976 188.259 541.024 188.259 541.331 188.998L543.066 193.17C543.196 193.481 543.489 193.694 543.825 193.721L548.329 194.082C549.127 194.146 549.451 195.142 548.843 195.663L545.411 198.602C545.155 198.822 545.043 199.167 545.121 199.495L546.17 203.89C546.355 204.669 545.508 205.284 544.825 204.867L540.969 202.512C540.681 202.336 540.319 202.336 540.031 202.512L536.175 204.867C535.492 205.284 534.645 204.669 534.83 203.89L535.879 199.495C535.957 199.167 535.845 198.822 535.589 198.602L532.157 195.663C531.549 195.142 531.873 194.146 532.671 194.082L537.175 193.721C537.511 193.694 537.804 193.481 537.934 193.17L539.669 188.998Z" fill="url(#paint4_linear_2974_1141)" shape-rendering="crispEdges"/>
</g>
<rect x="522.5" y="22.5" width="7" height="7" rx="0.7" stroke="white"/>
<defs>
<filter id="filter0_d_2974_1141" x="542.601" y="160.141" width="29.1865" height="30.0693" filterUnits="userSpaceOnUse" color-interpolation-filters="sRGB">
<feFlood flood-opacity="0" result="BackgroundImageFix"/>
<feColorMatrix in="SourceAlpha" type="matrix" values="0 0 0 0 0 0 0 0 0 0 0 0 0 0 0 0 0 0 127 0" result="hardAlpha"/>
<feOffset dy="4"/>
<feGaussianBlur stdDeviation="2"/>
<feComposite in2="hardAlpha" operator="out"/>
<feColorMatrix type="matrix" values="0 0 0 0 0 0 0 0 0 0.1 0 0 0 0 1 0 0 0 0.45 0"/>
<feBlend mode="normal" in2="BackgroundImageFix" result="effect1_dropShadow_2974_1141"/>
<feBlend mode="normal" in="SourceGraphic" in2="effect1_dropShadow_2974_1141" result="shape"/>
</filter>
<filter id="filter1_d_2974_1141" x="546.571" y="208.791" width="19.3662" height="19.8379" filterUnits="userSpaceOnUse" color-interpolation-filters="sRGB">
<feFlood flood-opacity="0" result="BackgroundImageFix"/>
<feColorMatrix in="SourceAlpha" type="matrix" values="0 0 0 0 0 0 0 0 0 0 0 0 0 0 0 0 0 0 127 0" result="hardAlpha"/>
<feOffset dy="4"/>
<feGaussianBlur stdDeviation="2"/>
<feComposite in2="hardAlpha" operator="out"/>
<feColorMatrix type="matrix" values="0 0 0 0 0.435294 0 0 0 0 0.505569 0 0 0 0 0.87451 0 0 0 0.45 0"/>
<feBlend mode="normal" in2="BackgroundImageFix" result="effect1_dropShadow_2974_1141"/>
<feBlend mode="normal" in="SourceGraphic" in2="effect1_dropShadow_2974_1141" result="shape"/>
</filter>
<filter id="filter2_d_2974_1141" x="0" y="0" width="563" height="225" filterUnits="userSpaceOnUse" color-interpolation-filters="sRGB">
<feFlood flood-opacity="0" result="BackgroundImageFix"/>
<feColorMatrix in="SourceAlpha" type="matrix" values="0 0 0 0 0 0 0 0 0 0 0 0 0 0 0 0 0 0 127 0" result="hardAlpha"/>
<feOffset dy="4"/>
<feGaussianBlur stdDeviation="10"/>
<feComposite in2="hardAlpha" operator="out"/>
<feColorMatrix type="matrix" values="0 0 0 0 0 0 0 0 0 0 0 0 0 0 0 0 0 0 0.38 0"/>
<feBlend mode="normal" in2="BackgroundImageFix" result="effect1_dropShadow_2974_1141"/>
<feBlend mode="normal" in="SourceGraphic" in2="effect1_dropShadow_2974_1141" result="shape"/>
</filter>
<filter id="filter3_d_2974_1141" x="527.842" y="188.443" width="25.3164" height="24.5581" filterUnits="userSpaceOnUse" color-interpolation-filters="sRGB">
<feFlood flood-opacity="0" result="BackgroundImageFix"/>
<feColorMatrix in="SourceAlpha" type="matrix" values="0 0 0 0 0 0 0 0 0 0 0 0 0 0 0 0 0 0 127 0" result="hardAlpha"/>
<feOffset dy="4"/>
<feGaussianBlur stdDeviation="2"/>
<feComposite in2="hardAlpha" operator="out"/>
<feColorMatrix type="matrix" values="0 0 0 0 0.435294 0 0 0 0 0.531922 0 0 0 0 0.87451 0 0 0 0.45 0"/>
<feBlend mode="normal" in2="BackgroundImageFix" result="effect1_dropShadow_2974_1141"/>
<feBlend mode="normal" in="SourceGraphic" in2="effect1_dropShadow_2974_1141" result="shape"/>
</filter>
<linearGradient id="paint0_linear_2974_1141" x1="560.034" y1="158.801" x2="552.432" y2="183.665" gradientUnits="userSpaceOnUse">
<stop stop-color="#0094FF" stop-opacity="0.619608"/>
<stop offset="1" stop-color="#9E00FF"/>
</linearGradient>
<linearGradient id="paint1_linear_2974_1141" x1="557.787" y1="208.047" x2="553.694" y2="221.435" gradientUnits="userSpaceOnUse">
<stop stop-color="#0094FF" stop-opacity="0.619608"/>
<stop offset="1" stop-color="#9E00FF"/>
</linearGradient>
<linearGradient id="paint2_linear_2974_1141" x1="-23.7089" y1="56" x2="519.006" y2="-33.5193" gradientUnits="userSpaceOnUse">
<stop stop-color="#0094FF"/>
<stop offset="1" stop-color="#9E00FF"/>
</linearGradient>
<linearGradient id="paint3_linear_2974_1141" x1="49" y1="75" x2="49" y2="100" gradientUnits="userSpaceOnUse">
<stop stop-color="#0094FF" stop-opacity="0.619608"/>
<stop offset="1" stop-color="#9E00FF"/>
</linearGradient>
<linearGradient id="paint4_linear_2974_1141" x1="540.5" y1="187" x2="540.5" y2="208" gradientUnits="userSpaceOnUse">
<stop stop-color="#0094FF" stop-opacity="0.619608"/>
<stop offset="1" stop-color="#9E00FF"/>
</linearGradient>
<clipPath id="clip0_2974_1141">
<rect x="20" y="16" width="523" height="185" rx="6" fill="white"/>
</clipPath>
</defs>
</svg>
