<svg width="108" height="48" viewBox="0 0 108 48" fill="none" xmlns="http://www.w3.org/2000/svg">
<g filter="url(#filter0_d_2706_1100)">
<path d="M4 10C5.89376 14.0734 16.9052 16.1587 54 17.5004C86.8684 16.5623 98.1515 14.9533 104 10L92.0005 34C64.4881 41.1503 47.7548 41.5021 15.0005 34L4 10Z" fill="#CD0000"/>
<path d="M15.0005 16.25L27.0005 18.5L32.5005 37.5L21.5005 35.5L15.0005 16.25Z" fill="white"/>
<path d="M91.5 15L79 16.5L74.0005 38L81.0005 36.5997L85.0005 35.8L91.5 15Z" fill="white"/>
<ellipse cx="54.0005" cy="10" rx="50" ry="10" fill="url(#paint0_linear_2706_1100)"/>
</g>
<path d="M52.9716 25.2727V34H51.9148V26.3807H51.8636L49.733 27.7955V26.7216L51.9148 25.2727H52.9716Z" fill="white"/>
<defs>
<filter id="filter0_d_2706_1100" x="0" y="0" width="108" height="47.4951" filterUnits="userSpaceOnUse" color-interpolation-filters="sRGB">
<feFlood flood-opacity="0" result="BackgroundImageFix"/>
<feColorMatrix in="SourceAlpha" type="matrix" values="0 0 0 0 0 0 0 0 0 0 0 0 0 0 0 0 0 0 127 0" result="hardAlpha"/>
<feOffset dy="4"/>
<feGaussianBlur stdDeviation="2"/>
<feComposite in2="hardAlpha" operator="out"/>
<feColorMatrix type="matrix" values="0 0 0 0 1 0 0 0 0 1 0 0 0 0 1 0 0 0 0.25 0"/>
<feBlend mode="normal" in2="BackgroundImageFix" result="effect1_dropShadow_2706_1100"/>
<feBlend mode="normal" in="SourceGraphic" in2="effect1_dropShadow_2706_1100" result="shape"/>
</filter>
<linearGradient id="paint0_linear_2706_1100" x1="17.5" y1="9.99999" x2="108" y2="11.5" gradientUnits="userSpaceOnUse">
<stop stop-color="#9C0000"/>
<stop offset="1"/>
</linearGradient>
</defs>
</svg>
