<svg width="72" height="36" viewBox="0 0 72 36" fill="none" xmlns="http://www.w3.org/2000/svg">
<g filter="url(#filter0_d_2706_1104)">
<path d="M4 7.08984C5.212 9.97763 12.2592 11.456 35.9998 12.4072C57.0354 11.7421 64.2566 10.6015 67.9996 7.08984L60.32 24.1044C42.7122 29.1735 32.0029 29.4229 11.0403 24.1044L4 7.08984Z" fill="#41CD00"/>
<ellipse cx="36.0003" cy="7.08939" rx="31.9998" ry="7.08939" fill="#329C00"/>
<path d="M13 12L20.68 13.5951L24.1999 27.065L17.16 25.6471L13 12Z" fill="#F4F6DE"/>
<path d="M59.5986 11.8398L51.9187 13.3121L48.8003 26.9401L53.2802 25.9474L55.8402 25.3804L59.5986 11.8398Z" fill="#F4F6DE"/>
</g>
<path d="M34.8523 26.1193C34.2898 26.1193 33.7884 26.0227 33.348 25.8295C32.9105 25.6364 32.5625 25.3679 32.304 25.0241C32.0483 24.6776 31.9091 24.2756 31.8864 23.8182H32.9602C32.983 24.0994 33.0795 24.3423 33.25 24.5469C33.4205 24.7486 33.6435 24.9048 33.919 25.0156C34.1946 25.1264 34.5 25.1818 34.8352 25.1818C35.2102 25.1818 35.5426 25.1165 35.8324 24.9858C36.1222 24.8551 36.3494 24.6733 36.5142 24.4403C36.679 24.2074 36.7614 23.9375 36.7614 23.6307C36.7614 23.3097 36.6818 23.027 36.5227 22.7827C36.3636 22.5355 36.1307 22.3423 35.8239 22.2031C35.517 22.0639 35.142 21.9943 34.6989 21.9943H34V21.0568H34.6989C35.0455 21.0568 35.3494 20.9943 35.6108 20.8693C35.875 20.7443 36.081 20.5682 36.2287 20.3409C36.3793 20.1136 36.4545 19.8466 36.4545 19.5398C36.4545 19.2443 36.3892 18.9872 36.2585 18.7685C36.1278 18.5497 35.9432 18.3793 35.7045 18.2571C35.4688 18.1349 35.1903 18.0739 34.8693 18.0739C34.5682 18.0739 34.2841 18.1293 34.017 18.2401C33.7528 18.348 33.5369 18.5057 33.3693 18.7131C33.2017 18.9176 33.1108 19.1648 33.0966 19.4545H32.0739C32.0909 18.9972 32.2287 18.5966 32.4872 18.2528C32.7457 17.9062 33.0838 17.6364 33.5014 17.4432C33.9219 17.25 34.3835 17.1534 34.8864 17.1534C35.4261 17.1534 35.8892 17.2628 36.2756 17.4815C36.6619 17.6974 36.9588 17.983 37.1662 18.3381C37.3736 18.6932 37.4773 19.0767 37.4773 19.4886C37.4773 19.9801 37.348 20.3991 37.0895 20.7457C36.8338 21.0923 36.4858 21.3324 36.0455 21.4659V21.5341C36.5966 21.625 37.027 21.8594 37.3366 22.2372C37.6463 22.6122 37.8011 23.0767 37.8011 23.6307C37.8011 24.1051 37.6719 24.5312 37.4134 24.9091C37.1577 25.2841 36.8082 25.5795 36.3651 25.7955C35.9219 26.0114 35.4176 26.1193 34.8523 26.1193Z" fill="white"/>
<defs>
<filter id="filter0_d_2706_1104" x="0" y="0" width="72" height="36" filterUnits="userSpaceOnUse" color-interpolation-filters="sRGB">
<feFlood flood-opacity="0" result="BackgroundImageFix"/>
<feColorMatrix in="SourceAlpha" type="matrix" values="0 0 0 0 0 0 0 0 0 0 0 0 0 0 0 0 0 0 127 0" result="hardAlpha"/>
<feOffset dy="4"/>
<feGaussianBlur stdDeviation="2"/>
<feComposite in2="hardAlpha" operator="out"/>
<feColorMatrix type="matrix" values="0 0 0 0 1 0 0 0 0 1 0 0 0 0 1 0 0 0 0.25 0"/>
<feBlend mode="normal" in2="BackgroundImageFix" result="effect1_dropShadow_2706_1104"/>
<feBlend mode="normal" in="SourceGraphic" in2="effect1_dropShadow_2706_1104" result="shape"/>
</filter>
</defs>
</svg>
