<svg width="47" height="37" viewBox="0 0 47 37" fill="none" xmlns="http://www.w3.org/2000/svg">
<g filter="url(#filter0_d_2709_1109)">
<path d="M4 7.08887C4.73856 9.97673 9.03295 11.4551 23.4998 12.4063C36.3183 11.7413 40.7186 10.6006 42.9995 7.08887L33.5 25.5C23 29.5 23.4998 29.5 11 25.5L4 7.08887Z" fill="#1AC9F0"/>
<ellipse cx="23.5003" cy="7.08959" rx="19.4998" ry="7.08959" fill="#2362AE"/>
<path d="M9.70752 12L14.3875 13.6115L16.5324 27.22L12.2425 25.7875L9.70752 12Z" fill="#66BFE0"/>
<path d="M35.3457 12.5L30.5951 13.7252L28 27.5L30.7624 26.3865L32.3499 25.9019L35.3457 12.5Z" fill="#66BFE0"/>
</g>
<path d="M22.6307 24.1193C22.1307 24.1193 21.6804 24.0199 21.2798 23.821C20.8793 23.6222 20.5582 23.3494 20.3168 23.0028C20.0753 22.6562 19.9432 22.2614 19.9205 21.8182H20.9432C20.983 22.2131 21.1619 22.5398 21.4801 22.7983C21.8011 23.054 22.1847 23.1818 22.6307 23.1818C22.9886 23.1818 23.3068 23.098 23.5852 22.9304C23.8665 22.7628 24.0866 22.5327 24.2457 22.2401C24.4077 21.9446 24.4886 21.6108 24.4886 21.2386C24.4886 20.858 24.4048 20.5185 24.2372 20.2202C24.0724 19.919 23.8452 19.6818 23.5554 19.5085C23.2656 19.3352 22.9347 19.2472 22.5625 19.2443C22.2955 19.2415 22.0213 19.2827 21.7401 19.3679C21.4588 19.4503 21.2273 19.5568 21.0455 19.6875L20.0568 19.5682L20.5852 15.2727H25.1193V16.2102H21.4716L21.1648 18.7841H21.2159C21.3949 18.642 21.6193 18.5241 21.8892 18.4304C22.1591 18.3366 22.4403 18.2898 22.733 18.2898C23.267 18.2898 23.7429 18.4176 24.1605 18.6733C24.581 18.9261 24.9105 19.2727 25.1491 19.7131C25.3906 20.1534 25.5114 20.6562 25.5114 21.2216C25.5114 21.7784 25.3864 22.2756 25.1364 22.7131C24.8892 23.1477 24.5483 23.4915 24.1136 23.7443C23.679 23.9943 23.1847 24.1193 22.6307 24.1193Z" fill="white"/>
<defs>
<filter id="filter0_d_2709_1109" x="0" y="0" width="47" height="36.5" filterUnits="userSpaceOnUse" color-interpolation-filters="sRGB">
<feFlood flood-opacity="0" result="BackgroundImageFix"/>
<feColorMatrix in="SourceAlpha" type="matrix" values="0 0 0 0 0 0 0 0 0 0 0 0 0 0 0 0 0 0 127 0" result="hardAlpha"/>
<feOffset dy="4"/>
<feGaussianBlur stdDeviation="2"/>
<feComposite in2="hardAlpha" operator="out"/>
<feColorMatrix type="matrix" values="0 0 0 0 1 0 0 0 0 1 0 0 0 0 1 0 0 0 0.25 0"/>
<feBlend mode="normal" in2="BackgroundImageFix" result="effect1_dropShadow_2709_1109"/>
<feBlend mode="normal" in="SourceGraphic" in2="effect1_dropShadow_2709_1109" result="shape"/>
</filter>
</defs>
</svg>
