<svg width="34" height="35" viewBox="0 0 34 35" fill="none" xmlns="http://www.w3.org/2000/svg">
<g filter="url(#filter0_d_2706_1107)">
<path d="M4.14404 5.23242C4.61741 7.17435 7.61955 8.28431 16.8919 8.92396C25.1078 8.47673 27.6789 7.59386 29.1408 5.23242L18 24.5C16.356 27.5 15.5713 26.8256 14.5 24.5L4.14404 5.23242Z" fill="#9231B9"/>
<ellipse cx="16.5021" cy="4.76736" rx="12.4982" ry="4.76736" fill="#532666"/>
<path d="M6.75244 7.74707L9.75201 8.81973L16.1412 25.0003L14.7128 23.2561L6.75244 7.74707Z" fill="#7E4893"/>
<path d="M25.9259 7.91893L22.9264 8.90894L19.7112 17.0245L16.6198 24.8417L18.2841 23.2554L25.9259 7.91893Z" fill="#7E4893"/>
</g>
<g filter="url(#filter1_d_2706_1107)">
<path d="M16.8011 19.1193C16.4432 19.1136 16.0852 19.0455 15.7273 18.9148C15.3693 18.7841 15.0426 18.5639 14.7472 18.2543C14.4517 17.9418 14.2145 17.5199 14.0355 16.9886C13.8565 16.4545 13.767 15.7841 13.767 14.9773C13.767 14.2045 13.8395 13.5199 13.9844 12.9233C14.1293 12.3239 14.3395 11.8196 14.6151 11.4105C14.8906 10.9986 15.223 10.6861 15.6122 10.473C16.0043 10.2599 16.446 10.1534 16.9375 10.1534C17.4261 10.1534 17.8608 10.2514 18.2415 10.4474C18.625 10.6406 18.9375 10.9105 19.179 11.2571C19.4205 11.6037 19.5767 12.0028 19.6477 12.4545H18.608C18.5114 12.0625 18.3239 11.7372 18.0455 11.4787C17.767 11.2202 17.3977 11.0909 16.9375 11.0909C16.2614 11.0909 15.7287 11.3849 15.3395 11.973C14.9531 12.5611 14.7585 13.3864 14.7557 14.4489H14.8239C14.983 14.2074 15.1719 14.0014 15.3906 13.831C15.6122 13.6577 15.8565 13.5241 16.1236 13.4304C16.3906 13.3366 16.6733 13.2898 16.9716 13.2898C17.4716 13.2898 17.929 13.4148 18.3438 13.6648C18.7585 13.9119 19.0909 14.2543 19.3409 14.6918C19.5909 15.1264 19.7159 15.625 19.7159 16.1875C19.7159 16.7273 19.5952 17.2216 19.3537 17.6705C19.1122 18.1165 18.7727 18.4716 18.3352 18.7358C17.9006 18.9972 17.3892 19.125 16.8011 19.1193ZM16.8011 18.1818C17.1591 18.1818 17.4801 18.0923 17.7642 17.9134C18.0511 17.7344 18.277 17.4943 18.4418 17.1932C18.6094 16.892 18.6932 16.5568 18.6932 16.1875C18.6932 15.8267 18.6122 15.4986 18.4503 15.2031C18.2912 14.9048 18.071 14.6676 17.7898 14.4915C17.5114 14.3153 17.1932 14.2273 16.8352 14.2273C16.5653 14.2273 16.3139 14.2812 16.081 14.3892C15.848 14.4943 15.6435 14.6392 15.4673 14.8239C15.294 15.0085 15.1577 15.2202 15.0582 15.4588C14.9588 15.6946 14.9091 15.9432 14.9091 16.2045C14.9091 16.5511 14.9901 16.875 15.152 17.1761C15.3168 17.4773 15.5412 17.7202 15.8253 17.9048C16.1122 18.0895 16.4375 18.1818 16.8011 18.1818Z" fill="white"/>
</g>
<defs>
<filter id="filter0_d_2706_1107" x="0.00390625" y="0" width="33.1367" height="34.5049" filterUnits="userSpaceOnUse" color-interpolation-filters="sRGB">
<feFlood flood-opacity="0" result="BackgroundImageFix"/>
<feColorMatrix in="SourceAlpha" type="matrix" values="0 0 0 0 0 0 0 0 0 0 0 0 0 0 0 0 0 0 127 0" result="hardAlpha"/>
<feOffset dy="4"/>
<feGaussianBlur stdDeviation="2"/>
<feComposite in2="hardAlpha" operator="out"/>
<feColorMatrix type="matrix" values="0 0 0 0 1 0 0 0 0 1 0 0 0 0 1 0 0 0 0.25 0"/>
<feBlend mode="normal" in2="BackgroundImageFix" result="effect1_dropShadow_2706_1107"/>
<feBlend mode="normal" in="SourceGraphic" in2="effect1_dropShadow_2706_1107" result="shape"/>
</filter>
<filter id="filter1_d_2706_1107" x="9.76709" y="10.1533" width="13.9487" height="16.9746" filterUnits="userSpaceOnUse" color-interpolation-filters="sRGB">
<feFlood flood-opacity="0" result="BackgroundImageFix"/>
<feColorMatrix in="SourceAlpha" type="matrix" values="0 0 0 0 0 0 0 0 0 0 0 0 0 0 0 0 0 0 127 0" result="hardAlpha"/>
<feOffset dy="4"/>
<feGaussianBlur stdDeviation="2"/>
<feComposite in2="hardAlpha" operator="out"/>
<feColorMatrix type="matrix" values="0 0 0 0 1 0 0 0 0 1 0 0 0 0 1 0 0 0 0.25 0"/>
<feBlend mode="normal" in2="BackgroundImageFix" result="effect1_dropShadow_2706_1107"/>
<feBlend mode="normal" in="SourceGraphic" in2="effect1_dropShadow_2706_1107" result="shape"/>
</filter>
</defs>
</svg>
